<svg width="210" height="200" viewBox="0 0 210 200" fill="none" xmlns="http://www.w3.org/2000/svg">
<circle cx="100" cy="100" r="100" transform="translate(5)" fill="#FFE3EC"/>
<path d="M84.301 76.697H-1.5564e-06L77.572 -7.08008e-06L149.474 2.452L84.301 76.697Z" transform="translate(59.8965 100)" fill="#6BDBDB"/>
<path d="M49.5 111L0 43L4.5 35L75 0L120 49.5H192V56.5L139.5 111H49.5Z" transform="translate(1.98828 38.6758)" fill="white"/>
<path d="M5.8373 1.515L4.4443 4.015L3.7483 5.265L3.5743 5.578L3.4873 5.734C3.4673 5.769 3.5783 5.566 3.5223 5.671L3.5033 5.712L3.4653 5.793L3.3213 6.107C3.3213 6.147 3.3153 6.182 3.3033 6.216C3.2123 6.622 3.2813 7.061 3.6573 7.711C4.0123 8.339 4.5863 9.045 5.1753 9.778C6.4543 11.343 7.5053 12.901 8.6493 14.434L12.0213 19.056L25.5623 37.491C30.0843 43.624 34.6393 49.733 39.2803 55.754C41.6013 58.762 43.9453 61.752 46.3383 64.67C47.5353 66.126 48.7463 67.567 49.9773 68.947C50.5933 69.633 51.2083 70.312 51.8223 70.929C52.1283 71.241 52.4353 71.53 52.7133 71.769C52.8473 71.886 52.9863 71.993 53.0643 72.047L53.1133 72.08C53.1363 72.098 53.1463 72.104 53.1103 72.079C53.0873 72.065 53.0623 72.054 53.0363 72.048C52.9673 72.024 53.1633 72.094 52.8753 71.995L52.9183 72.008L53.0043 72.034L53.1733 72.085L53.2153 72.084L53.3663 72.108C53.5483 72.138 53.7413 72.167 53.9583 72.191C54.3743 72.243 54.8243 72.285 55.2753 72.322C56.1813 72.395 57.1093 72.452 58.0453 72.496C59.9143 72.588 61.8063 72.644 63.6993 72.69C67.4873 72.779 71.2903 72.819 75.0953 72.839C82.7063 72.878 90.3273 72.841 97.9493 72.777L120.82 72.538L132.255 72.398L137.936 72.314C138.23 72.285 138.124 72.296 138.409 72.203C138.632 72.116 138.904 71.972 139.183 71.79C139.729 71.44 140.369 70.868 140.75 70.424L140.848 70.309L140.897 70.26C145.11 66.023 149.286 61.75 153.529 57.543L166.226 44.89C170.451 40.665 174.691 36.454 178.973 32.286C183.243 28.105 187.501 23.913 191.817 19.776L191.39 20.824V13.951H194.39V20.824V21.405L193.963 21.872C189.93 26.284 185.84 30.641 181.761 35.009C177.695 39.39 173.587 43.728 169.463 48.052L157.114 61.046C153.008 65.388 148.836 69.664 144.7 73.976L144.847 73.813C143.988 74.819 143.187 75.524 142.15 76.238C141.635 76.583 141.071 76.907 140.409 77.178C139.812 77.445 138.767 77.686 138.106 77.689L132.343 77.822L120.889 78.015C117.071 78.066 113.253 78.14 109.435 78.155L97.9783 78.208C90.3393 78.226 82.6993 78.217 75.0493 78.132C71.2243 78.088 67.3973 78.026 63.5573 77.912C61.6363 77.853 59.7143 77.785 57.7733 77.678C56.8033 77.626 55.8283 77.561 54.8333 77.475C54.3343 77.431 53.8343 77.383 53.3043 77.313C53.0473 77.282 52.7683 77.24 52.4803 77.19C52.3673 77.174 52.1323 77.125 51.9293 77.077L51.6213 77.001L51.4483 76.948L51.3633 76.922L51.3203 76.909C51.0053 76.797 51.1753 76.853 51.0793 76.816L50.6853 76.625C50.5393 76.551 50.4493 76.493 50.3743 76.443L50.1263 76.277C49.8143 76.057 49.5813 75.864 49.3553 75.669C48.9133 75.283 48.5303 74.912 48.1693 74.542C47.4453 73.8 46.7773 73.066 46.1333 72.32C44.8513 70.829 43.6343 69.325 42.4353 67.812C40.0443 64.785 37.7343 61.726 35.4493 58.651C30.8843 52.5 26.4283 46.291 22.0053 40.059C17.5693 33.838 13.2533 27.535 8.9283 21.243L5.6933 16.519C4.6043 14.96 3.5593 13.323 2.4613 11.901C1.8863 11.127 1.2503 10.343 0.702297 9.286C0.436297 8.756 0.177298 8.165 0.0642976 7.456C-0.0527024 6.748 -0.0127025 6 0.206298 5.28C0.270298 5.088 0.341298 4.898 0.417298 4.712L0.585298 4.382L0.723298 4.121L0.816298 3.968L1.0033 3.663L1.7503 2.442L3.2433 1.2207e-07L5.8373 1.515Z" transform="translate(0.628906 74.5977)" fill="#231F20"/>
<path d="M1.14441e-07 0.155003C0.0170001 0.103003 0.0359999 0.0519964 0.0559999 -3.60107e-06L1.14441e-07 0.155003Z" transform="translate(5.16992 75.2031)" fill="white"/>
<path d="M1.14441e-07 0.155003C0.0170001 0.103003 0.0359999 0.0519964 0.0559999 -3.60107e-06" transform="translate(5.16992 75.2031)" stroke="#231F20" stroke-miterlimit="10"/>
<path d="M4.95911e-08 0.100001C0.01 0.0670013 0.0210001 0.0330028 0.0320001 2.80762e-06L4.95911e-08 0.100001Z" transform="translate(5.13867 75.3594)" fill="white"/>
<path d="M4.95911e-08 0.100001C0.01 0.0670013 0.0210001 0.0330028 0.0320001 2.80762e-06" transform="translate(5.13867 75.3594)" stroke="#231F20" stroke-miterlimit="10"/>
<path d="M187.292 13.985L187.321 14.166C187.324 14.202 187.336 14.212 187.328 14.279L187.31 14.45C187.293 14.565 187.267 14.681 187.233 14.79C187.199 14.868 187.164 14.929 187.128 14.999C186.993 15.293 186.81 15.48 186.644 15.709L186.64 15.714L186.617 15.737L173.992 28.424L161.306 41.05L148.578 53.632L142.208 59.917L139.023 63.06C137.955 64.101 136.914 65.17 135.824 66.188L135.887 66.119C135.126 66.948 134.043 67.258 133.101 67.409C132.619 67.445 132.165 67.482 131.683 67.528L130.372 67.536L125.129 67.569L114.643 67.634L93.673 67.859L72.703 68.078L62.217 68.155C58.722 68.198 55.226 68.201 51.721 67.885L51.424 67.858L51.321 67.703L51.32 67.701C49.976 66.709 48.992 65.421 47.963 64.171L44.88 60.415L38.715 52.902L26.385 37.876L14.102 22.812L1.85705 7.716L1.83905 7.694L1.83205 7.683C1.44805 7.11 1.14405 6.546 0.862047 5.943C0.584047 5.344 0.351047 4.718 0.195047 4.06C0.151047 3.897 0.115047 3.732 0.0930471 3.561C0.0710471 3.391 0.0280468 3.226 0.0240468 3.051C-0.00895317 2.706 -0.00895312 2.356 0.0300469 2.001C0.0310469 1.825 0.0940471 1.648 0.125047 1.472C0.155047 1.294 0.212047 1.122 0.288047 0.953999C0.364047 0.787999 0.410047 0.608004 0.522047 0.460004L0.823047 -3.17383e-06L1.60905 0.618001L1.39905 0.955998C1.31505 1.061 1.29105 1.198 1.23605 1.319C1.18005 1.44 1.13905 1.567 1.12205 1.704C1.10305 1.839 1.05105 1.965 1.05605 2.107C1.03005 2.382 1.03505 2.663 1.06705 2.949C1.07105 3.09 1.11305 3.234 1.13305 3.376C1.15305 3.519 1.18605 3.661 1.22805 3.803C1.37105 4.372 1.59005 4.934 1.85305 5.476C2.11305 6.014 2.42305 6.559 2.75105 7.031L2.72705 6.999L15.189 21.916L27.613 36.865L39.991 51.852L46.18 59.346L49.274 63.093C50.304 64.344 51.378 65.557 52.094 67.066L52.095 67.067L51.695 66.885C55.181 66.537 58.676 66.509 62.173 66.521L72.661 66.505L93.638 66.536L114.615 66.574L125.102 66.546L130.346 66.532L131.657 66.528C132.042 66.477 132.458 66.406 132.834 66.294C133.571 65.976 134.104 65.487 134.488 64.961L134.499 64.947L134.552 64.892C135.59 63.82 136.676 62.798 137.736 61.749L140.934 58.62L147.331 52.362L160.137 39.859L172.985 27.399L185.894 15.001L185.868 15.029C185.99 14.863 186.157 14.694 186.224 14.537L186.291 14.422C186.287 14.412 186.29 14.409 186.303 14.405L186.329 14.398C186.348 14.407 186.332 14.356 186.331 14.331L186.306 14.149L187.292 13.985Z" transform="translate(4.99023 75.3555)" fill="#231F20"/>
<path d="M1.14441e-07 36.5363C0.244 35.9013 0.958 35.4083 1.646 34.9083C5.313 32.2413 67.642 0.848266 69.563 0.200266C70.751 -0.200734 71.907 -0.0167337 72.563 0.908266L116.938 49.3253C116.938 49.3253 186.837 49.5753 187.438 49.5753C187.942 49.5753 188.262 49.7103 188.367 49.9623" transform="translate(5.16992 38.8203)" stroke="#231F20" stroke-width="3" stroke-miterlimit="10"/>
<path d="M-3.05176e-07 54.083C-3.05176e-07 54.083 0.164999 53.759 0.569999 53.269C0.967999 52.77 1.628 52.131 2.543 51.409C4.347 49.934 6.925 47.826 10.018 45.297C16.207 40.243 24.459 33.504 32.711 26.765C40.991 20.061 49.247 13.326 55.492 8.34001C61.722 3.33601 65.876 2.01416e-06 65.876 2.01416e-06L66.511 0.772997C66.511 0.772997 62.43 4.198 56.309 9.335C50.202 14.489 41.989 21.275 33.8 28.092C25.583 34.874 17.366 41.656 11.204 46.742C8.121 49.283 5.552 51.401 3.754 52.884C2.868 53.641 2.113 54.164 1.545 54.457C0.985002 54.759 0.635002 54.858 0.635002 54.858L-3.05176e-07 54.083Z" transform="translate(55.8594 87.9141)" fill="#231F20"/>
<path d="M45.7458 88.0168C48.6628 88.0388 51.9258 84.7848 51.9258 84.7848L100.736 47.2548C100.736 47.2548 102.845 45.4978 102.829 43.0278C102.816 40.9918 100.565 38.7118 100.565 38.7118L67.9448 2.25081C67.9448 2.25081 66.6408 0.400812 64.7038 0.0588125C62.5788 -0.316188 59.8958 1.22481 59.8958 1.22481L1.57877 30.9778C1.57877 30.9778 0.36377 31.6468 0.10877 32.5898C-0.26623 33.9748 0.44877 35.2158 0.44877 35.2158L40.3388 85.1468C40.3388 85.1458 43.0588 87.9968 45.7458 88.0168Z" transform="translate(10.9883 44.7734)" fill="#DE7EA7"/>
<path d="M8.54492e-07 2.204C8.54492e-07 2.204 68.723 26.21 70.212 26.266C72.108 26.337 71.625 24.833 70.833 24.25C69.762 23.461 1.291 3.41797e-06 1.291 3.41797e-06" transform="translate(36.5938 61.9688)" fill="white"/>
<path d="M3.5 19.6106L75.9393 45.1506C75.9393 45.1506 83.6063 47.1366 89.6793 40.9836C93.8343 36.7746 92.4393 31.3166 88.9013 30.4836C82.1953 28.9046 25.4403 9.10857 25.4403 9.10857C23.5993 7.96557 22.9823 5.48357 23.6903 3.81657C25.0933 0.515568 30.8033 2.55557 29.4563 2.09857C27.7143 1.50857 28.5393 -1.81843 22.4563 1.34757C20.1493 2.54857 4 10.1106 4 10.1106L74.5633 34.7216C78.2743 36.6496 76.1413 38.3366 73.5843 38.7236L0 15.6106" transform="translate(9.98828 63.0664)" fill="white"/>
<path d="M47.9372 47.8278C50.6252 46.6088 51.6562 45.2028 51.6562 45.2028L95.9062 3.76477C95.9062 3.76477 96.6102 2.85676 95.9062 1.60876C95.2182 0.389764 93.9062 0.26477 93.9062 0.26477L59.3752 0.0157773C59.3752 0.0157773 57.6252 -0.17423 55.0002 0.76477C52.9682 1.49177 51.3122 3.13977 51.3122 3.13977L0.207187 45.2388C0.207187 45.2388 -0.248813 46.5488 0.192187 47.4208C0.840187 48.7018 2.20118 49.1448 2.20118 49.1448L40.4672 49.1078C40.4682 49.1068 45.4892 48.9378 47.9372 47.8278Z" transform="translate(68.0527 90.4297)" fill="#808184"/>
<path d="M11.5764 12.004C12.2104 11.679 12.4424 11.328 12.4424 11.328L22.6304 0.820995C22.6304 0.820995 22.7894 0.594006 22.6054 0.301006C22.4254 0.0150059 22.1074 -4.27246e-06 22.1074 -4.27246e-06L13.7774 0.342006C13.7774 0.342006 13.3534 0.316001 12.7314 0.574001C12.2504 0.773001 11.8694 1.19 11.8694 1.19L0.0363824 11.936C0.0363824 11.936 -0.0586144 12.257 0.0583856 12.462C0.229386 12.763 0.56339 12.854 0.56339 12.854L9.79038 12.4C9.79038 12.399 10.9994 12.3 11.5764 12.004Z" transform="translate(139.582 109.855)" fill="#808184"/>
<path d="M5.833 14.25C5.833 14.25 7 8.917 7.833 8.667C8.666 8.417 10.958 7.917 10.958 7.917C10.958 7.917 8.5 7.667 8 6.5C7.5 5.333 6.333 -2.74658e-06 6.333 -2.74658e-06C6.333 -2.74658e-06 5.25 5.333 4.25 5.833C3.25 6.333 -2.86865e-06 7.125 -2.86865e-06 7.125C-2.86865e-06 7.125 3.396 8.323 4.333 9.25C5.716 10.617 5.833 14.25 5.833 14.25Z" transform="translate(116.572 44.1328)" fill="white" stroke="#231F20" stroke-width="2" stroke-miterlimit="10" stroke-linecap="round" stroke-linejoin="round"/>
<path d="M6.204 -1.95313e-06C6.204 -1.95313e-06 4.792 6.456 3.783 6.759C2.774 7.062 1.0376e-06 7.667 1.0376e-06 7.667C1.0376e-06 7.667 2.976 7.97 3.581 9.382C4.186 10.794 5.599 17.25 5.599 17.25C5.599 17.25 6.91 10.794 8.121 10.189C9.332 9.584 13.266 8.625 13.266 8.625C13.266 8.625 9.155 7.174 8.02 6.053C6.346 4.399 6.204 -1.95313e-06 6.204 -1.95313e-06Z" transform="translate(100.553 27.1992)" fill="white" stroke="#231F20" stroke-width="2" stroke-miterlimit="10" stroke-linecap="round" stroke-linejoin="round"/>
<path d="M3.25401 -1.2207e-07C3.25401 -1.2207e-07 2.513 3.386 1.984 3.545C1.455 3.704 -5.49316e-06 4.021 -5.49316e-06 4.021C-5.49316e-06 4.021 1.561 4.18 1.878 4.92C2.195 5.661 2.936 9.047 2.936 9.047C2.936 9.047 3.624 5.661 4.259 5.343C4.894 5.026 6.957 4.523 6.957 4.523C6.957 4.523 4.801 3.762 4.206 3.174C3.328 2.307 3.25401 -1.2207e-07 3.25401 -1.2207e-07Z" transform="translate(148.176 31.5312)" fill="white" stroke="#231F20" stroke-width="2" stroke-miterlimit="10" stroke-linecap="round" stroke-linejoin="round"/>
<path d="M3.254 -7.62939e-07C3.254 -7.62939e-07 2.51299 3.386 1.98399 3.545C1.45499 3.704 -2.44141e-07 4.021 -2.44141e-07 4.021C-2.44141e-07 4.021 1.56101 4.18 1.87801 4.92C2.19501 5.661 2.936 9.047 2.936 9.047C2.936 9.047 3.624 5.661 4.259 5.343C4.894 5.026 6.957 4.523 6.957 4.523C6.957 4.523 4.80099 3.762 4.20599 3.174C3.32799 2.307 3.254 -7.62939e-07 3.254 -7.62939e-07Z" transform="translate(126.471 22.6758)" fill="white" stroke="#231F20" stroke-width="2" stroke-miterlimit="10" stroke-linecap="round" stroke-linejoin="round"/>
<path d="M7.163 -3.66211e-06C7.163 -3.66211e-06 8.596 6.55 9.619 6.857C10.642 7.164 13.457 7.778 13.457 7.778C13.457 7.778 10.438 8.085 9.824 9.518C9.21 10.951 7.777 17.5 7.777 17.5C7.777 17.5 6.447 10.95 5.219 10.336C3.991 9.722 -7.32422e-06 8.75 -7.32422e-06 8.75C-7.32422e-06 8.75 4.171 7.278 5.322 6.14C7.018 4.463 7.163 -3.66211e-06 7.163 -3.66211e-06Z" transform="translate(137.471 50.9648)" fill="white" stroke="#231F20" stroke-width="2" stroke-miterlimit="10" stroke-linecap="round" stroke-linejoin="round"/>
</svg>
