<svg width="40" height="70" viewBox="0 0 40 70" fill="none" xmlns="http://www.w3.org/2000/svg">
<path d="M3.53553 -3.53553C1.58291 -5.48816 -1.58291 -5.48816 -3.53553 -3.53553C-5.48816 -1.58291 -5.48816 1.58291 -3.53553 3.53553L3.53553 -3.53553ZM30 30L33.5355 33.5355C35.4882 31.5829 35.4882 28.4171 33.5355 26.4645L30 30ZM-3.53553 56.4645C-5.48816 58.4171 -5.48816 61.5829 -3.53553 63.5355C-1.58291 65.4882 1.58291 65.4882 3.53553 63.5355L-3.53553 56.4645ZM-3.53553 3.53553L26.4645 33.5355L33.5355 26.4645L3.53553 -3.53553L-3.53553 3.53553ZM26.4645 26.4645L-3.53553 56.4645L3.53553 63.5355L33.5355 33.5355L26.4645 26.4645Z" transform="translate(35 5) scale(-1 1)" fill="#FF82B7"/>
</svg>
