<svg width="179" height="134" viewBox="0 0 179 134" fill="none" xmlns="http://www.w3.org/2000/svg">
<path d="M58.5781 11.2554C90.9298 11.2554 117.156 8.73579 117.156 5.6277C117.156 2.5196 90.9298 0 58.5781 0C26.2263 0 0 2.5196 0 5.6277C0 8.73579 26.2263 11.2554 58.5781 11.2554Z" transform="translate(21.5742 26.2041)" stroke="#C44D58" stroke-width="2.37614" stroke-linecap="round" stroke-linejoin="round"/>
<path d="M79.8623 46.4278C79.8623 46.4278 54.6002 -4.89674 39.593 0.380791C6.70225 11.7863 2.37518 45.3773 0.124101 50.3297C-2.12698 55.2821 26.8619 14.4125 37.0918 17.6891C47.3217 20.9657 79.8623 46.4278 79.8623 46.4278Z" transform="translate(5.91797 0.887695)" fill="white" stroke="#C44D58" stroke-width="1.45069" stroke-linecap="round" stroke-linejoin="round"/>
<path d="M105.876 0.225108L88.8676 74.1105V73.7853C88.8676 76.9118 72.8099 79.413 52.9754 79.413C33.1409 79.413 17.1082 76.9118 17.1082 73.7853L1.90826e-07 -3.81653e-07" transform="translate(27.1777 52.4678)" fill="white"/>
<path d="M105.876 0.225108L88.8676 74.1105V73.7853C88.8676 76.9118 72.8099 79.413 52.9754 79.413C33.1409 79.413 17.1082 76.9118 17.1082 73.7853L1.90826e-07 -3.81653e-07" transform="translate(27.1777 52.4678)" stroke="#C44D58" stroke-width="2.5012" stroke-linecap="round" stroke-linejoin="round"/>
<path d="M39.7181 1.80475C21.5844 8.45822 7.20252 23.316 0.374251 31.4952C-0.626228 32.6959 0.549332 34.5718 1.89998 33.9965C11.1794 29.2441 29.4132 21.1398 43.4949 23.2159C43.6757 23.2331 43.8581 23.2143 44.0316 23.1607C44.2051 23.107 44.3663 23.0195 44.5058 22.9032C44.6453 22.787 44.7604 22.6442 44.8445 22.4832C44.9286 22.3222 44.9799 22.1462 44.9956 21.9653L45.721 16.6625L47.5969 23.1909C47.6559 23.4361 47.78 23.6608 47.9561 23.8413C48.1322 24.0218 48.3537 24.1514 48.5974 24.2164C50.7906 24.7299 53.0122 25.1141 55.2505 25.367L53.1996 21.1148L60.2279 25.6922C60.4125 25.8182 60.6298 25.8878 60.8532 25.8923C73.1384 26.2794 85.4326 25.5005 97.5708 23.5661C97.8464 23.4874 98.0953 23.335 98.2907 23.1253C98.4861 22.9157 98.6207 22.6567 98.6798 22.3762C98.739 22.0958 98.7206 21.8045 98.6265 21.5337C98.5325 21.263 98.3664 21.023 98.1461 20.8397C89.4169 13.9861 61.1784 -6.07436 39.7181 1.80475Z" transform="translate(78.9785 4.48926)" fill="white" stroke="#C44D58" stroke-width="1.37566" stroke-linecap="round" stroke-linejoin="round"/>
<path d="M-3.81653e-06 -7.63305e-07L2.35113 6.42808" transform="translate(128.301 22.8525)" stroke="#C44D58" stroke-width="1.17556" stroke-linecap="round" stroke-linejoin="round"/>
<path d="M-4.19818e-06 9.54131e-08L6.60317 4.177" transform="translate(157.465 25.0791)" stroke="#C44D58" stroke-width="1.37566" stroke-linecap="round" stroke-linejoin="round"/>
<path d="M44.7933 1.57907C28.6355 -4.49925 6.27484 8.65794 0.346999 12.5601C0.219947 12.6343 0.119509 12.7467 0.0599426 12.8813C0.000376109 13.0158 -0.0152918 13.1658 0.0151629 13.3097C0.0456177 13.4537 0.120648 13.5844 0.229602 13.6834C0.338556 13.7823 0.475898 13.8443 0.622131 13.8608C3.32343 14.3611 8.9011 15.3366 15.3292 16.012L15.054 15.5617L19.6062 11.4094L18.9309 15.5367C18.9131 15.6358 18.9162 15.7376 18.94 15.8355C18.9637 15.9333 19.0075 16.0252 19.0687 16.1052C19.1299 16.1852 19.207 16.2516 19.2953 16.3001C19.3835 16.3487 19.4809 16.3783 19.5812 16.3872C26.0464 17.0535 32.5708 16.8769 38.9905 15.8619C50.2459 13.5856 66.3286 21.0897 73.0318 24.6167C73.1822 24.6942 73.355 24.7167 73.5202 24.6803C73.6855 24.6438 73.8328 24.5508 73.9367 24.4172C74.0406 24.2836 74.0945 24.118 74.0891 23.9488C74.0837 23.7797 74.0194 23.6177 73.9072 23.491C69.5051 18.1131 58.875 6.85696 44.7933 1.57907Z" transform="translate(1.19336 15.1201)" fill="white" stroke="#C44D58" stroke-width="1.45069" stroke-linecap="round" stroke-linejoin="round"/>
<path d="M7.63305e-07 0.0250126C7.63305e-07 3.1265 26.2376 5.6277 58.5781 5.6277C90.9186 5.6277 117.181 3.1265 117.181 0L115.48 18.1337C115.48 21.2352 90.0181 23.7614 58.5781 23.7614C27.138 23.7614 1.70081 21.2602 1.70081 18.1337L7.63305e-07 0" transform="translate(21.5742 32.0576)" fill="white"/>
<path d="M7.63305e-07 0.0250126C7.63305e-07 3.1265 26.2376 5.6277 58.5781 5.6277C90.9186 5.6277 117.181 3.1265 117.181 0L115.48 18.1337C115.48 21.2352 90.0181 23.7614 58.5781 23.7614C27.138 23.7614 1.70081 21.2602 1.70081 18.1337L7.63305e-07 0" transform="translate(21.5742 32.0576)" stroke="#C44D58" stroke-width="1.17556" stroke-linecap="round" stroke-linejoin="round"/>
<path d="M4.95237 20.1346C2.75132 19.5344 1.6758 18.809 1.6758 18.1337L5.72479e-07 3.81653e-07" transform="translate(21.7754 31.6572)" stroke="#C44D58" stroke-width="2.37614" stroke-linecap="round" stroke-linejoin="round"/>
<path d="M5.72479e-07 3.81653e-07C5.72479e-07 3.10149 26.2126 5.6277 58.5781 5.6277C90.9436 5.6277 117.156 3.1265 117.156 3.81653e-07L115.48 18.1337C115.48 18.9591 115.18 19.6594 112.004 20.3598" transform="translate(21.7754 31.6572)" stroke="#C44D58" stroke-width="2.37614" stroke-linecap="round" stroke-linejoin="round"/>
<path d="M14.0067 -3.81683e-07L-9.54131e-07 14.0078" transform="translate(59.6426 71.2256)" stroke="#C44D58" stroke-width="3.7518" stroke-linecap="round" stroke-linejoin="round"/>
<path d="M3.81653e-07 -3.81683e-07L14.0067 14.0078" transform="translate(58.8672 71.2256)" stroke="#C44D58" stroke-width="3.7518" stroke-linecap="round" stroke-linejoin="round"/>
<path d="M14.0067 -1.14496e-06L-7.63305e-07 14.0067" transform="translate(87.5801 71.4014)" stroke="#C44D58" stroke-width="3.7518" stroke-linecap="round" stroke-linejoin="round"/>
<path d="M1.52661e-06 -1.14496e-06L14.0067 14.0067" transform="translate(86.4297 71.4014)" stroke="#C44D58" stroke-width="3.7518" stroke-linecap="round" stroke-linejoin="round"/>
<path d="M-1.71744e-06 9.15527e-07H36.2674" transform="translate(62.9434 104.067)" stroke="#C44D58" stroke-width="3.7518" stroke-linecap="round" stroke-linejoin="round"/>
<path d="M-3.81653e-07 0.325158C-3.81653e-07 0.325158 1.40067 8.12889 4.70225 8.12889C8.00384 8.12889 8.90427 -3.81653e-07 8.90427 -3.81653e-07" transform="translate(79.6777 104.366)" fill="white"/>
<path d="M-3.81653e-07 0.325158C-3.81653e-07 0.325158 1.40067 8.12889 4.70225 8.12889C8.00384 8.12889 8.90427 -3.81653e-07 8.90427 -3.81653e-07" transform="translate(79.6777 104.366)" stroke="#C44D58" stroke-width="2.5012" stroke-linecap="round" stroke-linejoin="round"/>
</svg>
