<svg width="148" height="175" viewBox="0 0 148 175" fill="none" xmlns="http://www.w3.org/2000/svg">
<path d="M58.3212 11.206C90.5312 11.206 116.642 8.69748 116.642 5.60302C116.642 2.50856 90.5312 0 58.3212 0C26.1113 0 0 2.50856 0 5.60302C0 8.69748 26.1113 11.206 58.3212 11.206Z" transform="translate(21.4707 68.1436)" stroke="#C44D58" stroke-width="2.36572" stroke-linecap="round" stroke-linejoin="round"/>
<path d="M105.412 0.323733L88.4779 73.787V73.4633C88.4779 76.5761 72.4907 79.0664 52.7431 79.0664C32.9956 79.0664 17.0332 76.5761 17.0332 73.4633L1.8999e-07 3.03989e-06" transform="translate(27.0488 94.29)" fill="#FFE3EC"/>
<path d="M105.412 0.323733L88.4779 73.787V73.4633C88.4779 76.5761 72.4907 79.0664 52.7431 79.0664C32.9956 79.0664 17.0332 76.5761 17.0332 73.4633L1.8999e-07 3.03989e-06" transform="translate(27.0488 94.29)" stroke="#C44D58" stroke-width="2.49023" stroke-linecap="round" stroke-linejoin="round"/>
<path d="M44.5827 1.55255C28.4958 -4.44891 6.23308 8.62481 0.331226 12.3602C0.208515 12.4392 0.112622 12.5535 0.0561835 12.6881C-0.000254844 12.8227 -0.0145894 12.9712 0.0150692 13.1141C0.0447277 13.257 0.116987 13.3876 0.222325 13.4886C0.327663 13.5896 0.461135 13.6563 0.605152 13.68C3.2946 14.178 8.84782 15.1243 15.2477 15.7967L14.9738 15.4729L19.506 11.2396L18.8337 15.4729C18.816 15.5716 18.819 15.6729 18.8427 15.7704C18.8663 15.8678 18.9099 15.9593 18.9709 16.0389C19.0318 16.1186 19.1086 16.1847 19.1964 16.233C19.2843 16.2813 19.3812 16.3108 19.4811 16.3196C25.918 16.983 32.4137 16.8072 38.8053 15.7967C50.0114 13.5306 66.0236 21.0013 72.6974 24.4876C72.8438 24.5536 73.0081 24.569 73.1643 24.5312C73.3204 24.4934 73.4595 24.4046 73.5595 24.2789C73.6595 24.1531 73.7148 23.9977 73.7165 23.837C73.7182 23.6764 73.6663 23.5197 73.569 23.3919C69.1861 17.9632 58.6027 6.83184 44.5827 1.55255Z" transform="translate(1.19336 57.1025)" fill="#FFE3EC" stroke="#C44D58" stroke-width="1.44433" stroke-linecap="round" stroke-linejoin="round"/>
<path d="M43.9915 77.2432C42.4476 77.2432 0.985199 61.281 0.188325 28.4602C-0.633452 -5.95434 1.23422 -1.6214 5.79135 3.359C10.3485 8.33939 26.9583 31.1745 33.1839 44.0239C39.4095 56.8734 52.4832 78.6875 52.4832 78.6875L43.9915 77.2432Z" transform="translate(29.998 1.08496)" fill="#FFE3EC" stroke="#C44D58" stroke-width="1.44433" stroke-linecap="round" stroke-linejoin="round"/>
<path d="M16.6104 44.8454C14.3941 44.8454 -0.0990975 31.4978 0.000511778 20.989C0.000511778 12.1736 7.02297 -1.42308 9.76222 0.120865C12.0283 1.49049 13.2984 18.0754 14.7427 21.8108C16.187 25.5461 19.7232 44.6462 19.7232 44.6462L16.6104 44.8454Z" transform="translate(58.2012 35.0264)" fill="#FFE3EC" stroke="#C44D58" stroke-width="1.44433" stroke-linecap="round" stroke-linejoin="round"/>
<path d="M-3.79979e-06 62.8395C-3.79979e-06 62.8395 23.2339 47.2756 39.4204 27.9763C55.6069 8.67699 50.6264 -3.25122 56.852 0.782953C63.0776 4.81713 74.6073 35.6462 52.4941 48.0974C38.7012 55.7367 23.7809 61.1332 8.29247 64.0847L0.821777 64.6076L-3.79979e-06 62.8395Z" transform="translate(81.0371 15.0654)" fill="#FFE3EC" stroke="#C44D58" stroke-width="1.44433" stroke-linecap="round" stroke-linejoin="round"/>
<path d="M0 54.0045C0 54.0045 28.6875 9.18029 39.2212 1.90881C51.3237 -6.45837 52.4941 14.36 41.4873 31.7916C32.8711 45.3385 10.9321 56.2955 8.29248 54.2037L0 54.0045Z" transform="translate(75.1855 24.3232)" fill="#FFE3EC" stroke="#C44D58" stroke-width="1.44433" stroke-linecap="round" stroke-linejoin="round"/>
<path d="M0.88224 73.1076C1.92814 64.3918 -2.55428 50.3967 2.32657 36.8C7.20743 23.2034 15.724 0.890891 20.7045 0.0691145C29.2211 -1.32542 30.6654 18.6213 27.2289 38.344C24.2406 56.0246 10.4945 74.5022 5.04093 72.9084L0.88224 73.1076Z" transform="translate(75.7969 6.1416)" fill="#FFE3EC"/>
<path d="M0.88224 73.1076C1.92814 64.3918 -2.55428 50.3967 2.32657 36.8C7.20743 23.2034 15.724 0.890891 20.7045 0.0691145C29.2211 -1.32542 30.6654 18.6213 27.2289 38.344C24.2406 56.0246 10.4945 74.5022 5.04093 72.9084L0.88224 73.1076" transform="translate(75.7969 6.1416)" stroke="#C44D58" stroke-width="1.44433" stroke-linecap="round" stroke-linejoin="round"/>
<path d="M-3.79979e-06 16.0039C-3.79979e-06 16.0039 11.8286 10.0025 18.2534 5.64455C33.5932 -4.73972 40.4663 2.38235 40.4663 2.38235C40.4663 2.38235 27.3926 13.2896 18.2534 15.1572C12.2366 16.2772 6.09311 16.5538 -3.79979e-06 15.979" transform="translate(94.7344 62.7236)" fill="#FFE3EC"/>
<path d="M-3.79979e-06 16.0039C-3.79979e-06 16.0039 11.8286 10.0025 18.2534 5.64455C33.5932 -4.73972 40.4663 2.38235 40.4663 2.38235C40.4663 2.38235 27.3926 13.2896 18.2534 15.1572C12.2366 16.2772 6.09311 16.5538 -3.79979e-06 15.979" transform="translate(94.7344 62.7236)" stroke="#C44D58" stroke-width="1.44433" stroke-linecap="round" stroke-linejoin="round"/>
<path d="M7.59959e-07 -7.59958e-07C7.59959e-07 3.08789 26.1225 5.60302 58.3212 5.60302C90.5199 5.60302 116.667 3.11279 116.667 -7.59958e-07L114.974 18.0542C114.974 21.1421 89.6235 23.6572 58.3212 23.6572C27.019 23.6572 1.69336 21.167 1.69336 18.0542L7.59959e-07 -7.59958e-07Z" transform="translate(21.4707 73.9951)" fill="#FFE3EC"/>
<path d="M7.59959e-07 -7.59958e-07C7.59959e-07 3.08789 26.1225 5.60302 58.3212 5.60302C90.5199 5.60302 116.667 3.11279 116.667 -7.59958e-07L114.974 18.0542C114.974 21.1421 89.6235 23.6572 58.3212 23.6572C27.019 23.6572 1.69336 21.167 1.69336 18.0542L7.59959e-07 -7.59958e-07" transform="translate(21.4707 73.9951)" stroke="#C44D58" stroke-width="1.17041" stroke-linecap="round" stroke-linejoin="round"/>
<path d="M4.93066 20.0215C2.73925 19.4238 1.66846 18.7265 1.66846 18.0542L5.69969e-07 -9.49948e-07" transform="translate(21.6699 73.5713)" stroke="#C44D58" stroke-width="2.36572" stroke-linecap="round" stroke-linejoin="round"/>
<path d="M5.69969e-07 -9.49948e-07C5.69969e-07 3.08789 26.0976 5.60302 58.3212 5.60302C90.5448 5.60302 116.642 3.11279 116.642 -9.49948e-07L114.974 18.0542C114.974 18.876 114.675 19.5483 111.513 20.2705" transform="translate(21.6699 73.5713)" stroke="#C44D58" stroke-width="2.36572" stroke-linecap="round" stroke-linejoin="round"/>
<path d="M0 0C0 0 10.1352 11.9004 18.8262 0H0Z" transform="translate(70.5039 135.081)" fill="#FFE3EC"/>
<path d="M0 0C0 0 10.1352 11.9004 18.8262 0" transform="translate(70.5039 135.081)" stroke="#C44D58" stroke-width="3.73535" stroke-linecap="round" stroke-linejoin="round"/>
<path d="M0 6.78302C5.47851 -6.61442 12.9492 3.96906 12.9492 3.96906" transform="translate(91.3711 115.921)" stroke="#C44D58" stroke-width="3.73535" stroke-miterlimit="10" stroke-linecap="round"/>
<path d="M12.9492 6.77471C7.4707 -6.62274 2.08989e-06 3.98564 2.08989e-06 3.98564" transform="translate(58.0527 115.929)" stroke="#C44D58" stroke-width="3.73535" stroke-miterlimit="10" stroke-linecap="round"/>
</svg>
