<svg width="156" height="144" viewBox="0 0 156 144" fill="none" xmlns="http://www.w3.org/2000/svg">
<path d="M77.9293 4.7192e-07C62.6208 -0.00153451 47.651 4.50618 34.8888 12.9604C22.1265 21.4146 12.1372 33.4407 6.16799 47.5374C0.198743 61.6341 -1.48598 77.1768 1.32413 92.2252C4.13425 107.273 11.3147 121.161 21.9691 132.153C24.7779 115.748 33.0654 97.7529 54.9649 90.8852C48.8373 86.3978 44.2902 80.0833 41.9769 72.8492C39.6637 65.6151 39.7034 57.8338 42.0905 50.6237C44.4776 43.4136 49.0891 37.1459 55.2623 32.7214C61.4355 28.297 68.8524 25.9435 76.4472 25.9993C84.0419 26.0551 91.4235 28.5173 97.531 33.032C103.638 37.5467 108.157 43.8815 110.438 51.1259C112.719 58.3703 112.645 66.1513 110.225 73.3506C107.806 80.55 103.167 86.797 96.9737 91.1938C120.123 98.9104 127.253 119.544 128.997 136.783C140.995 126.376 149.526 112.55 153.447 97.1594C157.368 81.7683 156.493 65.5465 150.937 50.667C145.382 35.7875 135.413 22.9609 122.364 13.9055C109.316 4.85007 93.812 -0.00174709 77.9293 4.7192e-07Z" transform="translate(0.0703125 0.0585938)" fill="#F0BED8"/>
<path d="M36.475 39.2411L8.94357 38.8907L3.37653e-06 -4.50204e-06H45.0866L36.475 39.2411Z" transform="translate(53.877 103.881)" fill="#F0BED8"/>
<path d="M25.368 21.317C25.368 33.1373 29.2958 61.7752 12.8101 61.7752C-2.86415 61.7752 0.252262 33.1926 0.252262 21.317C0.252262 9.44145 5.87657 0 12.8101 0C19.7437 0 25.368 9.49677 25.368 21.317Z" transform="translate(63.5078 65.5059)" fill="#F0BED8"/>
<path d="M10.2077 7.5986C10.2077 7.5986 -1.07783 10.9184 0.0839108 3.37705e-06" transform="translate(58.7168 80.4043)" stroke="#F0BED8" stroke-width="6.60252" stroke-linecap="round" stroke-linejoin="round"/>
<path d="M15.9631 7.09113C15.9631 7.09113 3.62929 -1.78501 2.00174 0.324049C-0.0842769 3.21255 -2.00981 12.4823 4.29254 17.755C8.27347 17.755 12.6648 14.9558 15.9631 12.4992C15.9631 12.4992 22.2064 21.3006 28.841 16.3244C34.7224 9.0259 32.6005 0.117183 28.841 0.323504C25.0816 0.529826 15.9631 7.09113 15.9631 7.09113Z" transform="translate(60.3105 112.756)" fill="white"/>
</svg>
