<svg width="199" height="189" viewBox="0 0 199 189" fill="none" xmlns="http://www.w3.org/2000/svg">
<path d="M140.672 60.8244V56.8988H148.307L145.245 43.9445H149.171C149.073 41.9818 149.171 40.019 149.171 38.7039C149.171 35.2102 151.408 32.3642 154.176 32.3642C156.943 32.3642 159.161 35.2102 159.161 38.7039C159.161 39.9994 159.377 41.9818 159.299 43.9445H163.224L160.398 56.8988H188.819C179.596 37.3169 164.219 21.2911 145.034 11.2686C125.849 1.2461 103.911 -2.22244 82.5704 1.39261C61.2294 5.00765 41.6579 15.5076 26.8442 31.2893C12.0305 47.0709 2.78874 67.267 0.529948 88.7939H20.1577L16.9976 75.0545H21.1979C18.5874 72.4636 15.3096 68.6166 16.9191 66.5753C19.0193 63.7489 22.9252 72.4636 23.9851 75.0545C22.7878 72.0514 18.3127 60.1767 22.4541 60.0196C26.1245 59.9019 25.8693 69.8335 25.5749 74.3871C25.9478 70.5597 26.9489 63.0619 29.1668 63.7882C32.1109 64.7695 27.8125 68.9502 29.0294 69.6765C30.2463 70.4027 31.1296 67.3997 31.9932 68.5773C32.8568 69.755 30.7566 71.5607 30.2267 71.5607C29.6967 71.5607 29.3631 73.7787 29.1275 75.0937H34.8785L31.8754 88.8331H39.8639V92.7587H0.235533C0.0981386 94.8392 4.1448e-09 96.959 4.1448e-09 99.0984C-0.000166031 117.257 4.98803 135.067 14.4201 150.584C23.8522 166.101 37.3657 178.729 53.4855 187.089C53.5837 171.544 57.8625 147.441 82.2205 139.806C77.0837 136.035 73.2739 130.733 71.3382 124.662C69.4025 118.59 69.4405 112.062 71.4465 106.013C73.4526 99.9648 77.3237 94.7076 82.504 90.9963C87.6842 87.285 93.9073 85.3107 100.28 85.3567C106.652 85.4027 112.846 87.4668 117.972 91.2524C123.098 95.0381 126.893 100.351 128.811 106.428C130.73 112.504 130.673 119.033 128.65 125.076C126.627 131.119 122.741 136.365 117.55 140.061C141.104 147.913 144.931 171.721 144.833 187.168C166.923 175.693 183.889 156.329 192.361 132.923C200.833 109.517 200.192 83.78 190.565 60.8244H140.672ZM101.907 39.2339H43.5146V35.3083H70.8168L67.7941 22.197H74.4087C72.7992 21.3138 70.9738 20.1165 70.5813 18.9977C69.3643 15.5629 69.2466 13.816 70.1298 14.13C71.2534 14.4512 72.2979 15.0027 73.1968 15.7495C74.0956 16.4963 74.8292 17.422 75.3508 18.4678C75.9789 19.9791 76.4107 21.2156 76.6855 22.0989C76.8033 21.1764 76.9799 19.9595 77.2939 18.4678C77.6366 17.3093 78.2143 16.2339 78.991 15.3086C79.7677 14.3833 80.7268 13.628 81.8083 13.0898C82.6523 12.5991 82.8486 14.3852 82.2598 18.1145C82.0635 19.3706 80.297 20.9997 78.8445 22.197H85.7142L82.829 35.3083H101.907V39.2339Z" transform="translate(0.414062 0.890625)" fill="#F0BED8"/>
</svg>
