<svg xmlns="http://www.w3.org/2000/svg" xmlns:xlink="http://www.w3.org/1999/xlink" viewBox="0 0 1024 768"><defs><style>.cls-1{fill:aqua;}.cls-2{fill:#ff0;}.cls-3{fill:#231f20;}.cls-10,.cls-4,.cls-7{fill:#fff;}.cls-11,.cls-12,.cls-15,.cls-16,.cls-17,.cls-18,.cls-4,.cls-5,.cls-6,.cls-7,.cls-9{stroke:#231f20;}.cls-12,.cls-15,.cls-17,.cls-18,.cls-4,.cls-7,.cls-9{stroke-miterlimit:10;}.cls-4{stroke-width:8.63px;}.cls-5,.cls-6{stroke-linecap:round;}.cls-11,.cls-16,.cls-5,.cls-6{stroke-linejoin:round;}.cls-5{stroke-width:7.19px;fill:url(#linear-gradient);}.cls-11,.cls-15,.cls-16,.cls-17,.cls-18,.cls-6,.cls-9{fill:none;}.cls-6,.cls-7{stroke-width:4.32px;}.cls-8{fill:#f397bf;}.cls-9{stroke-width:2.2px;}.cls-11{stroke-width:4.41px;}.cls-12{stroke-width:8.83px;opacity:0.54;fill:url(#linear-gradient-2);}.cls-13{fill:#fce3ee;}.cls-14{fill:#f8bdd7;}.cls-15{stroke-width:2.8px;}.cls-16{stroke-width:5.6px;}.cls-17{stroke-width:2.7px;}.cls-18{stroke-width:5.41px;}</style><linearGradient id="linear-gradient" x1="471.16" y1="708.03" x2="471.16" y2="440.32" gradientTransform="translate(12.61 4.36) rotate(-0.75)" gradientUnits="userSpaceOnUse"><stop offset="0" stop-color="#fff"/><stop offset="1" stop-color="#f29abf"/></linearGradient><linearGradient id="linear-gradient-2" x1="559.24" y1="309.32" x2="404.16" y2="577.92" gradientUnits="userSpaceOnUse"><stop offset="0" stop-color="#fff"/><stop offset="0.62" stop-color="#df8cd6"/><stop offset="1" stop-color="#cc4abf"/></linearGradient></defs><title>Artboard 1 copy 5</title><g id="Layer_1" data-name="Layer 1"><rect class="cls-1" x="2" width="1022" height="768"/></g><g id="Layer_3" data-name="Layer 3"><path class="cls-2" d="M157.53,265.64q4.29,13.59,3.49,22.63t-5.67,14q-4.86,5-14.39,8-14.07,4.45-22.76-1.06t-15-24.5l-28.32-87.8-20.26,6.41q-15,4.75-24,2.37T17.77,191.09q-2.34-7.38-.72-12.62a16.83,16.83,0,0,1,7-8.91q5.4-3.67,15.41-6.84l102-32.29q13.35-4.22,20.81-1.34t11.17,14.56q2.49,7.86.43,13.37a18.43,18.43,0,0,1-7.26,9,56.69,56.69,0,0,1-14.24,6.34l-22.17,7Z"/><path class="cls-2" d="M364.19,217.09q2,20.15-4.3,29.46t-21,10.81q-14.42,1.45-21.93-5.69t-9.53-27l-3.11-28.08-50.74,5.15,2.68,26.36q2.07,20.4-4,29.56t-21.28,10.71q-14.43,1.46-21.94-5.69t-9.53-27l-11.4-104.89q-1.58-15.4,5.53-23.42t20-9.33q14.93-1.51,22.57,3.24t9.33,21.42l4.25,41.78,50.49-5.13-4-39.54q-1.06-10.45,2.1-17.68a22.52,22.52,0,0,1,9-10.71A34.12,34.12,0,0,1,321.57,87q14.43-1.45,22.32,3.26t9.59,21.39Z"/><path class="cls-2" d="M787.16,239.79q-1,11-8.12,16.68T759.52,261a28.66,28.66,0,0,1-6.4-1.36,26.47,26.47,0,0,1-6.58-3.39c-2.28-1.55-4.28-3-6-4.33a59.41,59.41,0,0,1-6.34-6q-3.76-4-5.92-6.34t-6.7-7.54c-3-3.46-5.2-6-6.55-7.65L673.59,177l-5.14,54q-1.16,12.19-6.19,16.24t-15,3.09q-11-1-15.71-6.51t-3.64-17.17l11.44-120.21q1.35-14.19,9.26-20.72T670,80.47q9.21.87,14.54,4.27t12.33,11.6l57,68.7L759,110.79q1-10.7,6.88-15.54t15.06-4q10.71,1,15,6.45t3.19,16.62Z"/><path class="cls-2" d="M308,486.09q8.67,18.3,5.8,29.2T297.39,532.6q-13.09,6.21-22.57,2t-18.26-22.2L239,475.88l-54-24.2q-14.62-6.35-18.37-14.26-5.88-12.42.18-24.15,5.83-11.06,12.84-14.38,9.7-4.59,21.57.58l42.75,19,10.32-37.8q5-19.24,18.11-25.45,9.7-4.59,17.7-1.74,13.65,4.88,17.72,13.46a21.82,21.82,0,0,1,1.59,11.56A124.4,124.4,0,0,1,305.68,397L292,452.19Z"/><path class="cls-2" d="M831.51,422.74l-25.48,70Q793.55,527,771.56,535.93t-61.23-5.39Q673,517,661.29,494.6t0-54.53l25.48-70q4.53-12.45,14.8-17.62a26.14,26.14,0,0,1,21.54-1.08q13.86,5.06,19.14,12.82t-.44,23.52L714,464.29q-2.51,7.6-1.89,12.87a13.69,13.69,0,0,0,3.72,8.41,24.31,24.31,0,0,0,9,5.27,29.67,29.67,0,0,0,10.15,2.09,10.84,10.84,0,0,0,7.14-2.45,21.09,21.09,0,0,0,4.58-5.25,47.92,47.92,0,0,0,3.49-7.78l28-76.82A41.58,41.58,0,0,1,785,388a16.22,16.22,0,0,1,9-5.76,27.8,27.8,0,0,1,9.74-.45,53.07,53.07,0,0,1,10.79,2.87q13.62,5,18.05,14T831.51,422.74Z"/><path class="cls-2" d="M947.93,238q11.12,6.43,16.24,21t-1.9,30.9q-6.84,15.84-12.46,22.54t-12.36,7.19q-6.75.5-18-4.37-9-3.87-13.72-8.92a18.81,18.81,0,0,1-5.38-11.17q-.63-6.12,2.74-13.93A158.34,158.34,0,0,0,909.58,264a67.68,67.68,0,0,0,2.6-11.68,13.49,13.49,0,0,0-5-12.48,32,32,0,0,0-6.29-3.4l-12.17-5.25-11,25.47q-7.92,18.38-18.46,23.21T835,278.8q-13.31-5.74-16.4-15.93T823.13,235l41.32-95.71q6.25-14.46,14.76-19.36t20.68.35a70.14,70.14,0,0,1,11.43,6,35.31,35.31,0,0,1,7.74,7.3,16.09,16.09,0,0,1,3.39,10.44q-.06,6.1-3.52,14.14-3.07,7.13-7,15.91c-2.63,5.85-4.46,10-5.52,12.45a9.16,9.16,0,0,0-.69,5.7,11.12,11.12,0,0,0,3.16,5.31,22.28,22.28,0,0,0,7.14,4.58q9.87,4.26,16.57-2.11t17.1-30.46q5.14-11.94,14.06-14.9t23.13,3.18q15.38,6.65,18.08,14.89T1001,196.36q-10.89,25.26-25.73,35.32T947.93,238Z"/></g><g id="Layer_5" data-name="Layer 5"><ellipse class="cls-3" cx="496.33" cy="711.9" rx="88.02" ry="20.07" transform="translate(-9.23 6.53) rotate(-0.75)"/><path class="cls-4" d="M440.14,596.73c0-1-.06-1.92-.08-2.88"/><path class="cls-5" d="M569.13,543.22c4.6,15.72,21,42.88,26,49.93,4.87,6.79,14.61,25.25,8.59,30.68-3.16,2.85-17.63-6.77-33-26.44l.25,1c-.06,13.5-.5,34.43-1.47,46.3-2.07,25.28-8.49,60.65-12.9,60.71-13.13.17-6.78-22.26-19.74-37.62-8.47-10-21.71-12.74-41.38-12-17.92.63-35.43-.38-47,14.2-10.86,13.63-2.42,36.91-14.11,37.06-5.19.07-12.3-37.89-14.34-59.33-1.55-16.24-2.15-51.35-2.15-51.35-23.57,22.36-30.74,34-39,26.62-5.95-5.29,18.72-50.54,37.05-73.84-.63-48.9,20.41-110.51,79.14-110.62,64.54-.11,73.14,92.62,74.05,104.79"/><path class="cls-3" d="M422.57,570.93c-2.3,7.93-20.37-19.81-21.79-29.55-2.36-16.22-.19-64.41,40.57-106.33,34.84-35.84,85.56-16.89,103.82,2.67C566.88,461,582.42,508,582.69,528.64c.14,11.42-16.23,42.63-22.33,40.37-13-4.81,1.86-56-22.26-91.15C525,458.77,513,441.71,501.93,453.19c-17.53,18.16-25.41,11.79-60.24,21.4C418.62,481,426.75,556.56,422.57,570.93Z"/><path class="cls-6" d="M482,495.43s2.29-5.17,7.7-4.64,7.47,6.29,7.47,6.29"/><path class="cls-7" d="M511.37,483.74c-5.85.13-11.79,9.15-13.91,16.19-1.75,5.78,7.4,17.52,14.88,19.16,8.61,1.89,17.68-6,19.56-12.71C534.4,497.52,524.73,483.44,511.37,483.74Z"/><path class="cls-7" d="M467.25,484.31c5.85,0,12,8.85,14.33,15.83,1.89,5.73-6.95,17.7-14.38,19.53-8.56,2.12-17.83-5.56-19.89-12.18C444.59,498.69,453.89,484.36,467.25,484.31Z"/><path class="cls-6" d="M482,537.36s4,4.79,7.33,4.74,8-5.91,8-5.91"/><polygon class="cls-8" points="547.1 554.91 579.26 537.11 577.99 554.86 529.27 580.78 486.74 587.66 443.78 577.81 404.88 557.07 404.97 535.05 452.92 561.3 497.97 567.76 547.1 554.91"/><path class="cls-9" d="M402.89,534.9,406,558a140.27,140.27,0,0,0,172.09-3.3l3-21.18"/><path class="cls-10" d="M559,305.37s15.23,6.49,19.9,10.83,12.91,11.36,12.91,11.36l-17.74,19.87s-7.44-9.64-11.87-12-16.56-6.1-16.56-6.1Z"/><path class="cls-10" d="M565.25,365.76l19.3-14.67s10.68,9,22,37.88c12.36,31.52,2.09,69.26,1.35,68.85.87-.26-10.67-45.58-18.17-58.87C582.15,385.49,567.27,364.82,565.25,365.76Z"/><path class="cls-11" d="M618.18,486.84a140.79,140.79,0,1,0-214.76,48.24l0,.25,2.22,22.3s57.26,39.25,106,26.22,66.65-29.65,66.65-29.65l2-19.61A140.1,140.1,0,0,0,618.18,486.84Z"/><circle class="cls-12" cx="492.03" cy="425.74" r="140.24"/><path class="cls-13" d="M587,287.83s-46.77-107.41-146.74-80.9-73.23,159-73.23,159l1,9.3,43.95-12.94S528,325,537.67,321.28,587,287.83,587,287.83Z"/><path class="cls-14" d="M591.83,288.43l84.65,6.18s2.18-.43-18.3,16.81-88.54,54-96.88,53-44.57,6.51-53.61,5.4-109.58-4.32-109.58-4.32l101.26-31.3,59.48-24.44Z"/><path class="cls-15" d="M589.68,288.59a309.78,309.78,0,0,1-53.65,32c-31.14,14.51-165.27,53.17-165.27,53.17"/><path class="cls-16" d="M370.23,374.61S329,241.8,436.54,209.38s152.14,78,152.14,78l90.66,6.08s-70.18,81.23-179.53,75.22S370.23,374.61,370.23,374.61Z"/><path class="cls-14" d="M383.15,227.17S444,98.06,462.91,95.4s57.72,6.65,57.72,6.65,65.9,14,68.58,14.35,44.95-11.26,44.95-11.26l2.69,4-69.57,52.7L587,270.43s-86.12,13.9-107.47,6.73S402.91,250.93,383.15,227.17Z"/><circle class="cls-13" cx="654.98" cy="94.55" r="19.82"/><line class="cls-17" x1="565.37" y1="164.4" x2="560.81" y2="146.14"/><path class="cls-18" d="M656.37,75.88a19.59,19.59,0,0,0-19.81,28.42c-9.58,4-21.75,8.3-34,10.57-26.47,4.9-120.39-28.45-139-21.2S383.2,226.72,383.2,226.72s46.51,42.49,100.15,49.09,103.91-3.54,103.91-3.54L566.61,163.54,639,108a19.59,19.59,0,1,0,17.33-32.1Z"/></g></svg>