<svg xmlns="http://www.w3.org/2000/svg" xmlns:xlink="http://www.w3.org/1999/xlink" viewBox="0 0 1024 768"><defs><style>.cls-1{fill:aqua;}.cls-2{fill:#231f20;}.cls-3,.cls-6,.cls-9{fill:#fff;}.cls-3,.cls-4,.cls-5,.cls-6,.cls-7{stroke:#231f20;}.cls-3,.cls-6{stroke-miterlimit:10;}.cls-3{stroke-width:8.5px;}.cls-4,.cls-5,.cls-7{stroke-linecap:round;stroke-linejoin:round;}.cls-4{stroke-width:7.08px;fill:url(#linear-gradient);}.cls-5,.cls-7{fill:none;}.cls-5,.cls-6{stroke-width:4.25px;}.cls-7{stroke-width:4px;}.cls-8{fill:#cfa073;}.cls-10{fill:#ff2700;}</style><linearGradient id="linear-gradient" x1="527.19" y1="534.58" x2="527.19" y2="271.07" gradientUnits="userSpaceOnUse"><stop offset="0" stop-color="#fff"/><stop offset="1" stop-color="#f29abf"/></linearGradient></defs><title>Artboard 1 copy 2</title><g id="Layer_1" data-name="Layer 1"><rect class="cls-1" x="1" width="1022" height="768"/></g><g id="Layer_2" data-name="Layer 2"><ellipse class="cls-2" cx="531.98" cy="540.25" rx="86.64" ry="19.75"/><path class="cls-3" d="M455.52,425.88c0-.95,0-1.9,0-2.83"/><path class="cls-4" d="M606.13,382.24s28.57-30.8,35.75-35.4c8.85-5.67,12.86,4.61,8.15,12-25.85,40.71-43.31,69.62-43.31,69.62l.23.95s-.93,33.88-2,45.55c-2.36,24.85-9.13,59.58-13.47,59.58-12.93,0-6.39-22-19-37.28-8.2-10-21.2-12.82-40.57-12.39-17.65.4-34.87-.82-46.49,13.38-10.86,13.27-2.86,36.29-14.36,36.29-5.11,0-11.63-37.45-13.36-58.58-1.31-16-1.91-33.73-2.19-50.12l.73-.45c-15.05-26.85-37.68-54-50.76-66.47,0,0-8.66-6.15,2.82-10.33s38.06,20.16,46.65,30.31c0-48.15,21.5-108.51,79.3-107.86,63.52.71,70.41,98.11,71.16,110.1"/><path class="cls-2" d="M461.2,400.56c-2.37,7.77-19.8-19.77-21.07-29.37-2.12-16,.64-63.39,41.29-104.13,34.75-34.83,84.43-15.53,102.15,4,21.07,23.16,35.76,69.68,35.76,90,0,11.24-16.52,41.75-22.49,39.45-12.73-4.9,2.55-55.06-20.74-90-12.64-19-24.22-35.9-35.28-24.74C523.33,303.34,515.65,297,481.25,306,458.47,311.94,465.5,386.47,461.2,400.56Z"/><path class="cls-5" d="M520.7,327s2.32-5.06,7.63-4.47,7.28,6.29,7.28,6.29"/><path class="cls-6" d="M549.71,315.88c-5.75.05-11.71,8.86-13.89,15.76-1.8,5.66,7.06,17.33,14.39,19,8.46,2,17.49-5.7,19.42-12.25C572.2,329.74,562.87,315.75,549.71,315.88Z"/><path class="cls-6" d="M506.29,315.88c5.75.05,11.71,8.86,13.89,15.76,1.79,5.66-7.06,17.33-14.4,19-8.45,2-17.48-5.7-19.42-12.25C483.8,329.74,493.13,315.75,506.29,315.88Z"/><path class="cls-7" d="M495,371s15.13,5,25.72,5S554,372,554,372"/><path class="cls-7" d="M554,372s.14.13.72-6.18c1.53-16.74-18.56,5.83-18.72,8.18"/></g><g id="Layer_4" data-name="Layer 4"><path class="cls-8" d="M651.39,377.76a12.56,12.56,0,0,1-5.53-1.22,11.05,11.05,0,0,1-5.84-7.48c-4.12-15,10.36-48,26.79-73,21.35-32.39,61.85-86.73,93.19-86.73a23.83,23.83,0,0,1,13.69,4.21,14.59,14.59,0,0,1,6.64,10.07c2.2,14.55-15.86,37.27-38.73,66-4.65,5.85-9.46,11.9-14.36,18.21-37,47.67-61.14,69.87-75.85,69.87Z"/><path class="cls-9" d="M760,210.4a22.74,22.74,0,0,1,13.11,4c20.33,13.88-11.43,47.45-46.68,92.82-31.7,40.79-58.76,69.48-75,69.48a11.52,11.52,0,0,1-5.08-1.11c-15.81-7.65,2.55-50.41,21.36-78.95C695.5,254.45,732.45,210.4,760,210.4m0-2.06c-31.82,0-72.58,54.63-94,87.2-16.05,24.35-31.32,57.83-26.93,73.8a12.12,12.12,0,0,0,6.39,8.13,13.54,13.54,0,0,0,6,1.32c15.26,0,38.9-21.67,76.66-70.27,4.9-6.3,9.71-12.35,14.36-18.2,23-29,41.2-51.83,38.94-66.82a15.61,15.61,0,0,0-7.07-10.77A24.9,24.9,0,0,0,760,208.34Z"/><path class="cls-9" d="M730.6,226a62.38,62.38,0,0,0-.38,10.18c.42,10.16,5.95,19.13,6,17.28.17-3.23-1.15-5.66-1.65-19.27-.37-9.87,1-11.91,1-11.91a4.93,4.93,0,0,0-1.45.79C733.48,223.65,730.6,226,730.6,226Z"/><path class="cls-9" d="M716,238.88a61.81,61.81,0,0,0-.39,10.19c.42,10.15,6,19.12,6,17.28.16-3.24-1.15-5.66-1.65-19.28-.37-9.87,1-11.9,1-11.9a4.94,4.94,0,0,0-1.45.78C718.86,236.58,716,238.88,716,238.88Z"/><path class="cls-9" d="M652.55,327.16a74.28,74.28,0,0,0,2.44,9.46c3,9.24,9.45,16.15,9,14.43-.74-3-2.35-4.93-6.35-17.33-2.91-9-2.45-11.19-2.45-11.19a3.65,3.65,0,0,0-.85,1.07C654,324.35,652.55,327.16,652.55,327.16Z"/><path class="cls-9" d="M697.91,257.42a70.44,70.44,0,0,0,.78,10.61c1.53,10.48,7.8,19.07,7.68,17.15-.21-3.38-1.73-5.73-3.73-19.78-1.45-10.2-.37-12.49-.37-12.49a5,5,0,0,0-1.3,1C700.39,254.66,697.91,257.42,697.91,257.42Z"/><path class="cls-9" d="M677.85,284.89a77.14,77.14,0,0,0,1.61,10.84c2.34,10.63,9.08,18.89,8.81,16.92-.47-3.46-2.13-5.73-5.21-20-2.24-10.35-1.38-12.8-1.38-12.8a5,5,0,0,0-1.17,1.14C680,281.82,677.85,284.89,677.85,284.89Z"/><path class="cls-9" d="M663.38,307.78a76.58,76.58,0,0,0,2.12,10.13c2.76,9.89,9.33,17.26,9,15.42-.64-3.23-2.26-5.27-5.91-18.54-2.65-9.63-2-12-2-12a4.49,4.49,0,0,0-1,1.15C665.15,304.75,663.38,307.78,663.38,307.78Z"/><path class="cls-8" d="M695,476a8.79,8.79,0,0,1-1.74-.18c-16.76-3.26-35.3-47.82-60.09-144.49-2.89-11.25-5.77-22.14-8.56-32.67-14.93-56.41-25.72-97.16-15.76-110.1a11,11,0,0,1,9.22-4.24c16.54,0,32.81,20,48.38,59.44,15.23,38.6,26.52,87.38,33.31,121.5,7,35.44,13.33,93.3,1.75,107.42A8.23,8.23,0,0,1,695,476Z"/><path class="cls-9" d="M618,185.54h0c35.22,0,63.84,96.41,80.45,179.93,9.34,46.95,13.64,109.25-3.53,109.25a7.94,7.94,0,0,1-1.5-.15C675.12,471,655.11,412,634.33,331s-42-145.45-16.31-145.45m0-2.5h0a12.21,12.21,0,0,0-10.21,4.72c-10.33,13.44.52,54.44,15.54,111.19,2.79,10.53,5.68,21.42,8.56,32.66,11.49,44.79,21.49,77.87,30.57,101.12C673.54,461.05,683.23,475.12,693,477a10.47,10.47,0,0,0,2,.2,9.55,9.55,0,0,0,7.48-3.78c12.78-15.58,4.61-77.76-1.49-108.46-6.8-34.17-18.11-83-33.38-121.71-7.3-18.5-14.86-32.92-22.45-42.87C636.32,188.88,627.21,183,618,183Z"/><path class="cls-9" d="M657.88,232.86A79.55,79.55,0,0,1,654.79,245c-3.91,11.51-12.68,17.56-12.15,15.34.94-3.91,3.12-5.69,8.3-21.16,3.76-11.23,3-14.7,3-14.7a10.77,10.77,0,0,1,1.23,2.07C655.7,227.88,657.88,232.86,657.88,232.86Z"/><path class="cls-9" d="M668.52,259.59a80.31,80.31,0,0,1-3.1,12.18c-3.91,11.5-12.68,17.55-12.15,15.33.94-3.9,3.13-5.69,8.31-21.16,3.76-11.22,3-14.69,3-14.69a10.43,10.43,0,0,1,1.23,2.07C666.33,254.61,668.52,259.59,668.52,259.59Z"/><path class="cls-9" d="M703.62,413.09a67.6,67.6,0,0,1-5.76,9.08c-6.28,8.36-15.26,11.3-14.23,9.64,1.8-2.92,4.11-3.88,12.48-15.14,6.08-8.17,6.36-11.11,6.36-11.11a8.17,8.17,0,0,1,.51,1.92C703.06,408.63,703.62,413.09,703.62,413.09Z"/><path class="cls-9" d="M680.78,295.6a79.54,79.54,0,0,1-4.44,11.75c-5.17,11-14.56,16-13.78,13.88,1.37-3.77,3.73-5.3,10.61-20.09,5-10.74,4.66-14.27,4.66-14.27a10.36,10.36,0,0,1,1,2.2C679.17,290.41,680.78,295.6,680.78,295.6Z"/><path class="cls-9" d="M692,343.62A79.69,79.69,0,0,1,686.66,355c-6,10.54-15.82,14.79-14.87,12.71,1.67-3.65,4.16-5,12.22-19.17,5.85-10.29,5.8-13.83,5.8-13.83a10.08,10.08,0,0,1,.81,2.27C690.86,338.32,692,343.62,692,343.62Z"/><path class="cls-9" d="M699.09,381.85A72.87,72.87,0,0,1,693.44,392c-6.22,9.34-15.52,12.7-14.51,10.84,1.76-3.25,4.14-4.34,12.44-16.91,6-9.12,6.2-12.38,6.2-12.38a9.44,9.44,0,0,1,.61,2.13C698.32,376.91,699.09,381.85,699.09,381.85Z"/><polyline class="cls-8" points="365.87 157.48 431.81 384.79 418.91 391 363 168.66 364.43 155"/><path class="cls-9" d="M292,250s35-35,76-39,94,2,94,2,4.32,14.29,0,24c-8,18-16,17-16,17s-44-4-67,2-56,28-63,28S293,274,292,250Z"/><path class="cls-10" d="M312,230s17,77,30,67,10-51,27-39,17,18,33,12,25-4,28-19,24-41,11-46-53-4-67,0S328,224,312,230Z"/></g></svg>