<svg xmlns="http://www.w3.org/2000/svg" viewBox="0 0 659.06 348.38" style=""><defs><style>.cls-1{fill:none;stroke:#fff;stroke-miterlimit:10;stroke-width:8px;}</style></defs><title>Asset 4</title><g id="Layer_2" data-name="Layer 2"><g id="Layer_5" data-name="Layer 5"><path class="cls-1 SrEklnyg_0" d="M83.74,100.3q0,10.26-2.52,16.29T74.29,125q-4.41,2.34-11.61,2.34-10.62,0-15.39-5.67t-4.95-20.07L42,35.14H26.68q-11.34,0-17-3.6T4,18.76q0-5.58,2.25-8.82A12.11,12.11,0,0,1,13,5.35,43.37,43.37,0,0,1,25.06,4h77q10.08,0,14.58,3.6T121.18,20q0,5.94-2.61,9.27a13.27,13.27,0,0,1-6.93,4.59,40.83,40.83,0,0,1-11.16,1.26H83.74Z"></path><path class="cls-1 SrEklnyg_1" d="M258,100.3q0,14.58-5.22,20.79t-15.84,6.21q-10.44,0-15.3-5.67t-4.86-20.07l-.18-20.34H179.86V100.3q0,14.76-5,20.88t-16,6.12q-10.44,0-15.3-5.67t-4.86-20.07l-.54-76q0-11.16,5.67-16.38T158.8,4q10.8,0,15.93,4t5.13,16V54.22H216.4V25.6q0-7.56,2.79-12.51a16.21,16.21,0,0,1,7.2-7A24.6,24.6,0,0,1,236.92,4q10.44,0,15.75,4T258,24Z"></path><path class="cls-1 SrEklnyg_2" d="M347.44,99.94H317.56v9.54q0,9.18-4.86,13.5T296,127.3a20.5,20.5,0,0,1-8.28-1.44A14,14,0,0,1,282,121q-2.43-3.42-3.6-10a150.11,150.11,0,0,1-1.8-15.84Q276,85.9,276,71.68a93.07,93.07,0,0,1,2.61-22.77,63,63,0,0,1,7-17.55,66.19,66.19,0,0,1,10-12.69,43.46,43.46,0,0,1,12.15-8.55,70,70,0,0,1,12.78-4.59A52.11,52.11,0,0,1,333,4,55.07,55.07,0,0,1,348,6.07a52.78,52.78,0,0,1,14.94,7.11,54.48,54.48,0,0,1,13.23,12.51q5.67,7.47,9.27,19.35A91.72,91.72,0,0,1,389,71.68q0,23.76-1.71,35.19t-5.76,15.93q-4.05,4.5-12.51,4.5-11.88,0-16.74-4.32t-4.86-13.5Zm-14.76-66.6q-7.74,0-11.43,4.5t-3.69,16V75.1h29.88V53.5a33.92,33.92,0,0,0-1.8-12.15q-1.8-4.59-4.95-6.3A16.68,16.68,0,0,0,332.68,33.34Z"></path><path class="cls-1 SrEklnyg_3" d="M523.48,110.2q0,7.92-4.68,12.51t-13.68,4.59a20.75,20.75,0,0,1-4.68-.54,19.36,19.36,0,0,1-4.95-2q-2.61-1.44-4.59-2.7a42.84,42.84,0,0,1-4.95-3.87q-3-2.61-4.68-4.14T476,109.12q-3.6-3.42-5.22-5L437.8,72.94V112q0,8.82-3.33,12.06t-10.53,3.24q-7.92,0-11.7-3.6t-3.78-12.06V24.7q0-10.26,5.22-15.48T428.62,4q6.66,0,10.71,2.07A43.3,43.3,0,0,1,449,13.54L494.5,58.9V19.66q0-7.74,3.87-11.61T508.9,4.18q7.74,0,11.16,3.6t3.42,11.7Z"></path><path class="cls-1 SrEklnyg_4" d="M630.76,68.08q9.18,1.08,16.74,9.27t7.56,21q0,12.42-1.8,18.45t-6.12,8.28c-2.88,1.5-7.27,2.25-13.14,2.25a29.46,29.46,0,0,1-11.61-2,13.57,13.57,0,0,1-6.75-5.85,20.37,20.37,0,0,1-2.16-10,115.41,115.41,0,0,0-.63-13.23,50.16,50.16,0,0,0-1.62-8.46,9.74,9.74,0,0,0-3-4.77A9.88,9.88,0,0,0,604.39,81a23.11,23.11,0,0,0-5.13-.45h-9.54v20q0,14.4-5.58,20.61t-16.38,6.21q-10.46,0-15.39-5.85t-5-19.71V26.68q0-11.34,4.23-17T565.42,4a49.72,49.72,0,0,1,9.27.72,25.5,25.5,0,0,1,7.2,2.61,11.64,11.64,0,0,1,5.22,5.94,26.82,26.82,0,0,1,1.71,10.35q0,5.58-.09,12.51c-.07,4.62-.09,7.89-.09,9.81a6.52,6.52,0,0,0,1.17,4,8,8,0,0,0,3.6,2.61,16,16,0,0,0,6,1q7.72,0,10.35-6.12t2.61-25q0-9.36,5-13.86T633.64,4q12,0,16.2,4.68T654,25.42q0,19.8-6.93,30.69T630.76,68.08Z"></path><path class="cls-1 SrEklnyg_5" d="M215.68,316.3q0,14.58-5.22,20.79t-16,6.21q-10.44,0-15.3-5.67t-5-20.07l-.18-29.16L146.2,256q-7.56-8.64-7.56-14.94a18.64,18.64,0,0,1,7.56-15.66Q153.4,220,159,220q7.74,0,13.86,7l22,25.56,18.36-21.42q9.18-11,19.62-11,7.74,0,12.06,4.32,7.38,7.38,7.38,14.22a15.75,15.75,0,0,1-2.52,8,90,90,0,0,1-8.1,10.89L215.68,289.3Z"></path><path class="cls-1 SrEklnyg_6" d="M356.08,337.27a70.45,70.45,0,0,1-31.95,7.11q-17.73,0-31.86-7.11a54.38,54.38,0,0,1-22.59-21.33q-8.46-14.22-8.46-33.48,0-29.16,17.55-46.35t45.45-17.19q27.9,0,45.54,17.19t17.64,46.35q0,19.26-8.55,33.48A54.82,54.82,0,0,1,356.08,337.27ZM324.22,318.1q6.12,0,10.53-5.4a32.72,32.72,0,0,0,6.3-13.32,72.73,72.73,0,0,0,1.89-16.92,73.72,73.72,0,0,0-2-17.37,36.89,36.89,0,0,0-6.39-13.95q-4.41-5.76-10.35-5.76-5.76,0-10.08,5.76a39.92,39.92,0,0,0-6.48,14,68.18,68.18,0,0,0-2.16,17.28,66.7,66.7,0,0,0,2.07,16.92,34.55,34.55,0,0,0,6.48,13.32Q318.46,318.1,324.22,318.1Z"></path><path class="cls-1 SrEklnyg_7" d="M518.08,241.6v53.64q0,26.28-12.69,37.71t-42.75,11.43q-28.62,0-42-12.24t-13.41-36.9V241.6q0-9.54,5.67-15.57a18.8,18.8,0,0,1,14.31-6q10.62,0,16.11,4t5.49,16v58.68a22.13,22.13,0,0,0,1.89,9.18,9.88,9.88,0,0,0,4.59,4.77,17.41,17.41,0,0,0,7.38,1.35,21.35,21.35,0,0,0,7.38-1.08,7.89,7.89,0,0,0,4.23-3.42,15.06,15.06,0,0,0,1.8-4.68,34.52,34.52,0,0,0,.45-6.12V239.8A29.82,29.82,0,0,1,478,229.54a11.67,11.67,0,0,1,4.68-6.12,20,20,0,0,1,6.48-2.7,38.45,38.45,0,0,1,8-.72q10.44,0,15.66,5T518.08,241.6Z"></path></g></g><style data-made-with="vivus-instant">.SrEklnyg_0{stroke-dasharray:439 441;stroke-dashoffset:440;animation:SrEklnyg_draw_0 6800ms ease-in-out 0ms infinite,SrEklnyg_fade 6800ms linear 0ms infinite;}.SrEklnyg_1{stroke-dasharray:615 617;stroke-dashoffset:616;animation:SrEklnyg_draw_1 6800ms ease-in-out 0ms infinite,SrEklnyg_fade 6800ms linear 0ms infinite;}.SrEklnyg_2{stroke-dasharray:575 577;stroke-dashoffset:576;animation:SrEklnyg_draw_2 6800ms ease-in-out 0ms infinite,SrEklnyg_fade 6800ms linear 0ms infinite;}.SrEklnyg_3{stroke-dasharray:592 594;stroke-dashoffset:593;animation:SrEklnyg_draw_3 6800ms ease-in-out 0ms infinite,SrEklnyg_fade 6800ms linear 0ms infinite;}.SrEklnyg_4{stroke-dasharray:601 603;stroke-dashoffset:602;animation:SrEklnyg_draw_4 6800ms ease-in-out 0ms infinite,SrEklnyg_fade 6800ms linear 0ms infinite;}.SrEklnyg_5{stroke-dasharray:420 422;stroke-dashoffset:421;animation:SrEklnyg_draw_5 6800ms ease-in-out 0ms infinite,SrEklnyg_fade 6800ms linear 0ms infinite;}.SrEklnyg_6{stroke-dasharray:580 582;stroke-dashoffset:581;animation:SrEklnyg_draw_6 6800ms ease-in-out 0ms infinite,SrEklnyg_fade 6800ms linear 0ms infinite;}.SrEklnyg_7{stroke-dasharray:580 582;stroke-dashoffset:581;animation:SrEklnyg_draw_7 6800ms ease-in-out 0ms infinite,SrEklnyg_fade 6800ms linear 0ms infinite;}@keyframes SrEklnyg_draw{100%{stroke-dashoffset:0;}}@keyframes SrEklnyg_fade{0%{stroke-opacity:1;}92.6470588235294%{stroke-opacity:1;}100%{stroke-opacity:0;}}@keyframes SrEklnyg_draw_0{11.76470588235294%{stroke-dashoffset: 440}41.17647058823529%{ stroke-dashoffset: 0;}100%{ stroke-dashoffset: 0;}}@keyframes SrEklnyg_draw_1{13.865546218487395%{stroke-dashoffset: 616}43.27731092436975%{ stroke-dashoffset: 0;}100%{ stroke-dashoffset: 0;}}@keyframes SrEklnyg_draw_2{15.96638655462185%{stroke-dashoffset: 576}45.378151260504204%{ stroke-dashoffset: 0;}100%{ stroke-dashoffset: 0;}}@keyframes SrEklnyg_draw_3{18.0672268907563%{stroke-dashoffset: 593}47.47899159663865%{ stroke-dashoffset: 0;}100%{ stroke-dashoffset: 0;}}@keyframes SrEklnyg_draw_4{20.16806722689076%{stroke-dashoffset: 602}49.57983193277311%{ stroke-dashoffset: 0;}100%{ stroke-dashoffset: 0;}}@keyframes SrEklnyg_draw_5{22.26890756302521%{stroke-dashoffset: 421}51.68067226890756%{ stroke-dashoffset: 0;}100%{ stroke-dashoffset: 0;}}@keyframes SrEklnyg_draw_6{24.369747899159663%{stroke-dashoffset: 581}53.78151260504202%{ stroke-dashoffset: 0;}100%{ stroke-dashoffset: 0;}}@keyframes SrEklnyg_draw_7{26.47058823529412%{stroke-dashoffset: 581}55.88235294117647%{ stroke-dashoffset: 0;}100%{ stroke-dashoffset: 0;}}</style></svg>