<svg xmlns="http://www.w3.org/2000/svg" xmlns:xlink="http://www.w3.org/1999/xlink" viewBox="0 0 1024 768"><defs><style>.cls-1{fill:#ff0;}.cls-2{fill:aqua;}.cls-3{fill:#231f20;}.cls-4,.cls-7{fill:#fff;}.cls-10,.cls-4,.cls-5,.cls-6,.cls-7,.cls-9{stroke:#231f20;}.cls-4,.cls-7,.cls-8{stroke-miterlimit:10;}.cls-4{stroke-width:10.05px;}.cls-10,.cls-5,.cls-6,.cls-9{stroke-linecap:round;stroke-linejoin:round;}.cls-10,.cls-5,.cls-9{stroke-width:8.38px;}.cls-5{fill:url(#linear-gradient);}.cls-6{fill:none;}.cls-6,.cls-7,.cls-8{stroke-width:5.03px;}.cls-8{fill:#a4def8;stroke:#000;}.cls-9{fill:#ffd6e8;}.cls-10{fill:#ffcce3;}</style><linearGradient id="linear-gradient" x1="505.77" y1="422.75" x2="505.77" y2="111.02" gradientUnits="userSpaceOnUse"><stop offset="0" stop-color="#fff"/><stop offset="1" stop-color="#f29abf"/></linearGradient></defs><title>Artboard 1 copy</title><g id="Layer_1" data-name="Layer 1"><rect class="cls-1" x="1" y="-3" width="1022" height="768"/></g><g id="Layer_3" data-name="Layer 3"><path class="cls-2" d="M150.53,338.64q4.29,13.59,3.49,22.63t-5.67,14q-4.86,5-14.39,8-14.07,4.45-22.76-1.06t-15-24.5l-28.32-87.8-20.26,6.41q-15,4.75-24,2.37T10.77,264.09q-2.34-7.38-.72-12.62a16.83,16.83,0,0,1,7-8.91q5.4-3.67,15.41-6.84l102-32.29q13.35-4.22,20.81-1.34t11.17,14.56q2.49,7.86.43,13.37a18.43,18.43,0,0,1-7.26,9,56.69,56.69,0,0,1-14.24,6.34l-22.17,7Z"/><path class="cls-2" d="M362.19,305.09q2,20.15-4.3,29.46t-21,10.81q-14.42,1.45-21.93-5.69t-9.53-27.05l-3.11-28.08-50.74,5.15,2.68,26.36q2.07,20.4-4,29.56t-21.28,10.71q-14.43,1.46-21.94-5.69t-9.53-27.05l-11.4-104.89q-1.58-15.41,5.53-23.42t20-9.33q14.93-1.51,22.57,3.24t9.33,21.42l4.25,41.78,50.49-5.13-4-39.54q-1.06-10.46,2.1-17.68a22.52,22.52,0,0,1,9-10.71A34.12,34.12,0,0,1,319.57,175q14.43-1.46,22.32,3.26t9.59,21.39Z"/><path class="cls-2" d="M812.16,323.79q-1,10.95-8.12,16.68T784.52,345a28.66,28.66,0,0,1-6.4-1.36,26.47,26.47,0,0,1-6.58-3.39c-2.28-1.55-4.28-3-6-4.33a59.41,59.41,0,0,1-6.34-6q-3.76-4-5.92-6.34t-6.7-7.54c-3-3.46-5.2-6-6.55-7.65L698.59,261l-5.14,54q-1.16,12.19-6.19,16.24t-15,3.09q-11-1-15.71-6.51t-3.64-17.17l11.44-120.21q1.35-14.19,9.26-20.72T695,164.47q9.21.87,14.54,4.27t12.33,11.6l57,68.7L784,194.79q1-10.69,6.88-15.54t15.06-4q10.71,1,15,6.45t3.19,16.62Z"/><path class="cls-2" d="M381,631.09q8.67,18.3,5.8,29.2T370.39,677.6q-13.09,6.21-22.57,2t-18.26-22.2L312,620.88,258,596.68q-14.62-6.34-18.37-14.26-5.88-12.42.18-24.15,5.83-11.06,12.84-14.38,9.7-4.59,21.57.58l42.75,19,10.32-37.8q5-19.25,18.11-25.45,9.7-4.59,17.7-1.74,13.65,4.88,17.72,13.46a21.82,21.82,0,0,1,1.59,11.56A124.4,124.4,0,0,1,378.68,542L365,597.19Z"/><path class="cls-2" d="M796.51,569.74l-25.48,70Q758.55,674,736.56,682.93t-61.23-5.39Q638,664,626.29,641.6t0-54.53l25.48-70q4.53-12.45,14.8-17.62a26.14,26.14,0,0,1,21.54-1.08q13.86,5.06,19.14,12.82t-.44,23.52L679,611.29q-2.51,7.61-1.89,12.87a13.69,13.69,0,0,0,3.72,8.41,24.31,24.31,0,0,0,9,5.27,29.67,29.67,0,0,0,10.15,2.09,10.84,10.84,0,0,0,7.14-2.45,21.09,21.09,0,0,0,4.58-5.25,47.92,47.92,0,0,0,3.49-7.78l28-76.82A41.58,41.58,0,0,1,750,535a16.22,16.22,0,0,1,9-5.76,27.8,27.8,0,0,1,9.74-.45,53.07,53.07,0,0,1,10.79,2.87q13.62,4.95,18.05,14T796.51,569.74Z"/><path class="cls-2" d="M949.93,322q11.12,6.43,16.24,21t-1.9,30.9q-6.84,15.84-12.46,22.54t-12.36,7.19q-6.75.5-18-4.37-9-3.87-13.72-8.92a18.81,18.81,0,0,1-5.38-11.17q-.63-6.12,2.74-13.93A158.34,158.34,0,0,0,911.58,348a67.68,67.68,0,0,0,2.6-11.68,13.49,13.49,0,0,0-5-12.48,32,32,0,0,0-6.29-3.4l-12.17-5.25-11,25.47q-7.92,18.38-18.46,23.21T837,362.8q-13.31-5.74-16.4-15.93T825.13,319l41.32-95.71q6.25-14.46,14.76-19.36t20.68.35a70.14,70.14,0,0,1,11.43,6,35.31,35.31,0,0,1,7.74,7.3,16.09,16.09,0,0,1,3.39,10.44q-.06,6.1-3.52,14.14-3.07,7.13-7,15.91c-2.63,5.85-4.46,10-5.52,12.45a9.16,9.16,0,0,0-.69,5.7,11.12,11.12,0,0,0,3.16,5.31,22.28,22.28,0,0,0,7.14,4.58q9.87,4.26,16.57-2.11t17.1-30.46q5.14-11.94,14.06-14.9t23.13,3.18q15.38,6.65,18.08,14.89T1003,280.36q-10.89,25.26-25.73,35.32T949.93,322Z"/><path class="cls-2" d="M551.13,654.87q-19.75,9.89-44.38,9.88t-44.25-9.88a75.47,75.47,0,0,1-31.37-29.62q-11.76-19.75-11.75-46.5,0-40.5,24.37-64.38t63.13-23.87q38.75,0,63.25,23.87t24.5,64.38q0,26.75-11.88,46.5A76.13,76.13,0,0,1,551.13,654.87Zm-44.25-26.62q8.49,0,14.62-7.5a45.51,45.51,0,0,0,8.75-18.5,101,101,0,0,0,2.63-23.5,102.64,102.64,0,0,0-2.75-24.13,51.37,51.37,0,0,0-8.88-19.37q-6.12-8-14.37-8-8,0-14,8a55.39,55.39,0,0,0-9,19.5,94.74,94.74,0,0,0-3,24,92.49,92.49,0,0,0,2.87,23.5,48.11,48.11,0,0,0,9,18.5Q498.87,628.25,506.88,628.25Z"/></g><g id="Layer_5" data-name="Layer 5"><ellipse class="cls-3" cx="499.53" cy="429.45" rx="102.49" ry="23.37"/><path class="cls-4" d="M409.07,294.15c0-1.12,0-2.24-.05-3.35"/><path class="cls-5" d="M587.24,242.53s3.76,12.79,9.4,4.43c15.78-23.38,49.74-29.23,33.51,21.77-20.48,64.35-46.73,33.2-42.22,28.53l.28,1.12s-1.1,40.08-2.41,53.88c-2.79,29.4-10.81,70.49-15.94,70.49-15.29,0-7.55-26-22.41-44.1-9.71-11.82-25.09-15.17-48-14.66-20.88.47-41.25-1-55,15.82-12.85,15.71-3.38,42.94-17,42.94-6,0-13.75-44.31-15.8-69.3-1.55-18.93-2.32-26.79-2.64-46.18,0,0-29.43-5.16-31.83-26.81-1.68-15.08,23.45-40.2,31.21-41.84,0-57,25.44-128.36,93.82-127.59,75.15.84,83.3,116.06,84.18,130.25"/><path class="cls-3" d="M415.79,264.2c-2.8,9.19-23.42-23.38-24.92-34.73-2.51-18.93.75-75,48.84-123.2,41.11-41.19,99.88-18.36,120.84,4.69,24.93,27.4,42.3,82.43,42.3,106.43,0,13.29-19.53,49.38-26.6,46.66-15.06-5.8,3-65.13-24.54-106.46-15-22.43-28.65-42.48-41.73-29.28-20.7,20.88-29.78,13.34-70.48,24C412.56,159.37,420.88,247.53,415.79,264.2Z"/><path class="cls-6" d="M486.18,177.2s2.74-6,9-5.3,8.61,7.44,8.61,7.44"/><path class="cls-7" d="M520.5,164c-6.81.07-13.86,10.49-16.44,18.65-2.12,6.7,8.35,20.5,17,22.52,10,2.34,20.68-6.74,23-14.49C547.1,180.42,536.06,163.88,520.5,164Z"/><path class="cls-7" d="M469.12,164c6.81.07,13.86,10.49,16.44,18.65,2.12,6.7-8.35,20.5-17,22.52-10,2.34-20.68-6.74-23-14.49C442.52,180.42,453.56,163.88,469.12,164Z"/><path class="cls-6" d="M479.78,219.73s12.2,9.19,20.1,7.07c9.11-2.44,16-9.38,16-9.38"/><polyline class="cls-6" points="522.93 176.6 516.23 184.97 526.28 188.32"/><polyline class="cls-6" points="462.96 186.36 473.22 183.21 466.8 174.78"/><path class="cls-8" d="M735.55,164.51c-1.64-.32-63.29,18.47-68.87,20.8s-1.59,8.23-1.59,8.23l.73,2.21L532.24,280.44c-3.27-.19-8-.93-10.24-8.8-5-18,13.06-14.54,16.24-31,0,0,3.92-2.65-7.91-3.23s-21.32,4.4-32.09,16-15,24.4-22.5,28.06-39.05,7.8-46.26,9.82-27.86,11.67-33.37,22.55-4.73,33.21-.75,39.1,24.89,38.94,27.54,42.87,18.52,18.94,30.35,19.52,27.22-8.38,33.42-14,18.2-32.32,28-38.95,20.63-9.65,29.18-9.71,25.2-15.6,21.54-23.13-6.9.37-11.84-.58-10.5,1.38-22.39-7.75a19.9,19.9,0,0,1-5.63-7.16L675.77,208.15a61,61,0,0,1,9.11-2.25c5.26-.69,11.2,3.87,11.2,3.87l28.75-25.15,4.94,1s8.91,6.84,14.75-5.68S737.19,164.83,735.55,164.51Z"/><path class="cls-9" d="M431.63,271.25s41.88,31.83,35.18,40.2-67-6.7-67-6.7"/><path class="cls-10" d="M595.23,268.26c1.43-2.55,18.23-45.4,36.08-34.13,6.28,4-.57,32.81-.57,32.81"/></g></svg>