<svg xmlns="http://www.w3.org/2000/svg" viewBox="0 0 914.25 482.75"><defs><style>.cls-1{fill:none;stroke:#000;stroke-width:10px;}</style></defs><title>Asset 2</title><g id="Layer_2" data-name="Layer 2"><g id="Layer_3" data-name="Layer 3"><path class="cls-1" d="M115.75,138.75q0,14.25-3.5,22.63T102.63,173q-6.13,3.25-16.13,3.25-14.76,0-21.37-7.87T58.25,140.5l-.5-92.25H36.5q-15.75,0-23.62-5T5,25.5q0-7.74,3.13-12.25A16.77,16.77,0,0,1,17.5,6.88Q23.74,5,34.25,5h107q14,0,20.25,5t6.25,17.25q0,8.25-3.62,12.88a18.43,18.43,0,0,1-9.63,6.37A56.6,56.6,0,0,1,139,48.25H115.75Z"/><path class="cls-1" d="M357.75,138.75q0,20.25-7.25,28.88t-22,8.62q-14.5,0-21.25-7.87T300.5,140.5l-.25-28.25h-51v26.5q0,20.5-7,29T220,176.25q-14.5,0-21.25-7.87T192,140.5L191.25,35q0-15.49,7.88-22.75T220,5q15,0,22.13,5.5t7.12,22.25v42H300V35q0-10.5,3.88-17.37a22.39,22.39,0,0,1,10-9.75A34.07,34.07,0,0,1,328.5,5Q343,5,350.38,10.5t7.37,22.25Z"/><path class="cls-1" d="M482,138.25H440.5V151.5q0,12.75-6.75,18.75t-23.25,6a28.35,28.35,0,0,1-11.5-2,19.33,19.33,0,0,1-7.87-6.75q-3.37-4.74-5-13.87a206.17,206.17,0,0,1-2.5-22q-.88-12.88-.88-32.63a129,129,0,0,1,3.63-31.62A87.1,87.1,0,0,1,396.13,43,91.72,91.72,0,0,1,410,25.38,60.22,60.22,0,0,1,426.88,13.5a96.9,96.9,0,0,1,17.75-6.37A72.14,72.14,0,0,1,462,5a76.4,76.4,0,0,1,20.75,2.88,73.33,73.33,0,0,1,20.75,9.87,75.71,75.71,0,0,1,18.38,17.38Q529.76,45.5,534.75,62a127.53,127.53,0,0,1,5,37q0,33-2.37,48.88t-8,22.12q-5.62,6.25-17.38,6.25-16.5,0-23.25-6T482,151.5Zm-20.5-92.5q-10.75,0-15.87,6.25T440.5,74.25v29.5H482v-30q0-10.5-2.5-16.87t-6.87-8.75A23.12,23.12,0,0,0,461.5,45.75Z"/><path class="cls-1" d="M726.5,152.5q0,11-6.5,17.38t-19,6.37a28.76,28.76,0,0,1-6.5-.75,26.68,26.68,0,0,1-6.88-2.75c-2.41-1.33-4.54-2.58-6.37-3.75a58.79,58.79,0,0,1-6.88-5.37q-4.12-3.63-6.5-5.75T660.5,151q-5-4.74-7.25-7L607.5,100.75V155q0,12.25-4.63,16.75t-14.62,4.5q-11,0-16.25-5t-5.25-16.75V33.75q0-14.25,7.25-21.5T594.75,5Q604,5,609.62,7.88T623,18.25l63.25,63V26.75q0-10.74,5.37-16.12t14.63-5.38q10.74,0,15.5,5T726.5,26.5Z"/><path class="cls-1" d="M875.5,94q12.75,1.5,23.25,12.88T909.25,136q0,17.25-2.5,25.63t-8.5,11.5q-6,3.12-18.25,3.12-9.75,0-16.13-2.75a18.83,18.83,0,0,1-9.37-8.12q-3-5.38-3-13.88a160.78,160.78,0,0,0-.88-18.37,66.19,66.19,0,0,0-2.25-11.75,13.41,13.41,0,0,0-9.5-9.5,31.81,31.81,0,0,0-7.12-.63H818.5V139q0,20-7.75,28.63T788,176.25q-14.5,0-21.38-8.12t-6.87-27.38V36.5q0-15.75,5.87-23.62T784.75,5a69.54,69.54,0,0,1,12.87,1,35.35,35.35,0,0,1,10,3.63,16.09,16.09,0,0,1,7.25,8.25q2.37,5.63,2.38,14.37,0,7.76-.13,17.38C817,56,817,60.59,817,63.25a9.16,9.16,0,0,0,1.62,5.5,11.16,11.16,0,0,0,5,3.63A22.43,22.43,0,0,0,832,73.75q10.74,0,14.37-8.5T850,30.5q0-13,7-19.25T879.5,5q16.74,0,22.5,6.5t5.75,23.25q0,27.51-9.63,42.63T875.5,94Z"/><path class="cls-1" d="M299,438.75q0,20.25-7.25,28.88t-22.25,8.62q-14.51,0-21.25-7.87t-7-27.88L241,400l-38.5-45Q192,343,192,334.25q0-13.74,10.5-21.75,10-7.5,17.75-7.5,10.74,0,19.25,9.75l30.5,35.5,25.5-29.75q12.75-15.24,27.25-15.25,10.74,0,16.75,6,10.25,10.26,10.25,19.75a21.93,21.93,0,0,1-3.5,11.13A126.48,126.48,0,0,1,335,357.25l-36,44Z"/><path class="cls-1" d="M719,335v74.5q0,36.51-17.63,52.38T642,477.75q-39.75,0-58.38-17T565,409.5V335q0-13.25,7.87-21.62A26.11,26.11,0,0,1,592.75,305q14.75,0,22.37,5.5t7.63,22.25v81.5q.24,8,2.62,12.75a13.7,13.7,0,0,0,6.38,6.63A24.2,24.2,0,0,0,642,435.5a29.64,29.64,0,0,0,10.25-1.5,10.9,10.9,0,0,0,5.87-4.75,20.9,20.9,0,0,0,2.5-6.5,46.24,46.24,0,0,0,.63-8.5V332.5a41.4,41.4,0,0,1,2.12-14.25,16.32,16.32,0,0,1,6.5-8.5,28.18,28.18,0,0,1,9-3.75A53.85,53.85,0,0,1,690,305q14.49,0,21.75,7T719,335Z"/></g></g></svg>