<svg width="209" height="156" viewBox="0 0 209 156" version="1.1" xmlns="http://www.w3.org/2000/svg" xmlns:xlink="http://www.w3.org/1999/xlink">
<title>comic-self_more_work</title>
<desc>Created using Figma</desc>
<g id="Canvas" transform="translate(-11937 -9993)">
<g id="comic-self_more_work">
<g id="Vector">
<use xlink:href="#path0_fill" transform="translate(11996.3 10071.3)" fill="#6BDBDB"/>
</g>
<g id="Vector 2">
<use xlink:href="#path1_fill" transform="translate(11938.4 10010)" fill="#FFFFFF"/>
</g>
<g id="Group">
<g id="Vector">
<use xlink:href="#path2_fill" transform="translate(11937 10045.9)" fill="#231F20"/>
</g>
</g>
<g id="Vector">
<use xlink:href="#path3_fill" transform="translate(11941.5 10046.5)" fill="#FFFFFF"/>
<use xlink:href="#path4_stroke" transform="translate(11941.5 10046.5)" fill="#231F20"/>
</g>
<g id="Vector">
<use xlink:href="#path5_fill" transform="translate(11941.5 10046.7)" fill="#FFFFFF"/>
<use xlink:href="#path6_stroke" transform="translate(11941.5 10046.7)" fill="#231F20"/>
</g>
<g id="Group">
<g id="Vector">
<use xlink:href="#path7_fill" transform="translate(11941.4 10046.7)" fill="#231F20"/>
</g>
</g>
<g id="Vector">
<use xlink:href="#path8_stroke" transform="translate(11941.5 10010.1)" fill="#231F20"/>
</g>
<g id="Group">
<g id="Vector">
<use xlink:href="#path9_fill" transform="translate(11992.2 10059.2)" fill="#231F20"/>
</g>
</g>
<g id="Vector">
<use xlink:href="#path10_fill" transform="translate(11947.4 10016.1)" fill="#DE7EA7"/>
</g>
<g id="Group">
<g id="Vector">
<use xlink:href="#path11_fill" transform="translate(11973 10033.3)" fill="#FFFFFF"/>
</g>
<g id="Vector">
<use xlink:href="#path12_fill" transform="translate(11946.4 10034.4)" fill="#FFFFFF"/>
</g>
</g>
<g id="Vector">
<use xlink:href="#path13_fill" transform="translate(12004.4 10061.8)" fill="#808184"/>
</g>
<g id="Vector">
<use xlink:href="#path14_fill" transform="translate(12076 10081.2)" fill="#808184"/>
</g>
<g id="Vector">
<use xlink:href="#path15_fill" transform="translate(12052.9 10015.5)" fill="#FFFFFF"/>
<use xlink:href="#path16_stroke" transform="translate(12052.9 10015.5)" fill="#231F20"/>
</g>
<g id="Vector">
<use xlink:href="#path17_fill" transform="translate(12036.9 9998.52)" fill="#FFFFFF"/>
<use xlink:href="#path18_stroke" transform="translate(12036.9 9998.52)" fill="#231F20"/>
</g>
<g id="Vector">
<use xlink:href="#path19_fill" transform="translate(12084.5 10002.9)" fill="#FFFFFF"/>
<use xlink:href="#path20_stroke" transform="translate(12084.5 10002.9)" fill="#231F20"/>
</g>
<g id="Vector">
<use xlink:href="#path21_fill" transform="translate(12062.8 9994)" fill="#FFFFFF"/>
<use xlink:href="#path22_stroke" transform="translate(12062.8 9994)" fill="#231F20"/>
</g>
<g id="Vector">
<use xlink:href="#path23_fill" transform="translate(12073.8 10022.3)" fill="#FFFFFF"/>
<use xlink:href="#path24_stroke" transform="translate(12073.8 10022.3)" fill="#231F20"/>
</g>
</g>
</g>
<defs>
<path id="path0_fill" d="M 84.301 76.697L -1.5564e-06 76.697L 77.572 -7.08008e-06L 149.474 2.452L 84.301 76.697Z"/>
<path id="path1_fill" d="M 49.5 111L 0 43L 4.5 35L 75 0L 120 49.5L 192 49.5L 192 56.5L 139.5 111L 49.5 111Z"/>
<path id="path2_fill" d="M 5.8373 1.515L 4.4443 4.015L 3.7483 5.265L 3.5743 5.578L 3.4873 5.734C 3.4673 5.769 3.5783 5.566 3.5223 5.671L 3.5033 5.712L 3.4653 5.793L 3.3213 6.107C 3.3213 6.147 3.3153 6.182 3.3033 6.216C 3.2123 6.622 3.2813 7.061 3.6573 7.711C 4.0123 8.339 4.5863 9.045 5.1753 9.778C 6.4543 11.343 7.5053 12.901 8.6493 14.434L 12.0213 19.056L 25.5623 37.491C 30.0843 43.624 34.6393 49.733 39.2803 55.754C 41.6013 58.762 43.9453 61.752 46.3383 64.67C 47.5353 66.126 48.7463 67.567 49.9773 68.947C 50.5933 69.633 51.2083 70.312 51.8223 70.929C 52.1283 71.241 52.4353 71.53 52.7133 71.769C 52.8473 71.886 52.9863 71.993 53.0643 72.047L 53.1133 72.08C 53.1363 72.098 53.1463 72.104 53.1103 72.079C 53.0873 72.065 53.0623 72.054 53.0363 72.048C 52.9673 72.024 53.1633 72.094 52.8753 71.995L 52.9183 72.008L 53.0043 72.034L 53.1733 72.085L 53.2153 72.084L 53.3663 72.108C 53.5483 72.138 53.7413 72.167 53.9583 72.191C 54.3743 72.243 54.8243 72.285 55.2753 72.322C 56.1813 72.395 57.1093 72.452 58.0453 72.496C 59.9143 72.588 61.8063 72.644 63.6993 72.69C 67.4873 72.779 71.2903 72.819 75.0953 72.839C 82.7063 72.878 90.3273 72.841 97.9493 72.777L 120.82 72.538L 132.255 72.398L 137.936 72.314C 138.23 72.285 138.124 72.296 138.409 72.203C 138.632 72.116 138.904 71.972 139.183 71.79C 139.729 71.44 140.369 70.868 140.75 70.424L 140.848 70.309L 140.897 70.26C 145.11 66.023 149.286 61.75 153.529 57.543L 166.226 44.89C 170.451 40.665 174.691 36.454 178.973 32.286C 183.243 28.105 187.501 23.913 191.817 19.776L 191.39 20.824L 191.39 13.951L 194.39 13.951L 194.39 20.824L 194.39 21.405L 193.963 21.872C 189.93 26.284 185.84 30.641 181.761 35.009C 177.695 39.39 173.587 43.728 169.463 48.052L 157.114 61.046C 153.008 65.388 148.836 69.664 144.7 73.976L 144.847 73.813C 143.988 74.819 143.187 75.524 142.15 76.238C 141.635 76.583 141.071 76.907 140.409 77.178C 139.812 77.445 138.767 77.686 138.106 77.689L 132.343 77.822L 120.889 78.015C 117.071 78.066 113.253 78.14 109.435 78.155L 97.9783 78.208C 90.3393 78.226 82.6993 78.217 75.0493 78.132C 71.2243 78.088 67.3973 78.026 63.5573 77.912C 61.6363 77.853 59.7143 77.785 57.7733 77.678C 56.8033 77.626 55.8283 77.561 54.8333 77.475C 54.3343 77.431 53.8343 77.383 53.3043 77.313C 53.0473 77.282 52.7683 77.24 52.4803 77.19C 52.3673 77.174 52.1323 77.125 51.9293 77.077L 51.6213 77.001L 51.4483 76.948L 51.3633 76.922L 51.3203 76.909C 51.0053 76.797 51.1753 76.853 51.0793 76.816L 50.6853 76.625C 50.5393 76.551 50.4493 76.493 50.3743 76.443L 50.1263 76.277C 49.8143 76.057 49.5813 75.864 49.3553 75.669C 48.9133 75.283 48.5303 74.912 48.1693 74.542C 47.4453 73.8 46.7773 73.066 46.1333 72.32C 44.8513 70.829 43.6343 69.325 42.4353 67.812C 40.0443 64.785 37.7343 61.726 35.4493 58.651C 30.8843 52.5 26.4283 46.291 22.0053 40.059C 17.5693 33.838 13.2533 27.535 8.9283 21.243L 5.6933 16.519C 4.6043 14.96 3.5593 13.323 2.4613 11.901C 1.8863 11.127 1.2503 10.343 0.702297 9.286C 0.436297 8.756 0.177298 8.165 0.0642976 7.456C -0.0527024 6.748 -0.0127025 6 0.206298 5.28C 0.270298 5.088 0.341298 4.898 0.417298 4.712L 0.585298 4.382L 0.723298 4.121L 0.816298 3.968L 1.0033 3.663L 1.7503 2.442L 3.2433 1.2207e-07L 5.8373 1.515Z"/>
<path id="path3_fill" d="M 1.14441e-07 0.155003C 0.0170001 0.103003 0.0359999 0.0519964 0.0559999 -3.60107e-06L 1.14441e-07 0.155003Z"/>
<path id="path4_stroke" d="M 0.475248 0.310372C 0.488259 0.270572 0.503657 0.228926 0.522673 0.179486L -0.410673 -0.179493C -0.431658 -0.124933 -0.454259 -0.0645661 -0.475248 -0.00036663L 0.475248 0.310372Z"/>
<path id="path5_fill" d="M 4.95911e-08 0.100001C 0.01 0.0670013 0.0210001 0.0330028 0.0320001 2.80762e-06L 4.95911e-08 0.100001Z"/>
<path id="path6_stroke" d="M 0.478512 0.245005C 0.486738 0.21786 0.49621 0.188513 0.506342 0.158117L -0.442342 -0.158111C -0.454209 -0.122508 -0.466738 -0.0838573 -0.478512 -0.0450024L 0.478512 0.245005Z"/>
<path id="path7_fill" d="M 187.292 13.985L 187.321 14.166C 187.324 14.202 187.336 14.212 187.328 14.279L 187.31 14.45C 187.293 14.565 187.267 14.681 187.233 14.79C 187.199 14.868 187.164 14.929 187.128 14.999C 186.993 15.293 186.81 15.48 186.644 15.709L 186.64 15.714L 186.617 15.737L 173.992 28.424L 161.306 41.05L 148.578 53.632L 142.208 59.917L 139.023 63.06C 137.955 64.101 136.914 65.17 135.824 66.188L 135.887 66.119C 135.126 66.948 134.043 67.258 133.101 67.409C 132.619 67.445 132.165 67.482 131.683 67.528L 130.372 67.536L 125.129 67.569L 114.643 67.634L 93.673 67.859L 72.703 68.078L 62.217 68.155C 58.722 68.198 55.226 68.201 51.721 67.885L 51.424 67.858L 51.321 67.703L 51.32 67.701C 49.976 66.709 48.992 65.421 47.963 64.171L 44.88 60.415L 38.715 52.902L 26.385 37.876L 14.102 22.812L 1.85705 7.716L 1.83905 7.694L 1.83205 7.683C 1.44805 7.11 1.14405 6.546 0.862047 5.943C 0.584047 5.344 0.351047 4.718 0.195047 4.06C 0.151047 3.897 0.115047 3.732 0.0930471 3.561C 0.0710471 3.391 0.0280468 3.226 0.0240468 3.051C -0.00895317 2.706 -0.00895312 2.356 0.0300469 2.001C 0.0310469 1.825 0.0940471 1.648 0.125047 1.472C 0.155047 1.294 0.212047 1.122 0.288047 0.953999C 0.364047 0.787999 0.410047 0.608004 0.522047 0.460004L 0.823047 -3.17383e-06L 1.60905 0.618001L 1.39905 0.955998C 1.31505 1.061 1.29105 1.198 1.23605 1.319C 1.18005 1.44 1.13905 1.567 1.12205 1.704C 1.10305 1.839 1.05105 1.965 1.05605 2.107C 1.03005 2.382 1.03505 2.663 1.06705 2.949C 1.07105 3.09 1.11305 3.234 1.13305 3.376C 1.15305 3.519 1.18605 3.661 1.22805 3.803C 1.37105 4.372 1.59005 4.934 1.85305 5.476C 2.11305 6.014 2.42305 6.559 2.75105 7.031L 2.72705 6.999L 15.189 21.916L 27.613 36.865L 39.991 51.852L 46.18 59.346L 49.274 63.093C 50.304 64.344 51.378 65.557 52.094 67.066L 52.095 67.067L 51.695 66.885C 55.181 66.537 58.676 66.509 62.173 66.521L 72.661 66.505L 93.638 66.536L 114.615 66.574L 125.102 66.546L 130.346 66.532L 131.657 66.528C 132.042 66.477 132.458 66.406 132.834 66.294C 133.571 65.976 134.104 65.487 134.488 64.961L 134.499 64.947L 134.552 64.892C 135.59 63.82 136.676 62.798 137.736 61.749L 140.934 58.62L 147.331 52.362L 160.137 39.859L 172.985 27.399L 185.894 15.001L 185.868 15.029C 185.99 14.863 186.157 14.694 186.224 14.537L 186.291 14.422C 186.287 14.412 186.29 14.409 186.303 14.405L 186.329 14.398C 186.348 14.407 186.332 14.356 186.331 14.331L 186.306 14.149L 187.292 13.985Z"/>
<path id="path8_stroke" d="M 1.646 34.9083L 2.52784 36.1217L 2.52828 36.1214L 1.646 34.9083ZM 69.563 0.200266L 70.0424 1.62158L 70.0427 1.62149L 69.563 0.200266ZM 72.563 0.908266L 71.3395 1.77599L 71.3938 1.85256L 71.4572 1.92176L 72.563 0.908266ZM 116.938 49.3253L 115.832 50.3388L 116.276 50.8229L 116.933 50.8253L 116.938 49.3253ZM 1.40019 37.0743C 1.39816 37.0796 1.43622 36.9877 1.65917 36.7873C 1.88176 36.5872 2.15367 36.3936 2.52784 36.1217L 0.764162 33.6949C 0.450334 33.9229 0.0212381 34.2258 -0.346166 34.556C -0.713225 34.8859 -1.15416 35.358 -1.40019 35.9982L 1.40019 37.0743ZM 2.52828 36.1214C 2.88594 35.8612 4.15157 35.1345 6.25258 33.9968C 8.3012 32.8875 11.0361 31.4442 14.2279 29.7814C 20.6102 26.4567 28.7999 22.265 36.9381 18.1347C 45.0758 14.0048 53.1584 9.93821 59.3254 6.86419C 62.4093 5.32697 65.0118 4.03917 66.9018 3.11613C 67.8474 2.65433 68.6107 2.28578 69.1652 2.02359C 69.443 1.89224 69.6631 1.79006 69.8252 1.71712C 70.0125 1.63282 70.064 1.61432 70.0424 1.62158L 69.0836 -1.22105C 68.8589 -1.14526 68.4028 -0.934415 67.8828 -0.688509C 67.3114 -0.418344 66.535 -0.0433931 65.5853 0.420435C 63.6847 1.34865 61.0739 2.64057 57.9871 4.17925C 51.8125 7.25701 43.7234 11.3269 35.5804 15.4595C 27.4379 19.5919 19.2376 23.789 12.8419 27.1208C 9.64471 28.7863 6.8935 30.2382 4.82411 31.3587C 2.80712 32.4509 1.32281 33.2886 0.763723 33.6952L 2.52828 36.1214ZM 70.0427 1.62149C 70.4411 1.48701 70.7483 1.48081 70.9477 1.52362C 71.1231 1.56125 71.242 1.63855 71.3395 1.77599L 73.7865 0.0405431C 72.6096 -1.61905 70.6399 -1.74637 69.0833 -1.22095L 70.0427 1.62149ZM 71.4572 1.92176L 115.832 50.3388L 118.044 48.3118L 73.6688 -0.105231L 71.4572 1.92176ZM 116.938 49.3253C 116.933 50.8253 116.933 50.8253 116.933 50.8253C 116.934 50.8253 116.935 50.8253 116.936 50.8253C 116.938 50.8253 116.941 50.8253 116.945 50.8253C 116.954 50.8253 116.967 50.8254 116.983 50.8254C 117.017 50.8256 117.067 50.8257 117.133 50.826C 117.265 50.8264 117.462 50.8271 117.718 50.8281C 118.23 50.8299 118.981 50.8326 119.937 50.836C 121.85 50.8428 124.583 50.8526 127.864 50.8643C 134.426 50.8878 143.182 50.919 151.957 50.9503C 169.504 51.0127 187.134 51.0753 187.438 51.0753L 187.438 48.0753C 187.141 48.0753 169.521 48.0128 151.968 47.9503C 143.193 47.919 134.437 47.8878 127.874 47.8643C 124.593 47.8526 121.86 47.8429 119.948 47.836C 118.992 47.8326 118.241 47.8299 117.729 47.8281C 117.472 47.8272 117.276 47.8265 117.144 47.826C 117.078 47.8258 117.028 47.8256 116.994 47.8255C 116.977 47.8254 116.965 47.8254 116.956 47.8253C 116.952 47.8253 116.949 47.8253 116.947 47.8253C 116.945 47.8253 116.945 47.8253 116.944 47.8253C 116.944 47.8253 116.943 47.8253 116.938 49.3253ZM 187.438 51.0753C 187.575 51.0753 187.565 51.0963 187.474 51.0583C 187.361 51.0113 187.118 50.8639 186.982 50.5392L 189.752 49.3853C 189.263 48.2119 188.022 48.0753 187.438 48.0753L 187.438 51.0753Z"/>
<path id="path9_fill" d="M -3.05176e-07 54.083C -3.05176e-07 54.083 0.164999 53.759 0.569999 53.269C 0.967999 52.77 1.628 52.131 2.543 51.409C 4.347 49.934 6.925 47.826 10.018 45.297C 16.207 40.243 24.459 33.504 32.711 26.765C 40.991 20.061 49.247 13.326 55.492 8.34001C 61.722 3.33601 65.876 2.01416e-06 65.876 2.01416e-06L 66.511 0.772997C 66.511 0.772997 62.43 4.198 56.309 9.335C 50.202 14.489 41.989 21.275 33.8 28.092C 25.583 34.874 17.366 41.656 11.204 46.742C 8.121 49.283 5.552 51.401 3.754 52.884C 2.868 53.641 2.113 54.164 1.545 54.457C 0.985002 54.759 0.635002 54.858 0.635002 54.858L -3.05176e-07 54.083Z"/>
<path id="path10_fill" d="M 45.7458 88.0168C 48.6628 88.0388 51.9258 84.7848 51.9258 84.7848L 100.736 47.2548C 100.736 47.2548 102.845 45.4978 102.829 43.0278C 102.816 40.9918 100.565 38.7118 100.565 38.7118L 67.9448 2.25081C 67.9448 2.25081 66.6408 0.400812 64.7038 0.0588125C 62.5788 -0.316188 59.8958 1.22481 59.8958 1.22481L 1.57877 30.9778C 1.57877 30.9778 0.36377 31.6468 0.10877 32.5898C -0.26623 33.9748 0.44877 35.2158 0.44877 35.2158L 40.3388 85.1468C 40.3388 85.1458 43.0588 87.9968 45.7458 88.0168Z"/>
<path id="path11_fill" d="M 8.54492e-07 2.204C 8.54492e-07 2.204 68.723 26.21 70.212 26.266C 72.108 26.337 71.625 24.833 70.833 24.25C 69.762 23.461 1.291 3.41797e-06 1.291 3.41797e-06"/>
<path id="path12_fill" d="M 3.5 19.6106L 75.9393 45.1506C 75.9393 45.1506 83.6063 47.1366 89.6793 40.9836C 93.8343 36.7746 92.4393 31.3166 88.9013 30.4836C 82.1953 28.9046 25.4403 9.10857 25.4403 9.10857C 23.5993 7.96557 22.9823 5.48357 23.6903 3.81657C 25.0933 0.515568 30.8033 2.55557 29.4563 2.09857C 27.7143 1.50857 28.5393 -1.81843 22.4563 1.34757C 20.1493 2.54857 4 10.1106 4 10.1106L 74.5633 34.7216C 78.2743 36.6496 76.1413 38.3366 73.5843 38.7236L 0 15.6106"/>
<path id="path13_fill" d="M 47.9372 47.8278C 50.6252 46.6088 51.6562 45.2028 51.6562 45.2028L 95.9062 3.76477C 95.9062 3.76477 96.6102 2.85676 95.9062 1.60876C 95.2182 0.389764 93.9062 0.26477 93.9062 0.26477L 59.3752 0.0157773C 59.3752 0.0157773 57.6252 -0.17423 55.0002 0.76477C 52.9682 1.49177 51.3122 3.13977 51.3122 3.13977L 0.207187 45.2388C 0.207187 45.2388 -0.248813 46.5488 0.192187 47.4208C 0.840187 48.7018 2.20118 49.1448 2.20118 49.1448L 40.4672 49.1078C 40.4682 49.1068 45.4892 48.9378 47.9372 47.8278Z"/>
<path id="path14_fill" d="M 11.5764 12.004C 12.2104 11.679 12.4424 11.328 12.4424 11.328L 22.6304 0.820995C 22.6304 0.820995 22.7894 0.594006 22.6054 0.301006C 22.4254 0.0150059 22.1074 -4.27246e-06 22.1074 -4.27246e-06L 13.7774 0.342006C 13.7774 0.342006 13.3534 0.316001 12.7314 0.574001C 12.2504 0.773001 11.8694 1.19 11.8694 1.19L 0.0363824 11.936C 0.0363824 11.936 -0.0586144 12.257 0.0583856 12.462C 0.229386 12.763 0.56339 12.854 0.56339 12.854L 9.79038 12.4C 9.79038 12.399 10.9994 12.3 11.5764 12.004Z"/>
<path id="path15_fill" d="M 5.833 14.25C 5.833 14.25 7 8.917 7.833 8.667C 8.666 8.417 10.958 7.917 10.958 7.917C 10.958 7.917 8.5 7.667 8 6.5C 7.5 5.333 6.333 -2.74658e-06 6.333 -2.74658e-06C 6.333 -2.74658e-06 5.25 5.333 4.25 5.833C 3.25 6.333 -2.86865e-06 7.125 -2.86865e-06 7.125C -2.86865e-06 7.125 3.396 8.323 4.333 9.25C 5.716 10.617 5.833 14.25 5.833 14.25Z"/>
<path id="path16_stroke" d="M 5.833 14.25L 4.83352 14.2822C 4.84976 14.7865 5.23909 15.1996 5.74151 15.2458C 6.24392 15.292 6.70203 14.9566 6.80988 14.4638L 5.833 14.25ZM 10.958 7.917L 11.1711 8.89402C 11.6514 8.78926 11.9843 8.35104 11.9564 7.86031C 11.9285 7.36959 11.5482 6.97186 11.0592 6.92213L 10.958 7.917ZM 6.333 -2.74658e-06L 7.30988 -0.213771C 7.20883 -0.675582 6.79818 -1.00354 6.32546 -0.999974C 5.85273 -0.99641 5.44708 -0.662299 5.353 -0.199016L 6.333 -2.74658e-06ZM -2.86865e-06 7.125L -0.236766 6.15343C -0.666671 6.25819 -0.976612 6.63303 -0.998751 7.07497C -1.02089 7.5169 -0.74996 7.92084 -0.332678 8.06804L -2.86865e-06 7.125ZM 4.333 9.25L 3.62969 9.96089L 3.63002 9.96121L 4.333 9.25ZM 5.833 14.25C 6.80988 14.4638 6.80987 14.4638 6.80987 14.4638C 6.80987 14.4638 6.80987 14.4638 6.80988 14.4638C 6.80989 14.4637 6.80993 14.4636 6.80998 14.4633C 6.81008 14.4629 6.81025 14.4621 6.81049 14.461C 6.81098 14.4588 6.81174 14.4553 6.81277 14.4507C 6.81484 14.4413 6.81799 14.4271 6.82219 14.4083C 6.83058 14.3708 6.84314 14.3151 6.85949 14.2438C 6.89221 14.1011 6.94005 13.896 7.00009 13.6489C 7.12046 13.1535 7.28856 12.4943 7.48102 11.8309C 7.67541 11.1609 7.88648 10.5153 8.08995 10.0347C 8.19302 9.7912 8.27965 9.6251 8.34342 9.52812C 8.37505 9.48003 8.38528 9.47337 8.37031 9.48792C 8.36103 9.49694 8.27895 9.57722 8.12045 9.62479L 7.54554 7.7092C 7.28292 7.78802 7.09411 7.93926 6.97621 8.05387C 6.85263 8.17401 6.75238 8.30756 6.67237 8.42921C 6.51288 8.67174 6.37168 8.96329 6.2482 9.25495C 5.99858 9.84459 5.76171 10.5791 5.56023 11.2736C 5.35681 11.9747 5.1811 12.6644 5.05663 13.1767C 4.99425 13.4335 4.94441 13.647 4.91005 13.7969C 4.89286 13.8719 4.87953 13.931 4.87042 13.9718C 4.86587 13.9921 4.86237 14.0079 4.85997 14.0187C 4.85877 14.0242 4.85784 14.0284 4.8572 14.0313C 4.85688 14.0327 4.85662 14.0339 4.85644 14.0347C 4.85635 14.0351 4.85628 14.0355 4.85622 14.0357C 4.8562 14.0358 4.85617 14.036 4.85616 14.036C 4.85613 14.0361 4.85611 14.0362 5.833 14.25ZM 8.12045 9.62479C 8.50027 9.5108 9.24883 9.33045 9.93272 9.17264C 10.2682 9.09523 10.5781 9.0255 10.8044 8.97509C 10.9174 8.9499 11.0094 8.92957 11.073 8.91557C 11.1047 8.90857 11.1294 8.90315 11.1461 8.8995C 11.1544 8.89767 11.1608 8.89628 11.165 8.89536C 11.1671 8.8949 11.1687 8.89456 11.1697 8.89433C 11.1702 8.89422 11.1706 8.89414 11.1708 8.89409C 11.1709 8.89406 11.171 8.89404 11.1711 8.89403C 11.1711 8.89402 11.1711 8.89402 11.1711 8.89402C 11.1711 8.89402 11.1711 8.89402 10.958 7.917C 10.7449 6.93997 10.7448 6.93998 10.7448 6.93999C 10.7448 6.93999 10.7447 6.94 10.7447 6.94001C 10.7446 6.94003 10.7445 6.94006 10.7443 6.94009C 10.744 6.94016 10.7436 6.94026 10.743 6.94039C 10.7418 6.94064 10.7401 6.94102 10.7378 6.94151C 10.7333 6.9425 10.7267 6.94395 10.718 6.94585C 10.7007 6.94964 10.6753 6.95521 10.6428 6.96237C 10.5778 6.97669 10.4842 6.99738 10.3694 7.02297C 10.1398 7.07412 9.8247 7.14501 9.48303 7.22385C 8.81267 7.37854 7.99872 7.57319 7.54554 7.7092L 8.12045 9.62479ZM 10.958 7.917C 11.0592 6.92213 11.0594 6.92215 11.0596 6.92217C 11.0596 6.92218 11.0598 6.9222 11.0599 6.92221C 11.0602 6.92223 11.0603 6.92225 11.0605 6.92226C 11.0608 6.92229 11.0609 6.92231 11.0609 6.92231C 11.061 6.92231 11.0604 6.92225 11.0593 6.92213C 11.0571 6.92189 11.0527 6.9214 11.0462 6.92065C 11.0333 6.91914 11.0122 6.91657 10.9839 6.91279C 10.9272 6.90522 10.8427 6.89289 10.7384 6.87465C 10.5276 6.83778 10.2478 6.77873 9.96067 6.69037C 9.66807 6.60031 9.40296 6.49035 9.20226 6.3652C 8.99479 6.23582 8.93314 6.13874 8.91918 6.10617L 7.08081 6.89382C 7.31686 7.44475 7.74996 7.81655 8.14398 8.06226C 8.54478 8.3122 8.98793 8.48356 9.37232 8.60187C 9.76224 8.72189 10.1281 8.79828 10.3938 8.84475C 10.5278 8.86818 10.6392 8.8845 10.7189 8.89516C 10.7588 8.9005 10.791 8.90444 10.8143 8.90716C 10.826 8.90852 10.8354 8.90958 10.8426 8.91036C 10.8461 8.91074 10.8491 8.91106 10.8515 8.91131C 10.8527 8.91144 10.8537 8.91155 10.8546 8.91164C 10.855 8.91168 10.8555 8.91173 10.8558 8.91176C 10.856 8.91178 10.8563 8.91181 10.8563 8.91182C 10.8566 8.91184 10.8568 8.91186 10.958 7.917ZM 8.91918 6.10617C 8.82625 5.88927 8.67617 5.40445 8.49387 4.73081C 8.3178 4.08022 8.12761 3.31482 7.95149 2.57946C 7.77565 1.84523 7.61514 1.14646 7.49851 0.630885C 7.44023 0.373233 7.39298 0.161651 7.36034 0.0146566C 7.34402 -0.0588338 7.33136 -0.116161 7.3228 -0.155008C 7.31852 -0.174431 7.31527 -0.189233 7.31309 -0.199124C 7.31201 -0.204069 7.31119 -0.207786 7.31066 -0.21024C 7.31039 -0.211466 7.31019 -0.212377 7.31006 -0.212967C 7.30999 -0.213262 7.30995 -0.213477 7.30992 -0.213611C 7.3099 -0.213678 7.30989 -0.213718 7.30989 -0.213751C 7.30988 -0.213771 7.30988 -0.213771 6.333 -2.74658e-06C 5.35611 0.213765 5.35612 0.213806 5.35614 0.213868C 5.35615 0.213916 5.35616 0.213997 5.35618 0.214092C 5.35623 0.214283 5.35629 0.214554 5.35636 0.214905C 5.35652 0.215608 5.35674 0.216633 5.35703 0.217974C 5.35762 0.220656 5.35849 0.224606 5.35963 0.229786C 5.3619 0.240148 5.36526 0.255435 5.36965 0.275357C 5.37843 0.315199 5.39133 0.373588 5.4079 0.448201C 5.44103 0.597414 5.48886 0.81159 5.5478 1.07214C 5.66561 1.59297 5.8281 2.30039 6.0065 3.04528C 6.18463 3.78905 6.37995 4.57571 6.56331 5.25328C 6.74045 5.90779 6.92374 6.52723 7.08081 6.89382L 8.91918 6.10617ZM 6.333 -2.74658e-06C 5.353 -0.199016 5.35301 -0.199073 5.35302 -0.19911C 5.35302 -0.199095 5.35302 -0.199112 5.35301 -0.199083C 5.353 -0.199025 5.35297 -0.198886 5.35293 -0.198668C 5.35284 -0.198231 5.35269 -0.197476 5.35247 -0.196406C 5.35203 -0.194265 5.35133 -0.190869 5.35038 -0.186254C 5.34849 -0.177023 5.34557 -0.162923 5.34168 -0.144262C 5.33389 -0.106935 5.32219 -0.0513907 5.30686 0.0199024C 5.27618 0.162546 5.23106 0.367904 5.17375 0.616275C 5.05886 1.11426 4.89632 1.77941 4.70442 2.45621C 4.51081 3.13905 4.29497 3.80622 4.07689 4.3198C 3.96723 4.57806 3.86869 4.76937 3.78703 4.89556C 3.68646 5.051 3.68055 4.99969 3.80278 4.93857L 4.69721 6.72742C 5.06945 6.54131 5.31613 6.21396 5.46619 5.98205C 5.63516 5.72089 5.7853 5.41353 5.9178 5.1015C 6.18403 4.47452 6.42643 3.7147 6.62857 3.00178C 6.83242 2.28284 7.00314 1.58349 7.12255 1.06591C 7.18241 0.806496 7.2297 0.591308 7.26216 0.44035C 7.2784 0.364842 7.29094 0.305322 7.2995 0.264285C 7.30379 0.243764 7.30708 0.227857 7.30934 0.216876C 7.31047 0.211385 7.31134 0.207125 7.31195 0.204135C 7.31225 0.202639 7.3125 0.201462 7.31267 0.200606C 7.31276 0.200178 7.31283 0.199831 7.31288 0.199565C 7.31291 0.199432 7.31294 0.199293 7.31295 0.199226C 7.31297 0.199108 7.31299 0.19901 6.333 -2.74658e-06ZM 3.80278 4.93857C 3.40655 5.13669 2.44587 5.43525 1.48227 5.703C 1.02185 5.83094 0.591177 5.94378 0.275255 6.02472C 0.117476 6.06514 -0.0112434 6.09749 -0.10021 6.11967C -0.144684 6.13075 -0.179196 6.13928 -0.202407 6.145C -0.214012 6.14786 -0.22279 6.15001 -0.228573 6.15143C -0.231464 6.15213 -0.233607 6.15266 -0.234979 6.15299C -0.235666 6.15316 -0.23616 6.15328 -0.236458 6.15335C -0.236608 6.15339 -0.236708 6.15342 -0.23676 6.15343C -0.236785 6.15343 -0.236787 6.15343 -0.2368 6.15344C -0.236789 6.15344 -0.236766 6.15343 -2.86865e-06 7.125C 0.236761 8.09656 0.236808 8.09655 0.236868 8.09654C 0.236905 8.09653 0.236978 8.09651 0.237051 8.09649C 0.237197 8.09646 0.237393 8.09641 0.237637 8.09635C 0.238127 8.09623 0.238813 8.09606 0.239692 8.09585C 0.241452 8.09542 0.243986 8.0948 0.247274 8.09399C 0.253851 8.09238 0.263445 8.09003 0.275888 8.08696C 0.300772 8.08084 0.337061 8.07186 0.383408 8.06031C 0.476081 8.03722 0.609081 8.00379 0.771614 7.96215C 1.09632 7.87896 1.54065 7.76256 2.01772 7.62999C 2.92912 7.37675 4.09345 7.02931 4.69721 6.72742L 3.80278 4.93857ZM -2.86865e-06 7.125C -0.332678 8.06804 -0.332737 8.06802 -0.332783 8.068C -0.332781 8.068 -0.332815 8.06799 -0.332811 8.06799C -0.332804 8.06799 -0.332747 8.06801 -0.332638 8.06805C -0.33242 8.06813 -0.332 8.06828 -0.331378 8.0685C -0.330136 8.06894 -0.328092 8.06966 -0.325269 8.07067C -0.319623 8.07267 -0.310861 8.0758 -0.299162 8.07999C -0.275761 8.08838 -0.240628 8.10105 -0.195184 8.11764C -0.104257 8.15084 0.0277239 8.19965 0.18943 8.26122C 0.513558 8.38463 0.953625 8.55799 1.42014 8.75856C 1.88893 8.96011 2.37183 9.18377 2.78613 9.40712C 3.22197 9.64209 3.5028 9.83535 3.62969 9.96089L 5.0363 8.53911C 4.69469 8.20115 4.19965 7.89703 3.73521 7.64665C 3.24923 7.38466 2.70744 7.13501 2.2101 6.92118C 1.71049 6.70638 1.243 6.5223 0.901096 6.39212C 0.729786 6.32689 0.589134 6.27487 0.490682 6.23892C 0.441437 6.22095 0.402694 6.20697 0.375891 6.19736C 0.362489 6.19256 0.352066 6.18884 0.344805 6.18626C 0.341174 6.18497 0.338332 6.18396 0.336303 6.18324C 0.335288 6.18288 0.334476 6.18259 0.33387 6.18238C 0.333567 6.18227 0.333316 6.18218 0.333116 6.18211C 0.333016 6.18208 0.332905 6.18204 0.332855 6.18202C 0.332757 6.18199 0.332672 6.18196 -2.86865e-06 7.125ZM 3.63002 9.96121C 3.83421 10.163 4.03748 10.5001 4.21778 10.9677C 4.39402 11.4248 4.52442 11.9433 4.61872 12.4467C 4.7124 12.9469 4.76655 13.4109 4.79713 13.7506C 4.81236 13.9198 4.82158 14.0563 4.82694 14.149C 4.82961 14.1952 4.83132 14.2305 4.83233 14.2532C 4.83283 14.2645 4.83316 14.2727 4.83334 14.2776C 4.83344 14.2801 4.8335 14.2817 4.83352 14.2825C 4.83354 14.2828 4.83354 14.283 4.83354 14.283C 4.83354 14.2829 4.83354 14.2829 4.83353 14.2827C 4.83353 14.2827 4.83353 14.2825 4.83353 14.2825C 4.83352 14.2824 4.83352 14.2822 5.833 14.25C 6.83248 14.2178 6.83247 14.2176 6.83247 14.2174C 6.83246 14.2173 6.83246 14.2171 6.83245 14.2169C 6.83244 14.2166 6.83243 14.2162 6.83241 14.2157C 6.83238 14.2148 6.83234 14.2136 6.83229 14.2123C 6.83219 14.2095 6.83206 14.2059 6.83189 14.2014C 6.83155 14.1925 6.83106 14.1802 6.83036 14.1646C 6.82898 14.1334 6.82682 14.0892 6.8236 14.0335C 6.81716 13.9221 6.80643 13.7641 6.78908 13.5713C 6.7545 13.1872 6.69297 12.6575 6.58453 12.0785C 6.4767 11.5028 6.31853 10.8568 6.08387 10.2482C 5.85326 9.65013 5.52329 9.02046 5.03598 8.53879L 3.63002 9.96121Z"/>
<path id="path17_fill" d="M 6.204 -1.95313e-06C 6.204 -1.95313e-06 4.792 6.456 3.783 6.759C 2.774 7.062 1.0376e-06 7.667 1.0376e-06 7.667C 1.0376e-06 7.667 2.976 7.97 3.581 9.382C 4.186 10.794 5.599 17.25 5.599 17.25C 5.599 17.25 6.91 10.794 8.121 10.189C 9.332 9.584 13.266 8.625 13.266 8.625C 13.266 8.625 9.155 7.174 8.02 6.053C 6.346 4.399 6.204 -1.95313e-06 6.204 -1.95313e-06Z"/>
<path id="path18_stroke" d="M 6.204 -1.95313e-06L 7.20348 -0.0322639C 7.18721 -0.536538 6.79783 -0.949702 6.2954 -0.995816C 5.79298 -1.04193 5.3349 -0.706549 5.2271 -0.213663L 6.204 -1.95313e-06ZM 1.0376e-06 7.667L -0.213086 6.68996C -0.693304 6.7947 -1.02622 7.23288 -0.998396 7.7236C -0.970575 8.21432 -0.59027 8.61207 -0.101291 8.66185L 1.0376e-06 7.667ZM 5.599 17.25L 4.62212 17.4638C 4.7232 17.9256 5.13384 18.2535 5.60656 18.25C 6.07928 18.2464 6.48492 17.9123 6.579 17.449L 5.599 17.25ZM 13.266 8.625L 13.5028 9.59655C 13.9327 9.49176 14.2426 9.11696 14.2647 8.67507C 14.2869 8.23319 14.016 7.82927 13.5988 7.68201L 13.266 8.625ZM 8.02 6.053L 7.31715 6.76434L 7.31729 6.76448L 8.02 6.053ZM 6.204 -1.95313e-06C 5.2271 -0.213663 5.2271 -0.213705 5.22711 -0.213723C 5.2271 -0.213696 5.2271 -0.213689 5.22709 -0.213636C 5.22707 -0.213529 5.22702 -0.213324 5.22696 -0.213023C 5.22682 -0.212421 5.22661 -0.211432 5.22631 -0.210063C 5.2257 -0.207324 5.22476 -0.203062 5.2235 -0.197327C 5.22096 -0.185855 5.21711 -0.168488 5.21199 -0.145609C 5.20176 -0.0998484 5.18649 -0.0320647 5.16662 0.0546749C 5.12686 0.228207 5.06876 0.477305 4.99586 0.777483C 4.84977 1.37903 4.64554 2.18025 4.41146 2.98731C 4.17545 3.80101 3.91725 4.59191 3.66607 5.18523C 3.53915 5.48505 3.42852 5.69935 3.34122 5.83209C 3.29783 5.89806 3.27595 5.91951 3.27945 5.9161C 3.2825 5.91314 3.29948 5.89691 3.33135 5.87606C 3.36327 5.85518 3.41817 5.82444 3.49539 5.80125L 4.07061 7.71675C 4.34409 7.63462 4.54411 7.47598 4.67348 7.35022C 4.80852 7.21896 4.92043 7.07063 5.01222 6.93108C 5.19527 6.65275 5.36049 6.31297 5.50783 5.96493C 5.80518 5.26253 6.08918 4.38262 6.33229 3.54444C 6.57733 2.69962 6.78918 1.8679 6.93936 1.24948C 7.0146 0.939676 7.0747 0.682031 7.11611 0.501318C 7.13681 0.410934 7.15286 0.339719 7.16381 0.290761C 7.16928 0.266281 7.17348 0.247359 7.17635 0.234381C 7.17778 0.227892 7.17888 0.222889 7.17965 0.21942C 7.18003 0.217685 7.18033 0.216333 7.18054 0.215371C 7.18064 0.21489 7.18073 0.214507 7.18079 0.214221C 7.18082 0.214078 7.18085 0.213938 7.18087 0.213866C 7.18089 0.213751 7.18091 0.21366 6.204 -1.95313e-06ZM 3.49539 5.80125C 3.02766 5.94171 2.11468 6.16154 1.28829 6.35223C 0.881599 6.44607 0.505884 6.53059 0.231741 6.59166C 0.0947336 6.62219 -0.0167494 6.64682 -0.0938601 6.6638C -0.132412 6.67229 -0.162362 6.67886 -0.182604 6.6833C -0.192725 6.68551 -0.200418 6.6872 -0.205544 6.68832C -0.208108 6.68888 -0.210029 6.6893 -0.211292 6.68957C -0.211923 6.68971 -0.21239 6.68981 -0.21269 6.68988C -0.21284 6.68991 -0.212948 6.68993 -0.213014 6.68995C -0.213047 6.68996 -0.213065 6.68996 -0.213081 6.68996C -0.213089 6.68997 -0.213086 6.68996 1.0376e-06 7.667C 0.213088 8.64403 0.213112 8.64403 0.213147 8.64402C 0.213173 8.64401 0.213218 8.644 0.213269 8.64399C 0.213372 8.64397 0.213517 8.64394 0.213703 8.6439C 0.214077 8.64382 0.214617 8.6437 0.215323 8.64354C 0.216735 8.64324 0.218807 8.64278 0.221523 8.64219C 0.226956 8.641 0.234963 8.63925 0.245406 8.63696C 0.266291 8.63239 0.296924 8.62566 0.336194 8.61702C 0.414728 8.59973 0.527846 8.57473 0.666666 8.5438C 0.94418 8.48197 1.32503 8.3963 1.73796 8.30102C 2.55082 8.11346 3.52934 7.87929 4.07061 7.71675L 3.49539 5.80125ZM 1.0376e-06 7.667C -0.101291 8.66185 -0.101498 8.66183 -0.101694 8.66181C -0.101745 8.66181 -0.10193 8.66179 -0.102031 8.66178C -0.102233 8.66176 -0.102391 8.66174 -0.102506 8.66173C -0.102735 8.66171 -0.102789 8.6617 -0.10267 8.66171C -0.102433 8.66174 -0.101506 8.66184 -0.0999103 8.66201C -0.0967173 8.66236 -0.0908537 8.66301 -0.0824794 8.66399C -0.0657198 8.66595 -0.0389771 8.6692 -0.00352501 8.67395C 0.0675061 8.68345 0.172741 8.69881 0.302108 8.72144C 0.563148 8.76711 0.911049 8.84045 1.26948 8.95076C 1.63343 9.06277 1.97316 9.20234 2.23721 9.36695C 2.50808 9.53581 2.62167 9.68214 2.66182 9.77584L 4.50018 8.98816C 4.23783 8.37586 3.75255 7.95481 3.29526 7.66974C 2.83116 7.38041 2.31345 7.17948 1.85777 7.03924C 1.39658 6.8973 0.962667 6.80663 0.646801 6.75137C 0.487714 6.72353 0.355723 6.70419 0.26164 6.6916C 0.214536 6.6853 0.17675 6.68067 0.149621 6.6775C 0.13605 6.67592 0.125129 6.67469 0.117024 6.67381C 0.11297 6.67337 0.109619 6.67301 0.106991 6.67273C 0.105677 6.67259 0.104543 6.67248 0.103593 6.67238C 0.103118 6.67233 0.102688 6.67228 0.102305 6.67224C 0.102113 6.67222 0.10186 6.6722 0.101764 6.67219C 0.101523 6.67216 0.101293 6.67214 1.0376e-06 7.667ZM 2.66182 9.77584C 2.781 10.054 2.96614 10.6549 3.18628 11.4683C 3.40017 12.2586 3.63095 13.1874 3.84438 14.0784C 4.05755 14.9684 4.25209 15.8152 4.39342 16.4398C 4.46405 16.7521 4.52132 17.0085 4.56089 17.1866C 4.58067 17.2757 4.59603 17.3452 4.60642 17.3924C 4.61161 17.4159 4.61556 17.4339 4.6182 17.4459C 4.61952 17.4519 4.62051 17.4565 4.62117 17.4595C 4.6215 17.461 4.62174 17.4621 4.6219 17.4628C 4.62198 17.4632 4.62204 17.4634 4.62208 17.4636C 4.6221 17.4637 4.62211 17.4637 4.62212 17.4638C 4.62212 17.4638 4.62212 17.4638 5.599 17.25C 6.57588 17.0362 6.57587 17.0361 6.57585 17.0361C 6.57584 17.036 6.57582 17.0359 6.57579 17.0358C 6.57574 17.0356 6.57567 17.0353 6.57558 17.0348C 6.5754 17.034 6.57513 17.0328 6.57478 17.0312C 6.57407 17.0279 6.57303 17.0232 6.57165 17.0169C 6.56891 17.0044 6.56485 16.986 6.55955 16.9619C 6.54894 16.9138 6.53335 16.8432 6.51332 16.753C 6.47325 16.5726 6.41541 16.3136 6.34412 15.9985C 6.2016 15.3686 6.00508 14.5131 5.78937 13.6126C 5.57392 12.7131 5.33802 11.7631 5.11682 10.9458C 4.90187 10.1516 4.6835 9.41601 4.50018 8.98816L 2.66182 9.77584ZM 5.599 17.25C 6.579 17.449 6.57899 17.4491 6.57898 17.4491C 6.57899 17.4491 6.57899 17.4491 6.579 17.449C 6.57901 17.4489 6.57905 17.4487 6.57911 17.4485C 6.57923 17.4479 6.57942 17.4469 6.5797 17.4456C 6.58024 17.4429 6.58111 17.4387 6.58227 17.433C 6.58461 17.4217 6.58818 17.4044 6.59293 17.3816C 6.60244 17.336 6.6167 17.2684 6.63535 17.1816C 6.67267 17.0081 6.72753 16.7584 6.79717 16.4566C 6.93673 15.8517 7.13436 15.0429 7.36794 14.2192C 7.60324 13.3894 7.86736 12.572 8.13647 11.9384C 8.27165 11.6202 8.39638 11.3764 8.50443 11.2095C 8.6314 11.0133 8.66388 11.0356 8.56792 11.0836L 7.67409 9.29443C 7.27538 9.49362 7.00199 9.85001 6.82546 10.1227C 6.63002 10.4247 6.45366 10.7845 6.29563 11.1566C 5.97833 11.9036 5.68764 12.8137 5.44381 13.6736C 5.19827 14.5395 4.99246 15.3825 4.84837 16.007C 4.77618 16.3198 4.71915 16.5793 4.68004 16.7612C 4.66048 16.8522 4.64539 16.9238 4.6351 16.9731C 4.62996 16.9977 4.62602 17.0168 4.62332 17.0299C 4.62197 17.0365 4.62093 17.0415 4.62021 17.0451C 4.61985 17.0468 4.61957 17.0482 4.61937 17.0492C 4.61927 17.0497 4.61919 17.0501 4.61912 17.0504C 4.61909 17.0505 4.61906 17.0507 4.61905 17.0508C 4.61902 17.0509 4.619 17.051 5.599 17.25ZM 8.56792 11.0836C 9.06984 10.8328 10.2545 10.4662 11.4154 10.1436C 11.9745 9.98824 12.4973 9.85123 12.8806 9.75299C 13.0721 9.70392 13.2284 9.66464 13.3365 9.63769C 13.3905 9.62422 13.4325 9.61385 13.4607 9.60688C 13.4749 9.6034 13.4856 9.60077 13.4927 9.59903C 13.4962 9.59817 13.4989 9.59752 13.5006 9.59711C 13.5014 9.5969 13.502 9.59675 13.5024 9.59665C 13.5026 9.59661 13.5027 9.59657 13.5028 9.59656C 13.5028 9.59655 13.5028 9.59655 13.5029 9.59654C 13.5029 9.59654 13.5028 9.59655 13.266 8.625C 13.0292 7.65345 13.0291 7.65346 13.029 7.65348C 13.029 7.65349 13.0289 7.65351 13.0288 7.65353C 13.0287 7.65357 13.0284 7.65362 13.0282 7.65369C 13.0276 7.65383 13.0268 7.65403 13.0257 7.65429C 13.0236 7.6548 13.0206 7.65554 13.0167 7.6565C 13.0088 7.65843 12.9973 7.66126 12.9823 7.66495C 12.9524 7.67233 12.9086 7.68314 12.8527 7.69708C 12.7409 7.72495 12.5804 7.76531 12.3842 7.8156C 11.992 7.91608 11.4556 8.05664 10.8799 8.21664C 9.77104 8.52478 8.38317 8.94018 7.67409 9.29443L 8.56792 11.0836ZM 13.266 8.625C 13.5988 7.68201 13.5989 7.68203 13.5989 7.68205C 13.5989 7.68204 13.5989 7.68205 13.5989 7.68205C 13.5989 7.68204 13.5988 7.682 13.5987 7.68195C 13.5984 7.68184 13.5978 7.68165 13.597 7.68137C 13.5954 7.6808 13.5929 7.6799 13.5894 7.67865C 13.5824 7.67616 13.5716 7.67231 13.5572 7.66717C 13.5285 7.65687 13.4856 7.64139 13.4302 7.62115C 13.3193 7.58066 13.1586 7.5212 12.9619 7.44625C 12.5676 7.29608 12.0319 7.08503 11.4636 6.84069C 10.893 6.59537 10.3021 6.32187 9.79287 6.04746C 9.2621 5.76147 8.89924 5.51588 8.7227 5.34152L 7.31729 6.76448C 7.70826 7.15062 8.2849 7.50678 8.84416 7.80813C 9.42493 8.12107 10.0746 8.4205 10.6736 8.67806C 11.275 8.93659 11.838 9.15835 12.25 9.31528C 12.4563 9.39387 12.6257 9.45654 12.7441 9.49977C 12.8033 9.5214 12.8498 9.53818 12.8819 9.54969C 12.8979 9.55545 12.9104 9.55989 12.919 9.56295C 12.9233 9.56449 12.9266 9.56568 12.929 9.56652C 12.9302 9.56694 12.9311 9.56727 12.9318 9.56752C 12.9322 9.56764 12.9325 9.56774 12.9327 9.56782C 12.9328 9.56786 12.9329 9.5679 12.933 9.56792C 12.9331 9.56795 12.9332 9.56798 13.266 8.625ZM 8.72284 5.34166C 8.44601 5.06813 8.18664 4.62945 7.96306 4.04965C 7.74356 3.48041 7.58276 2.83924 7.46715 2.22212C 7.35215 1.60825 7.28578 1.03954 7.24832 0.62349C 7.22965 0.416191 7.21831 0.2486 7.2117 0.13444C 7.2084 0.0774019 7.20628 0.0338279 7.20502 0.00544154C 7.20439 -0.0087479 7.20398 -0.0191302 7.20373 -0.0254894C 7.20361 -0.0286686 7.20353 -0.030841 7.20349 -0.0319794C 7.20347 -0.0325486 7.20346 -0.0328591 7.20346 -0.0329077C 7.20346 -0.032932 7.20346 -0.0328908 7.20347 -0.0327836C 7.20347 -0.0327302 7.20347 -0.0326 7.20347 -0.0325734C 7.20348 -0.032427 7.20348 -0.0322639 6.204 -1.95313e-06C 5.20452 0.03226 5.20453 0.0324567 5.20454 0.0326701C 5.20454 0.0327636 5.20455 0.0329943 5.20455 0.0331816C 5.20457 0.0335564 5.20458 0.0339987 5.2046 0.034508C 5.20463 0.0355265 5.20468 0.0368133 5.20473 0.0383648C 5.20484 0.0414678 5.20499 0.0456303 5.20519 0.0508249C 5.20559 0.0612132 5.20617 0.0757343 5.20699 0.0941679C 5.20863 0.131028 5.2112 0.183579 5.21505 0.250056C 5.22274 0.382927 5.23558 0.571931 5.25638 0.802881C 5.29784 1.26333 5.3716 1.89775 5.50135 2.59038C 5.63049 3.27976 5.81906 4.04846 6.097 4.76922C 6.37086 5.47943 6.75698 6.21087 7.31715 6.76434L 8.72284 5.34166Z"/>
<path id="path19_fill" d="M 3.25401 -1.2207e-07C 3.25401 -1.2207e-07 2.513 3.386 1.984 3.545C 1.455 3.704 -5.49316e-06 4.021 -5.49316e-06 4.021C -5.49316e-06 4.021 1.561 4.18 1.878 4.92C 2.195 5.661 2.936 9.047 2.936 9.047C 2.936 9.047 3.624 5.661 4.259 5.343C 4.894 5.026 6.957 4.523 6.957 4.523C 6.957 4.523 4.801 3.762 4.206 3.174C 3.328 2.307 3.25401 -1.2207e-07 3.25401 -1.2207e-07Z"/>
<path id="path20_stroke" d="M 3.25401 -1.2207e-07L 4.25349 -0.032058C 4.23732 -0.53635 3.848 -0.949601 3.34557 -0.995799C 2.84314 -1.042 2.38499 -0.706671 2.27713 -0.213784L 3.25401 -1.2207e-07ZM -5.49316e-06 4.021L -0.212884 3.04393C -0.693157 3.14856 -1.02617 3.58673 -0.998409 4.07748C -0.970648 4.56824 -0.590345 4.96605 -0.101335 5.01586L -5.49316e-06 4.021ZM 1.878 4.92L 2.7974 4.52668L 2.79721 4.52623L 1.878 4.92ZM 2.936 9.047L 1.95912 9.26078C 2.06018 9.72257 2.47079 10.0505 2.94349 10.047C 3.41619 10.0434 3.82185 9.70937 3.91597 9.24612L 2.936 9.047ZM 4.259 5.343L 3.81235 4.44829L 3.81122 4.44886L 4.259 5.343ZM 6.957 4.523L 7.19388 5.49454C 7.62371 5.38974 7.93359 5.01494 7.95574 4.57306C 7.97789 4.13119 7.70704 3.72728 7.28984 3.58002L 6.957 4.523ZM 4.206 3.174L 4.90891 2.46272L 4.90864 2.46245L 4.206 3.174ZM 3.25401 -1.2207e-07C 2.27713 -0.213784 2.27714 -0.213838 2.27715 -0.213879C 2.27715 -0.213875 2.27715 -0.213903 2.27715 -0.213896C 2.27715 -0.213883 2.27713 -0.213818 2.27711 -0.213703C 2.27706 -0.213473 2.27696 -0.21304 2.27682 -0.212409C 2.27655 -0.211146 2.27609 -0.209087 2.27547 -0.206258C 2.27422 -0.200598 2.27228 -0.191859 2.26968 -0.180241C 2.26448 -0.156999 2.25665 -0.122263 2.24642 -0.0776362C 2.22594 0.0116717 2.19593 0.140287 2.15823 0.295436C 2.08255 0.606928 1.9772 1.01991 1.85699 1.43422C 1.73485 1.85517 1.60553 2.24885 1.48474 2.53414C 1.42302 2.67994 1.37796 2.76255 1.35492 2.79759C 1.34365 2.81472 1.35356 2.79583 1.3883 2.76205C 1.41737 2.73379 1.51881 2.64062 1.69616 2.58732L 2.27185 4.50267C 2.51532 4.4295 2.68454 4.29125 2.78258 4.19592C 2.8863 4.09507 2.96637 3.98713 3.02599 3.89646C 3.14473 3.71589 3.24435 3.50788 3.32648 3.31388C 3.49342 2.91958 3.64853 2.43695 3.77777 1.99153C 3.90894 1.53947 4.0219 1.09601 4.10169 0.767657C 4.14172 0.602884 4.17373 0.465726 4.19585 0.369241C 4.20692 0.320972 4.21552 0.282807 4.22144 0.256371C 4.22439 0.243151 4.22668 0.232857 4.22826 0.225694C 4.22906 0.222111 4.22967 0.219311 4.23011 0.217318C 4.23033 0.216321 4.23051 0.215526 4.23064 0.214936C 4.2307 0.214641 4.23075 0.214398 4.2308 0.214205C 4.23082 0.214109 4.23084 0.214004 4.23085 0.213956C 4.23087 0.213864 4.23089 0.213784 3.25401 -1.2207e-07ZM 1.69616 2.58732C 1.46865 2.6557 1.00562 2.7675 0.568928 2.8682C 0.357131 2.91704 0.161304 2.96105 0.0183265 2.99288C -0.0530984 3.00878 -0.111179 3.0216 -0.151282 3.03042C -0.17133 3.03483 -0.186875 3.03824 -0.197337 3.04053C -0.202568 3.04167 -0.206528 3.04254 -0.209143 3.04311C -0.210451 3.04339 -0.211423 3.04361 -0.212049 3.04374C -0.212362 3.04381 -0.212589 3.04386 -0.212729 3.04389C -0.212798 3.04391 -0.212846 3.04392 -0.212872 3.04392C -0.212885 3.04393 -0.212888 3.04393 -0.212894 3.04393C -0.212892 3.04393 -0.212884 3.04393 -5.49316e-06 4.021C 0.212873 4.99808 0.212892 4.99808 0.212917 4.99807C 0.212932 4.99807 0.212963 4.99806 0.212994 4.99806C 0.213057 4.99804 0.213141 4.99802 0.213248 4.998C 0.213462 4.99795 0.213763 4.99789 0.214151 4.9978C 0.214927 4.99763 0.216051 4.99739 0.217512 4.99707C 0.220435 4.99643 0.224711 4.9955 0.230266 4.99428C 0.241375 4.99185 0.257607 4.98829 0.278377 4.98372C 0.319911 4.97459 0.379636 4.9614 0.452884 4.9451C 0.599252 4.91252 0.800239 4.86734 1.01832 4.81705C 1.44138 4.7195 1.97036 4.59329 2.27185 4.50267L 1.69616 2.58732ZM -5.49316e-06 4.021C -0.101335 5.01586 -0.101547 5.01583 -0.101754 5.01581C -0.101815 5.01581 -0.102016 5.01579 -0.102139 5.01577C -0.102384 5.01575 -0.102606 5.01573 -0.102806 5.01571C -0.103206 5.01566 -0.103516 5.01563 -0.103738 5.01561C -0.104181 5.01556 -0.10427 5.01555 -0.104016 5.01558C -0.103507 5.01563 -0.101631 5.01584 -0.0984719 5.01621C -0.0921418 5.01695 -0.0807351 5.01833 -0.0649051 5.02045C -0.033118 5.0247 0.01573 5.03181 0.0765302 5.04245C 0.200438 5.06413 0.362493 5.09847 0.526079 5.14879C 0.695196 5.20082 0.83107 5.25941 0.921975 5.31606C 1.01975 5.37698 0.990711 5.38828 0.958791 5.31377L 2.79721 4.52623C 2.60679 4.08172 2.26375 3.79564 1.97968 3.61863C 1.68874 3.43734 1.37493 3.31743 1.11417 3.23721C 0.847876 3.15529 0.599866 3.10363 0.421179 3.07237C 0.330682 3.05654 0.2551 3.04544 0.200281 3.03811C 0.172808 3.03444 0.150368 3.03168 0.133677 3.02973C 0.125326 3.02875 0.118398 3.02798 0.11298 3.02739C 0.110271 3.02709 0.107938 3.02684 0.105992 3.02664C 0.105019 3.02653 0.104143 3.02644 0.103364 3.02636C 0.102975 3.02632 0.10261 3.02628 0.10227 3.02625C 0.1021 3.02623 0.101863 3.02621 0.101779 3.0262C 0.101548 3.02617 0.101324 3.02615 -5.49316e-06 4.021ZM 0.958599 5.31332C 1.00592 5.42392 1.09511 5.70737 1.21174 6.13855C 1.32215 6.54675 1.44193 7.02887 1.55337 7.49424C 1.66453 7.95849 1.76608 8.40058 1.83991 8.72698C 1.87679 8.89004 1.90668 9.02391 1.92732 9.11684C 1.93764 9.16329 1.94563 9.1995 1.95103 9.22398C 1.95373 9.23622 1.95577 9.24553 1.95713 9.25173C 1.95781 9.25483 1.95832 9.25714 1.95865 9.25866C 1.95882 9.25942 1.95894 9.25998 1.95902 9.26033C 1.95906 9.26051 1.95909 9.26063 1.9591 9.26071C 1.95911 9.26075 1.95911 9.26076 1.95912 9.26078C 1.95912 9.26079 1.95912 9.26078 2.936 9.047C 3.91288 8.83321 3.91287 8.83318 3.91286 8.83313C 3.91286 8.8331 3.91284 8.83304 3.91283 8.83298C 3.9128 8.83285 3.91276 8.83266 3.91271 8.83243C 3.91261 8.83196 3.91246 8.83129 3.91227 8.83042C 3.91189 8.82868 3.91133 8.82613 3.91059 8.82279C 3.90913 8.81613 3.90698 8.80634 3.90417 8.7936C 3.89856 8.76812 3.89033 8.73086 3.87976 8.68328C 3.85863 8.58814 3.82816 8.45169 3.79062 8.28574C 3.71561 7.9541 3.61209 7.50338 3.49838 7.0285C 3.38494 6.55475 3.26004 6.05143 3.14236 5.61635C 3.03089 5.20425 2.90859 4.78657 2.7974 4.52668L 0.958599 5.31332ZM 2.936 9.047C 3.91597 9.24612 3.91596 9.24618 3.91595 9.24623C 3.91595 9.24623 3.91594 9.24627 3.91594 9.24627C 3.91594 9.24627 3.91595 9.24622 3.91597 9.24612C 3.91601 9.24592 3.9161 9.24552 3.91622 9.24492C 3.91647 9.24372 3.91687 9.24172 3.91745 9.23895C 3.91859 9.2334 3.92037 9.22478 3.92277 9.21327C 3.92758 9.19025 3.93486 9.15571 3.94443 9.11121C 3.96359 9.02216 3.99186 8.89357 4.0278 8.73788C 4.09996 8.42528 4.20171 8.00918 4.32142 7.58712C 4.44284 7.15904 4.5751 6.75228 4.70483 6.44679C 4.77031 6.29259 4.8235 6.19222 4.85946 6.13663C 4.91431 6.05184 4.87428 6.15326 4.70677 6.23715L 3.81122 4.44886C 3.48496 4.61224 3.28453 4.88904 3.18021 5.05029C 3.05701 5.24074 2.95226 5.45707 2.86395 5.66502C 2.68608 6.08385 2.52728 6.58321 2.39732 7.04138C 2.26566 7.50557 2.15573 7.95584 2.07904 8.28805C 2.04056 8.45477 2.01012 8.59319 1.98917 8.69055C 1.97869 8.73927 1.97057 8.77778 1.96499 8.80451C 1.9622 8.81788 1.96004 8.82831 1.95854 8.8356C 1.95779 8.83925 1.9572 8.84211 1.95678 8.84416C 1.95657 8.84519 1.9564 8.84602 1.95628 8.84664C 1.95621 8.84695 1.95616 8.8472 1.95612 8.84741C 1.9561 8.84752 1.95607 8.84763 1.95606 8.84768C 1.95604 8.84779 1.95602 8.84788 2.936 9.047ZM 4.70565 6.23771C 4.9197 6.13085 5.49272 5.95022 6.11386 5.77762C 6.40312 5.69724 6.67404 5.62623 6.87299 5.57524C 6.97228 5.5498 7.05322 5.52945 7.10902 5.51553C 7.13691 5.50858 7.1585 5.50324 7.17293 5.49969C 7.18014 5.49791 7.18557 5.49658 7.18909 5.49571C 7.19086 5.49528 7.19215 5.49496 7.19295 5.49477C 7.19335 5.49467 7.19363 5.4946 7.19378 5.49456C 7.19386 5.49454 7.19391 5.49453 7.19392 5.49453C 7.19393 5.49453 7.19392 5.49453 7.19392 5.49453C 7.1939 5.49453 7.19388 5.49454 6.957 4.523C 6.72011 3.55146 6.72007 3.55147 6.72002 3.55149C 6.71999 3.55149 6.71993 3.55151 6.71988 3.55152C 6.71977 3.55155 6.71963 3.55158 6.71946 3.55162C 6.71911 3.55171 6.71864 3.55182 6.71805 3.55197C 6.71686 3.55226 6.71518 3.55267 6.71302 3.5532C 6.7087 3.55426 6.70246 3.55579 6.69441 3.55777C 6.67832 3.56174 6.65496 3.56752 6.6252 3.57494C 6.5657 3.58977 6.4805 3.61119 6.37647 3.63786C 6.16877 3.69109 5.88424 3.76564 5.57838 3.85064C 5.00927 4.00878 4.23329 4.23815 3.81235 4.44829L 4.70565 6.23771ZM 6.957 4.523C 7.28984 3.58002 7.2899 3.58004 7.28996 3.58006C 7.28997 3.58007 7.29001 3.58008 7.29003 3.58009C 7.29006 3.5801 7.29006 3.5801 7.29002 3.58009C 7.28996 3.58006 7.28976 3.57999 7.28944 3.57988C 7.28879 3.57965 7.28764 3.57924 7.28599 3.57866C 7.2827 3.57748 7.27744 3.57561 7.27032 3.57305C 7.25608 3.56795 7.23444 3.56014 7.20627 3.54985C 7.14991 3.52926 7.0677 3.49885 6.96678 3.46041C 6.76423 3.38325 6.48982 3.27511 6.19965 3.15033C 5.90721 3.02458 5.61132 2.88731 5.3613 2.75256C 5.08975 2.6062 4.9504 2.50373 4.90891 2.46272L 3.50309 3.88528C 3.7591 4.13828 4.11238 4.35143 4.41243 4.51314C 4.734 4.68645 5.08867 4.84967 5.4096 4.98767C 5.7328 5.12665 6.03458 5.2455 6.25487 5.32941C 6.36537 5.3715 6.45624 5.40513 6.52011 5.42846C 6.55207 5.44013 6.57732 5.44925 6.59495 5.45557C 6.60377 5.45873 6.61069 5.4612 6.61559 5.46295C 6.61804 5.46382 6.61999 5.46451 6.62142 5.46502C 6.62214 5.46527 6.62273 5.46548 6.62318 5.46564C 6.62341 5.46572 6.6236 5.46579 6.62376 5.46585C 6.62385 5.46588 6.62394 5.46591 6.62398 5.46593C 6.62407 5.46596 6.62415 5.46598 6.957 4.523ZM 4.90864 2.46245C 4.83096 2.38575 4.72514 2.22549 4.61989 1.95253C 4.51872 1.69015 4.44104 1.38429 4.38368 1.07788C 4.32693 0.774716 4.29393 0.492119 4.27527 0.284502C 4.26601 0.181418 4.26044 0.0986254 4.25724 0.0432087C 4.25564 0.0155426 4.25465 -0.00517275 4.25408 -0.0180431C 4.25379 -0.0244746 4.25362 -0.0289345 4.25353 -0.0313108C 4.25348 -0.0324985 4.25346 -0.0331642 4.25345 -0.0332938C 4.25345 -0.0333585 4.25345 -0.0332891 4.25346 -0.0330837C 4.25346 -0.0329811 4.25347 -0.0328444 4.25347 -0.0326735C 4.25348 -0.0325882 4.25348 -0.032434 4.25348 -0.0323915C 4.25349 -0.0322291 4.25349 -0.032058 3.25401 -1.2207e-07C 2.25452 0.0320577 2.25453 0.0322465 2.25453 0.032444C 2.25454 0.0325217 2.25454 0.0327285 2.25455 0.032884C 2.25456 0.0331953 2.25457 0.0335423 2.25458 0.0339248C 2.25461 0.0346898 2.25464 0.0355969 2.25468 0.0366443C 2.25475 0.0387391 2.25485 0.0413957 2.25497 0.0445995C 2.25521 0.0510062 2.25556 0.0596065 2.25603 0.0702837C 2.25697 0.0916306 2.25842 0.121327 2.26056 0.158436C 2.26484 0.23257 2.27191 0.336785 2.2833 0.46353C 2.30595 0.71557 2.34633 1.06391 2.41783 1.44587C 2.48872 1.82459 2.59417 2.25805 2.75381 2.67207C 2.90937 3.07552 3.14205 3.52876 3.50337 3.88555L 4.90864 2.46245Z"/>
<path id="path21_fill" d="M 3.254 -7.62939e-07C 3.254 -7.62939e-07 2.51299 3.386 1.98399 3.545C 1.45499 3.704 -2.44141e-07 4.021 -2.44141e-07 4.021C -2.44141e-07 4.021 1.56101 4.18 1.87801 4.92C 2.19501 5.661 2.936 9.047 2.936 9.047C 2.936 9.047 3.624 5.661 4.259 5.343C 4.894 5.026 6.957 4.523 6.957 4.523C 6.957 4.523 4.80099 3.762 4.20599 3.174C 3.32799 2.307 3.254 -7.62939e-07 3.254 -7.62939e-07Z"/>
<path id="path22_stroke" d="M 3.254 -7.62939e-07L 4.25348 -0.0320587C 4.23731 -0.536351 3.84799 -0.949602 3.34556 -0.9958C 2.84313 -1.042 2.38498 -0.706672 2.27712 -0.213785L 3.254 -7.62939e-07ZM -2.44141e-07 4.021L -0.212875 3.04392C -0.693148 3.14856 -1.02616 3.58672 -0.998404 4.07747C -0.970645 4.56823 -0.590344 4.96604 -0.101335 5.01585L -2.44141e-07 4.021ZM 1.87801 4.92L 2.79741 4.52668L 2.79721 4.52623L 1.87801 4.92ZM 2.936 9.047L 1.95912 9.26078C 2.06018 9.72257 2.47079 10.0505 2.9435 10.047C 3.4162 10.0434 3.82185 9.70937 3.91598 9.24612L 2.936 9.047ZM 4.259 5.343L 3.81235 4.44829L 3.81123 4.44885L 4.259 5.343ZM 6.957 4.523L 7.19388 5.49454C 7.62372 5.38973 7.9336 5.01493 7.95575 4.57306C 7.97789 4.13118 7.70705 3.72727 7.28984 3.58002L 6.957 4.523ZM 4.20599 3.174L 4.9089 2.46272L 4.90863 2.46245L 4.20599 3.174ZM 3.254 -7.62939e-07C 2.27712 -0.213785 2.27713 -0.213838 2.27714 -0.213879C 2.27714 -0.213876 2.27714 -0.213904 2.27714 -0.213897C 2.27714 -0.213883 2.27712 -0.213819 2.2771 -0.213703C 2.27705 -0.213473 2.27695 -0.213041 2.27681 -0.212409C 2.27654 -0.211146 2.27608 -0.209087 2.27546 -0.206258C 2.27421 -0.200599 2.27227 -0.19186 2.26967 -0.180241C 2.26447 -0.157 2.25664 -0.122264 2.24641 -0.0776364C 2.22593 0.0116716 2.19592 0.140287 2.15822 0.295436C 2.08254 0.606928 1.97719 1.01991 1.85698 1.43422C 1.73484 1.85518 1.60552 2.24885 1.48473 2.53415C 1.42301 2.67995 1.37795 2.76255 1.35491 2.79759C 1.34364 2.81472 1.35355 2.79584 1.38829 2.76205C 1.41736 2.73379 1.5188 2.64063 1.69615 2.58732L 2.27184 4.50268C 2.51531 4.4295 2.68453 4.29125 2.78257 4.19592C 2.88629 4.09507 2.96636 3.98713 3.02598 3.89646C 3.14472 3.7159 3.24434 3.50788 3.32647 3.31389C 3.49341 2.91959 3.64852 2.43695 3.77776 1.99153C 3.90893 1.53947 4.02189 1.09601 4.10168 0.767657C 4.14171 0.602884 4.17372 0.465726 4.19584 0.369241C 4.20691 0.320971 4.21551 0.282806 4.22143 0.25637C 4.22438 0.24315 4.22667 0.232856 4.22825 0.225693C 4.22905 0.222111 4.22966 0.21931 4.2301 0.217317C 4.23032 0.21632 4.2305 0.215526 4.23063 0.214936C 4.23069 0.214641 4.23074 0.214397 4.23079 0.214205C 4.23081 0.214109 4.23083 0.214003 4.23084 0.213955C 4.23086 0.213863 4.23088 0.213783 3.254 -7.62939e-07ZM 1.69615 2.58732C 1.46864 2.65571 1.00561 2.7675 0.568928 2.8682C 0.357133 2.91703 0.161308 2.96105 0.0183322 2.99287C -0.053092 3.00877 -0.111172 3.02159 -0.151274 3.03042C -0.171322 3.03482 -0.186867 3.03823 -0.197329 3.04052C -0.20256 3.04167 -0.20652 3.04253 -0.209135 3.0431C -0.210443 3.04339 -0.211414 3.0436 -0.212041 3.04374C -0.212354 3.04381 -0.212581 3.04386 -0.21272 3.04389C -0.21279 3.0439 -0.212838 3.04391 -0.212864 3.04392C -0.212877 3.04392 -0.21288 3.04392 -0.212886 3.04392C -0.212884 3.04392 -0.212875 3.04392 -2.44141e-07 4.021C 0.212875 4.99808 0.212894 4.99807 0.212919 4.99807C 0.212935 4.99807 0.212965 4.99806 0.212996 4.99805C 0.213059 4.99804 0.213144 4.99802 0.21325 4.998C 0.213464 4.99795 0.213765 4.99788 0.214153 4.9978C 0.21493 4.99763 0.216053 4.99739 0.217515 4.99707C 0.220437 4.99643 0.224713 4.99549 0.230268 4.99428C 0.241377 4.99185 0.257608 4.98829 0.278379 4.98372C 0.319912 4.97458 0.379637 4.9614 0.452884 4.94509C 0.599251 4.91251 0.800236 4.86734 1.01832 4.81705C 1.44138 4.7195 1.97035 4.5933 2.27184 4.50268L 1.69615 2.58732ZM -2.44141e-07 4.021C -0.101335 5.01585 -0.101547 5.01583 -0.101753 5.01581C -0.101815 5.0158 -0.102016 5.01578 -0.102138 5.01577C -0.102383 5.01574 -0.102606 5.01572 -0.102806 5.0157C -0.103206 5.01566 -0.103516 5.01563 -0.103737 5.0156C -0.10418 5.01556 -0.104269 5.01555 -0.104015 5.01557C -0.103506 5.01563 -0.101631 5.01584 -0.0984714 5.01621C -0.0921413 5.01694 -0.0807346 5.01833 -0.0649045 5.02045C -0.0331174 5.0247 0.0157307 5.03181 0.0765309 5.04245C 0.200439 5.06412 0.362494 5.09846 0.526081 5.14879C 0.695198 5.20082 0.831072 5.25941 0.921978 5.31606C 1.01976 5.37698 0.990716 5.38828 0.958797 5.31377L 2.79721 4.52623C 2.6068 4.08172 2.26376 3.79564 1.97969 3.61863C 1.68875 3.43734 1.37493 3.31743 1.11417 3.23721C 0.847885 3.15529 0.599876 3.10363 0.421189 3.07237C 0.330692 3.05653 0.25511 3.04544 0.200291 3.03811C 0.172818 3.03443 0.150378 3.03168 0.133687 3.02973C 0.125336 3.02875 0.118408 3.02797 0.11299 3.02738C 0.110281 3.02709 0.107948 3.02684 0.106002 3.02663C 0.105029 3.02653 0.104153 3.02644 0.103374 3.02636C 0.102985 3.02632 0.10262 3.02628 0.10228 3.02624C 0.10211 3.02623 0.101874 3.0262 0.101789 3.02619C 0.101558 3.02617 0.101334 3.02615 -2.44141e-07 4.021ZM 0.958604 5.31332C 1.00592 5.42393 1.09511 5.70737 1.21174 6.13855C 1.32215 6.54675 1.44194 7.02887 1.55337 7.49424C 1.66454 7.95849 1.76608 8.40059 1.83991 8.72698C 1.87679 8.89004 1.90669 9.02391 1.92732 9.11684C 1.93764 9.16329 1.94564 9.1995 1.95103 9.22399C 1.95373 9.23623 1.95578 9.24554 1.95714 9.25173C 1.95782 9.25483 1.95833 9.25715 1.95866 9.25866C 1.95882 9.25942 1.95895 9.25998 1.95902 9.26033C 1.95906 9.26051 1.95909 9.26064 1.95911 9.26071C 1.95912 9.26075 1.95912 9.26077 1.95912 9.26079C 1.95912 9.26079 1.95912 9.26078 2.936 9.047C 3.91289 8.83322 3.91288 8.83318 3.91287 8.83314C 3.91286 8.8331 3.91285 8.83305 3.91283 8.83298C 3.9128 8.83285 3.91277 8.83267 3.91271 8.83243C 3.91261 8.83197 3.91246 8.8313 3.91227 8.83042C 3.91189 8.82868 3.91133 8.82613 3.9106 8.8228C 3.90914 8.81613 3.90698 8.80634 3.90418 8.7936C 3.89856 8.76812 3.89033 8.73086 3.87977 8.68328C 3.85864 8.58814 3.82817 8.45169 3.79063 8.28574C 3.71562 7.9541 3.6121 7.50338 3.49839 7.02851C 3.38495 6.55476 3.26005 6.05144 3.14236 5.61635C 3.0309 5.20426 2.90859 4.78658 2.79741 4.52668L 0.958604 5.31332ZM 2.936 9.047C 3.91598 9.24612 3.91597 9.24618 3.91596 9.24624C 3.91596 9.24624 3.91595 9.24628 3.91595 9.24628C 3.91595 9.24628 3.91596 9.24623 3.91598 9.24613C 3.91602 9.24593 3.9161 9.24552 3.91622 9.24492C 3.91647 9.24372 3.91688 9.24172 3.91745 9.23895C 3.91859 9.23341 3.92037 9.22478 3.92278 9.21327C 3.92758 9.19025 3.93486 9.15571 3.94444 9.11121C 3.9636 9.02216 3.99187 8.89357 4.0278 8.73789C 4.09996 8.42528 4.20172 8.00918 4.32143 7.58712C 4.44285 7.15904 4.5751 6.75227 4.70483 6.44679C 4.77032 6.29259 4.8235 6.19221 4.85946 6.13662C 4.91431 6.05184 4.87429 6.15326 4.70678 6.23714L 3.81123 4.44885C 3.48497 4.61224 3.28453 4.88903 3.18022 5.05029C 3.05701 5.24073 2.95227 5.45707 2.86395 5.66502C 2.68609 6.08385 2.52728 6.58321 2.39733 7.04137C 2.26567 7.50557 2.15573 7.95584 2.07905 8.28805C 2.04056 8.45477 2.01012 8.59319 1.98918 8.69056C 1.9787 8.73927 1.97058 8.77778 1.96499 8.80452C 1.9622 8.81789 1.96005 8.82831 1.95854 8.83561C 1.95779 8.83925 1.95721 8.84211 1.95679 8.84417C 1.95658 8.84519 1.95641 8.84602 1.95628 8.84664C 1.95622 8.84695 1.95617 8.84721 1.95612 8.84741C 1.9561 8.84752 1.95608 8.84763 1.95607 8.84769C 1.95605 8.84779 1.95603 8.84788 2.936 9.047ZM 4.70565 6.23771C 4.9197 6.13085 5.49273 5.95022 6.11386 5.77761C 6.40313 5.69723 6.67404 5.62623 6.87299 5.57524C 6.97229 5.54979 7.05322 5.52944 7.10902 5.51553C 7.13692 5.50858 7.1585 5.50324 7.17293 5.49968C 7.18015 5.4979 7.18557 5.49657 7.1891 5.49571C 7.19086 5.49527 7.19215 5.49496 7.19295 5.49476C 7.19335 5.49467 7.19363 5.4946 7.19379 5.49456C 7.19387 5.49454 7.19391 5.49453 7.19393 5.49453C 7.19394 5.49452 7.19392 5.49453 7.19393 5.49453C 7.19391 5.49453 7.19388 5.49454 6.957 4.523C 6.72012 3.55146 6.72008 3.55147 6.72003 3.55148C 6.72 3.55149 6.71994 3.5515 6.71988 3.55152C 6.71977 3.55154 6.71963 3.55158 6.71946 3.55162C 6.71912 3.5517 6.71865 3.55182 6.71805 3.55196C 6.71687 3.55225 6.71519 3.55267 6.71303 3.55319C 6.70871 3.55425 6.70247 3.55578 6.69442 3.55777C 6.67832 3.56173 6.65496 3.56751 6.62521 3.57493C 6.56571 3.58977 6.48051 3.61119 6.37648 3.63785C 6.16877 3.69108 5.88425 3.76564 5.57839 3.85063C 5.00927 4.00878 4.2333 4.23815 3.81235 4.44829L 4.70565 6.23771ZM 6.957 4.523C 7.28984 3.58002 7.28991 3.58004 7.28996 3.58006C 7.28997 3.58006 7.29002 3.58008 7.29003 3.58008C 7.29006 3.58009 7.29006 3.58009 7.29003 3.58008C 7.28996 3.58006 7.28976 3.57999 7.28944 3.57987C 7.28879 3.57964 7.28764 3.57924 7.286 3.57865C 7.2827 3.57748 7.27744 3.5756 7.27033 3.57305C 7.25609 3.56794 7.23444 3.56013 7.20628 3.54984C 7.14992 3.52926 7.0677 3.49884 6.96678 3.4604C 6.76423 3.38325 6.48982 3.2751 6.19965 3.15033C 5.9072 3.02458 5.61131 2.8873 5.36129 2.75255C 5.08974 2.6062 4.95039 2.50372 4.9089 2.46272L 3.50308 3.88528C 3.75909 4.13828 4.11237 4.35142 4.41242 4.51313C 4.73399 4.68645 5.08866 4.84967 5.4096 4.98767C 5.7328 5.12665 6.03458 5.2455 6.25487 5.32941C 6.36538 5.3715 6.45625 5.40513 6.52012 5.42846C 6.55207 5.44013 6.57732 5.44924 6.59496 5.45557C 6.60378 5.45873 6.61069 5.4612 6.6156 5.46294C 6.61805 5.46382 6.62 5.46451 6.62143 5.46502C 6.62215 5.46527 6.62273 5.46548 6.62319 5.46564C 6.62342 5.46572 6.62361 5.46579 6.62377 5.46584C 6.62385 5.46587 6.62395 5.46591 6.62399 5.46592C 6.62408 5.46595 6.62416 5.46598 6.957 4.523ZM 4.90863 2.46245C 4.83095 2.38574 4.72513 2.22548 4.61988 1.95253C 4.51871 1.69014 4.44103 1.38429 4.38367 1.07788C 4.32692 0.774714 4.29392 0.492117 4.27526 0.2845C 4.266 0.181417 4.26043 0.0986244 4.25723 0.0432078C 4.25563 0.0155418 4.25464 -0.00517353 4.25407 -0.0180439C 4.25378 -0.0244753 4.25361 -0.0289353 4.25352 -0.0313115C 4.25347 -0.0324992 4.25345 -0.0331649 4.25344 -0.0332945C 4.25344 -0.0333592 4.25344 -0.0332898 4.25345 -0.0330844C 4.25345 -0.0329818 4.25346 -0.0328451 4.25346 -0.0326742C 4.25347 -0.0325889 4.25347 -0.0324347 4.25347 -0.0323922C 4.25348 -0.0322298 4.25348 -0.0320587 3.254 -7.62939e-07C 2.25451 0.0320571 2.25452 0.0322459 2.25452 0.0324434C 2.25453 0.0325211 2.25453 0.0327279 2.25454 0.0328834C 2.25455 0.0331947 2.25456 0.0335417 2.25457 0.0339242C 2.2546 0.0346892 2.25463 0.0355963 2.25467 0.0366437C 2.25474 0.0387385 2.25484 0.0413951 2.25496 0.0445989C 2.2552 0.0510056 2.25555 0.0596059 2.25602 0.0702831C 2.25696 0.09163 2.25841 0.121326 2.26055 0.158435C 2.26483 0.232569 2.2719 0.336784 2.28329 0.463529C 2.30594 0.715569 2.34632 1.06391 2.41782 1.44587C 2.48871 1.82458 2.59416 2.25804 2.7538 2.67206C 2.90936 3.07552 3.14204 3.52876 3.50336 3.88555L 4.90863 2.46245Z"/>
<path id="path23_fill" d="M 7.163 -3.66211e-06C 7.163 -3.66211e-06 8.596 6.55 9.619 6.857C 10.642 7.164 13.457 7.778 13.457 7.778C 13.457 7.778 10.438 8.085 9.824 9.518C 9.21 10.951 7.777 17.5 7.777 17.5C 7.777 17.5 6.447 10.95 5.219 10.336C 3.991 9.722 -7.32422e-06 8.75 -7.32422e-06 8.75C -7.32422e-06 8.75 4.171 7.278 5.322 6.14C 7.018 4.463 7.163 -3.66211e-06 7.163 -3.66211e-06Z"/>
<path id="path24_stroke" d="M 7.163 -3.66211e-06L 8.1399 -0.213726C 8.03208 -0.706554 7.57405 -1.0419 7.07168 -0.995825C 6.5693 -0.949753 6.17991 -0.536695 6.16353 -0.0324766L 7.163 -3.66211e-06ZM 13.457 7.778L 13.5582 8.77287C 14.0472 8.72314 14.4275 8.32541 14.4554 7.83467C 14.4832 7.34394 14.1503 6.90571 13.6701 6.80097L 13.457 7.778ZM 7.777 17.5L 6.797 17.699C 6.89107 18.1623 7.29673 18.4964 7.76946 18.5C 8.24219 18.5035 8.65284 18.1756 8.75389 17.7138L 7.777 17.5ZM -7.32422e-06 8.75L -0.332802 7.807C -0.750067 7.95425 -1.02094 8.35823 -0.998748 8.80016C -0.976552 9.24209 -0.666559 9.61689 -0.236639 9.7216L -7.32422e-06 8.75ZM 5.322 6.14L 6.02508 6.85111L 6.02511 6.85108L 5.322 6.14ZM 7.163 -3.66211e-06C 6.18611 0.213719 6.18613 0.21381 6.18615 0.213927C 6.18617 0.213999 6.1862 0.214141 6.18623 0.214285C 6.1863 0.214573 6.18638 0.214961 6.18649 0.215448C 6.1867 0.216421 6.187 0.217789 6.18739 0.219546C 6.18816 0.223061 6.18928 0.228131 6.19073 0.234709C 6.19364 0.247864 6.1979 0.267049 6.20345 0.291874C 6.21455 0.34152 6.23083 0.413746 6.25184 0.505417C 6.29385 0.688706 6.35482 0.950036 6.43115 1.26428C 6.58353 1.89157 6.79843 2.73515 7.04696 3.59196C 7.29357 4.44213 7.5815 5.33414 7.88277 6.04588C 8.03207 6.3986 8.19926 6.74237 8.3842 7.02363C 8.47693 7.16466 8.58979 7.31421 8.72575 7.4464C 8.85604 7.57306 9.05703 7.73241 9.33156 7.8148L 9.90643 5.8992C 9.98331 5.92227 10.0378 5.95283 10.0693 5.97343C 10.1008 5.994 10.1173 6.00989 10.1199 6.0124C 10.1225 6.01491 10.0997 5.99226 10.0553 5.9248C 9.96607 5.7891 9.85347 5.57079 9.72456 5.26627C 9.46943 4.66354 9.2073 3.86049 8.96778 3.03478C 8.7302 2.21572 8.52291 1.40262 8.37463 0.792185C 8.30064 0.487567 8.24167 0.234779 8.20131 0.0586656C 8.18113 -0.0293643 8.16563 -0.0981609 8.15524 -0.144613C 8.15005 -0.167836 8.14613 -0.185468 8.14356 -0.197118C 8.14227 -0.202943 8.14132 -0.207272 8.1407 -0.210057C 8.1404 -0.211449 8.14018 -0.212455 8.14004 -0.213068C 8.13997 -0.213375 8.13993 -0.213584 8.1399 -0.213694C 8.13989 -0.213749 8.13989 -0.213757 8.13988 -0.213784C 8.13989 -0.213768 8.1399 -0.213726 7.163 -3.66211e-06ZM 9.33156 7.8148C 9.87975 7.97931 10.8719 8.21671 11.6968 8.40702C 12.1157 8.50368 12.5021 8.5906 12.7837 8.65333C 12.9245 8.68471 13.0393 8.71007 13.119 8.72762C 13.1588 8.73639 13.1899 8.74321 13.2111 8.74785C 13.2217 8.75018 13.2298 8.75195 13.2353 8.75316C 13.2381 8.75376 13.2402 8.75422 13.2416 8.75453C 13.2423 8.75469 13.2429 8.75481 13.2433 8.75489C 13.2435 8.75493 13.2436 8.75496 13.2437 8.75498C 13.2438 8.755 13.2438 8.75501 13.2438 8.75501C 13.2439 8.75502 13.2439 8.75502 13.457 7.778C 13.6701 6.80097 13.6701 6.80097 13.6701 6.80097C 13.6701 6.80096 13.6701 6.80096 13.67 6.80095C 13.67 6.80094 13.6698 6.80091 13.6697 6.80088C 13.6694 6.80081 13.6689 6.80071 13.6683 6.80057C 13.667 6.80029 13.665 6.79986 13.6624 6.79929C 13.6572 6.79816 13.6494 6.79645 13.6392 6.7942C 13.6186 6.78969 13.5882 6.78302 13.5491 6.77441C 13.4708 6.75718 13.3577 6.73217 13.2186 6.70119C 12.9404 6.63921 12.5591 6.55344 12.1464 6.45822C 11.308 6.26479 10.3812 6.04169 9.90643 5.8992L 9.33156 7.8148ZM 13.457 7.778C 13.3558 6.78313 13.3556 6.78315 13.3554 6.78317C 13.3553 6.78318 13.355 6.78321 13.3548 6.78323C 13.3544 6.78327 13.354 6.78331 13.3535 6.78336C 13.3526 6.78346 13.3514 6.78358 13.3501 6.78372C 13.3474 6.784 13.3441 6.78436 13.34 6.78481C 13.3318 6.7857 13.3207 6.78693 13.307 6.78854C 13.2796 6.79174 13.2413 6.79642 13.1936 6.8028C 13.0983 6.81554 12.9646 6.83512 12.8034 6.8633C 12.4834 6.91927 12.0438 7.0111 11.5766 7.15485C 11.115 7.29691 10.591 7.50032 10.1216 7.793C 9.65898 8.08144 9.16939 8.50668 8.90482 9.12416L 10.7432 9.91184C 10.7856 9.81282 10.9036 9.66231 11.1798 9.49016C 11.4491 9.32224 11.795 9.18021 12.1649 9.06639C 12.5292 8.95427 12.8827 8.87978 13.1479 8.83341C 13.2794 8.81042 13.3863 8.79482 13.4585 8.78517C 13.4946 8.78036 13.5218 8.77704 13.5389 8.77505C 13.5474 8.77405 13.5534 8.77339 13.5567 8.77303C 13.5583 8.77285 13.5593 8.77275 13.5595 8.77273C 13.5596 8.77271 13.5596 8.77272 13.5594 8.77274C 13.5593 8.77275 13.5591 8.77277 13.5589 8.77279C 13.5588 8.7728 13.5586 8.77282 13.5586 8.77282C 13.5584 8.77284 13.5582 8.77287 13.457 7.778ZM 8.90482 9.12416C 8.71924 9.55727 8.49794 10.3026 8.27985 11.1085C 8.05551 11.9375 7.81625 12.9011 7.59775 13.8135C 7.37897 14.727 7.17967 15.5947 7.03514 16.2337C 6.96284 16.5533 6.90418 16.8161 6.86355 16.999C 6.84323 17.0905 6.82742 17.1621 6.81667 17.2109C 6.81129 17.2353 6.80718 17.2541 6.80439 17.2667C 6.803 17.2731 6.80194 17.2779 6.80123 17.2812C 6.80087 17.2828 6.8006 17.284 6.80041 17.2849C 6.80032 17.2853 6.80025 17.2856 6.8002 17.2859C 6.80017 17.286 6.80015 17.2861 6.80014 17.2861C 6.80012 17.2862 6.80011 17.2862 7.777 17.5C 8.75389 17.7138 8.75389 17.7137 8.7539 17.7137C 8.75391 17.7137 8.75392 17.7136 8.75394 17.7135C 8.75397 17.7134 8.75403 17.7131 8.75411 17.7127C 8.75427 17.712 8.75452 17.7109 8.75486 17.7093C 8.75552 17.7063 8.75653 17.7017 8.75787 17.6956C 8.76055 17.6834 8.76455 17.6652 8.76982 17.6413C 8.78036 17.5934 8.79593 17.5229 8.816 17.4326C 8.85614 17.2518 8.91422 16.9917 8.98586 16.6749C 9.1292 16.0412 9.32653 15.1821 9.54275 14.2793C 9.75924 13.3753 9.99336 12.433 10.2104 11.631C 10.4337 10.8059 10.6218 10.1952 10.7432 9.91184L 8.90482 9.12416ZM 7.777 17.5C 8.757 17.301 8.75698 17.3009 8.75696 17.3008C 8.75694 17.3007 8.75691 17.3005 8.75688 17.3004C 8.75682 17.3001 8.75673 17.2997 8.75663 17.2992C 8.75643 17.2982 8.75614 17.2968 8.75578 17.295C 8.75505 17.2914 8.75399 17.2863 8.75263 17.2796C 8.74989 17.2664 8.7459 17.247 8.74068 17.222C 8.73026 17.1721 8.71495 17.0994 8.69511 17.0072C 8.65545 16.8227 8.59762 16.5595 8.52441 16.2422C 8.37827 15.6087 8.16956 14.7537 7.92058 13.8755C 7.67332 13.0033 7.37867 12.0807 7.05722 11.3236C 6.89712 10.9465 6.71864 10.5823 6.52109 10.2769C 6.34247 10.0008 6.06698 9.64196 5.66622 9.44158L 4.77179 11.2304C 4.67802 11.1835 4.71273 11.1637 4.84188 11.3633C 4.95212 11.5337 5.07901 11.7819 5.21628 12.1052C 5.48958 12.7489 5.75768 13.5789 5.99642 14.421C 6.23344 15.2571 6.43398 16.0779 6.57559 16.6918C 6.64626 16.9981 6.70192 17.2514 6.7398 17.4276C 6.75873 17.5156 6.77319 17.5843 6.78285 17.6305C 6.78767 17.6537 6.79129 17.6712 6.79367 17.6827C 6.79486 17.6885 6.79573 17.6928 6.79629 17.6955C 6.79657 17.6969 6.79676 17.6978 6.79688 17.6984C 6.79694 17.6987 6.79698 17.6989 6.797 17.699C 6.79701 17.699 6.79701 17.699 6.79702 17.6991C 6.79701 17.699 6.797 17.699 7.777 17.5ZM 5.66622 9.44158C 4.94839 9.08266 3.54175 8.66172 2.41661 8.34922C 1.83265 8.18703 1.28857 8.04456 0.890831 7.94272C 0.69178 7.89175 0.528943 7.85084 0.415561 7.82261C 0.35886 7.80848 0.314499 7.79752 0.284131 7.79005C 0.268947 7.78631 0.257258 7.78344 0.249272 7.78149C 0.245279 7.78051 0.242211 7.77976 0.240095 7.77924C 0.239037 7.77899 0.238216 7.77878 0.237637 7.77864C 0.237347 7.77857 0.237118 7.77852 0.236949 7.77848C 0.236864 7.77846 0.236783 7.77844 0.236741 7.77843C 0.236675 7.77841 0.236625 7.7784 -7.32422e-06 8.75C -0.236639 9.7216 -0.236659 9.72159 -0.236664 9.72159C -0.236646 9.72159 -0.236636 9.7216 -0.236599 9.72161C -0.236525 9.72162 -0.236391 9.72166 -0.236196 9.7217C -0.235808 9.7218 -0.23518 9.72195 -0.234315 9.72216C -0.232585 9.72258 -0.22991 9.72324 -0.226314 9.72412C -0.219122 9.72588 -0.208251 9.72855 -0.193904 9.73208C -0.16521 9.73914 -0.122628 9.74966 -0.0678009 9.76332C 0.0418719 9.79063 0.200426 9.83046 0.39472 9.88021C 0.783671 9.97981 1.31409 10.1187 1.88139 10.2763C 3.05875 10.6033 4.26162 10.9753 4.77179 11.2304L 5.66622 9.44158ZM -7.32422e-06 8.75C 0.332787 9.693 0.332875 9.69296 0.332979 9.69293C 0.333035 9.69291 0.333154 9.69287 0.333266 9.69283C 0.333489 9.69275 0.333776 9.69265 0.334126 9.69252C 0.334826 9.69228 0.335778 9.69194 0.336979 9.69151C 0.339381 9.69066 0.34278 9.68946 0.347147 9.6879C 0.355881 9.6848 0.368491 9.6803 0.384757 9.67446C 0.417286 9.66279 0.464456 9.64577 0.524504 9.62384C 0.644561 9.58 0.816318 9.51645 1.02562 9.43673C 1.44352 9.27757 2.01456 9.05265 2.6244 8.79042C 3.23197 8.52917 3.89066 8.2255 4.47935 7.90817C 5.04651 7.60244 5.63003 7.2417 6.02508 6.85111L 4.61892 5.42889C 4.43846 5.60731 4.06898 5.85731 3.53036 6.14765C 3.01327 6.42638 2.4134 6.70409 1.83434 6.95308C 1.25756 7.2011 0.713911 7.4153 0.313772 7.5677C 0.11406 7.64376 -0.0490359 7.7041 -0.161577 7.7452C -0.217828 7.76575 -0.261393 7.78146 -0.290525 7.79191C -0.305089 7.79714 -0.316041 7.80104 -0.323161 7.80358C -0.326721 7.80484 -0.329323 7.80576 -0.330939 7.80634C -0.331747 7.80662 -0.332308 7.80682 -0.33262 7.80693C -0.332776 7.80699 -0.332869 7.80702 -0.3329 7.80703C -0.332915 7.80704 -0.33289 7.80703 -0.332898 7.80703C -0.332858 7.80702 -0.332802 7.807 -7.32422e-06 8.75ZM 6.02511 6.85108C 6.59074 6.29179 6.98111 5.55202 7.25828 4.8327C 7.53954 4.10277 7.73053 3.32399 7.86141 2.62523C 7.9929 1.92322 8.06771 1.28013 8.1098 0.813358C 8.13092 0.579246 8.14396 0.38767 8.15178 0.253019C 8.15569 0.185651 8.1583 0.132409 8.15997 0.0950817C 8.1608 0.0764144 8.1614 0.0617156 8.1618 0.0512088C 8.162 0.0459549 8.16215 0.041748 8.16226 0.0386158C 8.16232 0.0370497 8.16236 0.0357521 8.1624 0.0347265C 8.16242 0.0342138 8.16243 0.033769 8.16245 0.0333926C 8.16245 0.0332046 8.16246 0.0329735 8.16246 0.0328795C 8.16247 0.0326659 8.16247 0.0324693 7.163 -3.66211e-06C 6.16353 -0.0324766 6.16354 -0.0326392 6.16354 -0.0327848C 6.16354 -0.0328108 6.16355 -0.0329399 6.16355 -0.0329922C 6.16355 -0.033097 6.16355 -0.0331349 6.16355 -0.0331064C 6.16355 -0.0330492 6.16354 -0.0327262 6.16352 -0.0321408C 6.16348 -0.0309699 6.16339 -0.0287499 6.16327 -0.0255081C 6.16302 -0.0190237 6.1626 -0.00845698 6.16195 0.00597314C 6.16067 0.0348408 6.15851 0.0791209 6.15514 0.137064C 6.14841 0.253035 6.13687 0.423232 6.11789 0.633731C 6.07979 1.05617 6.01235 1.63365 5.89559 2.25702C 5.77823 2.88363 5.61496 3.53504 5.39203 4.11359C 5.16502 4.70274 4.90126 5.14971 4.61889 5.42892L 6.02511 6.85108Z"/>
</defs>
</svg>
