<svg width="40" height="55" viewBox="0 0 40 55" version="1.1" xmlns="http://www.w3.org/2000/svg" xmlns:xlink="http://www.w3.org/1999/xlink">
<title>comic_place</title>
<desc>Created using Figma</desc>
<g id="Canvas" transform="translate(-12203 -11033)">
<g id="comic_place">
<g id="Vector">
<use xlink:href="#path0_fill" transform="translate(12205 11035)" fill="#FFFFFF"/>
<use xlink:href="#path1_stroke" transform="translate(12205 11035)" fill="#231F20"/>
</g>
</g>
</g>
<defs>
<path id="path0_fill" d="M 12.3525 50.7923C 12.3525 50.7923 -2.44749 30.6923 0.352507 17.2923C 2.35251 7.79228 9.95251 -2.10772 21.7525 0.392281C 34.4525 3.09228 36.1525 16.4923 34.5525 23.9923C 31.8525 37.1923 12.3525 50.7923 12.3525 50.7923Z"/>
<path id="path1_stroke" d="M 12.3525 50.7923L 10.742 51.9781C 11.3851 52.8515 12.607 53.0531 13.4966 52.4327L 12.3525 50.7923ZM 0.352507 17.2923L -1.60459 16.8803L -1.60521 16.8832L 0.352507 17.2923ZM 21.7525 0.392281L 22.1684 -1.564L 22.167 -1.56429L 21.7525 0.392281ZM 34.5525 23.9923L 32.5965 23.575C 32.5953 23.5805 32.5942 23.586 32.5931 23.5915L 34.5525 23.9923ZM 12.3525 50.7923C 13.963 49.6064 13.9632 49.6067 13.9633 49.6068C 13.9633 49.6068 13.9634 49.6069 13.9633 49.6068C 13.9632 49.6066 13.9628 49.6061 13.9622 49.6054C 13.9611 49.6038 13.959 49.601 13.9561 49.597C 13.9503 49.5891 13.941 49.5763 13.9284 49.5589C 13.9031 49.5241 13.8644 49.4706 13.8133 49.3992C 13.7111 49.2564 13.5592 49.0421 13.3656 48.7629C 12.9783 48.2042 12.4245 47.3866 11.7669 46.362C 10.45 44.3101 8.72609 41.4423 7.09136 38.1729C 5.45337 34.8969 3.92728 31.2618 2.98016 27.6698C 2.02819 24.0595 1.69817 20.6305 2.31022 17.7014L -1.60521 16.8832C -2.39315 20.6541 -1.92317 24.7625 -0.887642 28.6897C 0.152734 32.6353 1.80164 36.5377 3.51365 39.9617C 5.22892 43.3923 7.02998 46.3869 8.40058 48.5225C 9.08679 49.5917 9.66735 50.4491 10.0785 51.042C 10.2841 51.3386 10.4475 51.5692 10.5607 51.7274C 10.6173 51.8064 10.6613 51.8674 10.6919 51.9095C 10.7072 51.9305 10.7191 51.9468 10.7274 51.9583C 10.7316 51.964 10.735 51.9686 10.7374 51.9719C 10.7386 51.9735 10.7396 51.9749 10.7404 51.9759C 10.7408 51.9764 10.7412 51.977 10.7413 51.9773C 10.7417 51.9777 10.742 51.9781 12.3525 50.7923ZM 2.30961 17.7043C 3.24174 13.2767 5.47181 8.82666 8.73491 5.81111C 11.9384 2.85062 16.1427 1.24816 21.338 2.34885L 22.167 -1.56429C 15.5623 -2.9636 10.0666 -0.86606 6.02011 2.87345C 2.0332 6.5579 -0.536728 11.8079 -1.60459 16.8803L 2.30961 17.7043ZM 21.3366 2.34856C 26.9245 3.53654 30.044 7.01648 31.6529 11.122C 33.2978 15.3194 33.3301 20.1366 32.5965 23.575L 36.5085 24.4096C 37.375 20.348 37.3572 14.7152 35.3771 9.66253C 33.3611 4.51809 29.2805 -0.0519786 22.1684 -1.564L 21.3366 2.34856ZM 32.5931 23.5915C 31.3752 29.5457 26.2381 35.8779 21.0484 40.9059C 18.502 43.3728 16.0332 45.4412 14.1999 46.8932C 13.2843 47.6183 12.5301 48.1874 12.0076 48.5733C 11.7464 48.7662 11.5433 48.9131 11.4071 49.0107C 11.339 49.0595 11.2877 49.096 11.2542 49.1196C 11.2374 49.1315 11.2252 49.1401 11.2175 49.1455C 11.2137 49.1482 11.211 49.1501 11.2094 49.1511C 11.2087 49.1516 11.2082 49.152 11.208 49.1521C 11.208 49.1522 11.208 49.1521 11.208 49.1521C 11.2082 49.152 11.2084 49.1518 12.3525 50.7923C 13.4966 52.4327 13.497 52.4324 13.4975 52.4321C 13.4977 52.4319 13.4982 52.4316 13.4988 52.4312C 13.4998 52.4305 13.5011 52.4296 13.5027 52.4285C 13.5059 52.4262 13.5103 52.4232 13.5158 52.4193C 13.5269 52.4115 13.5426 52.4004 13.5629 52.3861C 13.6033 52.3575 13.6618 52.316 13.7372 52.2619C 13.888 52.1539 14.1065 51.9957 14.3838 51.791C 14.9382 51.3815 15.7285 50.785 16.6833 50.0289C 18.5905 48.5184 21.1655 46.3617 23.8317 43.7787C 29.0669 38.7066 35.0298 31.6389 36.5119 24.3931L 32.5931 23.5915Z"/>
</defs>
</svg>
