<svg width="237" height="231" viewBox="0 0 237 231" version="1.1" xmlns="http://www.w3.org/2000/svg" xmlns:xlink="http://www.w3.org/1999/xlink">
<title>comic-self_hp</title>
<desc>Created using Figma</desc>
<g id="Canvas" transform="translate(-12512 -8764)">
<g id="comic-self_hp">
<g id="Vector">
<use xlink:href="#path0_fill" transform="translate(12533.3 8786.24)" fill="url(#paint0_linear)"/>
<use xlink:href="#path1_stroke" transform="translate(12533.3 8786.24)" fill="#231F20"/>
</g>
<g id="Vector">
<use xlink:href="#path2_stroke" transform="translate(12604.5 8863.65)" fill="#231F20"/>
</g>
<g id="Vector">
<use xlink:href="#path3_fill" transform="translate(12512.5 8764.14)" fill="#231F20"/>
</g>
<g id="Group">
<g id="Vector">
<use xlink:href="#path4_fill" transform="translate(12613.2 8894.41)" fill="#F79D6D"/>
</g>
<g id="Vector">
<use xlink:href="#path5_fill" transform="translate(12610.3 8891.49)" fill="#231F20"/>
</g>
</g>
<g id="Vector">
<use xlink:href="#path6_stroke" transform="translate(12590.7 8841.32)" fill="#231F20"/>
</g>
<g id="Vector">
<use xlink:href="#path7_fill" transform="translate(12602.5 8825.39)" fill="#FFFFFF"/>
<use xlink:href="#path8_stroke" transform="translate(12602.5 8825.39)" fill="#231F20"/>
</g>
<g id="Vector">
<use xlink:href="#path9_fill" transform="translate(12567.8 8845.98)" fill="#FFFFFF"/>
<use xlink:href="#path10_stroke" transform="translate(12567.8 8845.98)" fill="#231F20"/>
</g>
<g id="Vector">
<use xlink:href="#path11_fill" transform="translate(12590.2 8924.96)" fill="#F5B7D1"/>
<use xlink:href="#path12_stroke" transform="translate(12590.2 8924.96)" fill="#231F20"/>
</g>
<g id="Vector">
<use xlink:href="#path13_fill" transform="translate(12650.7 8883.35)" fill="#F9D4E4"/>
<use xlink:href="#path14_stroke" transform="translate(12650.7 8883.35)" fill="#231F20"/>
</g>
<g id="Vector">
<use xlink:href="#path15_fill" transform="matrix(0.285549 -0.958354 0.957844 0.287253 12605.3 8905.34)" fill="#6ABC45"/>
</g>
<g id="Vector">
<use xlink:href="#path16_fill" transform="matrix(0.96398 -0.266 0.264402 0.964419 12623.7 8882.97)" fill="#6ABC45"/>
</g>
<g id="Vector">
<use xlink:href="#path17_fill" transform="matrix(0.338727 -0.940951 0.940247 0.340675 12633.7 8902.18)" fill="#6ABC45"/>
</g>
</g>
</g>
<defs>
<linearGradient id="paint0_linear" x1="0" y1="0" x2="1" y2="0" gradientUnits="userSpaceOnUse" gradientTransform="matrix(-211.638 -0 -0 -212.325 211.725 208.589)">
<stop offset="0" stop-color="#FFFFFF"/>
<stop offset="1" stop-color="#F29ABF"/>
</linearGradient>
<path id="path0_fill" d="M 211.729 97.1064C 211.729 97.1064 188.462 102.369 178.779 97.1064C 159.95 86.9867 144.214 57.8419 131.706 44.6188C 97.4106 8.45773 65.9392 -19.0679 20.6151 16.6884C -22.5571 50.6907 1.65165 161.738 97.2761 195.74C 123.771 205.185 152.956 209.233 211.595 197.764"/>
<path id="path1_stroke" d="M 212.472 100.391C 214.287 99.9809 215.425 98.1777 215.014 96.3635C 214.604 94.5493 212.801 93.4113 210.987 93.8216L 212.472 100.391ZM 178.779 97.1064L 180.387 94.1473C 180.382 94.1449 180.378 94.1424 180.373 94.1399L 178.779 97.1064ZM 131.706 44.6188L 134.153 42.3046L 134.15 42.3013L 131.706 44.6188ZM 20.6151 16.6884L 22.6989 19.3342L 22.701 19.3325L 20.6151 16.6884ZM 97.2761 195.74L 98.4069 192.568L 98.4044 192.567L 97.2761 195.74ZM 212.241 201.069C 214.067 200.712 215.257 198.943 214.9 197.117C 214.543 195.292 212.774 194.102 210.949 194.459L 212.241 201.069ZM 211.729 97.1064C 210.987 93.8216 210.987 93.8215 210.987 93.8214C 210.987 93.8214 210.988 93.8214 210.987 93.8214C 210.987 93.8214 210.987 93.8215 210.986 93.8217C 210.985 93.822 210.982 93.8227 210.978 93.8236C 210.969 93.8255 210.955 93.8287 210.936 93.8329C 210.897 93.8415 210.837 93.8547 210.756 93.8721C 210.595 93.9069 210.352 93.9582 210.038 94.0224C 209.408 94.1508 208.491 94.33 207.358 94.5298C 205.087 94.93 201.97 95.4085 198.572 95.7266C 195.161 96.0459 191.542 96.1962 188.246 95.9668C 184.887 95.7329 182.182 95.1232 180.387 94.1473L 177.171 100.065C 180.217 101.721 184.052 102.427 187.779 102.686C 191.569 102.95 195.583 102.771 199.199 102.433C 202.828 102.093 206.133 101.585 208.527 101.163C 209.727 100.952 210.703 100.761 211.384 100.622C 211.724 100.553 211.991 100.496 212.176 100.456C 212.268 100.436 212.339 100.421 212.389 100.41C 212.414 100.404 212.434 100.4 212.448 100.397C 212.455 100.395 212.46 100.394 212.464 100.393C 212.466 100.393 212.468 100.392 212.469 100.392C 212.47 100.392 212.471 100.392 212.471 100.392C 212.472 100.391 212.472 100.391 211.729 97.1064ZM 180.373 94.1399C 171.656 89.4547 163.393 80.1772 155.541 69.9727C 151.636 64.8971 147.97 59.7819 144.394 54.9672C 140.863 50.2144 137.431 45.7697 134.153 42.3046L 129.26 46.9331C 132.236 50.0795 135.461 54.2366 138.987 58.9836C 142.467 63.6689 146.257 68.9517 150.203 74.08C 158.054 84.2836 167.073 94.6384 177.184 100.073L 180.373 94.1399ZM 134.15 42.3013C 117.074 24.2972 100.147 7.79284 81.5173 0.545931C 72.0906 -3.12099 62.1935 -4.44046 51.6398 -2.42531C 41.1202 -0.416679 30.1684 4.86221 18.5292 14.0444L 22.701 19.3325C 33.7239 10.6365 43.7026 5.94747 52.903 4.19072C 62.0693 2.44049 70.6818 3.55819 79.0754 6.82327C 96.0862 13.4404 112.042 28.7793 129.263 46.9364L 134.15 42.3013ZM 18.5314 14.0427C -4.72395 32.3585 -9.08951 70.4922 3.7159 107.32C 16.6289 144.458 47.2875 181.539 96.1478 198.913L 98.4044 192.567C 51.6402 175.938 22.3822 140.495 10.0778 105.108C -2.33416 69.4115 2.78203 35.0206 22.6989 19.3342L 18.5314 14.0427ZM 96.1452 198.912C 123.344 208.608 153.165 212.623 212.241 201.069L 210.949 194.459C 152.747 205.842 124.199 201.762 98.4069 192.568L 96.1452 198.912Z"/>
<path id="path2_stroke" d="M 4.1044e-06 8.09577L -0.737553 6.96851C -1.08 7.19257 -1.30203 7.56015 -1.34099 7.96753C -1.37995 8.3749 -1.23161 8.7779 -0.937835 9.06281L 4.1044e-06 8.09577ZM 12.3733 -2.05886e-06L 13.7064 -0.193783C 13.6403 -0.649025 13.3464 -1.03902 12.927 -1.22809C 12.5076 -1.41715 12.0207 -1.37913 11.6358 -1.12726L 12.3733 -2.05886e-06ZM 4.1044e-06 8.09577C -0.937835 9.06281 -0.937669 9.06297 -0.937472 9.06316C -0.937365 9.06326 -0.937137 9.06348 -0.936924 9.06369C -0.936497 9.0641 -0.935946 9.06464 -0.935274 9.06529C -0.933929 9.06659 -0.932094 9.06836 -0.929777 9.0706C -0.925142 9.07507 -0.918574 9.0814 -0.910124 9.08952C -0.893223 9.10576 -0.868787 9.12917 -0.837215 9.15921C -0.774079 9.21928 -0.682351 9.30596 -0.565234 9.41501C -0.331103 9.63303 0.00509677 9.94106 0.417702 10.3053C 1.24062 11.0317 2.37807 11.9911 3.62248 12.9078C 4.85598 13.8165 6.24668 14.7222 7.57057 15.3055C 8.23334 15.5975 8.92732 15.8304 9.60934 15.9253C 10.2896 16.0201 11.0438 15.9888 11.7457 15.652L 10.5802 13.2229C 10.5087 13.2572 10.334 13.306 9.9809 13.2569C 9.62954 13.2079 9.18559 13.0729 8.65683 12.84C 7.59768 12.3733 6.39099 11.6009 5.22042 10.7386C 4.06078 9.88435 2.9875 8.98 2.20071 8.28546C 1.80846 7.9392 1.49006 7.64743 1.2708 7.44327C 1.16123 7.34123 1.07656 7.26122 1.01998 7.20738C 0.991697 7.18047 0.970443 7.16011 0.956618 7.14682C 0.949706 7.14018 0.944652 7.13531 0.941506 7.13227C 0.939933 7.13075 0.938837 7.12969 0.938225 7.1291C 0.937918 7.1288 0.937733 7.12862 0.937669 7.12856C 0.937637 7.12853 0.937681 7.12857 0.937665 7.12856C 0.937739 7.12863 0.937844 7.12873 4.1044e-06 8.09577ZM 11.7457 15.652C 12.5067 15.2868 12.9943 14.6298 13.3114 13.9865C 13.6322 13.3356 13.8413 12.5735 13.9825 11.7962C 14.2653 10.239 14.3177 8.37386 14.2748 6.62908C 14.2316 4.86999 14.0895 3.16684 13.9592 1.90834C 13.8938 1.27766 13.8311 0.755342 13.7845 0.389417C 13.7612 0.20639 13.742 0.0623027 13.7284 -0.0368552C 13.7216 -0.0864394 13.7162 -0.124805 13.7125 -0.151205C 13.7107 -0.164406 13.7092 -0.174616 13.7082 -0.181743C 13.7077 -0.185307 13.7073 -0.1881 13.707 -0.19011C 13.7068 -0.191115 13.7067 -0.191925 13.7066 -0.192538C 13.7066 -0.192844 13.7065 -0.193155 13.7065 -0.193309C 13.7065 -0.19357 13.7064 -0.193783 12.3733 -2.05886e-06C 11.0402 0.193779 11.0402 0.193665 11.0402 0.193601C 11.0402 0.193645 11.0402 0.193629 11.0402 0.193716C 11.0403 0.193892 11.0403 0.194262 11.0404 0.194826C 11.0406 0.195955 11.0408 0.197859 11.0412 0.200527C 11.042 0.205864 11.0432 0.214255 11.0448 0.225608C 11.048 0.248317 11.0528 0.282867 11.0591 0.328518C 11.0716 0.419829 11.0897 0.555484 11.1119 0.729545C 11.1562 1.0778 11.2164 1.57905 11.2793 2.18593C 11.4053 3.40254 11.5405 5.03046 11.5814 6.69521C 11.6226 8.37427 11.5657 10.0257 11.3316 11.3147C 11.2143 11.9605 11.063 12.4539 10.8947 12.7955C 10.7226 13.1446 10.5925 13.217 10.5802 13.2229L 11.7457 15.652ZM 11.6358 -1.12726L -0.737553 6.96851L 0.737561 9.22303L 13.1109 1.12726L 11.6358 -1.12726Z"/>
<path id="path3_fill" d="M 63.5599 169.133C 64.5013 176.824 23.6085 161.848 18.7667 154.022C 5.43278 145.118 -10.3142 93.1683 9.05274 41.8951C 25.5954 -1.95701 85.7374 -5.32948 108.736 4.65531C 136.038 16.5291 166.837 51.206 174.772 68.8818C 179.21 78.5967 176.789 111.654 170.737 111.924C 157.826 112.599 151.504 63.0798 117.747 41.8958C 99.4556 30.4268 82.7785 20.1722 77.5333 34.2049C 69.3292 56.3333 60.1837 53.9046 33.8231 75.0885C 16.339 89.1212 61.8115 155.235 63.5599 169.133Z"/>
<path id="path4_fill" d="M 4.1044e-06 23.6127C 4.1044e-06 23.6127 11.2974 20.2394 23.2673 13.493C 35.1026 6.74648 43.1722 2.05886e-06 43.1722 2.05886e-06L 52.0487 34.407C 52.0487 34.407 45.9966 43.0425 40.0789 45.4712C 34.1612 47.9 25.8226 47.0904 25.8226 47.0904L 4.1044e-06 23.6127Z"/>
<path id="path5_fill" d="M 2.12185 23.9744C 3.19779 23.8395 4.13925 23.7046 5.0807 23.4347C 6.02215 23.1648 7.09809 22.895 8.03954 22.6251C 10.0569 22.0854 11.9398 21.4108 13.8227 20.7361C 14.7642 20.3313 15.7056 20.0615 16.6471 19.6567L 19.4714 18.4423C 21.3543 17.6327 23.1027 16.6882 24.9856 15.7437C 25.9271 15.3389 26.734 14.6643 27.6755 14.2595C 28.6169 13.7198 29.4239 13.1801 30.2309 12.6403C 31.8448 11.426 33.5932 10.3465 35.2071 9.13218C 36.821 7.91782 38.4349 6.56852 39.9144 5.21922C 40.7213 4.54458 41.3938 3.86993 42.0662 3.06035C 42.7387 2.38571 43.5457 1.57613 44.0836 0.901483C 44.8906 -0.177953 46.5045 -0.312889 47.4459 0.631618C 47.8494 1.03641 48.1184 1.4412 48.2529 1.84599L 48.3874 2.25078L 57.2639 36.6578C 57.3984 37.4674 57.2639 38.277 56.8605 38.8167C 56.457 39.4913 56.188 40.031 55.7845 40.5708C 55.381 41.1105 54.9775 41.6502 54.5741 42.1899C 53.7671 43.2693 52.8257 44.3488 51.8842 45.2933C 50.9428 46.3727 49.8668 47.3172 48.7909 48.2617C 48.2529 48.6665 47.5804 49.2062 47.0425 49.611C 46.37 50.0158 45.6975 50.4206 45.0251 50.8254L 43.9491 51.3651L 42.8732 51.7699C 42.3352 52.0398 41.3938 52.3096 40.7213 52.4446C 39.2419 52.7144 37.897 52.9843 36.552 53.1192C 35.2071 53.2541 33.7277 53.2541 32.3827 53.2541C 31.7103 53.2541 31.0378 53.1192 30.3654 53.1192C 29.6929 53.1192 29.0204 52.9843 28.2135 52.8493C 27.6755 52.8493 27.1375 52.5795 26.734 52.1747L 1.04591 28.697L 0.77692 28.4271C -0.16453 27.4826 -0.299021 25.9984 0.642429 24.9189C 1.04591 24.2443 1.58388 23.9744 2.12185 23.9744ZM 7.50156 27.2127L 30.3654 48.1268L 28.7514 47.4522L 30.4999 47.3172C 31.0378 47.3172 31.7103 47.1823 32.2483 47.1823C 33.4587 47.0474 34.6691 46.9124 35.7451 46.7775C 36.9555 46.6426 38.0314 46.3727 39.1074 46.1029C 39.6454 45.9679 40.0488 45.833 40.5868 45.6981L 41.3938 45.4282L 42.0662 45.1584C 43.8146 44.2139 45.6975 42.7296 47.3115 41.1105C 48.1184 40.3009 49.0599 39.4913 49.8668 38.5468L 51.0773 37.1975L 52.2877 35.8482L 51.8842 38.0071L 43.0077 3.60007L 47.3115 4.94937L 36.4175 11.426L 33.7277 13.0451L 31.0378 14.6643C 30.0964 15.204 29.2894 15.7437 28.348 16.1485C 27.4065 16.6882 26.5996 17.228 25.6581 17.6327L 22.9682 19.117C 22.0268 19.6567 21.0853 20.0615 20.2784 20.6012C 18.3955 21.5457 16.6471 22.4902 14.7642 23.4347C 13.8227 23.9744 12.8813 24.3792 11.9398 24.784C 10.9984 25.3237 10.0569 25.7285 9.11548 26.1333L 7.50156 27.2127Z"/>
<path id="path6_stroke" d="M -1.98177 7.3217C -1.85179 8.43008 -0.847896 9.22324 0.260491 9.09327C 1.36888 8.96329 2.16204 7.9594 2.03206 6.85101L -1.98177 7.3217ZM 3.38747 0.609731L 2.53068 -1.2203C 2.52266 -1.21654 2.51465 -1.21273 2.50668 -1.20886L 3.38747 0.609731ZM 10.0644 3.4053C 10.9377 4.10015 12.2089 3.9555 12.9038 3.08223C 13.5986 2.20895 13.454 0.937742 12.5807 0.242897L 10.0644 3.4053ZM 0.0251478 7.08635C 2.03206 6.85101 2.03216 6.85186 2.03226 6.8527C 2.03229 6.85295 2.03238 6.85377 2.03244 6.85429C 2.03256 6.85531 2.03267 6.85627 2.03277 6.85717C 2.03298 6.85896 2.03315 6.86049 2.03329 6.86176C 2.03357 6.86431 2.03373 6.86583 2.03378 6.86636C 2.03389 6.8674 2.03358 6.86448 2.03299 6.85779C 2.03182 6.84438 2.02955 6.81613 2.02727 6.77472C 2.0227 6.69152 2.01825 6.55767 2.02217 6.38621C 2.03012 6.03828 2.07196 5.564 2.20158 5.05621C 2.45725 4.05464 3.01208 3.03673 4.26826 2.42833L 2.50668 -1.20886C -0.137439 0.0717494 -1.26377 2.29215 -1.71418 4.05664C -1.9376 4.93187 -2.00504 5.72256 -2.01811 6.29384C -2.02469 6.58198 -2.01759 6.82129 -2.00797 6.99635C -2.00316 7.08408 -1.99768 7.15624 -1.99288 7.21095C -1.99047 7.23833 -1.98824 7.26139 -1.98633 7.27991C -1.98538 7.28917 -1.98451 7.2973 -1.98374 7.30428C -1.98336 7.30776 -1.983 7.31096 -1.98267 7.31386C -1.9825 7.31532 -1.98235 7.31669 -1.9822 7.318C -1.98212 7.31865 -1.98201 7.31958 -1.98197 7.3199C -1.98187 7.32081 -1.98177 7.3217 0.0251478 7.08635ZM 4.24426 2.43976C 5.60312 1.80357 6.98957 1.97416 8.17553 2.40682C 8.76129 2.62052 9.25374 2.88394 9.59804 3.0939C 9.76842 3.19781 9.89769 3.28566 9.97868 3.34306C 10.019 3.37167 10.047 3.39243 10.0617 3.40349C 10.069 3.40901 10.073 3.41208 10.0735 3.41247C 10.0737 3.41266 10.0731 3.41218 10.0716 3.411C 10.0709 3.4104 10.0699 3.40964 10.0687 3.40869C 10.0681 3.40821 10.0674 3.4077 10.0667 3.40713C 10.0664 3.40685 10.0658 3.40639 10.0656 3.40625C 10.065 3.40578 10.0644 3.4053 11.3226 1.8241C 12.5807 0.242897 12.58 0.242393 12.5794 0.241877C 12.5792 0.241689 12.5785 0.24116 12.578 0.240784C 12.5771 0.240031 12.5761 0.23923 12.575 0.238381C 12.5728 0.236683 12.5704 0.234794 12.5678 0.232718C 12.5625 0.228565 12.5562 0.223662 12.549 0.218041C 12.5345 0.206801 12.5161 0.192677 12.4938 0.17593C 12.4494 0.142453 12.3896 0.0983839 12.3155 0.0458254C 12.1674 -0.0591126 11.9604 -0.198958 11.7021 -0.356478C 11.189 -0.669373 10.4542 -1.06373 9.56058 -1.38975C 7.78769 -2.03653 5.20661 -2.47312 2.53068 -1.2203L 4.24426 2.43976Z"/>
<path id="path7_fill" d="M 3.74614 2.36736C -0.288641 4.93102 -0.692116 13.7014 0.787306 19.6383C 1.99774 24.4958 13.2951 28.8135 19.2128 26.7896C 26.072 24.4958 29.0308 15.0507 27.5514 9.65356C 25.6685 2.36737 13.0262 -3.4346 3.74614 2.36736Z"/>
<path id="path8_stroke" d="M 3.74614 2.36736L 2.67493 0.654007L 2.66869 0.657908L 2.66248 0.661855L 3.74614 2.36736ZM 19.2128 26.7896L 18.572 24.8732L 18.5589 24.8777L 19.2128 26.7896ZM 27.5514 9.65356L 25.595 10.1591L 25.5987 10.1735L 25.6026 10.1877L 27.5514 9.65356ZM 2.66248 0.661855C -0.15653 2.45303 -1.36838 6.09648 -1.80513 9.47914C -2.25944 12.9978 -1.97051 16.9282 -1.1734 20.1269L 2.74801 19.1498C 2.0657 16.4116 1.81666 12.9883 2.20293 9.99664C 2.60676 6.86895 3.61403 4.84536 4.82981 4.07287L 2.66248 0.661855ZM -1.1734 20.1269C -0.717571 21.9562 0.60115 23.4838 2.08335 24.6682C 3.60186 25.8816 5.50453 26.9068 7.50742 27.6797C 11.419 29.189 16.2595 29.9353 19.8667 28.7015L 18.5589 24.8777C 16.2484 25.6679 12.4815 25.2672 8.96227 23.9093C 7.24979 23.2485 5.73131 22.4101 4.60619 21.511C 3.44477 20.5829 2.8974 19.7493 2.74801 19.1498L -1.1734 20.1269ZM 19.8537 28.7059C 24.01 27.316 26.8158 23.8295 28.3687 20.1757C 29.9149 16.5379 30.3869 12.3545 29.5002 9.11938L 25.6026 10.1877C 26.1952 12.3498 25.9276 15.5875 24.6494 18.595C 23.3779 21.5865 21.2748 23.9694 18.572 24.8733L 19.8537 28.7059ZM 29.5078 9.14799C 28.3401 4.62946 24.031 0.969339 19.1056 -0.799365C 14.0975 -2.59773 7.94728 -2.64233 2.67493 0.654007L 4.81736 4.08072C 8.82502 1.57509 13.6359 1.53049 17.7398 3.00417C 21.9262 4.5075 24.8798 7.39147 25.595 10.1591L 29.5078 9.14799Z"/>
<path id="path9_fill" d="M 7.84978 0.800961C 11.8846 -1.62777 19.9541 1.8804 24.5269 5.79336C 28.2927 9.03167 27.0823 21.1753 22.644 25.4931C 17.5333 30.6204 7.84978 29.1362 3.54601 25.3581C -1.9682 20.5007 -1.43023 6.468 7.84978 0.800961Z"/>
<path id="path10_stroke" d="M 7.84978 0.800961L 6.80766 -0.930291L 6.79665 -0.923573L 7.84978 0.800961ZM 24.5269 5.79336L 25.8444 4.26126L 25.8407 4.25807L 24.5269 5.79336ZM 22.644 25.4931L 21.235 24.0447L 21.2238 24.0555L 21.2129 24.0666L 22.644 25.4931ZM 3.54601 25.3581L 2.21033 26.8744L 2.21295 26.8767L 3.54601 25.3581ZM 8.89188 2.53218C 10.0951 1.80788 12.3496 1.80626 15.3301 2.83009C 18.176 3.80763 21.1148 5.53306 23.2131 7.32865L 25.8407 4.25807C 23.3663 2.14071 19.9839 0.155562 16.6431 -0.992034C 13.4369 -2.09335 9.63921 -2.63469 6.80768 -0.930256L 8.89188 2.53218ZM 23.2094 7.32545C 23.6652 7.71745 24.1614 8.57688 24.4675 10.0433C 24.7633 11.4606 24.8292 13.2058 24.6508 15.0431C 24.2834 18.8243 22.9545 22.3719 21.235 24.0447L 24.053 26.9414C 26.7718 24.2965 28.2672 19.6134 28.6732 15.4338C 28.8814 13.2906 28.8212 11.1229 28.4236 9.21757C 28.0361 7.36131 27.2714 5.48843 25.8444 4.26126L 23.2094 7.32545ZM 21.2129 24.0666C 19.1918 26.0941 16.1367 26.9294 12.9059 26.7476C 9.65938 26.565 6.62351 25.3709 4.87907 23.8396L 2.21295 26.8767C 4.77228 29.1234 8.73004 30.5604 12.6789 30.7826C 16.6434 31.0056 20.9854 30.0193 24.0751 26.9196L 21.2129 24.0666ZM 4.88168 23.8419C 2.81625 22.0224 1.59567 18.0927 2.15501 13.6347C 2.70245 9.27142 4.9044 4.96727 8.9029 2.52549L 6.79665 -0.923573C 1.51515 2.30169 -1.19189 7.84739 -1.85488 13.1316C -2.50599 18.321 -1.23844 23.8364 2.21033 26.8744L 4.88168 23.8419Z"/>
<path id="path11_fill" d="M 1.0261e-06 5.88652C 1.0261e-06 5.88652 26.2261 3.18794 35.3716 1.70372C 44.5171 0.0845658 49.8968 -1.93939 48.8209 3.86258C 47.8795 9.66455 19.098 19.6493 13.1803 20.7288"/>
<path id="path12_stroke" d="M -0.344712 2.53643C -2.19491 2.72681 -3.54047 4.38103 -3.35009 6.23123C -3.15971 8.08144 -1.50549 9.42699 0.344714 9.23661L -0.344712 2.53643ZM 35.3716 1.70372L 35.9111 5.028C 35.927 5.02542 35.9429 5.02273 35.9587 5.01992L 35.3716 1.70372ZM 48.8209 3.86258L 45.5096 3.24851C 45.505 3.27335 45.5007 3.29823 45.4966 3.32317L 48.8209 3.86258ZM 12.576 17.4157C 10.7462 17.7494 9.53343 19.5033 9.86719 21.3331C 10.201 23.1629 11.9549 24.3756 13.7846 24.0419L 12.576 17.4157ZM 1.0261e-06 5.88652C 0.344714 9.23661 0.344847 9.2366 0.345081 9.23657C 0.345292 9.23655 0.345625 9.23652 0.346046 9.23647C 0.346889 9.23638 0.348129 9.23626 0.349765 9.23609C 0.353036 9.23575 0.357888 9.23525 0.3643 9.23459C 0.377124 9.23327 0.396188 9.2313 0.421327 9.22871C 0.471605 9.22352 0.546183 9.21581 0.64374 9.20571C 0.838852 9.1855 1.12588 9.1557 1.49426 9.11726C 2.231 9.04039 3.29321 8.92896 4.59625 8.79064C 7.20201 8.51401 10.7725 8.12962 14.6301 7.69866C 22.3093 6.84078 31.24 5.78608 35.9111 5.028L 34.8321 -1.62056C 30.3577 -0.894414 21.6026 0.142282 13.8823 1.00475C 10.0403 1.43396 6.48264 1.81698 3.88521 2.09272C 2.58665 2.23057 1.5285 2.34157 0.79527 2.41808C 0.428665 2.45633 0.143316 2.48595 -0.0502094 2.506C -0.146971 2.51602 -0.220775 2.52365 -0.2703 2.52876C -0.295062 2.53132 -0.313755 2.53325 -0.326212 2.53453C -0.33244 2.53517 -0.33711 2.53565 -0.3402 2.53597C -0.341745 2.53613 -0.342895 2.53625 -0.343648 2.53633C -0.344025 2.53636 -0.34429 2.53639 -0.344479 2.53641C -0.344645 2.53643 -0.344712 2.53643 1.0261e-06 5.88652ZM 35.9587 5.01992C 38.192 4.62454 40.4949 4.1485 42.0929 3.85409C 43.8755 3.52564 45.0849 3.36204 45.9052 3.36792C 46.8342 3.37457 46.3585 3.59502 45.8621 2.99366C 45.3738 2.402 45.7294 2.06301 45.5096 3.24851L 52.1322 4.47664C 52.4504 2.76117 52.537 0.499433 51.0568 -1.29394C 49.5685 -3.09701 47.378 -3.35725 45.9534 -3.36746C 44.4201 -3.37845 42.637 -3.09509 40.8724 -2.76997C 38.9231 -2.41081 37.124 -2.02668 34.7845 -1.61248L 35.9587 5.01992ZM 45.4966 3.32317C 45.5645 2.90507 45.714 3.046 44.9625 3.74816C 44.3138 4.35433 43.3086 5.08649 41.9435 5.91252C 39.229 7.55515 35.534 9.30632 31.571 10.9581C 23.5806 14.2884 15.1727 16.942 12.576 17.4157L 13.7846 24.0419C 17.1055 23.4361 26.0473 20.5575 34.1623 17.1752C 38.2522 15.4706 42.2989 13.5702 45.4306 11.6751C 46.9887 10.7323 48.4326 9.72411 49.5612 8.66949C 50.5871 7.71085 51.842 6.27059 52.1452 4.40199L 45.4966 3.32317Z"/>
<path id="path13_fill" d="M 28.0038 17.1361C 28.0038 17.1361 17.1098 28.74 10.5197 32.2481C 3.92954 35.7563 0.836199 37.2405 0.0292417 32.2481C -0.777715 27.2558 15.3614 8.36563 17.9168 -4.11772e-06"/>
<path id="path14_stroke" d="M 30.4591 19.4411C 31.7321 18.0851 31.6649 15.9538 30.3088 14.6807C 28.9528 13.4077 26.8215 13.4749 25.5485 14.831L 30.4591 19.4411ZM 21.1377 0.98384C 21.681 -0.794993 20.6795 -2.67751 18.9006 -3.22087C 17.1218 -3.76423 15.2393 -2.76268 14.6959 -0.983849L 21.1377 0.98384ZM 28.0038 17.1361C 25.5485 14.831 25.5486 14.8308 25.5487 14.8307C 25.5486 14.8308 25.5487 14.8307 25.5486 14.8308C 25.5485 14.8309 25.5483 14.8312 25.5478 14.8316C 25.547 14.8326 25.5455 14.8342 25.5433 14.8365C 25.539 14.8411 25.532 14.8484 25.5226 14.8584C 25.5037 14.8785 25.4746 14.9092 25.436 14.95C 25.3586 15.0316 25.2426 15.1535 25.0917 15.3109C 24.7899 15.6258 24.3488 16.0822 23.798 16.642C 22.695 17.763 21.1589 19.2916 19.4245 20.9244C 15.8548 24.2852 11.783 27.7604 8.93716 29.2754L 12.1022 35.2209C 15.8465 33.2277 20.5168 29.1469 24.0415 25.8286C 25.8544 24.1219 27.4536 22.5303 28.5992 21.3659C 29.1727 20.7831 29.6342 20.3056 29.9539 19.9721C 30.1137 19.8054 30.2382 19.6745 30.3237 19.5844C 30.3664 19.5394 30.3993 19.5045 30.422 19.4805C 30.4334 19.4684 30.4422 19.4591 30.4484 19.4525C 30.4515 19.4492 30.4539 19.4466 30.4557 19.4447C 30.4566 19.4438 30.4573 19.443 30.4579 19.4424C 30.4582 19.4421 30.4585 19.4418 30.4586 19.4416C 30.4589 19.4414 30.4591 19.4411 28.0038 17.1361ZM 8.93716 29.2754C 7.27406 30.1607 5.94147 30.8586 4.82916 31.3603C 3.67107 31.8826 3.03989 32.0552 2.73997 32.088C 2.5724 32.1063 3.04307 32.0445 3.4673 32.4701C 3.70796 32.7116 3.5167 32.7182 3.35387 31.7108L -3.29538 32.7855C -3.05474 34.2743 -2.55672 35.9675 -1.30316 37.2252C 0.133971 38.667 1.94116 38.9509 3.47157 38.7837C 4.86962 38.631 6.29786 38.0868 7.59847 37.5002C 8.94486 36.8929 10.4702 36.0897 12.1022 35.2209L 8.93716 29.2754ZM 3.35387 31.7108C 3.39646 31.9743 3.30068 31.815 3.6248 30.9275C 3.90848 30.1506 4.38981 29.1425 5.07172 27.9091C 6.43401 25.445 8.37934 22.4658 10.516 19.2547C 12.619 16.094 14.8987 12.7216 16.7994 9.62964C 18.6598 6.6032 20.3601 3.52923 21.1377 0.98384L 14.6959 -0.983849C 14.1958 0.653579 12.9204 3.07799 11.0613 6.10229C 9.24244 9.06109 7.05863 12.2918 4.90833 15.5234C 2.79162 18.7046 0.69376 21.9068 -0.822942 24.6502C -1.58053 26.0205 -2.24764 27.3726 -2.70209 28.617C -3.11611 29.7508 -3.53972 31.2739 -3.29538 32.7855L 3.35387 31.7108Z"/>
<path id="path15_fill" d="M 5.26086 24.4842C 8.16635 24.4842 10.5217 19.0032 10.5217 12.2421C 10.5217 5.48098 8.16635 4.10549e-06 5.26086 4.10549e-06C 2.35537 4.10549e-06 2.05832e-06 5.48098 2.05832e-06 12.2421C 2.05832e-06 19.0032 2.35537 24.4842 5.26086 24.4842Z"/>
<path id="path16_fill" d="M 3.63214 24.012C 5.63811 24.012 7.26428 18.6367 7.26428 12.006C 7.26428 5.37527 5.63811 2.05839e-06 3.63214 2.05839e-06C 1.62616 2.05839e-06 2.05267e-06 5.37527 2.05267e-06 12.006C 2.05267e-06 18.6367 1.62616 24.012 3.63214 24.012Z"/>
<path id="path17_fill" d="M 10.9252 10.2253C 16.959 10.2253 21.8504 7.93629 21.8504 5.11265C 21.8504 2.28901 16.959 0 10.9252 0C 4.89139 0 -4.11619e-06 2.28901 -4.11619e-06 5.11265C -4.11619e-06 7.93629 4.89139 10.2253 10.9252 10.2253Z"/>
</defs>
</svg>
