<svg width="267" height="321" viewBox="0 0 267 321" version="1.1" xmlns="http://www.w3.org/2000/svg" xmlns:xlink="http://www.w3.org/1999/xlink">
<title>comic-self_contact</title>
<desc>Created using Figma</desc>
<g id="Canvas" transform="translate(-11599 -10776)">
<g id="comic-self_contact">
<g id="Vector">
<use xlink:href="#path0_fill" transform="translate(11645.5 11058)" fill="#6BDBDB"/>
</g>
<g id="Vector">
<use xlink:href="#path1_fill" transform="translate(11655.6 10961.5)" fill="#FFFFFF"/>
<use xlink:href="#path2_stroke" transform="translate(11655.6 10961.5)" fill="#231F20"/>
</g>
<g id="Vector">
<use xlink:href="#path3_fill" transform="translate(11603.5 10811)" fill="url(#paint3_linear)"/>
<use xlink:href="#path4_stroke" transform="translate(11603.5 10811)" fill="#231F20"/>
</g>
<g id="Vector">
<use xlink:href="#path5_fill" transform="translate(11639.8 10787.9)" fill="#231F20"/>
</g>
<g id="Group">
<g id="Vector">
<use xlink:href="#path6_stroke" transform="translate(11720.1 10861.8)" fill="#231F20"/>
</g>
<g id="Vector">
<use xlink:href="#path7_fill" transform="translate(11734.7 10855.2)" fill="#FFFFFF"/>
<use xlink:href="#path8_stroke" transform="translate(11734.7 10855.2)" fill="#231F20"/>
</g>
<g id="Vector">
<use xlink:href="#path9_fill" transform="translate(11685.7 10855.2)" fill="#FFFFFF"/>
<use xlink:href="#path10_stroke" transform="translate(11685.7 10855.2)" fill="#231F20"/>
</g>
<g id="Vector">
<use xlink:href="#path11_stroke" transform="translate(11711.3 10903.1)" fill="#231F20"/>
</g>
</g>
<g id="Vector">
<use xlink:href="#path12_fill" transform="matrix(0.989044 -0.147579 0.146822 0.989156 11832 10815.3)" fill="#F6D713"/>
</g>
<g id="Vector">
<use xlink:href="#path13_fill" transform="matrix(0.82521 0.56481 -0.56279 0.826588 11647.3 10810.1)" fill="#F6D713"/>
</g>
<g id="Vector">
<use xlink:href="#path14_fill" transform="matrix(0.931778 0.363027 -0.361374 0.93242 11817.8 10781.2)" fill="#A4DEF8"/>
</g>
<g id="Vector">
<use xlink:href="#path15_fill" transform="matrix(0.931778 0.363027 -0.361374 0.93242 11647.5 10777.2)" fill="#A4DEF8"/>
</g>
<g id="Vector">
<use xlink:href="#path16_fill" transform="matrix(0.631604 0.775213 -0.773585 0.633596 11860.4 10844.7)" fill="#A4DEF8"/>
</g>
<g id="Vector">
<use xlink:href="#path17_fill" transform="matrix(0.706171 -0.708028 0.706171 0.708028 11844.1 10792.5)" fill="#F6A896"/>
</g>
<g id="Vector">
<use xlink:href="#path18_fill" transform="matrix(0.933184 -0.359521 0.35788 0.933815 11606.8 10843.7)" fill="#A4DEF8"/>
</g>
<g id="Vector">
<use xlink:href="#path19_fill" transform="matrix(0.931778 0.363027 -0.361374 0.93242 11605.4 10776)" fill="#F6D713"/>
</g>
<g id="Vector">
<use xlink:href="#path20_fill" transform="matrix(0.706171 -0.708028 0.706171 0.708028 11610.8 10808.4)" fill="#F6A896"/>
</g>
</g>
</g>
<defs>
<linearGradient id="paint3_linear" x1="0" y1="0" x2="1" y2="0" gradientUnits="userSpaceOnUse" gradientTransform="matrix(0 -261.095 260.411 0 -7.26959 260.897)">
<stop offset="0" stop-color="#FFFFFF"/>
<stop offset="1" stop-color="#F29ABF"/>
</linearGradient>
<path id="path0_fill" d="M 85.6459 39.0068C 132.947 39.0068 171.292 30.2748 171.292 19.5034C 171.292 8.73196 132.947 0 85.6459 0C 38.345 0 4.27076e-06 8.73196 4.27076e-06 19.5034C 4.27076e-06 30.2748 38.345 39.0068 85.6459 39.0068Z"/>
<path id="path1_fill" d="M 0 2.80624C 0 1.82405 0 0.982181 0 -4.28199e-06L 0 2.80624Z"/>
<path id="path2_stroke" d="M 4.20384 2.80624C 4.20384 2.80432 4.20384 2.8024 4.20384 2.80049C 4.20384 2.79857 4.20384 2.79665 4.20384 2.79474C 4.20384 2.79282 4.20384 2.7909 4.20384 2.78899C 4.20384 2.78707 4.20384 2.78516 4.20384 2.78324C 4.20384 2.78133 4.20384 2.77942 4.20384 2.7775C 4.20384 2.77559 4.20384 2.77368 4.20384 2.77177C 4.20384 2.76985 4.20384 2.76794 4.20384 2.76603C 4.20384 2.76412 4.20384 2.76221 4.20384 2.7603C 4.20384 2.75839 4.20384 2.75648 4.20384 2.75457C 4.20384 2.75266 4.20384 2.75076 4.20384 2.74885C 4.20384 2.74694 4.20384 2.74503 4.20384 2.74313C 4.20384 2.74122 4.20384 2.73931 4.20384 2.73741C 4.20384 2.7355 4.20384 2.7336 4.20384 2.73169C 4.20384 2.72979 4.20384 2.72788 4.20384 2.72598C 4.20384 2.72407 4.20384 2.72217 4.20384 2.72027C 4.20384 2.71837 4.20384 2.71646 4.20384 2.71456C 4.20384 2.71266 4.20384 2.71076 4.20384 2.70886C 4.20384 2.70696 4.20384 2.70506 4.20384 2.70316C 4.20384 2.70126 4.20384 2.69936 4.20384 2.69746C 4.20384 2.69556 4.20384 2.69366 4.20384 2.69176C 4.20384 2.68987 4.20384 2.68797 4.20384 2.68607C 4.20384 2.68418 4.20384 2.68228 4.20384 2.68038C 4.20384 2.67849 4.20384 2.67659 4.20384 2.6747C 4.20384 2.6728 4.20384 2.67091 4.20384 2.66902C 4.20384 2.66712 4.20384 2.66523 4.20384 2.66334C 4.20384 2.66144 4.20384 2.65955 4.20384 2.65766C 4.20384 2.65577 4.20384 2.65387 4.20384 2.65198C 4.20384 2.65009 4.20384 2.6482 4.20384 2.64631C 4.20384 2.64442 4.20384 2.64253 4.20384 2.64064C 4.20384 2.63875 4.20384 2.63687 4.20384 2.63498C 4.20384 2.63309 4.20384 2.6312 4.20384 2.62932C 4.20384 2.62743 4.20384 2.62554 4.20384 2.62366C 4.20384 2.62177 4.20384 2.61988 4.20384 2.618C 4.20384 2.61611 4.20384 2.61423 4.20384 2.61234C 4.20384 2.61046 4.20384 2.60858 4.20384 2.60669C 4.20384 2.60481 4.20384 2.60293 4.20384 2.60104C 4.20384 2.59916 4.20384 2.59728 4.20384 2.5954C 4.20384 2.59352 4.20384 2.59163 4.20384 2.58975C 4.20384 2.58787 4.20384 2.58599 4.20384 2.58411C 4.20384 2.58223 4.20384 2.58035 4.20384 2.57847C 4.20384 2.5766 4.20384 2.57472 4.20384 2.57284C 4.20384 2.57096 4.20384 2.56908 4.20384 2.56721C 4.20384 2.56533 4.20384 2.56345 4.20384 2.56158C 4.20384 2.5597 4.20384 2.55783 4.20384 2.55595C 4.20384 2.55407 4.20384 2.5522 4.20384 2.55033C 4.20384 2.54845 4.20384 2.54658 4.20384 2.5447C 4.20384 2.54283 4.20384 2.54096 4.20384 2.53908C 4.20384 2.53721 4.20384 2.53534 4.20384 2.53347C 4.20384 2.5316 4.20384 2.52972 4.20384 2.52785C 4.20384 2.52598 4.20384 2.52411 4.20384 2.52224C 4.20384 2.52037 4.20384 2.5185 4.20384 2.51663C 4.20384 2.51476 4.20384 2.5129 4.20384 2.51103C 4.20384 2.50916 4.20384 2.50729 4.20384 2.50542C 4.20384 2.50356 4.20384 2.50169 4.20384 2.49982C 4.20384 2.49796 4.20384 2.49609 4.20384 2.49422C 4.20384 2.49236 4.20384 2.49049 4.20384 2.48863C 4.20384 2.48676 4.20384 2.4849 4.20384 2.48303C 4.20384 2.48117 4.20384 2.47931 4.20384 2.47744C 4.20384 2.47558 4.20384 2.47372 4.20384 2.47185C 4.20384 2.46999 4.20384 2.46813 4.20384 2.46627C 4.20384 2.46441 4.20384 2.46255 4.20384 2.46069C 4.20384 2.45882 4.20384 2.45696 4.20384 2.4551C 4.20384 2.45324 4.20384 2.45138 4.20384 2.44953C 4.20384 2.44767 4.20384 2.44581 4.20384 2.44395C 4.20384 2.44209 4.20384 2.44023 4.20384 2.43837C 4.20384 2.43652 4.20384 2.43466 4.20384 2.4328C 4.20384 2.43095 4.20384 2.42909 4.20384 2.42723C 4.20384 2.42538 4.20384 2.42352 4.20384 2.42167C 4.20384 2.41981 4.20384 2.41796 4.20384 2.4161C 4.20384 2.41425 4.20384 2.41239 4.20384 2.41054C 4.20384 2.40869 4.20384 2.40683 4.20384 2.40498C 4.20384 2.40313 4.20384 2.40128 4.20384 2.39942C 4.20384 2.39757 4.20384 2.39572 4.20384 2.39387C 4.20384 2.39202 4.20384 2.39017 4.20384 2.38832C 4.20384 2.38647 4.20384 2.38461 4.20384 2.38277C 4.20384 2.38092 4.20384 2.37907 4.20384 2.37722C 4.20384 2.37537 4.20384 2.37352 4.20384 2.37167C 4.20384 2.36982 4.20384 2.36797 4.20384 2.36613C 4.20384 2.36428 4.20384 2.36243 4.20384 2.36059C 4.20384 2.35874 4.20384 2.35689 4.20384 2.35505C 4.20384 2.3532 4.20384 2.35135 4.20384 2.34951C 4.20384 2.34766 4.20384 2.34582 4.20384 2.34397C 4.20384 2.34213 4.20384 2.34029 4.20384 2.33844C 4.20384 2.3366 4.20384 2.33475 4.20384 2.33291C 4.20384 2.33107 4.20384 2.32922 4.20384 2.32738C 4.20384 2.32554 4.20384 2.3237 4.20384 2.32186C 4.20384 2.32001 4.20384 2.31817 4.20384 2.31633C 4.20384 2.31449 4.20384 2.31265 4.20384 2.31081C 4.20384 2.30897 4.20384 2.30713 4.20384 2.30529C 4.20384 2.30345 4.20384 2.30161 4.20384 2.29977C 4.20384 2.29793 4.20384 2.29609 4.20384 2.29426C 4.20384 2.29242 4.20384 2.29058 4.20384 2.28874C 4.20384 2.28691 4.20384 2.28507 4.20384 2.28323C 4.20384 2.28139 4.20384 2.27956 4.20384 2.27772C 4.20384 2.27589 4.20384 2.27405 4.20384 2.27221C 4.20384 2.27038 4.20384 2.26854 4.20384 2.26671C 4.20384 2.26487 4.20384 2.26304 4.20384 2.26121C 4.20384 2.25937 4.20384 2.25754 4.20384 2.2557C 4.20384 2.25387 4.20384 2.25204 4.20384 2.2502C 4.20384 2.24837 4.20384 2.24654 4.20384 2.24471C 4.20384 2.24287 4.20384 2.24104 4.20384 2.23921C 4.20384 2.23738 4.20384 2.23555 4.20384 2.23372C 4.20384 2.23189 4.20384 2.23006 4.20384 2.22823C 4.20384 2.2264 4.20384 2.22457 4.20384 2.22274C 4.20384 2.22091 4.20384 2.21908 4.20384 2.21725C 4.20384 2.21542 4.20384 2.21359 4.20384 2.21176C 4.20384 2.20993 4.20384 2.20811 4.20384 2.20628C 4.20384 2.20445 4.20384 2.20262 4.20384 2.2008C 4.20384 2.19897 4.20384 2.19714 4.20384 2.19532C 4.20384 2.19349 4.20384 2.19166 4.20384 2.18984C 4.20384 2.18801 4.20384 2.18619 4.20384 2.18436C 4.20384 2.18253 4.20384 2.18071 4.20384 2.17888C 4.20384 2.17706 4.20384 2.17524 4.20384 2.17341C 4.20384 2.17159 4.20384 2.16976 4.20384 2.16794C 4.20384 2.16612 4.20384 2.16429 4.20384 2.16247C 4.20384 2.16065 4.20384 2.15883 4.20384 2.157C 4.20384 2.15518 4.20384 2.15336 4.20384 2.15154C 4.20384 2.14972 4.20384 2.14789 4.20384 2.14607C 4.20384 2.14425 4.20384 2.14243 4.20384 2.14061C 4.20384 2.13879 4.20384 2.13697 4.20384 2.13515C 4.20384 2.13333 4.20384 2.13151 4.20384 2.12969C 4.20384 2.12787 4.20384 2.12605 4.20384 2.12423C 4.20384 2.12241 4.20384 2.1206 4.20384 2.11878C 4.20384 2.11696 4.20384 2.11514 4.20384 2.11332C 4.20384 2.11151 4.20384 2.10969 4.20384 2.10787C 4.20384 2.10605 4.20384 2.10424 4.20384 2.10242C 4.20384 2.1006 4.20384 2.09879 4.20384 2.09697C 4.20384 2.09516 4.20384 2.09334 4.20384 2.09152C 4.20384 2.08971 4.20384 2.08789 4.20384 2.08608C 4.20384 2.08426 4.20384 2.08245 4.20384 2.08063C 4.20384 2.07882 4.20384 2.07701 4.20384 2.07519C 4.20384 2.07338 4.20384 2.07156 4.20384 2.06975C 4.20384 2.06794 4.20384 2.06612 4.20384 2.06431C 4.20384 2.0625 4.20384 2.06068 4.20384 2.05887C 4.20384 2.05706 4.20384 2.05525 4.20384 2.05344C 4.20384 2.05162 4.20384 2.04981 4.20384 2.048C 4.20384 2.04619 4.20384 2.04438 4.20384 2.04257C 4.20384 2.04076 4.20384 2.03895 4.20384 2.03714C 4.20384 2.03532 4.20384 2.03351 4.20384 2.0317C 4.20384 2.02989 4.20384 2.02809 4.20384 2.02628C 4.20384 2.02447 4.20384 2.02266 4.20384 2.02085C 4.20384 2.01904 4.20384 2.01723 4.20384 2.01542C 4.20384 2.01361 4.20384 2.01181 4.20384 2.01C 4.20384 2.00819 4.20384 2.00638 4.20384 2.00457C 4.20384 2.00277 4.20384 2.00096 4.20384 1.99915C 4.20384 1.99734 4.20384 1.99554 4.20384 1.99373C 4.20384 1.99192 4.20384 1.99012 4.20384 1.98831C 4.20384 1.98651 4.20384 1.9847 4.20384 1.98289C 4.20384 1.98109 4.20384 1.97928 4.20384 1.97748C 4.20384 1.97567 4.20384 1.97387 4.20384 1.97206C 4.20384 1.97026 4.20384 1.96845 4.20384 1.96665C 4.20384 1.96485 4.20384 1.96304 4.20384 1.96124C 4.20384 1.95943 4.20384 1.95763 4.20384 1.95583C 4.20384 1.95402 4.20384 1.95222 4.20384 1.95042C 4.20384 1.94861 4.20384 1.94681 4.20384 1.94501C 4.20384 1.9432 4.20384 1.9414 4.20384 1.9396C 4.20384 1.9378 4.20384 1.936 4.20384 1.93419C 4.20384 1.93239 4.20384 1.93059 4.20384 1.92879C 4.20384 1.92699 4.20384 1.92519 4.20384 1.92339C 4.20384 1.92158 4.20384 1.91978 4.20384 1.91798C 4.20384 1.91618 4.20384 1.91438 4.20384 1.91258C 4.20384 1.91078 4.20384 1.90898 4.20384 1.90718C 4.20384 1.90538 4.20384 1.90358 4.20384 1.90178C 4.20384 1.89998 4.20384 1.89819 4.20384 1.89639C 4.20384 1.89459 4.20384 1.89279 4.20384 1.89099C 4.20384 1.88919 4.20384 1.88739 4.20384 1.88559C 4.20384 1.8838 4.20384 1.882 4.20384 1.8802C 4.20384 1.8784 4.20384 1.8766 4.20384 1.87481C 4.20384 1.87301 4.20384 1.87121 4.20384 1.86942C 4.20384 1.86762 4.20384 1.86582 4.20384 1.86402C 4.20384 1.86223 4.20384 1.86043 4.20384 1.85863C 4.20384 1.85684 4.20384 1.85504 4.20384 1.85325C 4.20384 1.85145 4.20384 1.84965 4.20384 1.84786C 4.20384 1.84606 4.20384 1.84427 4.20384 1.84247C 4.20384 1.84068 4.20384 1.83888 4.20384 1.83709C 4.20384 1.83529 4.20384 1.8335 4.20384 1.8317C 4.20384 1.82991 4.20384 1.82811 4.20384 1.82632C 4.20384 1.82452 4.20384 1.82273 4.20384 1.82094C 4.20384 1.81914 4.20384 1.81735 4.20384 1.81555C 4.20384 1.81376 4.20384 1.81197 4.20384 1.81017C 4.20384 1.80838 4.20384 1.80659 4.20384 1.80479C 4.20384 1.803 4.20384 1.80121 4.20384 1.79941C 4.20384 1.79762 4.20384 1.79583 4.20384 1.79404C 4.20384 1.79224 4.20384 1.79045 4.20384 1.78866C 4.20384 1.78687 4.20384 1.78508 4.20384 1.78328C 4.20384 1.78149 4.20384 1.7797 4.20384 1.77791C 4.20384 1.77612 4.20384 1.77433 4.20384 1.77253C 4.20384 1.77074 4.20384 1.76895 4.20384 1.76716C 4.20384 1.76537 4.20384 1.76358 4.20384 1.76179C 4.20384 1.76 4.20384 1.75821 4.20384 1.75642C 4.20384 1.75463 4.20384 1.75284 4.20384 1.75105C 4.20384 1.74926 4.20384 1.74747 4.20384 1.74568C 4.20384 1.74389 4.20384 1.7421 4.20384 1.74031C 4.20384 1.73852 4.20384 1.73673 4.20384 1.73494C 4.20384 1.73315 4.20384 1.73136 4.20384 1.72957C 4.20384 1.72778 4.20384 1.72599 4.20384 1.7242C 4.20384 1.72242 4.20384 1.72063 4.20384 1.71884C 4.20384 1.71705 4.20384 1.71526 4.20384 1.71347C 4.20384 1.71168 4.20384 1.7099 4.20384 1.70811C 4.20384 1.70632 4.20384 1.70453 4.20384 1.70274C 4.20384 1.70096 4.20384 1.69917 4.20384 1.69738C 4.20384 1.69559 4.20384 1.69381 4.20384 1.69202C 4.20384 1.69023 4.20384 1.68844 4.20384 1.68666C 4.20384 1.68487 4.20384 1.68308 4.20384 1.6813C 4.20384 1.67951 4.20384 1.67772 4.20384 1.67593C 4.20384 1.67415 4.20384 1.67236 4.20384 1.67057C 4.20384 1.66879 4.20384 1.667 4.20384 1.66522C 4.20384 1.66343 4.20384 1.66164 4.20384 1.65986C 4.20384 1.65807 4.20384 1.65628 4.20384 1.6545C 4.20384 1.65271 4.20384 1.65093 4.20384 1.64914C 4.20384 1.64736 4.20384 1.64557 4.20384 1.64378C 4.20384 1.642 4.20384 1.64021 4.20384 1.63843C 4.20384 1.63664 4.20384 1.63486 4.20384 1.63307C 4.20384 1.63129 4.20384 1.6295 4.20384 1.62772C 4.20384 1.62593 4.20384 1.62415 4.20384 1.62236C 4.20384 1.62058 4.20384 1.61879 4.20384 1.61701C 4.20384 1.61522 4.20384 1.61344 4.20384 1.61165C 4.20384 1.60987 4.20384 1.60809 4.20384 1.6063C 4.20384 1.60452 4.20384 1.60273 4.20384 1.60095C 4.20384 1.59916 4.20384 1.59738 4.20384 1.5956C 4.20384 1.59381 4.20384 1.59203 4.20384 1.59024C 4.20384 1.58846 4.20384 1.58668 4.20384 1.58489C 4.20384 1.58311 4.20384 1.58133 4.20384 1.57954C 4.20384 1.57776 4.20384 1.57597 4.20384 1.57419C 4.20384 1.57241 4.20384 1.57062 4.20384 1.56884C 4.20384 1.56706 4.20384 1.56527 4.20384 1.56349C 4.20384 1.56171 4.20384 1.55993 4.20384 1.55814C 4.20384 1.55636 4.20384 1.55458 4.20384 1.55279C 4.20384 1.55101 4.20384 1.54923 4.20384 1.54744C 4.20384 1.54566 4.20384 1.54388 4.20384 1.5421C 4.20384 1.54031 4.20384 1.53853 4.20384 1.53675C 4.20384 1.53497 4.20384 1.53318 4.20384 1.5314C 4.20384 1.52962 4.20384 1.52784 4.20384 1.52605C 4.20384 1.52427 4.20384 1.52249 4.20384 1.52071C 4.20384 1.51892 4.20384 1.51714 4.20384 1.51536C 4.20384 1.51358 4.20384 1.51179 4.20384 1.51001C 4.20384 1.50823 4.20384 1.50645 4.20384 1.50467C 4.20384 1.50288 4.20384 1.5011 4.20384 1.49932C 4.20384 1.49754 4.20384 1.49576 4.20384 1.49397C 4.20384 1.49219 4.20384 1.49041 4.20384 1.48863C 4.20384 1.48685 4.20384 1.48506 4.20384 1.48328C 4.20384 1.4815 4.20384 1.47972 4.20384 1.47794C 4.20384 1.47616 4.20384 1.47437 4.20384 1.47259C 4.20384 1.47081 4.20384 1.46903 4.20384 1.46725C 4.20384 1.46547 4.20384 1.46368 4.20384 1.4619C 4.20384 1.46012 4.20384 1.45834 4.20384 1.45656C 4.20384 1.45478 4.20384 1.453 4.20384 1.45121C 4.20384 1.44943 4.20384 1.44765 4.20384 1.44587C 4.20384 1.44409 4.20384 1.44231 4.20384 1.44053C 4.20384 1.43874 4.20384 1.43696 4.20384 1.43518C 4.20384 1.4334 4.20384 1.43162 4.20384 1.42984C 4.20384 1.42806 4.20384 1.42627 4.20384 1.42449C 4.20384 1.42271 4.20384 1.42093 4.20384 1.41915C 4.20384 1.41737 4.20384 1.41559 4.20384 1.41381C 4.20384 1.41202 4.20384 1.41024 4.20384 1.40846C 4.20384 1.40668 4.20384 1.4049 4.20384 1.40312C 4.20384 1.40134 4.20384 1.39955 4.20384 1.39777C 4.20384 1.39599 4.20384 1.39421 4.20384 1.39243C 4.20384 1.39065 4.20384 1.38887 4.20384 1.38709C 4.20384 1.3853 4.20384 1.38352 4.20384 1.38174C 4.20384 1.37996 4.20384 1.37818 4.20384 1.3764C 4.20384 1.37462 4.20384 1.37283 4.20384 1.37105C 4.20384 1.36927 4.20384 1.36749 4.20384 1.36571C 4.20384 1.36393 4.20384 1.36215 4.20384 1.36036C 4.20384 1.35858 4.20384 1.3568 4.20384 1.35502C 4.20384 1.35324 4.20384 1.35146 4.20384 1.34968C 4.20384 1.34789 4.20384 1.34611 4.20384 1.34433C 4.20384 1.34255 4.20384 1.34077 4.20384 1.33899C 4.20384 1.33721 4.20384 1.33542 4.20384 1.33364C 4.20384 1.33186 4.20384 1.33008 4.20384 1.3283C 4.20384 1.32652 4.20384 1.32473 4.20384 1.32295C 4.20384 1.32117 4.20384 1.31939 4.20384 1.31761C 4.20384 1.31582 4.20384 1.31404 4.20384 1.31226C 4.20384 1.31048 4.20384 1.3087 4.20384 1.30691C 4.20384 1.30513 4.20384 1.30335 4.20384 1.30157C 4.20384 1.29979 4.20384 1.298 4.20384 1.29622C 4.20384 1.29444 4.20384 1.29266 4.20384 1.29088C 4.20384 1.28909 4.20384 1.28731 4.20384 1.28553C 4.20384 1.28375 4.20384 1.28196 4.20384 1.28018C 4.20384 1.2784 4.20384 1.27662 4.20384 1.27483C 4.20384 1.27305 4.20384 1.27127 4.20384 1.26949C 4.20384 1.2677 4.20384 1.26592 4.20384 1.26414C 4.20384 1.26236 4.20384 1.26057 4.20384 1.25879C 4.20384 1.25701 4.20384 1.25522 4.20384 1.25344C 4.20384 1.25166 4.20384 1.24988 4.20384 1.24809C 4.20384 1.24631 4.20384 1.24453 4.20384 1.24274C 4.20384 1.24096 4.20384 1.23918 4.20384 1.23739C 4.20384 1.23561 4.20384 1.23383 4.20384 1.23204C 4.20384 1.23026 4.20384 1.22848 4.20384 1.22669C 4.20384 1.22491 4.20384 1.22313 4.20384 1.22134C 4.20384 1.21956 4.20384 1.21777 4.20384 1.21599C 4.20384 1.21421 4.20384 1.21242 4.20384 1.21064C 4.20384 1.20885 4.20384 1.20707 4.20384 1.20529C 4.20384 1.2035 4.20384 1.20172 4.20384 1.19993C 4.20384 1.19815 4.20384 1.19636 4.20384 1.19458C 4.20384 1.1928 4.20384 1.19101 4.20384 1.18923C 4.20384 1.18744 4.20384 1.18566 4.20384 1.18387C 4.20384 1.18209 4.20384 1.1803 4.20384 1.17852C 4.20384 1.17673 4.20384 1.17495 4.20384 1.17316C 4.20384 1.17138 4.20384 1.16959 4.20384 1.16781C 4.20384 1.16602 4.20384 1.16424 4.20384 1.16245C 4.20384 1.16066 4.20384 1.15888 4.20384 1.15709C 4.20384 1.15531 4.20384 1.15352 4.20384 1.15174C 4.20384 1.14995 4.20384 1.14816 4.20384 1.14638C 4.20384 1.14459 4.20384 1.14281 4.20384 1.14102C 4.20384 1.13923 4.20384 1.13745 4.20384 1.13566C 4.20384 1.13387 4.20384 1.13209 4.20384 1.1303C 4.20384 1.12851 4.20384 1.12673 4.20384 1.12494C 4.20384 1.12315 4.20384 1.12137 4.20384 1.11958C 4.20384 1.11779 4.20384 1.116 4.20384 1.11422C 4.20384 1.11243 4.20384 1.11064 4.20384 1.10885C 4.20384 1.10707 4.20384 1.10528 4.20384 1.10349C 4.20384 1.1017 4.20384 1.09991 4.20384 1.09813C 4.20384 1.09634 4.20384 1.09455 4.20384 1.09276C 4.20384 1.09097 4.20384 1.08919 4.20384 1.0874C 4.20384 1.08561 4.20384 1.08382 4.20384 1.08203C 4.20384 1.08024 4.20384 1.07845 4.20384 1.07666C 4.20384 1.07487 4.20384 1.07309 4.20384 1.0713C 4.20384 1.06951 4.20384 1.06772 4.20384 1.06593C 4.20384 1.06414 4.20384 1.06235 4.20384 1.06056C 4.20384 1.05877 4.20384 1.05698 4.20384 1.05519C 4.20384 1.0534 4.20384 1.05161 4.20384 1.04982C 4.20384 1.04803 4.20384 1.04624 4.20384 1.04445C 4.20384 1.04266 4.20384 1.04086 4.20384 1.03907C 4.20384 1.03728 4.20384 1.03549 4.20384 1.0337C 4.20384 1.03191 4.20384 1.03012 4.20384 1.02833C 4.20384 1.02653 4.20384 1.02474 4.20384 1.02295C 4.20384 1.02116 4.20384 1.01937 4.20384 1.01757C 4.20384 1.01578 4.20384 1.01399 4.20384 1.0122C 4.20384 1.01041 4.20384 1.00861 4.20384 1.00682C 4.20384 1.00503 4.20384 1.00323 4.20384 1.00144C 4.20384 0.999648 4.20384 0.997855 4.20384 0.996062C 4.20384 0.994268 4.20384 0.992475 4.20384 0.990681C 4.20384 0.988887 4.20384 0.987093 4.20384 0.985299C 4.20384 0.983505 4.20384 0.981711 4.20384 0.979917C 4.20384 0.978122 4.20384 0.976328 4.20384 0.974533C 4.20384 0.972739 4.20384 0.970944 4.20384 0.969149C 4.20384 0.967354 4.20384 0.965558 4.20384 0.963763C 4.20384 0.961968 4.20384 0.960172 4.20384 0.958377C 4.20384 0.956581 4.20384 0.954785 4.20384 0.952989C 4.20384 0.951193 4.20384 0.949397 4.20384 0.9476C 4.20384 0.945804 4.20384 0.944007 4.20384 0.94221C 4.20384 0.940414 4.20384 0.938617 4.20384 0.936819C 4.20384 0.935022 4.20384 0.933225 4.20384 0.931428C 4.20384 0.92963 4.20384 0.927832 4.20384 0.926035C 4.20384 0.924237 4.20384 0.922439 4.20384 0.92064C 4.20384 0.918842 4.20384 0.917044 4.20384 0.915245C 4.20384 0.913446 4.20384 0.911648 4.20384 0.909849C 4.20384 0.90805 4.20384 0.90625 4.20384 0.904451C 4.20384 0.902652 4.20384 0.900852 4.20384 0.899052C 4.20384 0.897253 4.20384 0.895452 4.20384 0.893652C 4.20384 0.891852 4.20384 0.890052 4.20384 0.888251C 4.20384 0.886451 4.20384 0.88465 4.20384 0.882849C 4.20384 0.881048 4.20384 0.879247 4.20384 0.877445C 4.20384 0.875644 4.20384 0.873842 4.20384 0.872041C 4.20384 0.870239 4.20384 0.868437 4.20384 0.866635C 4.20384 0.864832 4.20384 0.86303 4.20384 0.861227C 4.20384 0.859425 4.20384 0.857622 4.20384 0.855819C 4.20384 0.854016 4.20384 0.852212 4.20384 0.850409C 4.20384 0.848605 4.20384 0.846802 4.20384 0.844998C 4.20384 0.843194 4.20384 0.84139 4.20384 0.839585C 4.20384 0.837781 4.20384 0.835976 4.20384 0.834172C 4.20384 0.832367 4.20384 0.830562 4.20384 0.828757C 4.20384 0.826951 4.20384 0.825146 4.20384 0.82334C 4.20384 0.821534 4.20384 0.819729 4.20384 0.817922C 4.20384 0.816116 4.20384 0.81431 4.20384 0.812503C 4.20384 0.810697 4.20384 0.80889 4.20384 0.807083C 4.20384 0.805276 4.20384 0.803468 4.20384 0.801661C 4.20384 0.799853 4.20384 0.798046 4.20384 0.796238C 4.20384 0.79443 4.20384 0.792621 4.20384 0.790813C 4.20384 0.789004 4.20384 0.787196 4.20384 0.785387C 4.20384 0.783578 4.20384 0.781769 4.20384 0.779959C 4.20384 0.77815 4.20384 0.77634 4.20384 0.77453C 4.20384 0.77272 4.20384 0.77091 4.20384 0.7691C 4.20384 0.767289 4.20384 0.765478 4.20384 0.763668C 4.20384 0.761857 4.20384 0.760045 4.20384 0.758234C 4.20384 0.756423 4.20384 0.754611 4.20384 0.752799C 4.20384 0.750987 4.20384 0.749175 4.20384 0.747362C 4.20384 0.74555 4.20384 0.743737 4.20384 0.741924C 4.20384 0.740112 4.20384 0.738298 4.20384 0.736485C 4.20384 0.734671 4.20384 0.732858 4.20384 0.731044C 4.20384 0.72923 4.20384 0.727416 4.20384 0.725601C 4.20384 0.723787 4.20384 0.721972 4.20384 0.720157C 4.20384 0.718342 4.20384 0.716526 4.20384 0.714711C 4.20384 0.712895 4.20384 0.711079 4.20384 0.709263C 4.20384 0.707447 4.20384 0.705631 4.20384 0.703814C 4.20384 0.701998 4.20384 0.700181 4.20384 0.698363C 4.20384 0.696546 4.20384 0.694729 4.20384 0.692911C 4.20384 0.691093 4.20384 0.689275 4.20384 0.687457C 4.20384 0.685639 4.20384 0.68382 4.20384 0.682001C 4.20384 0.680183 4.20384 0.678363 4.20384 0.676544C 4.20384 0.674725 4.20384 0.672905 4.20384 0.671085C 4.20384 0.669265 4.20384 0.667445 4.20384 0.665624C 4.20384 0.663804 4.20384 0.661983 4.20384 0.660162C 4.20384 0.65834 4.20384 0.656519 4.20384 0.654697C 4.20384 0.652876 4.20384 0.651054 4.20384 0.649231C 4.20384 0.647409 4.20384 0.645586 4.20384 0.643764C 4.20384 0.641941 4.20384 0.640118 4.20384 0.638294C 4.20384 0.636471 4.20384 0.634647 4.20384 0.632823C 4.20384 0.630999 4.20384 0.629174 4.20384 0.62735C 4.20384 0.625525 4.20384 0.6237 4.20384 0.621875C 4.20384 0.62005 4.20384 0.618224 4.20384 0.616398C 4.20384 0.614572 4.20384 0.612746 4.20384 0.61092C 4.20384 0.609093 4.20384 0.607266 4.20384 0.605439C 4.20384 0.603612 4.20384 0.601785 4.20384 0.599957C 4.20384 0.598129 4.20384 0.596301 4.20384 0.594473C 4.20384 0.592644 4.20384 0.590816 4.20384 0.588987C 4.20384 0.587158 4.20384 0.585329 4.20384 0.583499C 4.20384 0.581669 4.20384 0.579839 4.20384 0.578009C 4.20384 0.576179 4.20384 0.574348 4.20384 0.572517C 4.20384 0.570687 4.20384 0.568855 4.20384 0.567024C 4.20384 0.565192 4.20384 0.56336 4.20384 0.561528C 4.20384 0.559696 4.20384 0.557863 4.20384 0.556031C 4.20384 0.554198 4.20384 0.552365 4.20384 0.550531C 4.20384 0.548698 4.20384 0.546864 4.20384 0.54503C 4.20384 0.543195 4.20384 0.541361 4.20384 0.539526C 4.20384 0.537691 4.20384 0.535856 4.20384 0.534021C 4.20384 0.532185 4.20384 0.530349 4.20384 0.528513C 4.20384 0.526677 4.20384 0.52484 4.20384 0.523004C 4.20384 0.521167 4.20384 0.51933 4.20384 0.517492C 4.20384 0.515654 4.20384 0.513817 4.20384 0.511978C 4.20384 0.51014 4.20384 0.508301 4.20384 0.506463C 4.20384 0.504624 4.20384 0.502784 4.20384 0.500945C 4.20384 0.499105 4.20384 0.497265 4.20384 0.495425C 4.20384 0.493585 4.20384 0.491744 4.20384 0.489903C 4.20384 0.488062 4.20384 0.48622 4.20384 0.484379C 4.20384 0.482537 4.20384 0.480695 4.20384 0.478852C 4.20384 0.47701 4.20384 0.475167 4.20384 0.473324C 4.20384 0.471481 4.20384 0.469637 4.20384 0.467794C 4.20384 0.46595 4.20384 0.464105 4.20384 0.462261C 4.20384 0.460416 4.20384 0.458571 4.20384 0.456726C 4.20384 0.454881 4.20384 0.453035 4.20384 0.451189C 4.20384 0.449343 4.20384 0.447496 4.20384 0.445649C 4.20384 0.443803 4.20384 0.441955 4.20384 0.440108C 4.20384 0.43826 4.20384 0.436412 4.20384 0.434564C 4.20384 0.432716 4.20384 0.430867 4.20384 0.429018C 4.20384 0.427169 4.20384 0.42532 4.20384 0.42347C 4.20384 0.42162 4.20384 0.41977 4.20384 0.417919C 4.20384 0.416069 4.20384 0.414218 4.20384 0.412366C 4.20384 0.410515 4.20384 0.408663 4.20384 0.406811C 4.20384 0.404959 4.20384 0.403107 4.20384 0.401254C 4.20384 0.399401 4.20384 0.397548 4.20384 0.395694C 4.20384 0.39384 4.20384 0.391986 4.20384 0.390132C 4.20384 0.388278 4.20384 0.386423 4.20384 0.384568C 4.20384 0.382712 4.20384 0.380857 4.20384 0.379001C 4.20384 0.377145 4.20384 0.375288 4.20384 0.373432C 4.20384 0.371575 4.20384 0.369718 4.20384 0.36786C 4.20384 0.366002 4.20384 0.364145 4.20384 0.362286C 4.20384 0.360428 4.20384 0.358569 4.20384 0.35671C 4.20384 0.354851 4.20384 0.352991 4.20384 0.351131C 4.20384 0.349271 4.20384 0.347411 4.20384 0.34555C 4.20384 0.343689 4.20384 0.341828 4.20384 0.339966C 4.20384 0.338104 4.20384 0.336242 4.20384 0.33438C 4.20384 0.332518 4.20384 0.330655 4.20384 0.328791C 4.20384 0.326928 4.20384 0.325064 4.20384 0.3232C 4.20384 0.321336 4.20384 0.319472 4.20384 0.317607C 4.20384 0.315742 4.20384 0.313877 4.20384 0.312011C 4.20384 0.310145 4.20384 0.308279 4.20384 0.306412C 4.20384 0.304545 4.20384 0.302678 4.20384 0.300811C 4.20384 0.298944 4.20384 0.297076 4.20384 0.295207C 4.20384 0.293339 4.20384 0.29147 4.20384 0.289601C 4.20384 0.287732 4.20384 0.285862 4.20384 0.283992C 4.20384 0.282122 4.20384 0.280252 4.20384 0.278381C 4.20384 0.27651 4.20384 0.274639 4.20384 0.272767C 4.20384 0.270895 4.20384 0.269023 4.20384 0.26715C 4.20384 0.265278 4.20384 0.263405 4.20384 0.261531C 4.20384 0.259658 4.20384 0.257784 4.20384 0.255909C 4.20384 0.254035 4.20384 0.25216 4.20384 0.250285C 4.20384 0.248409 4.20384 0.246534 4.20384 0.244658C 4.20384 0.242781 4.20384 0.240905 4.20384 0.239028C 4.20384 0.237151 4.20384 0.235273 4.20384 0.233395C 4.20384 0.231517 4.20384 0.229639 4.20384 0.22776C 4.20384 0.225881 4.20384 0.224002 4.20384 0.222122C 4.20384 0.220242 4.20384 0.218362 4.20384 0.216481C 4.20384 0.214601 4.20384 0.21272 4.20384 0.210838C 4.20384 0.208956 4.20384 0.207074 4.20384 0.205192C 4.20384 0.203309 4.20384 0.201426 4.20384 0.199543C 4.20384 0.19766 4.20384 0.195776 4.20384 0.193891C 4.20384 0.192007 4.20384 0.190122 4.20384 0.188237C 4.20384 0.186352 4.20384 0.184466 4.20384 0.18258C 4.20384 0.180693 4.20384 0.178807 4.20384 0.17692C 4.20384 0.175032 4.20384 0.173145 4.20384 0.171257C 4.20384 0.169369 4.20384 0.16748 4.20384 0.165591C 4.20384 0.163702 4.20384 0.161812 4.20384 0.159922C 4.20384 0.158032 4.20384 0.156142 4.20384 0.154251C 4.20384 0.15236 4.20384 0.150469 4.20384 0.148577C 4.20384 0.146685 4.20384 0.144792 4.20384 0.1429C 4.20384 0.141007 4.20384 0.139113 4.20384 0.13722C 4.20384 0.135326 4.20384 0.133431 4.20384 0.131537C 4.20384 0.129642 4.20384 0.127746 4.20384 0.125851C 4.20384 0.123955 4.20384 0.122059 4.20384 0.120162C 4.20384 0.118265 4.20384 0.116368 4.20384 0.11447C 4.20384 0.112572 4.20384 0.110674 4.20384 0.108775C 4.20384 0.106876 4.20384 0.104977 4.20384 0.103077C 4.20384 0.101178 4.20384 0.0992775 4.20384 0.0973768C 4.20384 0.095476 4.20384 0.0935748 4.20384 0.0916731C 4.20384 0.0897713 4.20384 0.0878691 4.20384 0.0859663C 4.20384 0.0840636 4.20384 0.0821604 4.20384 0.0802566C 4.20384 0.0783529 4.20384 0.0764486 4.20384 0.0745438C 4.20384 0.0726391 4.20384 0.0707338 4.20384 0.068828C 4.20384 0.0669222 4.20384 0.0650159 4.20384 0.0631091C 4.20384 0.0612023 4.20384 0.059295 4.20384 0.0573871C 4.20384 0.0554793 4.20384 0.053571 4.20384 0.0516621C 4.20384 0.0497532 4.20384 0.0478439 4.20384 0.045934C 4.20384 0.0440241 4.20384 0.0421136 4.20384 0.0402027C 4.20384 0.0382918 4.20384 0.0363803 4.20384 0.0344683C 4.20384 0.0325563 4.20384 0.0306438 4.20384 0.0287308C 4.20384 0.0268178 4.20384 0.0249042 4.20384 0.0229901C 4.20384 0.021076 4.20384 0.0191614 4.20384 0.0172463C 4.20384 0.0153312 4.20384 0.0134155 4.20384 0.0114993C 4.20384 0.0095831 4.20384 0.00766637 4.20384 0.00574911C 4.20384 0.00383184 4.20384 0.00191405 4.20384 -4.28199e-06L -4.20384 -4.28199e-06C -4.20384 0.00191405 -4.20384 0.00383184 -4.20384 0.00574911C -4.20384 0.00766637 -4.20384 0.0095831 -4.20384 0.0114993C -4.20384 0.0134155 -4.20384 0.0153312 -4.20384 0.0172463C -4.20384 0.0191614 -4.20384 0.021076 -4.20384 0.0229901C -4.20384 0.0249042 -4.20384 0.0268178 -4.20384 0.0287308C -4.20384 0.0306438 -4.20384 0.0325563 -4.20384 0.0344683C -4.20384 0.0363803 -4.20384 0.0382918 -4.20384 0.0402027C -4.20384 0.0421136 -4.20384 0.0440241 -4.20384 0.045934C -4.20384 0.0478439 -4.20384 0.0497532 -4.20384 0.0516621C -4.20384 0.053571 -4.20384 0.0554793 -4.20384 0.0573871C -4.20384 0.059295 -4.20384 0.0612023 -4.20384 0.0631091C -4.20384 0.0650159 -4.20384 0.0669222 -4.20384 0.068828C -4.20384 0.0707338 -4.20384 0.0726391 -4.20384 0.0745438C -4.20384 0.0764486 -4.20384 0.0783529 -4.20384 0.0802566C -4.20384 0.0821604 -4.20384 0.0840636 -4.20384 0.0859663C -4.20384 0.0878691 -4.20384 0.0897713 -4.20384 0.0916731C -4.20384 0.0935748 -4.20384 0.095476 -4.20384 0.0973768C -4.20384 0.0992775 -4.20384 0.101178 -4.20384 0.103077C -4.20384 0.104977 -4.20384 0.106876 -4.20384 0.108775C -4.20384 0.110674 -4.20384 0.112572 -4.20384 0.11447C -4.20384 0.116368 -4.20384 0.118265 -4.20384 0.120162C -4.20384 0.122059 -4.20384 0.123955 -4.20384 0.125851C -4.20384 0.127746 -4.20384 0.129642 -4.20384 0.131537C -4.20384 0.133431 -4.20384 0.135326 -4.20384 0.13722C -4.20384 0.139113 -4.20384 0.141007 -4.20384 0.1429C -4.20384 0.144792 -4.20384 0.146685 -4.20384 0.148577C -4.20384 0.150469 -4.20384 0.15236 -4.20384 0.154251C -4.20384 0.156142 -4.20384 0.158032 -4.20384 0.159922C -4.20384 0.161812 -4.20384 0.163702 -4.20384 0.165591C -4.20384 0.16748 -4.20384 0.169369 -4.20384 0.171257C -4.20384 0.173145 -4.20384 0.175032 -4.20384 0.17692C -4.20384 0.178807 -4.20384 0.180693 -4.20384 0.18258C -4.20384 0.184466 -4.20384 0.186352 -4.20384 0.188237C -4.20384 0.190122 -4.20384 0.192007 -4.20384 0.193891C -4.20384 0.195776 -4.20384 0.19766 -4.20384 0.199543C -4.20384 0.201426 -4.20384 0.203309 -4.20384 0.205192C -4.20384 0.207074 -4.20384 0.208956 -4.20384 0.210838C -4.20384 0.21272 -4.20384 0.214601 -4.20384 0.216481C -4.20384 0.218362 -4.20384 0.220242 -4.20384 0.222122C -4.20384 0.224002 -4.20384 0.225881 -4.20384 0.22776C -4.20384 0.229639 -4.20384 0.231517 -4.20384 0.233395C -4.20384 0.235273 -4.20384 0.237151 -4.20384 0.239028C -4.20384 0.240905 -4.20384 0.242781 -4.20384 0.244658C -4.20384 0.246534 -4.20384 0.248409 -4.20384 0.250285C -4.20384 0.25216 -4.20384 0.254035 -4.20384 0.255909C -4.20384 0.257784 -4.20384 0.259658 -4.20384 0.261531C -4.20384 0.263405 -4.20384 0.265278 -4.20384 0.26715C -4.20384 0.269023 -4.20384 0.270895 -4.20384 0.272767C -4.20384 0.274639 -4.20384 0.27651 -4.20384 0.278381C -4.20384 0.280252 -4.20384 0.282122 -4.20384 0.283992C -4.20384 0.285862 -4.20384 0.287732 -4.20384 0.289601C -4.20384 0.29147 -4.20384 0.293339 -4.20384 0.295207C -4.20384 0.297076 -4.20384 0.298944 -4.20384 0.300811C -4.20384 0.302678 -4.20384 0.304545 -4.20384 0.306412C -4.20384 0.308279 -4.20384 0.310145 -4.20384 0.312011C -4.20384 0.313877 -4.20384 0.315742 -4.20384 0.317607C -4.20384 0.319472 -4.20384 0.321336 -4.20384 0.3232C -4.20384 0.325064 -4.20384 0.326928 -4.20384 0.328791C -4.20384 0.330655 -4.20384 0.332518 -4.20384 0.33438C -4.20384 0.336242 -4.20384 0.338104 -4.20384 0.339966C -4.20384 0.341828 -4.20384 0.343689 -4.20384 0.34555C -4.20384 0.347411 -4.20384 0.349271 -4.20384 0.351131C -4.20384 0.352991 -4.20384 0.354851 -4.20384 0.35671C -4.20384 0.358569 -4.20384 0.360428 -4.20384 0.362286C -4.20384 0.364145 -4.20384 0.366002 -4.20384 0.36786C -4.20384 0.369718 -4.20384 0.371575 -4.20384 0.373432C -4.20384 0.375288 -4.20384 0.377145 -4.20384 0.379001C -4.20384 0.380857 -4.20384 0.382712 -4.20384 0.384568C -4.20384 0.386423 -4.20384 0.388278 -4.20384 0.390132C -4.20384 0.391986 -4.20384 0.39384 -4.20384 0.395694C -4.20384 0.397548 -4.20384 0.399401 -4.20384 0.401254C -4.20384 0.403107 -4.20384 0.404959 -4.20384 0.406811C -4.20384 0.408663 -4.20384 0.410515 -4.20384 0.412366C -4.20384 0.414218 -4.20384 0.416069 -4.20384 0.417919C -4.20384 0.41977 -4.20384 0.42162 -4.20384 0.42347C -4.20384 0.42532 -4.20384 0.427169 -4.20384 0.429018C -4.20384 0.430867 -4.20384 0.432716 -4.20384 0.434564C -4.20384 0.436412 -4.20384 0.43826 -4.20384 0.440108C -4.20384 0.441955 -4.20384 0.443803 -4.20384 0.445649C -4.20384 0.447496 -4.20384 0.449343 -4.20384 0.451189C -4.20384 0.453035 -4.20384 0.454881 -4.20384 0.456726C -4.20384 0.458571 -4.20384 0.460416 -4.20384 0.462261C -4.20384 0.464105 -4.20384 0.46595 -4.20384 0.467794C -4.20384 0.469637 -4.20384 0.471481 -4.20384 0.473324C -4.20384 0.475167 -4.20384 0.47701 -4.20384 0.478852C -4.20384 0.480695 -4.20384 0.482537 -4.20384 0.484379C -4.20384 0.48622 -4.20384 0.488062 -4.20384 0.489903C -4.20384 0.491744 -4.20384 0.493585 -4.20384 0.495425C -4.20384 0.497265 -4.20384 0.499105 -4.20384 0.500945C -4.20384 0.502784 -4.20384 0.504624 -4.20384 0.506463C -4.20384 0.508301 -4.20384 0.51014 -4.20384 0.511978C -4.20384 0.513817 -4.20384 0.515654 -4.20384 0.517492C -4.20384 0.51933 -4.20384 0.521167 -4.20384 0.523004C -4.20384 0.52484 -4.20384 0.526677 -4.20384 0.528513C -4.20384 0.530349 -4.20384 0.532185 -4.20384 0.534021C -4.20384 0.535856 -4.20384 0.537691 -4.20384 0.539526C -4.20384 0.541361 -4.20384 0.543195 -4.20384 0.54503C -4.20384 0.546864 -4.20384 0.548698 -4.20384 0.550531C -4.20384 0.552365 -4.20384 0.554198 -4.20384 0.556031C -4.20384 0.557863 -4.20384 0.559696 -4.20384 0.561528C -4.20384 0.56336 -4.20384 0.565192 -4.20384 0.567024C -4.20384 0.568855 -4.20384 0.570687 -4.20384 0.572517C -4.20384 0.574348 -4.20384 0.576179 -4.20384 0.578009C -4.20384 0.579839 -4.20384 0.581669 -4.20384 0.583499C -4.20384 0.585329 -4.20384 0.587158 -4.20384 0.588987C -4.20384 0.590816 -4.20384 0.592644 -4.20384 0.594473C -4.20384 0.596301 -4.20384 0.598129 -4.20384 0.599957C -4.20384 0.601785 -4.20384 0.603612 -4.20384 0.605439C -4.20384 0.607266 -4.20384 0.609093 -4.20384 0.61092C -4.20384 0.612746 -4.20384 0.614572 -4.20384 0.616398C -4.20384 0.618224 -4.20384 0.62005 -4.20384 0.621875C -4.20384 0.6237 -4.20384 0.625525 -4.20384 0.62735C -4.20384 0.629174 -4.20384 0.630999 -4.20384 0.632823C -4.20384 0.634647 -4.20384 0.636471 -4.20384 0.638294C -4.20384 0.640118 -4.20384 0.641941 -4.20384 0.643764C -4.20384 0.645586 -4.20384 0.647409 -4.20384 0.649231C -4.20384 0.651054 -4.20384 0.652876 -4.20384 0.654697C -4.20384 0.656519 -4.20384 0.65834 -4.20384 0.660162C -4.20384 0.661983 -4.20384 0.663804 -4.20384 0.665624C -4.20384 0.667445 -4.20384 0.669265 -4.20384 0.671085C -4.20384 0.672905 -4.20384 0.674725 -4.20384 0.676544C -4.20384 0.678363 -4.20384 0.680183 -4.20384 0.682001C -4.20384 0.68382 -4.20384 0.685639 -4.20384 0.687457C -4.20384 0.689275 -4.20384 0.691093 -4.20384 0.692911C -4.20384 0.694729 -4.20384 0.696546 -4.20384 0.698363C -4.20384 0.700181 -4.20384 0.701998 -4.20384 0.703814C -4.20384 0.705631 -4.20384 0.707447 -4.20384 0.709263C -4.20384 0.711079 -4.20384 0.712895 -4.20384 0.714711C -4.20384 0.716526 -4.20384 0.718342 -4.20384 0.720157C -4.20384 0.721972 -4.20384 0.723787 -4.20384 0.725601C -4.20384 0.727416 -4.20384 0.72923 -4.20384 0.731044C -4.20384 0.732858 -4.20384 0.734671 -4.20384 0.736485C -4.20384 0.738298 -4.20384 0.740112 -4.20384 0.741924C -4.20384 0.743737 -4.20384 0.74555 -4.20384 0.747362C -4.20384 0.749175 -4.20384 0.750987 -4.20384 0.752799C -4.20384 0.754611 -4.20384 0.756423 -4.20384 0.758234C -4.20384 0.760045 -4.20384 0.761857 -4.20384 0.763668C -4.20384 0.765478 -4.20384 0.767289 -4.20384 0.7691C -4.20384 0.77091 -4.20384 0.77272 -4.20384 0.77453C -4.20384 0.77634 -4.20384 0.77815 -4.20384 0.779959C -4.20384 0.781769 -4.20384 0.783578 -4.20384 0.785387C -4.20384 0.787196 -4.20384 0.789004 -4.20384 0.790813C -4.20384 0.792621 -4.20384 0.79443 -4.20384 0.796238C -4.20384 0.798046 -4.20384 0.799853 -4.20384 0.801661C -4.20384 0.803468 -4.20384 0.805276 -4.20384 0.807083C -4.20384 0.80889 -4.20384 0.810697 -4.20384 0.812503C -4.20384 0.81431 -4.20384 0.816116 -4.20384 0.817922C -4.20384 0.819729 -4.20384 0.821534 -4.20384 0.82334C -4.20384 0.825146 -4.20384 0.826951 -4.20384 0.828757C -4.20384 0.830562 -4.20384 0.832367 -4.20384 0.834172C -4.20384 0.835976 -4.20384 0.837781 -4.20384 0.839585C -4.20384 0.84139 -4.20384 0.843194 -4.20384 0.844998C -4.20384 0.846802 -4.20384 0.848605 -4.20384 0.850409C -4.20384 0.852212 -4.20384 0.854016 -4.20384 0.855819C -4.20384 0.857622 -4.20384 0.859425 -4.20384 0.861227C -4.20384 0.86303 -4.20384 0.864832 -4.20384 0.866635C -4.20384 0.868437 -4.20384 0.870239 -4.20384 0.872041C -4.20384 0.873842 -4.20384 0.875644 -4.20384 0.877445C -4.20384 0.879247 -4.20384 0.881048 -4.20384 0.882849C -4.20384 0.88465 -4.20384 0.886451 -4.20384 0.888251C -4.20384 0.890052 -4.20384 0.891852 -4.20384 0.893652C -4.20384 0.895452 -4.20384 0.897253 -4.20384 0.899052C -4.20384 0.900852 -4.20384 0.902652 -4.20384 0.904451C -4.20384 0.90625 -4.20384 0.90805 -4.20384 0.909849C -4.20384 0.911648 -4.20384 0.913446 -4.20384 0.915245C -4.20384 0.917044 -4.20384 0.918842 -4.20384 0.92064C -4.20384 0.922439 -4.20384 0.924237 -4.20384 0.926035C -4.20384 0.927832 -4.20384 0.92963 -4.20384 0.931428C -4.20384 0.933225 -4.20384 0.935022 -4.20384 0.936819C -4.20384 0.938617 -4.20384 0.940414 -4.20384 0.94221C -4.20384 0.944007 -4.20384 0.945804 -4.20384 0.9476C -4.20384 0.949397 -4.20384 0.951193 -4.20384 0.952989C -4.20384 0.954785 -4.20384 0.956581 -4.20384 0.958377C -4.20384 0.960172 -4.20384 0.961968 -4.20384 0.963763C -4.20384 0.965558 -4.20384 0.967354 -4.20384 0.969149C -4.20384 0.970944 -4.20384 0.972739 -4.20384 0.974533C -4.20384 0.976328 -4.20384 0.978122 -4.20384 0.979917C -4.20384 0.981711 -4.20384 0.983505 -4.20384 0.985299C -4.20384 0.987093 -4.20384 0.988887 -4.20384 0.990681C -4.20384 0.992475 -4.20384 0.994268 -4.20384 0.996062C -4.20384 0.997855 -4.20384 0.999648 -4.20384 1.00144C -4.20384 1.00323 -4.20384 1.00503 -4.20384 1.00682C -4.20384 1.00861 -4.20384 1.01041 -4.20384 1.0122C -4.20384 1.01399 -4.20384 1.01578 -4.20384 1.01757C -4.20384 1.01937 -4.20384 1.02116 -4.20384 1.02295C -4.20384 1.02474 -4.20384 1.02653 -4.20384 1.02833C -4.20384 1.03012 -4.20384 1.03191 -4.20384 1.0337C -4.20384 1.03549 -4.20384 1.03728 -4.20384 1.03907C -4.20384 1.04086 -4.20384 1.04266 -4.20384 1.04445C -4.20384 1.04624 -4.20384 1.04803 -4.20384 1.04982C -4.20384 1.05161 -4.20384 1.0534 -4.20384 1.05519C -4.20384 1.05698 -4.20384 1.05877 -4.20384 1.06056C -4.20384 1.06235 -4.20384 1.06414 -4.20384 1.06593C -4.20384 1.06772 -4.20384 1.06951 -4.20384 1.0713C -4.20384 1.07309 -4.20384 1.07487 -4.20384 1.07666C -4.20384 1.07845 -4.20384 1.08024 -4.20384 1.08203C -4.20384 1.08382 -4.20384 1.08561 -4.20384 1.0874C -4.20384 1.08919 -4.20384 1.09097 -4.20384 1.09276C -4.20384 1.09455 -4.20384 1.09634 -4.20384 1.09813C -4.20384 1.09991 -4.20384 1.1017 -4.20384 1.10349C -4.20384 1.10528 -4.20384 1.10707 -4.20384 1.10885C -4.20384 1.11064 -4.20384 1.11243 -4.20384 1.11422C -4.20384 1.116 -4.20384 1.11779 -4.20384 1.11958C -4.20384 1.12137 -4.20384 1.12315 -4.20384 1.12494C -4.20384 1.12673 -4.20384 1.12851 -4.20384 1.1303C -4.20384 1.13209 -4.20384 1.13387 -4.20384 1.13566C -4.20384 1.13745 -4.20384 1.13923 -4.20384 1.14102C -4.20384 1.14281 -4.20384 1.14459 -4.20384 1.14638C -4.20384 1.14816 -4.20384 1.14995 -4.20384 1.15174C -4.20384 1.15352 -4.20384 1.15531 -4.20384 1.15709C -4.20384 1.15888 -4.20384 1.16066 -4.20384 1.16245C -4.20384 1.16424 -4.20384 1.16602 -4.20384 1.16781C -4.20384 1.16959 -4.20384 1.17138 -4.20384 1.17316C -4.20384 1.17495 -4.20384 1.17673 -4.20384 1.17852C -4.20384 1.1803 -4.20384 1.18209 -4.20384 1.18387C -4.20384 1.18566 -4.20384 1.18744 -4.20384 1.18923C -4.20384 1.19101 -4.20384 1.1928 -4.20384 1.19458C -4.20384 1.19636 -4.20384 1.19815 -4.20384 1.19993C -4.20384 1.20172 -4.20384 1.2035 -4.20384 1.20529C -4.20384 1.20707 -4.20384 1.20885 -4.20384 1.21064C -4.20384 1.21242 -4.20384 1.21421 -4.20384 1.21599C -4.20384 1.21777 -4.20384 1.21956 -4.20384 1.22134C -4.20384 1.22313 -4.20384 1.22491 -4.20384 1.22669C -4.20384 1.22848 -4.20384 1.23026 -4.20384 1.23204C -4.20384 1.23383 -4.20384 1.23561 -4.20384 1.23739C -4.20384 1.23918 -4.20384 1.24096 -4.20384 1.24274C -4.20384 1.24453 -4.20384 1.24631 -4.20384 1.24809C -4.20384 1.24988 -4.20384 1.25166 -4.20384 1.25344C -4.20384 1.25522 -4.20384 1.25701 -4.20384 1.25879C -4.20384 1.26057 -4.20384 1.26236 -4.20384 1.26414C -4.20384 1.26592 -4.20384 1.2677 -4.20384 1.26949C -4.20384 1.27127 -4.20384 1.27305 -4.20384 1.27483C -4.20384 1.27662 -4.20384 1.2784 -4.20384 1.28018C -4.20384 1.28196 -4.20384 1.28375 -4.20384 1.28553C -4.20384 1.28731 -4.20384 1.28909 -4.20384 1.29088C -4.20384 1.29266 -4.20384 1.29444 -4.20384 1.29622C -4.20384 1.298 -4.20384 1.29979 -4.20384 1.30157C -4.20384 1.30335 -4.20384 1.30513 -4.20384 1.30691C -4.20384 1.3087 -4.20384 1.31048 -4.20384 1.31226C -4.20384 1.31404 -4.20384 1.31582 -4.20384 1.31761C -4.20384 1.31939 -4.20384 1.32117 -4.20384 1.32295C -4.20384 1.32473 -4.20384 1.32652 -4.20384 1.3283C -4.20384 1.33008 -4.20384 1.33186 -4.20384 1.33364C -4.20384 1.33542 -4.20384 1.33721 -4.20384 1.33899C -4.20384 1.34077 -4.20384 1.34255 -4.20384 1.34433C -4.20384 1.34611 -4.20384 1.34789 -4.20384 1.34968C -4.20384 1.35146 -4.20384 1.35324 -4.20384 1.35502C -4.20384 1.3568 -4.20384 1.35858 -4.20384 1.36036C -4.20384 1.36215 -4.20384 1.36393 -4.20384 1.36571C -4.20384 1.36749 -4.20384 1.36927 -4.20384 1.37105C -4.20384 1.37283 -4.20384 1.37462 -4.20384 1.3764C -4.20384 1.37818 -4.20384 1.37996 -4.20384 1.38174C -4.20384 1.38352 -4.20384 1.3853 -4.20384 1.38709C -4.20384 1.38887 -4.20384 1.39065 -4.20384 1.39243C -4.20384 1.39421 -4.20384 1.39599 -4.20384 1.39777C -4.20384 1.39955 -4.20384 1.40134 -4.20384 1.40312C -4.20384 1.4049 -4.20384 1.40668 -4.20384 1.40846C -4.20384 1.41024 -4.20384 1.41202 -4.20384 1.41381C -4.20384 1.41559 -4.20384 1.41737 -4.20384 1.41915C -4.20384 1.42093 -4.20384 1.42271 -4.20384 1.42449C -4.20384 1.42627 -4.20384 1.42806 -4.20384 1.42984C -4.20384 1.43162 -4.20384 1.4334 -4.20384 1.43518C -4.20384 1.43696 -4.20384 1.43874 -4.20384 1.44053C -4.20384 1.44231 -4.20384 1.44409 -4.20384 1.44587C -4.20384 1.44765 -4.20384 1.44943 -4.20384 1.45121C -4.20384 1.453 -4.20384 1.45478 -4.20384 1.45656C -4.20384 1.45834 -4.20384 1.46012 -4.20384 1.4619C -4.20384 1.46368 -4.20384 1.46547 -4.20384 1.46725C -4.20384 1.46903 -4.20384 1.47081 -4.20384 1.47259C -4.20384 1.47437 -4.20384 1.47616 -4.20384 1.47794C -4.20384 1.47972 -4.20384 1.4815 -4.20384 1.48328C -4.20384 1.48506 -4.20384 1.48685 -4.20384 1.48863C -4.20384 1.49041 -4.20384 1.49219 -4.20384 1.49397C -4.20384 1.49576 -4.20384 1.49754 -4.20384 1.49932C -4.20384 1.5011 -4.20384 1.50288 -4.20384 1.50467C -4.20384 1.50645 -4.20384 1.50823 -4.20384 1.51001C -4.20384 1.51179 -4.20384 1.51358 -4.20384 1.51536C -4.20384 1.51714 -4.20384 1.51892 -4.20384 1.52071C -4.20384 1.52249 -4.20384 1.52427 -4.20384 1.52605C -4.20384 1.52784 -4.20384 1.52962 -4.20384 1.5314C -4.20384 1.53318 -4.20384 1.53497 -4.20384 1.53675C -4.20384 1.53853 -4.20384 1.54031 -4.20384 1.5421C -4.20384 1.54388 -4.20384 1.54566 -4.20384 1.54744C -4.20384 1.54923 -4.20384 1.55101 -4.20384 1.55279C -4.20384 1.55458 -4.20384 1.55636 -4.20384 1.55814C -4.20384 1.55993 -4.20384 1.56171 -4.20384 1.56349C -4.20384 1.56527 -4.20384 1.56706 -4.20384 1.56884C -4.20384 1.57062 -4.20384 1.57241 -4.20384 1.57419C -4.20384 1.57597 -4.20384 1.57776 -4.20384 1.57954C -4.20384 1.58133 -4.20384 1.58311 -4.20384 1.58489C -4.20384 1.58668 -4.20384 1.58846 -4.20384 1.59024C -4.20384 1.59203 -4.20384 1.59381 -4.20384 1.5956C -4.20384 1.59738 -4.20384 1.59916 -4.20384 1.60095C -4.20384 1.60273 -4.20384 1.60452 -4.20384 1.6063C -4.20384 1.60809 -4.20384 1.60987 -4.20384 1.61165C -4.20384 1.61344 -4.20384 1.61522 -4.20384 1.61701C -4.20384 1.61879 -4.20384 1.62058 -4.20384 1.62236C -4.20384 1.62415 -4.20384 1.62593 -4.20384 1.62772C -4.20384 1.6295 -4.20384 1.63129 -4.20384 1.63307C -4.20384 1.63486 -4.20384 1.63664 -4.20384 1.63843C -4.20384 1.64021 -4.20384 1.642 -4.20384 1.64378C -4.20384 1.64557 -4.20384 1.64736 -4.20384 1.64914C -4.20384 1.65093 -4.20384 1.65271 -4.20384 1.6545C -4.20384 1.65628 -4.20384 1.65807 -4.20384 1.65986C -4.20384 1.66164 -4.20384 1.66343 -4.20384 1.66522C -4.20384 1.667 -4.20384 1.66879 -4.20384 1.67057C -4.20384 1.67236 -4.20384 1.67415 -4.20384 1.67593C -4.20384 1.67772 -4.20384 1.67951 -4.20384 1.6813C -4.20384 1.68308 -4.20384 1.68487 -4.20384 1.68666C -4.20384 1.68844 -4.20384 1.69023 -4.20384 1.69202C -4.20384 1.69381 -4.20384 1.69559 -4.20384 1.69738C -4.20384 1.69917 -4.20384 1.70096 -4.20384 1.70274C -4.20384 1.70453 -4.20384 1.70632 -4.20384 1.70811C -4.20384 1.7099 -4.20384 1.71168 -4.20384 1.71347C -4.20384 1.71526 -4.20384 1.71705 -4.20384 1.71884C -4.20384 1.72063 -4.20384 1.72242 -4.20384 1.7242C -4.20384 1.72599 -4.20384 1.72778 -4.20384 1.72957C -4.20384 1.73136 -4.20384 1.73315 -4.20384 1.73494C -4.20384 1.73673 -4.20384 1.73852 -4.20384 1.74031C -4.20384 1.7421 -4.20384 1.74389 -4.20384 1.74568C -4.20384 1.74747 -4.20384 1.74926 -4.20384 1.75105C -4.20384 1.75284 -4.20384 1.75463 -4.20384 1.75642C -4.20384 1.75821 -4.20384 1.76 -4.20384 1.76179C -4.20384 1.76358 -4.20384 1.76537 -4.20384 1.76716C -4.20384 1.76895 -4.20384 1.77074 -4.20384 1.77253C -4.20384 1.77433 -4.20384 1.77612 -4.20384 1.77791C -4.20384 1.7797 -4.20384 1.78149 -4.20384 1.78328C -4.20384 1.78508 -4.20384 1.78687 -4.20384 1.78866C -4.20384 1.79045 -4.20384 1.79224 -4.20384 1.79404C -4.20384 1.79583 -4.20384 1.79762 -4.20384 1.79941C -4.20384 1.80121 -4.20384 1.803 -4.20384 1.80479C -4.20384 1.80659 -4.20384 1.80838 -4.20384 1.81017C -4.20384 1.81197 -4.20384 1.81376 -4.20384 1.81555C -4.20384 1.81735 -4.20384 1.81914 -4.20384 1.82094C -4.20384 1.82273 -4.20384 1.82452 -4.20384 1.82632C -4.20384 1.82811 -4.20384 1.82991 -4.20384 1.8317C -4.20384 1.8335 -4.20384 1.83529 -4.20384 1.83709C -4.20384 1.83888 -4.20384 1.84068 -4.20384 1.84247C -4.20384 1.84427 -4.20384 1.84606 -4.20384 1.84786C -4.20384 1.84965 -4.20384 1.85145 -4.20384 1.85325C -4.20384 1.85504 -4.20384 1.85684 -4.20384 1.85863C -4.20384 1.86043 -4.20384 1.86223 -4.20384 1.86402C -4.20384 1.86582 -4.20384 1.86762 -4.20384 1.86942C -4.20384 1.87121 -4.20384 1.87301 -4.20384 1.87481C -4.20384 1.8766 -4.20384 1.8784 -4.20384 1.8802C -4.20384 1.882 -4.20384 1.8838 -4.20384 1.88559C -4.20384 1.88739 -4.20384 1.88919 -4.20384 1.89099C -4.20384 1.89279 -4.20384 1.89459 -4.20384 1.89639C -4.20384 1.89819 -4.20384 1.89998 -4.20384 1.90178C -4.20384 1.90358 -4.20384 1.90538 -4.20384 1.90718C -4.20384 1.90898 -4.20384 1.91078 -4.20384 1.91258C -4.20384 1.91438 -4.20384 1.91618 -4.20384 1.91798C -4.20384 1.91978 -4.20384 1.92158 -4.20384 1.92339C -4.20384 1.92519 -4.20384 1.92699 -4.20384 1.92879C -4.20384 1.93059 -4.20384 1.93239 -4.20384 1.93419C -4.20384 1.936 -4.20384 1.9378 -4.20384 1.9396C -4.20384 1.9414 -4.20384 1.9432 -4.20384 1.94501C -4.20384 1.94681 -4.20384 1.94861 -4.20384 1.95042C -4.20384 1.95222 -4.20384 1.95402 -4.20384 1.95583C -4.20384 1.95763 -4.20384 1.95943 -4.20384 1.96124C -4.20384 1.96304 -4.20384 1.96485 -4.20384 1.96665C -4.20384 1.96845 -4.20384 1.97026 -4.20384 1.97206C -4.20384 1.97387 -4.20384 1.97567 -4.20384 1.97748C -4.20384 1.97928 -4.20384 1.98109 -4.20384 1.98289C -4.20384 1.9847 -4.20384 1.98651 -4.20384 1.98831C -4.20384 1.99012 -4.20384 1.99192 -4.20384 1.99373C -4.20384 1.99554 -4.20384 1.99734 -4.20384 1.99915C -4.20384 2.00096 -4.20384 2.00277 -4.20384 2.00457C -4.20384 2.00638 -4.20384 2.00819 -4.20384 2.01C -4.20384 2.01181 -4.20384 2.01361 -4.20384 2.01542C -4.20384 2.01723 -4.20384 2.01904 -4.20384 2.02085C -4.20384 2.02266 -4.20384 2.02447 -4.20384 2.02628C -4.20384 2.02809 -4.20384 2.02989 -4.20384 2.0317C -4.20384 2.03351 -4.20384 2.03532 -4.20384 2.03714C -4.20384 2.03895 -4.20384 2.04076 -4.20384 2.04257C -4.20384 2.04438 -4.20384 2.04619 -4.20384 2.048C -4.20384 2.04981 -4.20384 2.05162 -4.20384 2.05344C -4.20384 2.05525 -4.20384 2.05706 -4.20384 2.05887C -4.20384 2.06068 -4.20384 2.0625 -4.20384 2.06431C -4.20384 2.06612 -4.20384 2.06794 -4.20384 2.06975C -4.20384 2.07156 -4.20384 2.07338 -4.20384 2.07519C -4.20384 2.07701 -4.20384 2.07882 -4.20384 2.08063C -4.20384 2.08245 -4.20384 2.08426 -4.20384 2.08608C -4.20384 2.08789 -4.20384 2.08971 -4.20384 2.09152C -4.20384 2.09334 -4.20384 2.09516 -4.20384 2.09697C -4.20384 2.09879 -4.20384 2.1006 -4.20384 2.10242C -4.20384 2.10424 -4.20384 2.10605 -4.20384 2.10787C -4.20384 2.10969 -4.20384 2.11151 -4.20384 2.11332C -4.20384 2.11514 -4.20384 2.11696 -4.20384 2.11878C -4.20384 2.1206 -4.20384 2.12241 -4.20384 2.12423C -4.20384 2.12605 -4.20384 2.12787 -4.20384 2.12969C -4.20384 2.13151 -4.20384 2.13333 -4.20384 2.13515C -4.20384 2.13697 -4.20384 2.13879 -4.20384 2.14061C -4.20384 2.14243 -4.20384 2.14425 -4.20384 2.14607C -4.20384 2.14789 -4.20384 2.14972 -4.20384 2.15154C -4.20384 2.15336 -4.20384 2.15518 -4.20384 2.157C -4.20384 2.15883 -4.20384 2.16065 -4.20384 2.16247C -4.20384 2.16429 -4.20384 2.16612 -4.20384 2.16794C -4.20384 2.16976 -4.20384 2.17159 -4.20384 2.17341C -4.20384 2.17524 -4.20384 2.17706 -4.20384 2.17888C -4.20384 2.18071 -4.20384 2.18253 -4.20384 2.18436C -4.20384 2.18619 -4.20384 2.18801 -4.20384 2.18984C -4.20384 2.19166 -4.20384 2.19349 -4.20384 2.19532C -4.20384 2.19714 -4.20384 2.19897 -4.20384 2.2008C -4.20384 2.20262 -4.20384 2.20445 -4.20384 2.20628C -4.20384 2.20811 -4.20384 2.20993 -4.20384 2.21176C -4.20384 2.21359 -4.20384 2.21542 -4.20384 2.21725C -4.20384 2.21908 -4.20384 2.22091 -4.20384 2.22274C -4.20384 2.22457 -4.20384 2.2264 -4.20384 2.22823C -4.20384 2.23006 -4.20384 2.23189 -4.20384 2.23372C -4.20384 2.23555 -4.20384 2.23738 -4.20384 2.23921C -4.20384 2.24104 -4.20384 2.24287 -4.20384 2.24471C -4.20384 2.24654 -4.20384 2.24837 -4.20384 2.2502C -4.20384 2.25204 -4.20384 2.25387 -4.20384 2.2557C -4.20384 2.25754 -4.20384 2.25937 -4.20384 2.26121C -4.20384 2.26304 -4.20384 2.26487 -4.20384 2.26671C -4.20384 2.26854 -4.20384 2.27038 -4.20384 2.27221C -4.20384 2.27405 -4.20384 2.27589 -4.20384 2.27772C -4.20384 2.27956 -4.20384 2.28139 -4.20384 2.28323C -4.20384 2.28507 -4.20384 2.28691 -4.20384 2.28874C -4.20384 2.29058 -4.20384 2.29242 -4.20384 2.29426C -4.20384 2.29609 -4.20384 2.29793 -4.20384 2.29977C -4.20384 2.30161 -4.20384 2.30345 -4.20384 2.30529C -4.20384 2.30713 -4.20384 2.30897 -4.20384 2.31081C -4.20384 2.31265 -4.20384 2.31449 -4.20384 2.31633C -4.20384 2.31817 -4.20384 2.32001 -4.20384 2.32186C -4.20384 2.3237 -4.20384 2.32554 -4.20384 2.32738C -4.20384 2.32922 -4.20384 2.33107 -4.20384 2.33291C -4.20384 2.33475 -4.20384 2.3366 -4.20384 2.33844C -4.20384 2.34029 -4.20384 2.34213 -4.20384 2.34397C -4.20384 2.34582 -4.20384 2.34766 -4.20384 2.34951C -4.20384 2.35135 -4.20384 2.3532 -4.20384 2.35505C -4.20384 2.35689 -4.20384 2.35874 -4.20384 2.36059C -4.20384 2.36243 -4.20384 2.36428 -4.20384 2.36613C -4.20384 2.36797 -4.20384 2.36982 -4.20384 2.37167C -4.20384 2.37352 -4.20384 2.37537 -4.20384 2.37722C -4.20384 2.37907 -4.20384 2.38092 -4.20384 2.38277C -4.20384 2.38461 -4.20384 2.38647 -4.20384 2.38832C -4.20384 2.39017 -4.20384 2.39202 -4.20384 2.39387C -4.20384 2.39572 -4.20384 2.39757 -4.20384 2.39942C -4.20384 2.40128 -4.20384 2.40313 -4.20384 2.40498C -4.20384 2.40683 -4.20384 2.40869 -4.20384 2.41054C -4.20384 2.41239 -4.20384 2.41425 -4.20384 2.4161C -4.20384 2.41796 -4.20384 2.41981 -4.20384 2.42167C -4.20384 2.42352 -4.20384 2.42538 -4.20384 2.42723C -4.20384 2.42909 -4.20384 2.43095 -4.20384 2.4328C -4.20384 2.43466 -4.20384 2.43652 -4.20384 2.43837C -4.20384 2.44023 -4.20384 2.44209 -4.20384 2.44395C -4.20384 2.44581 -4.20384 2.44767 -4.20384 2.44953C -4.20384 2.45138 -4.20384 2.45324 -4.20384 2.4551C -4.20384 2.45696 -4.20384 2.45882 -4.20384 2.46069C -4.20384 2.46255 -4.20384 2.46441 -4.20384 2.46627C -4.20384 2.46813 -4.20384 2.46999 -4.20384 2.47185C -4.20384 2.47372 -4.20384 2.47558 -4.20384 2.47744C -4.20384 2.47931 -4.20384 2.48117 -4.20384 2.48303C -4.20384 2.4849 -4.20384 2.48676 -4.20384 2.48863C -4.20384 2.49049 -4.20384 2.49236 -4.20384 2.49422C -4.20384 2.49609 -4.20384 2.49796 -4.20384 2.49982C -4.20384 2.50169 -4.20384 2.50356 -4.20384 2.50542C -4.20384 2.50729 -4.20384 2.50916 -4.20384 2.51103C -4.20384 2.5129 -4.20384 2.51476 -4.20384 2.51663C -4.20384 2.5185 -4.20384 2.52037 -4.20384 2.52224C -4.20384 2.52411 -4.20384 2.52598 -4.20384 2.52785C -4.20384 2.52972 -4.20384 2.5316 -4.20384 2.53347C -4.20384 2.53534 -4.20384 2.53721 -4.20384 2.53908C -4.20384 2.54096 -4.20384 2.54283 -4.20384 2.5447C -4.20384 2.54658 -4.20384 2.54845 -4.20384 2.55033C -4.20384 2.5522 -4.20384 2.55407 -4.20384 2.55595C -4.20384 2.55783 -4.20384 2.5597 -4.20384 2.56158C -4.20384 2.56345 -4.20384 2.56533 -4.20384 2.56721C -4.20384 2.56908 -4.20384 2.57096 -4.20384 2.57284C -4.20384 2.57472 -4.20384 2.5766 -4.20384 2.57847C -4.20384 2.58035 -4.20384 2.58223 -4.20384 2.58411C -4.20384 2.58599 -4.20384 2.58787 -4.20384 2.58975C -4.20384 2.59163 -4.20384 2.59352 -4.20384 2.5954C -4.20384 2.59728 -4.20384 2.59916 -4.20384 2.60104C -4.20384 2.60293 -4.20384 2.60481 -4.20384 2.60669C -4.20384 2.60858 -4.20384 2.61046 -4.20384 2.61234C -4.20384 2.61423 -4.20384 2.61611 -4.20384 2.618C -4.20384 2.61988 -4.20384 2.62177 -4.20384 2.62366C -4.20384 2.62554 -4.20384 2.62743 -4.20384 2.62932C -4.20384 2.6312 -4.20384 2.63309 -4.20384 2.63498C -4.20384 2.63687 -4.20384 2.63875 -4.20384 2.64064C -4.20384 2.64253 -4.20384 2.64442 -4.20384 2.64631C -4.20384 2.6482 -4.20384 2.65009 -4.20384 2.65198C -4.20384 2.65387 -4.20384 2.65577 -4.20384 2.65766C -4.20384 2.65955 -4.20384 2.66144 -4.20384 2.66334C -4.20384 2.66523 -4.20384 2.66712 -4.20384 2.66902C -4.20384 2.67091 -4.20384 2.6728 -4.20384 2.6747C -4.20384 2.67659 -4.20384 2.67849 -4.20384 2.68038C -4.20384 2.68228 -4.20384 2.68418 -4.20384 2.68607C -4.20384 2.68797 -4.20384 2.68987 -4.20384 2.69176C -4.20384 2.69366 -4.20384 2.69556 -4.20384 2.69746C -4.20384 2.69936 -4.20384 2.70126 -4.20384 2.70316C -4.20384 2.70506 -4.20384 2.70696 -4.20384 2.70886C -4.20384 2.71076 -4.20384 2.71266 -4.20384 2.71456C -4.20384 2.71646 -4.20384 2.71837 -4.20384 2.72027C -4.20384 2.72217 -4.20384 2.72407 -4.20384 2.72598C -4.20384 2.72788 -4.20384 2.72979 -4.20384 2.73169C -4.20384 2.7336 -4.20384 2.7355 -4.20384 2.73741C -4.20384 2.73931 -4.20384 2.74122 -4.20384 2.74313C -4.20384 2.74503 -4.20384 2.74694 -4.20384 2.74885C -4.20384 2.75076 -4.20384 2.75266 -4.20384 2.75457C -4.20384 2.75648 -4.20384 2.75839 -4.20384 2.7603C -4.20384 2.76221 -4.20384 2.76412 -4.20384 2.76603C -4.20384 2.76794 -4.20384 2.76985 -4.20384 2.77177C -4.20384 2.77368 -4.20384 2.77559 -4.20384 2.7775C -4.20384 2.77942 -4.20384 2.78133 -4.20384 2.78324C -4.20384 2.78516 -4.20384 2.78707 -4.20384 2.78899C -4.20384 2.7909 -4.20384 2.79282 -4.20384 2.79474C -4.20384 2.79665 -4.20384 2.79857 -4.20384 2.80049C -4.20384 2.8024 -4.20384 2.80432 -4.20384 2.80624L 4.20384 2.80624Z"/>
<path id="path3_fill" d="M 200.964 110.009C 200.964 110.009 229.233 79.4206 236.37 74.9306C 245.187 69.3181 249.105 79.5609 244.487 86.8572C 218.877 127.267 201.664 155.891 201.664 155.891L 201.944 156.873C 201.944 156.873 200.964 190.408 199.985 202.053C 197.606 226.608 191.028 261.125 186.69 261.125C 173.955 261.125 180.393 239.376 167.938 224.223C 159.821 214.261 146.946 211.454 127.774 212.016C 110.281 212.437 93.3473 211.174 81.8719 225.205C 71.0962 238.394 79.073 261.125 67.7375 261.125C 62.6995 261.125 56.2621 223.942 54.5828 203.036C 53.3233 187.18 52.6236 169.641 52.4836 153.365L 53.1833 152.944C 38.3492 126.285 15.9581 99.4853 3.08328 87.1378C 3.08328 87.1378 -5.45332 81.1044 5.88216 76.895C 17.2176 72.6856 43.5272 96.8193 51.9238 106.922C 51.9238 59.2156 73.1953 -0.557326 130.293 0.003923C 193.128 0.705484 199.845 97.2403 200.685 109.167"/>
<path id="path4_stroke" d="M 198.392 107.631C 197.079 109.052 197.166 111.268 198.587 112.581C 200.008 113.895 202.224 113.807 203.537 112.386L 198.392 107.631ZM 236.37 74.9306L 238.236 77.8959C 238.241 77.8925 238.246 77.8892 238.252 77.8858L 236.37 74.9306ZM 244.487 86.8572L 247.446 88.7324L 247.447 88.7308L 244.487 86.8572ZM 201.664 155.891L 198.662 154.085C 198.162 154.917 198.029 155.918 198.295 156.851L 201.664 155.891ZM 201.944 156.873L 205.446 156.975C 205.456 156.616 205.412 156.258 205.313 155.913L 201.944 156.873ZM 199.985 202.053L 203.472 202.391C 203.473 202.377 203.474 202.362 203.476 202.347L 199.985 202.053ZM 167.938 224.223L 165.222 226.436C 165.225 226.439 165.228 226.443 165.231 226.447L 167.938 224.223ZM 127.774 212.016L 127.858 215.518C 127.864 215.518 127.87 215.518 127.876 215.517L 127.774 212.016ZM 81.8719 225.205L 79.1601 222.987L 79.159 222.989L 81.8719 225.205ZM 54.5828 203.036L 51.0906 203.313L 51.0908 203.316L 54.5828 203.036ZM 52.4836 153.365L 50.6777 150.363C 49.6153 151.002 48.9699 152.155 48.9805 153.395L 52.4836 153.365ZM 53.1833 152.944L 54.9892 155.946C 56.6076 154.972 57.1629 152.891 56.2445 151.241L 53.1833 152.944ZM 3.08328 87.1378L 5.50809 84.6094C 5.38225 84.4887 5.24759 84.3776 5.10521 84.277L 3.08328 87.1378ZM 51.9238 106.922L 49.2297 109.161C 50.173 110.296 51.7263 110.718 53.1143 110.217C 54.5022 109.715 55.427 108.398 55.427 106.922L 51.9238 106.922ZM 130.293 0.003923L 130.332 -3.49906L 130.327 -3.49911L 130.293 0.003923ZM 197.19 109.413C 197.326 111.343 199.001 112.797 200.931 112.661C 202.861 112.525 204.315 110.851 204.179 108.921L 197.19 109.413ZM 200.964 110.009C 203.537 112.386 203.537 112.386 203.537 112.386C 203.538 112.386 203.538 112.386 203.538 112.385C 203.539 112.384 203.54 112.383 203.542 112.381C 203.545 112.378 203.55 112.372 203.557 112.365C 203.57 112.351 203.59 112.329 203.617 112.301C 203.67 112.243 203.749 112.158 203.852 112.046C 204.06 111.823 204.365 111.494 204.757 111.073C 205.541 110.231 206.669 109.023 208.045 107.559C 210.799 104.629 214.543 100.679 218.506 96.5921C 222.473 92.5009 226.642 88.2916 230.25 84.8359C 233.96 81.283 236.807 78.7946 238.236 77.8959L 234.505 71.9654C 232.365 73.3117 229.002 76.3305 225.404 79.7756C 221.705 83.318 217.468 87.5976 213.476 91.7147C 209.48 95.8358 205.71 99.8136 202.941 102.76C 201.555 104.233 200.419 105.45 199.629 106.298C 199.234 106.723 198.925 107.055 198.715 107.282C 198.61 107.395 198.529 107.482 198.475 107.541C 198.448 107.57 198.427 107.593 198.413 107.608C 198.406 107.615 198.401 107.621 198.397 107.625C 198.396 107.627 198.394 107.628 198.393 107.629C 198.393 107.63 198.392 107.63 198.392 107.631C 198.392 107.631 198.392 107.631 200.964 110.009ZM 238.252 77.8858C 239.984 76.783 240.981 76.7728 241.368 76.8447C 241.684 76.9033 242.045 77.0931 242.388 77.7245C 243.181 79.1854 243.284 82.2073 241.527 84.9836L 247.447 88.7308C 250.308 84.2108 250.761 78.4632 248.546 74.3817C 247.384 72.242 245.401 70.4674 242.647 69.956C 239.964 69.4579 237.165 70.272 234.489 71.9754L 238.252 77.8858ZM 241.528 84.9819C 228.713 105.203 217.999 122.475 210.488 134.693C 206.732 140.802 203.777 145.648 201.76 148.968C 200.751 150.628 199.978 151.906 199.456 152.77C 199.195 153.202 198.996 153.53 198.864 153.751C 198.797 153.861 198.747 153.945 198.713 154C 198.696 154.028 198.684 154.049 198.675 154.064C 198.671 154.071 198.668 154.076 198.665 154.08C 198.664 154.082 198.663 154.083 198.663 154.084C 198.663 154.084 198.662 154.085 198.662 154.085C 198.662 154.085 198.662 154.085 201.664 155.891C 204.666 157.696 204.666 157.696 204.666 157.696C 204.667 157.696 204.667 157.695 204.667 157.695C 204.667 157.694 204.668 157.693 204.669 157.691C 204.671 157.688 204.674 157.683 204.678 157.676C 204.687 157.662 204.699 157.642 204.716 157.614C 204.749 157.56 204.798 157.477 204.864 157.368C 204.996 157.15 205.192 156.823 205.452 156.394C 205.971 155.534 206.742 154.261 207.748 152.606C 209.759 149.296 212.708 144.46 216.456 138.362C 223.954 126.166 234.651 108.922 247.446 88.7324L 241.528 84.9819ZM 198.295 156.851L 198.575 157.833L 205.313 155.913L 205.033 154.931L 198.295 156.851ZM 201.944 156.873C 198.442 156.771 198.442 156.771 198.442 156.771C 198.442 156.771 198.442 156.772 198.442 156.772C 198.442 156.773 198.442 156.775 198.442 156.776C 198.442 156.78 198.442 156.786 198.442 156.794C 198.441 156.81 198.441 156.834 198.44 156.866C 198.438 156.93 198.435 157.024 198.431 157.148C 198.424 157.396 198.413 157.761 198.399 158.23C 198.37 159.168 198.328 160.521 198.274 162.182C 198.167 165.504 198.014 170.053 197.831 174.965C 197.463 184.825 196.976 196.034 196.494 201.76L 203.476 202.347C 203.974 196.427 204.466 185.045 204.833 175.227C 205.017 170.299 205.17 165.737 205.277 162.407C 205.331 160.742 205.373 159.385 205.402 158.444C 205.416 157.973 205.427 157.606 205.434 157.357C 205.438 157.232 205.441 157.137 205.443 157.073C 205.444 157.041 205.445 157.016 205.445 157C 205.445 156.992 205.445 156.986 205.446 156.982C 205.446 156.98 205.446 156.978 205.446 156.977C 205.446 156.976 205.446 156.976 205.446 156.976C 205.446 156.975 205.446 156.975 201.944 156.873ZM 196.498 201.716C 195.32 213.87 193.1 228.507 190.645 240.07C 189.414 245.867 188.147 250.781 186.956 254.193C 186.352 255.923 185.824 257.099 185.412 257.781C 185.202 258.128 185.114 258.191 185.182 258.129C 185.234 258.082 185.758 257.622 186.69 257.622L 186.69 264.628C 188.165 264.628 189.248 263.898 189.874 263.333C 190.517 262.754 191.017 262.051 191.407 261.406C 192.194 260.105 192.911 258.393 193.57 256.503C 194.907 252.676 196.246 247.426 197.499 241.525C 200.012 229.69 202.27 214.791 203.472 202.391L 196.498 201.716ZM 186.69 257.622C 185.615 257.622 184.954 257.398 184.508 257.137C 184.052 256.871 183.596 256.433 183.133 255.672C 182.113 253.991 181.427 251.4 180.637 247.637C 179.152 240.561 177.528 230.374 170.644 221.998L 165.231 226.447C 170.803 233.226 172.187 241.489 173.78 249.076C 174.53 252.645 175.401 256.437 177.145 259.308C 178.064 260.823 179.291 262.202 180.97 263.185C 182.658 264.172 184.582 264.628 186.69 264.628L 186.69 257.622ZM 170.654 222.01C 161.425 210.683 147.015 207.948 127.671 208.514L 127.876 215.517C 146.877 214.961 158.217 217.838 165.222 226.436L 170.654 222.01ZM 127.689 208.513C 119.202 208.718 110.138 208.504 101.913 210.065C 93.4811 211.665 85.5507 215.173 79.1601 222.987L 84.5837 227.423C 89.6686 221.205 95.9425 218.329 103.219 216.948C 110.703 215.528 118.852 215.735 127.858 215.518L 127.689 208.513ZM 79.159 222.989C 72.9769 230.555 72.267 240.73 71.5306 247.745C 71.1313 251.549 70.7583 254.224 69.9994 255.972C 69.6549 256.766 69.3278 257.121 69.0935 257.292C 68.8974 257.435 68.5356 257.622 67.7375 257.622L 67.7375 264.628C 69.7734 264.628 71.6419 264.105 73.2213 262.953C 74.7626 261.829 75.7562 260.306 76.4263 258.762C 77.6966 255.836 78.1283 252.005 78.4987 248.477C 79.3016 240.829 79.9912 233.044 84.5848 227.421L 79.159 222.989ZM 67.7375 257.622C 68.5478 257.622 69.0071 257.999 69.0553 258.04C 69.1046 258.082 68.9957 257.998 68.7648 257.629C 68.3072 256.897 67.7369 255.647 67.0983 253.828C 65.8378 250.237 64.5456 245.116 63.332 239.215C 60.9114 227.444 58.9027 213.063 58.0747 202.755L 51.0908 203.316C 51.9421 213.914 53.9918 228.579 56.4692 240.626C 57.7047 246.634 59.0714 252.115 60.4874 256.149C 61.187 258.142 61.9593 259.961 62.8246 261.344C 63.2552 262.032 63.8027 262.767 64.5007 263.364C 65.1975 263.96 66.2975 264.628 67.7375 264.628L 67.7375 257.622ZM 58.075 202.758C 56.8228 186.996 56.126 169.54 55.9867 153.335L 48.9805 153.395C 49.1211 169.743 49.8237 187.365 51.0906 203.313L 58.075 202.758ZM 54.2895 156.367L 54.9892 155.946L 51.3774 149.942L 50.6777 150.363L 54.2895 156.367ZM 56.2445 151.241C 41.2247 124.248 18.6102 97.1748 5.50809 84.6094L 0.658466 89.6662C 13.3061 101.796 35.4738 128.322 50.1221 154.648L 56.2445 151.241ZM 3.08328 87.1378C 5.10521 84.277 5.10651 84.2779 5.10779 84.2788C 5.10817 84.2791 5.10941 84.2799 5.11018 84.2805C 5.11172 84.2816 5.11313 84.2826 5.11443 84.2835C 5.11702 84.2854 5.11914 84.2869 5.1208 84.2881C 5.12411 84.2904 5.12559 84.2915 5.12534 84.2913C 5.12482 84.291 5.11746 84.2856 5.10406 84.2754C 5.07708 84.255 5.02684 84.2163 4.9595 84.1611C 4.82249 84.0487 4.62802 83.8793 4.41985 83.6684C 3.95366 83.1961 3.64688 82.7452 3.53583 82.4302C 3.48408 82.2834 3.49349 82.3376 3.55189 82.2524C 3.75488 81.9564 4.56354 81.1216 7.10169 80.1791L 4.66264 73.6109C 1.53304 74.7731 -0.842028 76.271 -2.22654 78.2901C -3.75562 80.5201 -3.73747 82.8719 -3.07201 84.7596C -2.46584 86.4791 -1.34694 87.7997 -0.566755 88.5902C -0.151731 89.0107 0.232158 89.3455 0.517718 89.5796C 0.66166 89.6976 0.783758 89.7925 0.876293 89.8625C 0.922647 89.8976 0.96184 89.9266 0.99293 89.9493C 1.00848 89.9607 1.02204 89.9705 1.03347 89.9787C 1.03919 89.9828 1.04438 89.9865 1.04903 89.9898C 1.05135 89.9915 1.05354 89.9931 1.0556 89.9945C 1.05662 89.9952 1.05806 89.9963 1.05857 89.9966C 1.05997 89.9976 1.06134 89.9986 3.08328 87.1378ZM 7.10169 80.1791C 8.59477 79.6246 11.2633 79.8505 15.2769 81.6012C 19.1192 83.2772 23.4884 86.0392 27.9057 89.3459C 36.7389 95.9583 45.2139 104.329 49.2297 109.161L 54.618 104.683C 50.2371 99.4118 41.359 90.6647 32.1044 83.737C 27.4778 80.2736 22.6194 77.1601 18.0782 75.1792C 13.7082 73.273 8.8373 72.0607 4.66264 73.6109L 7.10169 80.1791ZM 55.427 106.922C 55.427 83.4996 60.6634 57.3025 72.7037 37.16C 84.6578 17.1617 103.201 3.241 130.258 3.50696L 130.327 -3.49911C 100.287 -3.7944 79.6458 11.8908 66.6898 33.5652C 53.82 55.0954 48.4206 82.6378 48.4206 106.922L 55.427 106.922ZM 130.253 3.50691C 159.403 3.83236 175.957 26.2646 185.457 51.6057C 194.903 76.8057 196.772 103.48 197.19 109.413L 204.179 108.921C 203.757 102.927 201.848 75.3707 192.017 49.1463C 182.239 23.063 164.017 -3.12296 130.332 -3.49906L 130.253 3.50691Z"/>
<path id="path5_fill" d="M 21.3645 151.28C 18.9855 158.997 1.77232 131.636 0.512818 122.235C -1.58635 106.38 1.0726 59.3752 41.3765 19.1056C 75.6629 -15.4112 124.783 3.67123 142.276 23.0343C 163.128 46.0455 177.542 92.0679 177.542 112.133C 177.542 123.217 161.169 153.525 155.291 151.28C 142.696 146.369 157.81 96.6982 134.859 62.0411C 122.404 43.2393 110.929 26.4018 100.013 37.4865C 82.6601 55.0255 75.1031 48.7114 41.0967 57.5511C 18.7056 63.4442 25.7028 137.248 21.3645 151.28Z"/>
<path id="path6_stroke" d="M -1.92158 3.68173C -2.39202 4.74299 -1.91305 5.98468 -0.851789 6.45512C 0.209477 6.92555 1.45117 6.44659 1.9216 5.38532L -1.92158 3.68173ZM 12.6947 6.8654C 13.0526 7.96969 14.238 8.57472 15.3423 8.21676C 16.4466 7.85881 17.0516 6.67342 16.6937 5.56913L 12.6947 6.8654ZM 8.54152e-06 4.53352C 1.9216 5.38532 1.92123 5.38617 1.92086 5.38699C 1.92075 5.38724 1.92039 5.38805 1.92016 5.38856C 1.91971 5.38956 1.9193 5.39049 1.91891 5.39136C 1.91814 5.39307 1.9175 5.39451 1.91698 5.39565C 1.91594 5.39794 1.91541 5.3991 1.91538 5.39916C 1.91533 5.39928 1.91729 5.39503 1.92127 5.38673C 1.92927 5.37008 1.94528 5.33741 1.96946 5.29115C 2.01801 5.19825 2.09824 5.0529 2.21104 4.87397C 2.43944 4.51168 2.78534 4.03721 3.25086 3.5838C 4.16259 2.69579 5.46432 1.93626 7.33638 2.13384L 7.7776 -2.04678C 4.33178 -2.41046 1.85502 -0.924987 0.317725 0.572318C -0.441261 1.31156 -0.987505 2.06483 -1.34512 2.6321C -1.52533 2.91796 -1.66158 3.16285 -1.75625 3.344C -1.80368 3.43476 -1.84096 3.51006 -1.86837 3.56714C -1.88208 3.59569 -1.89334 3.61974 -1.9022 3.63894C -1.90662 3.64854 -1.91045 3.65693 -1.91368 3.66408C -1.91529 3.66765 -1.91676 3.67091 -1.91808 3.67385C -1.91873 3.67532 -1.91936 3.67672 -1.91994 3.67803C -1.92023 3.67868 -1.92064 3.67961 -1.92079 3.67994C -1.92119 3.68084 -1.92158 3.68173 8.54152e-06 4.53352ZM 7.33638 2.13384C 9.22492 2.33316 10.5388 3.41842 11.4462 4.6126C 11.8978 5.20679 12.2198 5.79389 12.4276 6.23209C 12.5305 6.44912 12.6027 6.62392 12.6467 6.73711C 12.6687 6.79355 12.6834 6.83417 12.6913 6.85649C 12.6953 6.86764 12.6975 6.87417 12.6981 6.87577C 12.6983 6.87657 12.6982 6.87613 12.6976 6.87442C 12.6973 6.87356 12.6969 6.87239 12.6964 6.87088C 12.6962 6.87013 12.6959 6.8693 12.6956 6.86839C 12.6955 6.86793 12.6952 6.86718 12.6952 6.86696C 12.6949 6.86619 12.6947 6.8654 14.6942 6.21727C 16.6937 5.56913 16.6934 5.5683 16.6931 5.56745C 16.693 5.56713 16.6927 5.56626 16.6925 5.56563C 16.6921 5.56438 16.6917 5.56303 16.6912 5.5616C 16.6903 5.55874 16.6892 5.55553 16.688 5.55197C 16.6857 5.54486 16.6828 5.53636 16.6795 5.52652C 16.6728 5.50685 16.6642 5.4818 16.6535 5.4517C 16.6322 5.39154 16.6027 5.31103 16.5645 5.2129C 16.4883 5.01697 16.3768 4.74891 16.226 4.431C 15.9265 3.79931 15.4614 2.94821 14.7933 2.06912C 13.4617 0.316756 11.2069 -1.68485 7.7776 -2.04678L 7.33638 2.13384Z"/>
<path id="path7_fill" d="M 13.9562 0.00105479C 8.21846 0.00105479 2.34079 8.84072 0.241628 15.5757C -1.57765 21.1882 7.23884 32.6938 14.5159 34.3775C 22.9126 36.3419 31.7291 28.7651 33.6883 22.1704C 36.2073 13.7517 26.971 -0.139257 13.9562 0.00105479Z"/>
<path id="path8_stroke" d="M 13.9562 0.00105479L 13.9562 2.10298L 13.9675 2.10298L 13.9788 2.10285L 13.9562 0.00105479ZM 0.241628 15.5757L 2.24113 16.2238L 2.2448 16.2125L 2.24834 16.2012L 0.241628 15.5757ZM 14.5159 34.3775L 14.9947 32.3309L 14.9898 32.3297L 14.5159 34.3775ZM 33.6883 22.1704L 31.6746 21.5679L 31.6734 21.5718L 33.6883 22.1704ZM 13.9562 -2.10087C 10.0707 -2.10087 6.62162 0.798864 4.09511 3.94721C 1.47417 7.21322 -0.640857 11.3433 -1.76508 14.9503L 2.24834 16.2012C 3.22328 13.0731 5.09666 9.41587 7.37378 6.57831C 9.74531 3.62308 12.104 2.10298 13.9562 2.10298L 13.9562 -2.10087ZM -1.75787 14.9276C -2.41972 16.9694 -2.05133 19.2674 -1.2957 21.3587C -0.522458 23.4988 0.755562 25.7023 2.29569 27.7237C 5.31245 31.6833 9.71362 35.4238 14.0421 36.4254L 14.9898 32.3297C 12.0412 31.6475 8.39553 28.7933 5.63959 25.1761C 4.29337 23.4091 3.25357 21.5786 2.65798 19.9302C 2.04478 18.2331 1.99334 16.9883 2.24113 16.2238L -1.75787 14.9276ZM 14.0371 36.4242C 19.0009 37.5855 23.9146 35.8965 27.7294 33.2C 31.5309 30.513 34.5632 26.6061 35.7032 22.769L 31.6734 21.5718C 30.8542 24.3293 28.4987 27.5082 25.3029 29.7672C 22.1205 32.0167 18.4276 33.134 14.9947 32.3309L 14.0371 36.4242ZM 35.702 22.7729C 37.2322 17.6588 35.153 11.3733 31.2861 6.55969C 27.3583 1.67031 21.2266 -2.17937 13.9335 -2.10074L 13.9788 2.10285C 19.7006 2.04117 24.6945 5.06678 28.0088 9.19247C 31.384 13.3939 32.6634 18.2632 31.6746 21.5679L 35.702 22.7729Z"/>
<path id="path9_fill" d="M 20.1474 0.00105479C 25.8851 0.00105479 31.7627 8.84072 33.8619 15.5757C 35.6812 21.1882 26.8647 32.6938 19.5876 34.3775C 11.1909 36.3419 2.37445 28.7651 0.415232 22.1704C -2.10377 13.7517 7.13255 -0.139257 20.1474 0.00105479Z"/>
<path id="path10_stroke" d="M 20.1474 0.00105479L 20.1247 2.10285L 20.136 2.10298L 20.1474 2.10298L 20.1474 0.00105479ZM 33.8619 15.5757L 31.8552 16.2012L 31.8587 16.2125L 31.8624 16.2238L 33.8619 15.5757ZM 19.5876 34.3775L 19.1138 32.3297L 19.1088 32.3309L 19.5876 34.3775ZM 0.415232 22.1704L 2.43012 21.5718L 2.42894 21.5679L 0.415232 22.1704ZM 20.1474 2.10298C 21.9996 2.10298 24.3582 3.62308 26.7298 6.57831C 29.0069 9.41587 30.8803 13.0731 31.8552 16.2012L 35.8686 14.9503C 34.7444 11.3433 32.6294 7.21322 30.0084 3.94721C 27.4819 0.798865 24.0329 -2.10087 20.1474 -2.10087L 20.1474 2.10298ZM 31.8624 16.2238C 32.1102 16.9883 32.0588 18.2331 31.4456 19.9302C 30.85 21.5786 29.8102 23.4091 28.4639 25.1761C 25.708 28.7933 22.0624 31.6475 19.1138 32.3297L 20.0614 36.4254C 24.3899 35.4238 28.7911 31.6833 31.8078 27.7237C 33.348 25.7023 34.626 23.4988 35.3992 21.3587C 36.1549 19.2674 36.5233 16.9694 35.8614 14.9276L 31.8624 16.2238ZM 19.1088 32.3309C 15.6759 33.134 11.983 32.0167 8.80063 29.7672C 5.60485 27.5082 3.24935 24.3293 2.43011 21.5718L -1.59965 22.769C -0.459666 26.6061 2.57268 30.513 6.37412 33.2C 10.1889 35.8965 15.1026 37.5855 20.0664 36.4242L 19.1088 32.3309ZM 2.42894 21.5679C 1.44016 18.2632 2.71958 13.3939 6.09478 9.19247C 9.40908 5.06678 14.403 2.04117 20.1247 2.10285L 20.17 -2.10074C 12.877 -2.17937 6.74527 1.67031 2.81747 6.55969C -1.04946 11.3733 -3.12869 17.6588 -1.59848 22.7729L 2.42894 21.5679Z"/>
<path id="path11_stroke" d="M 4.27076e-06 1.96437L -0.131454 -0.133436C -0.914378 -0.0843749 -1.60483 0.396584 -1.92221 1.11397C -2.23959 1.83136 -2.13107 2.66579 -1.64075 3.27814L 4.27076e-06 1.96437ZM 31.3475 -2.14099e-06L 32.9811 1.32263C 33.5059 0.674433 33.5979 -0.222743 33.2154 -0.963898C 32.8329 -1.70505 32.0484 -2.14997 31.2161 -2.09781L 31.3475 -2.14099e-06ZM 4.27076e-06 1.96437C -1.64075 3.27814 -1.64045 3.27852 -1.64012 3.27893C -1.63997 3.27912 -1.63961 3.27957 -1.63931 3.27994C -1.6387 3.2807 -1.63798 3.2816 -1.63713 3.28266C -1.63543 3.28477 -1.63324 3.28749 -1.63057 3.2908C -1.62523 3.29742 -1.61796 3.30643 -1.60878 3.31773C -1.59043 3.34033 -1.56447 3.37215 -1.53118 3.41258C -1.4646 3.49341 -1.36862 3.60873 -1.24548 3.75362C -0.999345 4.04324 -0.643843 4.45197 -0.196867 4.94024C 0.694501 5.91395 1.96244 7.21799 3.46283 8.52852C 4.95671 9.83336 6.72435 11.1829 8.61679 12.2152C 10.4913 13.2377 12.6323 14.0285 14.8341 14.0285L 14.8341 9.82461C 13.6072 9.82461 12.1797 9.3701 10.6299 8.52471C 9.09809 7.68911 7.58579 6.54808 6.22831 5.36238C 4.87734 4.18237 3.72249 2.99587 2.90392 2.10168C 2.49592 1.65599 2.17467 1.28643 1.95778 1.03124C 1.84942 0.903728 1.76732 0.80502 1.7137 0.739922C 1.6869 0.70738 1.66723 0.683261 1.65498 0.668168C 1.64885 0.660622 1.64458 0.655334 1.6422 0.65238C 1.64101 0.650903 1.64029 0.65001 1.64005 0.64971C 1.63993 0.64956 1.63993 0.649558 1.64004 0.649706C 1.6401 0.64978 1.64028 0.650004 1.64031 0.65004C 1.64052 0.650301 1.64076 0.650599 4.27076e-06 1.96437ZM 14.8341 14.0285C 17.1082 14.0285 19.3904 13.0605 21.3861 11.8669C 23.4212 10.6498 25.3868 9.05843 27.0782 7.51671C 28.7776 5.96779 30.2472 4.42572 31.2897 3.27433C 31.8122 2.69724 32.2306 2.21489 32.5202 1.87443C 32.6651 1.70412 32.7779 1.5691 32.8557 1.47522C 32.8946 1.42828 32.9248 1.39161 32.9458 1.36594C 32.9563 1.3531 32.9646 1.34301 32.9705 1.33577C 32.9734 1.33214 32.9758 1.32923 32.9776 1.32704C 32.9785 1.32594 32.9792 1.32502 32.9798 1.32429C 32.9801 1.32392 32.9804 1.32351 32.9806 1.32333C 32.9809 1.32296 32.9811 1.32263 31.3475 -2.14099e-06C 29.7139 -1.32264 29.7141 -1.32287 29.7142 -1.32306C 29.7142 -1.32306 29.7143 -1.3232 29.7144 -1.32321C 29.7144 -1.32322 29.7142 -1.32304 29.7139 -1.3227C 29.7134 -1.322 29.7122 -1.32059 29.7105 -1.31848C 29.7071 -1.31426 29.7014 -1.30724 29.6934 -1.29751C 29.6774 -1.27805 29.6525 -1.24776 29.6191 -1.20735C 29.5521 -1.12651 29.4508 -1.00531 29.3182 -0.849495C 29.053 -0.537722 28.6634 -0.0883124 28.1735 0.452711C 27.1912 1.53754 25.8182 2.97711 24.2463 4.40982C 22.6666 5.84973 20.9324 7.24 19.2284 8.25909C 17.4849 9.30177 15.9886 9.82461 14.8341 9.82461L 14.8341 14.0285ZM 31.2161 -2.09781L -0.131454 -0.133436L 0.131462 4.06218L 31.479 2.0978L 31.2161 -2.09781Z"/>
<path id="path12_fill" d="M 8.817 0L 4.271e-06 0L 4.271e-06 14.8722L 8.817 14.8722L 8.817 0Z"/>
<path id="path13_fill" d="M 8.82386 0L -2.13717e-06 0L -2.13717e-06 14.8607L 8.82386 14.8607L 8.82386 0Z"/>
<path id="path14_fill" d="M 8.81954 0L 4.27223e-06 0L 4.27223e-06 14.868L 8.81954 14.868L 8.81954 0Z"/>
<path id="path15_fill" d="M 8.81954 0L -2.13612e-06 0L -2.13612e-06 14.868L 8.81954 14.868L 8.81954 0Z"/>
<path id="path16_fill" d="M 8.83039 0L 8.555e-06 0L 8.555e-06 14.8497L 8.83039 14.8497L 8.83039 0Z"/>
<path id="path17_fill" d="M 8.82808 0L 8.55276e-06 0L 8.55276e-06 14.8536L 8.82808 14.8536L 8.82808 0Z"/>
<path id="path18_fill" d="M 8.81947 0L 0 0L 0 14.8681L 8.81947 14.8681L 8.81947 0Z"/>
<path id="path19_fill" d="M 8.81953 0L 0 0L 0 14.868L 8.81953 14.868L 8.81953 0Z"/>
<path id="path20_fill" d="M 8.82808 0L 0 0L 0 14.8536L 8.82808 14.8536L 8.82808 0Z"/>
</defs>
</svg>
