<svg width="403" height="1065" viewBox="0 0 403 1065" version="1.1" xmlns="http://www.w3.org/2000/svg" xmlns:xlink="http://www.w3.org/1999/xlink">
<g id="Canvas" fill="none">
<g id="comic-self_diagram">
<g id="Vector">
<path d="M 151.389 68.7379C 235 68.7379 302.779 53.3504 302.779 34.369C 302.779 15.3875 235 1.50915e-05 151.389 1.50915e-05C 67.7794 1.50915e-05 3.77454e-06 15.3875 3.77454e-06 34.369C 3.77454e-06 53.3504 67.7794 68.7379 151.389 68.7379Z" transform="translate(87 995.824)" fill="#6BDBDB"/>
</g>
<g id="Vector_2">
<path d="M 99.8007 6.50627L 64.1796 4.52819L 10.9954 1.06659C 10.9954 1.06659 0.85329 -1.15876 0.111184 0.819311C -0.630921 2.79738 2.58487 11.946 2.58487 11.946L 56.0164 37.9081L 91.8849 47.304L 114.148 54.7217L 99.8007 6.50627Z" transform="translate(6.7373 267.703)" fill="#FBF2DB"/>
</g>
<g id="Vector_3">
<path d="M 99.8006 6.50627L 64.1796 4.52819L 10.9954 1.06659C 10.9954 1.06659 0.853292 -1.15876 0.111187 0.819311C -0.630918 2.79738 2.58487 11.946 2.58487 11.946L 56.0164 37.9081L 91.8849 47.304L 114.148 54.7217L 99.8006 6.50627Z" transform="translate(244.953 272.647)" fill="#FBF2DB"/>
</g>
<g id="Vector_4">
<path d="M 8.90527 48.71L 158.316 0L 271.611 79.6173L 293.549 274.878L 225.847 328.607L 48.4842 267.287L 0 261.847L 8.90527 48.71Z" transform="translate(87.2422 159.232)" fill="#FBF2DB"/>
</g>
<g id="Vector_5">
<path d="M 19.2947 31.2879C 55.9053 45.1344 90.2895 58.7336 106.863 29.3098C 123.437 -0.11395 165.489 -11.9824 181.816 15.4634C 198.389 42.9091 232.774 92.8554 254.295 68.8713C 275.816 44.8871 303.768 31.0406 303.768 31.0406L 326.279 235.029L 161.284 264.947L 95.2368 235.276L 0 248.134L 3.21579 202.886L 19.2947 31.2879Z" transform="translate(70.915 377.677)" fill="#63BBD0"/>
</g>
<g id="Vector_6">
<path d="M 10.1421 156.748C 10.1421 156.748 1.73158 97.159 13.3579 97.4063C 71.4895 98.148 58.6263 69.7133 114.284 15.8109C 176.126 -44.273 219.168 84.5488 247.121 108.533C 275.074 132.517 333.7 103.835 329.989 122.379C 326.279 141.171 329.247 173.067 329.247 173.067L 329.495 244.525L 189.732 254.663L 94.4947 228.701L 0 299.417L 1.97895 207.189L 6.92631 166.391" transform="translate(65.9678 463.128)" fill="#DC9AB7"/>
</g>
<g id="Vector_7">
<path d="M 10.3895 58.8706C 10.3895 58.8706 32.1579 7.93521 90.0421 1.25922C 147.926 -5.41677 116.263 13.375 152.626 83.5965C 188.989 153.818 190.721 59.6123 218.674 83.5965C 246.626 107.581 332.463 108.817 336.668 115.74C 339.142 119.943 333.453 173.351 324.3 213.655C 318.363 239.617 308.221 259.645 308.221 259.645L 202.1 231.457L 137.537 242.337L 86.8263 259.892L 39.3316 259.892L 1.88727e-06 238.875L 6.92632 57.6343" transform="translate(62.752 579.301)" fill="#FFDC00"/>
</g>
<g id="Vector_8">
<path d="M 1.48422 53.7941C 33.1474 -6.78431 75.2 -6.2898 86.8263 7.80395C 98.4526 21.8977 161.284 94.3445 189.979 65.9098C 218.674 37.475 215.705 80.4981 242.668 92.3665C 269.137 103.988 310.695 112.147 310.695 112.147L 266.168 160.363L 249.347 190.034L 249.347 207.836L 254.295 230.09L 267.158 255.31L 252.811 252.837L 233.763 244.925L 220.653 234.293L 203.337 209.32L 187.753 164.813L 173.158 153.192L 121.705 155.665L 87.0737 147.011C 87.0737 147.011 72.3358 192.264 75.8215 211.177C 79.3072 230.09 102.411 244.925 102.411 244.925L 59.1211 242.452L 34.3842 218.221L 18.3053 191.023L 0 113.631" transform="translate(66.71 722.35)" fill="#EE4444"/>
</g>
<g id="Vector_9">
<path d="M -3.77454e-06 195.829C -3.77454e-06 195.829 47.2474 256.16 107.111 257.644C 187.505 259.622 261.716 197.312 261.716 197.312C 261.716 197.312 247.368 67.0071 232.526 58.1058C 217.684 49.2045 143.226 -9.43217e-07 143.226 -9.43217e-07L 47 32.1436L 6.92632 109.536L -3.77454e-06 195.829Z" transform="translate(97.1367 41.5381)" fill="#F29BC0"/>
</g>
<g id="Vector_10">
<path d="M 96.3454 7.10869L 60.7244 5.13061L 38.4612 1.669C 38.4612 1.669 0.861205 -1.2981 0.1191 0.679965C -0.623006 2.65804 2.34542 11.8066 2.34542 11.8066L 52.8086 38.5105L 88.677 47.9064L 110.94 55.3242L 96.3454 7.10869Z" transform="translate(246.674 272.043)" fill="#FBF2DB"/>
</g>
<g id="Group">
<g id="Group_2">
<g id="Vector_11">
<path d="M 4.94737 243.213C 2.22631 243.213 0.98947 243.213 0.742101 242.966C 0.494733 242.966 0.742101 242.966 0.742101 242.719L 0.742101 242.471L 0.742101 241.977L 0.742101 240.741L 0.742101 238.515L 0.494737 234.065L 0.247372 224.916C 3.77823e-06 218.735 -1.88727e-06 212.8 -1.88727e-06 206.619C -1.88727e-06 194.503 0.494741 182.388 1.48421 170.025C 3.46316 145.546 7.17369 121.315 14.5947 97.0833C 18.3053 84.9676 23.2526 73.3464 29.6842 61.9725C 36.1158 50.5986 43.7842 39.9665 53.4316 30.5706C 63.0789 21.1748 74.9526 13.757 87.5684 8.56461C 94 6.09202 100.432 4.11396 107.111 2.87766L 112.058 2.13589L 117.005 1.39411L 121.953 0.899593L 126.653 0.652334C 139.021 -0.0894427 151.637 -0.336701 164.253 0.652334C 177.116 1.64137 190.226 3.8667 203.337 9.05913C 209.768 11.5317 216.2 15.2406 221.889 19.6913C 227.579 24.1419 232.526 29.3344 236.732 35.0213C 245.142 46.1479 250.089 58.5109 254.295 70.3793C 258.253 82.2477 261.468 94.1162 264.189 105.985L 268.147 123.54L 270.126 132.689C 270.868 136.15 271.116 139.117 271.363 142.332C 272.353 154.695 272.6 166.81 272.6 178.926C 272.6 185.107 272.353 191.042 272.353 196.976C 272.105 202.91 271.858 209.091 271.611 215.026L 264.437 215.273C 263.942 209.339 263.2 203.405 262.458 197.47C 261.716 191.536 261.221 185.602 260.479 179.668C 258.995 167.799 257.511 155.931 255.284 144.557C 254.789 141.837 254.047 138.87 253.553 136.397L 253.058 134.667L 252.316 132.441L 250.832 128.238L 245.142 111.177C 241.432 99.8031 237.721 88.6765 233.268 78.0443C 228.816 67.4122 223.868 57.5219 217.684 49.8568C 211.253 41.9446 203.584 36.5049 194.184 33.0432C 184.784 29.3344 173.9 27.8508 162.768 27.109C 151.637 26.3672 140.011 26.8618 128.384 27.3563L 123.932 27.6035L 119.974 27.8508L 116.016 28.3453L 112.058 29.0871C 106.863 30.0761 101.916 31.5597 96.9684 33.2905C 87.321 36.9994 78.4158 42.4391 70.5 49.3623C 62.5842 56.2856 55.6579 64.6924 49.7211 74.0882C 43.7842 83.484 39.0842 93.8689 34.6316 104.254C 25.9737 125.518 20.5316 148.513 16.5737 171.755C 14.5947 183.377 13.1105 195.245 12.1211 207.113C 11.6263 213.048 11.1316 218.982 10.6368 224.916L 10.1421 233.817L 9.89473 238.268L 9.89473 240.493L 9.89473 241.73L 9.89473 242.224L 9.89473 242.471C 9.89473 242.471 9.89473 242.471 9.89473 242.719C 8.65789 243.213 7.66842 243.213 4.94737 243.213Z" transform="translate(92.6855 29.0176)" fill="#231F20"/>
</g>
</g>
<g id="Vector_12">
<path d="M 87.1731 555.59C 60.7047 617.405 91.3784 638.422 101.273 647.076C 79.01 653.258 40.9153 651.774 12.9626 579.575C -18.7005 497.485 15.931 188.906 29.2889 -7.54574e-06" stroke-width="9.89254" stroke-miterlimit="10" stroke-linecap="round" stroke-linejoin="round" transform="translate(65.6221 320.447)" stroke="#231F20"/>
</g>
<g id="Vector_13">
<path d="M 214.221 3.77287e-06C 234.258 203.247 294.121 546.442 207.295 616.416C 149.658 662.901 173.9 702.215 194.184 723.974C 197.4 727.435 136.3 732.628 121.211 673.286C 116.758 655.483 113.295 623.339 84.8474 625.812C 63.5737 627.543 35.1263 633.971 -3.77454e-06 612.954" stroke-width="9.89254" stroke-miterlimit="10" stroke-linecap="round" transform="translate(144.138 250.472)" stroke="#231F20"/>
</g>
</g>
<g id="Vector_14">
<path d="M 57.9109 275.43C 59.3951 289.523 -1.45749 261.089 0.026717 244.275C 2.5004 213.862 -3.93118 104.079 67.0636 32.8687C 127.669 -27.7097 233.048 7.64835 263.969 41.7701C 300.827 82.3205 332.242 203.725 316.658 244.522C 312.7 254.66 242.695 292.243 238.985 278.891C 232.553 255.896 272.874 169.85 232.306 108.777C 210.29 75.6445 193.964 60.3145 174.669 79.8479C 143.995 110.755 130.885 99.6286 73.0004 121.882C 41.3372 133.998 55.1899 249.467 57.9109 275.43Z" transform="translate(65.6943 0.261719)" fill="#231F20"/>
</g>
<g id="Vector_15">
<path d="M -3.77454e-06 6.72813C -3.77454e-06 6.72813 3.46315 -0.689635 11.1316 0.0521411C 19.0474 0.793918 21.7684 9.20072 21.7684 9.20072" stroke-width="7.41941" stroke-miterlimit="10" stroke-linecap="round" stroke-linejoin="round" transform="translate(191.137 135.196)" stroke="#231F20"/>
</g>
<g id="Vector_16">
<path d="M 20.6476 0.00221753C 12.237 0.00221753 3.57913 13.1069 0.363338 22.9973C -2.35771 31.4041 10.7528 48.4649 21.3897 50.9375C 33.7581 53.9046 47.116 42.5307 49.837 32.8876C 53.5475 20.2774 39.9423 -0.245041 20.6476 0.00221753Z" transform="translate(213.036 125.603)" fill="white"/>
<path d="M 20.6476 0.00221753C 12.237 0.00221753 3.57913 13.1069 0.363338 22.9973C -2.35771 31.4041 10.7528 48.4649 21.3897 50.9375C 33.7581 53.9046 47.116 42.5307 49.837 32.8876C 53.5475 20.2774 39.9423 -0.245041 20.6476 0.00221753Z" stroke-width="7.41941" stroke-miterlimit="10" transform="translate(213.036 125.603)" stroke="#231F20"/>
</g>
<g id="Vector_17">
<path d="M 29.8009 0.00221753C 38.2115 0.00221753 46.8694 13.1069 50.0851 22.9973C 52.8062 31.4041 39.6957 48.4649 29.0588 50.9375C 16.6904 53.9046 3.33252 42.5307 0.611469 32.8876C -3.09906 20.2774 10.5062 -0.245041 29.8009 0.00221753Z" transform="translate(140.062 125.603)" fill="white"/>
<path d="M 29.8009 0.00221753C 38.2115 0.00221753 46.8694 13.1069 50.0851 22.9973C 52.8062 31.4041 39.6957 48.4649 29.0588 50.9375C 16.6904 53.9046 3.33252 42.5307 0.611469 32.8876C -3.09906 20.2774 10.5062 -0.245041 29.8009 0.00221753Z" stroke-width="7.41941" stroke-miterlimit="10" transform="translate(140.062 125.603)" stroke="#231F20"/>
</g>
<g id="Vector_18">
<path d="M -3.77454e-06 -3.05176e-06L 50.4632 -3.05176e-06" stroke-width="8" stroke-miterlimit="10" stroke-linecap="round" stroke-linejoin="round" transform="translate(171.349 201.761)" stroke="#221F1F"/>
</g>
<g id="Vector_19">
<path d="M 1.46827 0.247255C 1.46827 0.247255 -3.72645 7.91228 5.42618 10.8794C 14.5788 13.8465 31.8946 0 31.8946 0" transform="translate(180.021 202.502)" fill="#EF6696"/>
<path d="M 1.46827 0.247255C 1.46827 0.247255 -3.72645 7.91228 5.42618 10.8794C 14.5788 13.8465 31.8946 0 31.8946 0" stroke-width="5" stroke-miterlimit="10" stroke-linecap="round" stroke-linejoin="round" transform="translate(180.021 202.502)" stroke="#221F1F"/>
</g>
<g id="Vector_20">
<path d="M 5.68947 7.54574e-06L -7.54909e-06 5.43969" stroke-width="1.23657" stroke-miterlimit="10" stroke-linecap="round" stroke-linejoin="round" transform="translate(186.436 203.246)" stroke="#BC5795"/>
</g>
<g id="Vector_21">
<path d="M 88.6732 51.7642C 88.6732 51.7642 60.4732 37.4232 50.5785 33.9616C 18.9153 23.0822 -7.30571 6.02138 1.84692 0.828945C 7.5364 -2.38542 72.5943 4.78508 94.6101 4.78508" stroke-width="8.55878" stroke-miterlimit="10" stroke-linecap="round" stroke-linejoin="round" transform="translate(5 267.938)" stroke="#231F20"/>
</g>
<g id="Vector_22">
<path d="M 88.6733 51.7642C 88.6733 51.7642 60.4732 37.4232 50.5785 33.9616C 18.9153 23.0822 -7.30571 6.02138 1.84692 0.828945C 7.5364 -2.38542 72.5943 4.78508 94.6101 4.78508" stroke-width="8.55878" stroke-miterlimit="10" stroke-linecap="round" stroke-linejoin="round" transform="translate(245.938 272.884)" stroke="#231F20"/>
</g>
</g>
</g>
</svg>

