<svg width="174" height="221" viewBox="0 0 174 221" version="1.1" xmlns="http://www.w3.org/2000/svg" xmlns:xlink="http://www.w3.org/1999/xlink">
<title>comic-self_hi</title>
<desc>Created using Figma</desc>
<g id="Canvas" transform="translate(-11954 -7964)">
<g id="comic-self_hi">
<g id="Vector">
<use xlink:href="#path0_fill" transform="translate(11987.2 8156.62)" fill="#6BDBDB"/>
</g>
<g id="Vector">
<use xlink:href="#path1_fill" transform="translate(11994.4 8087.72)" fill="#FFFFFF"/>
<use xlink:href="#path2_stroke" transform="translate(11994.4 8087.72)" fill="#231F20"/>
</g>
<g id="Vector">
<use xlink:href="#path3_fill" transform="translate(11957 7980.41)" fill="url(#paint3_linear)"/>
<use xlink:href="#path4_stroke" transform="translate(11957 7980.41)" fill="#231F20"/>
</g>
<g id="Vector">
<use xlink:href="#path5_fill" transform="translate(11983.1 7964)" fill="#231F20"/>
</g>
<g id="Group">
<g id="Vector">
<use xlink:href="#path6_stroke" transform="translate(12040.4 8016.69)" fill="#231F20"/>
</g>
<g id="Vector">
<use xlink:href="#path7_fill" transform="translate(12050.9 8012.12)" fill="#FFFFFF"/>
<use xlink:href="#path8_stroke" transform="translate(12050.9 8012.12)" fill="#231F20"/>
</g>
<g id="Vector">
<use xlink:href="#path9_fill" transform="translate(12015.8 8012.12)" fill="#FFFFFF"/>
<use xlink:href="#path10_stroke" transform="translate(12015.8 8012.12)" fill="#231F20"/>
</g>
<g id="Vector">
<use xlink:href="#path11_stroke" transform="translate(12040 8048.52)" fill="#231F20"/>
</g>
</g>
</g>
</g>
<defs>
<linearGradient id="paint3_linear" x1="0" y1="0" x2="1" y2="0" gradientUnits="userSpaceOnUse" gradientTransform="matrix(0 -186.082 186.082 0 -9.02553 186.107)">
<stop offset="0" stop-color="#FFFFFF"/>
<stop offset="1" stop-color="#F29ABF"/>
</linearGradient>
<path id="path0_fill" d="M 61.2 27.8C 94.9998 27.8 122.4 21.5768 122.4 13.9C 122.4 6.22325 94.9998 -3.05176e-06 61.2 -3.05176e-06C 27.4002 -3.05176e-06 0 6.22325 0 13.9C 0 21.5768 27.4002 27.8 61.2 27.8Z"/>
<path id="path1_fill" d="M 1.52588e-06 2C 1.52588e-06 1.3 1.52588e-06 0.700003 1.52588e-06 3.05176e-06L 1.52588e-06 2Z"/>
<path id="path2_stroke" d="M 3 2C 3 1.99864 3 1.99727 3 1.9959C 3 1.99454 3 1.99317 3 1.9918C 3 1.99044 3 1.98907 3 1.98771C 3 1.98634 3 1.98498 3 1.98362C 3 1.98225 3 1.98089 3 1.97952C 3 1.97816 3 1.9768 3 1.97543C 3 1.97407 3 1.97271 3 1.97135C 3 1.96999 3 1.96862 3 1.96726C 3 1.9659 3 1.96454 3 1.96318C 3 1.96182 3 1.96046 3 1.9591C 3 1.95774 3 1.95638 3 1.95502C 3 1.95366 3 1.9523 3 1.95095C 3 1.94959 3 1.94823 3 1.94687C 3 1.94552 3 1.94416 3 1.9428C 3 1.94144 3 1.94009 3 1.93873C 3 1.93738 3 1.93602 3 1.93466C 3 1.93331 3 1.93195 3 1.9306C 3 1.92925 3 1.92789 3 1.92654C 3 1.92518 3 1.92383 3 1.92248C 3 1.92112 3 1.91977 3 1.91842C 3 1.91707 3 1.91571 3 1.91436C 3 1.91301 3 1.91166 3 1.91031C 3 1.90896 3 1.9076 3 1.90625C 3 1.9049 3 1.90355 3 1.9022C 3 1.90085 3 1.89951 3 1.89816C 3 1.89681 3 1.89546 3 1.89411C 3 1.89276 3 1.89141 3 1.89007C 3 1.88872 3 1.88737 3 1.88602C 3 1.88468 3 1.88333 3 1.88198C 3 1.88064 3 1.87929 3 1.87795C 3 1.8766 3 1.87525 3 1.87391C 3 1.87257 3 1.87122 3 1.86988C 3 1.86853 3 1.86719 3 1.86584C 3 1.8645 3 1.86316 3 1.86181C 3 1.86047 3 1.85913 3 1.85779C 3 1.85644 3 1.8551 3 1.85376C 3 1.85242 3 1.85108 3 1.84974C 3 1.8484 3 1.84705 3 1.84571C 3 1.84437 3 1.84303 3 1.84169C 3 1.84035 3 1.83902 3 1.83768C 3 1.83634 3 1.835 3 1.83366C 3 1.83232 3 1.83098 3 1.82965C 3 1.82831 3 1.82697 3 1.82563C 3 1.8243 3 1.82296 3 1.82162C 3 1.82029 3 1.81895 3 1.81761C 3 1.81628 3 1.81494 3 1.81361C 3 1.81227 3 1.81094 3 1.8096C 3 1.80827 3 1.80693 3 1.8056C 3 1.80427 3 1.80293 3 1.8016C 3 1.80027 3 1.79893 3 1.7976C 3 1.79627 3 1.79493 3 1.7936C 3 1.79227 3 1.79094 3 1.78961C 3 1.78828 3 1.78694 3 1.78561C 3 1.78428 3 1.78295 3 1.78162C 3 1.78029 3 1.77896 3 1.77763C 3 1.7763 3 1.77497 3 1.77364C 3 1.77231 3 1.77098 3 1.76966C 3 1.76833 3 1.767 3 1.76567C 3 1.76434 3 1.76302 3 1.76169C 3 1.76036 3 1.75903 3 1.75771C 3 1.75638 3 1.75505 3 1.75373C 3 1.7524 3 1.75108 3 1.74975C 3 1.74842 3 1.7471 3 1.74577C 3 1.74445 3 1.74312 3 1.7418C 3 1.74048 3 1.73915 3 1.73783C 3 1.7365 3 1.73518 3 1.73386C 3 1.73253 3 1.73121 3 1.72989C 3 1.72856 3 1.72724 3 1.72592C 3 1.7246 3 1.72328 3 1.72195C 3 1.72063 3 1.71931 3 1.71799C 3 1.71667 3 1.71535 3 1.71403C 3 1.71271 3 1.71139 3 1.71007C 3 1.70875 3 1.70743 3 1.70611C 3 1.70479 3 1.70347 3 1.70215C 3 1.70083 3 1.69951 3 1.69819C 3 1.69688 3 1.69556 3 1.69424C 3 1.69292 3 1.6916 3 1.69029C 3 1.68897 3 1.68765 3 1.68634C 3 1.68502 3 1.6837 3 1.68239C 3 1.68107 3 1.67976 3 1.67844C 3 1.67712 3 1.67581 3 1.67449C 3 1.67318 3 1.67186 3 1.67055C 3 1.66923 3 1.66792 3 1.66661C 3 1.66529 3 1.66398 3 1.66266C 3 1.66135 3 1.66004 3 1.65872C 3 1.65741 3 1.6561 3 1.65478C 3 1.65347 3 1.65216 3 1.65085C 3 1.64954 3 1.64822 3 1.64691C 3 1.6456 3 1.64429 3 1.64298C 3 1.64167 3 1.64036 3 1.63905C 3 1.63774 3 1.63642 3 1.63511C 3 1.6338 3 1.63249 3 1.63119C 3 1.62988 3 1.62857 3 1.62726C 3 1.62595 3 1.62464 3 1.62333C 3 1.62202 3 1.62071 3 1.61941C 3 1.6181 3 1.61679 3 1.61548C 3 1.61417 3 1.61287 3 1.61156C 3 1.61025 3 1.60895 3 1.60764C 3 1.60633 3 1.60503 3 1.60372C 3 1.60241 3 1.60111 3 1.5998C 3 1.5985 3 1.59719 3 1.59588C 3 1.59458 3 1.59327 3 1.59197C 3 1.59066 3 1.58936 3 1.58805C 3 1.58675 3 1.58545 3 1.58414C 3 1.58284 3 1.58153 3 1.58023C 3 1.57893 3 1.57762 3 1.57632C 3 1.57502 3 1.57372 3 1.57241C 3 1.57111 3 1.56981 3 1.56851C 3 1.5672 3 1.5659 3 1.5646C 3 1.5633 3 1.562 3 1.5607C 3 1.55939 3 1.55809 3 1.55679C 3 1.55549 3 1.55419 3 1.55289C 3 1.55159 3 1.55029 3 1.54899C 3 1.54769 3 1.54639 3 1.54509C 3 1.54379 3 1.54249 3 1.54119C 3 1.53989 3 1.53859 3 1.5373C 3 1.536 3 1.5347 3 1.5334C 3 1.5321 3 1.5308 3 1.52951C 3 1.52821 3 1.52691 3 1.52561C 3 1.52431 3 1.52302 3 1.52172C 3 1.52042 3 1.51913 3 1.51783C 3 1.51653 3 1.51524 3 1.51394C 3 1.51264 3 1.51135 3 1.51005C 3 1.50876 3 1.50746 3 1.50616C 3 1.50487 3 1.50357 3 1.50228C 3 1.50098 3 1.49969 3 1.49839C 3 1.4971 3 1.4958 3 1.49451C 3 1.49322 3 1.49192 3 1.49063C 3 1.48933 3 1.48804 3 1.48675C 3 1.48545 3 1.48416 3 1.48287C 3 1.48157 3 1.48028 3 1.47899C 3 1.47769 3 1.4764 3 1.47511C 3 1.47382 3 1.47253 3 1.47123C 3 1.46994 3 1.46865 3 1.46736C 3 1.46607 3 1.46477 3 1.46348C 3 1.46219 3 1.4609 3 1.45961C 3 1.45832 3 1.45703 3 1.45574C 3 1.45445 3 1.45316 3 1.45187C 3 1.45058 3 1.44929 3 1.448C 3 1.44671 3 1.44542 3 1.44413C 3 1.44284 3 1.44155 3 1.44026C 3 1.43897 3 1.43768 3 1.43639C 3 1.4351 3 1.43381 3 1.43252C 3 1.43124 3 1.42995 3 1.42866C 3 1.42737 3 1.42608 3 1.42479C 3 1.42351 3 1.42222 3 1.42093C 3 1.41964 3 1.41836 3 1.41707C 3 1.41578 3 1.4145 3 1.41321C 3 1.41192 3 1.41063 3 1.40935C 3 1.40806 3 1.40677 3 1.40549C 3 1.4042 3 1.40292 3 1.40163C 3 1.40034 3 1.39906 3 1.39777C 3 1.39649 3 1.3952 3 1.39392C 3 1.39263 3 1.39135 3 1.39006C 3 1.38878 3 1.38749 3 1.38621C 3 1.38492 3 1.38364 3 1.38235C 3 1.38107 3 1.37978 3 1.3785C 3 1.37722 3 1.37593 3 1.37465C 3 1.37336 3 1.37208 3 1.3708C 3 1.36951 3 1.36823 3 1.36695C 3 1.36566 3 1.36438 3 1.3631C 3 1.36181 3 1.36053 3 1.35925C 3 1.35797 3 1.35668 3 1.3554C 3 1.35412 3 1.35284 3 1.35155C 3 1.35027 3 1.34899 3 1.34771C 3 1.34643 3 1.34514 3 1.34386C 3 1.34258 3 1.3413 3 1.34002C 3 1.33874 3 1.33746 3 1.33617C 3 1.33489 3 1.33361 3 1.33233C 3 1.33105 3 1.32977 3 1.32849C 3 1.32721 3 1.32593 3 1.32465C 3 1.32337 3 1.32209 3 1.32081C 3 1.31953 3 1.31825 3 1.31697C 3 1.31569 3 1.31441 3 1.31313C 3 1.31185 3 1.31057 3 1.30929C 3 1.30801 3 1.30673 3 1.30545C 3 1.30417 3 1.3029 3 1.30162C 3 1.30034 3 1.29906 3 1.29778C 3 1.2965 3 1.29522 3 1.29395C 3 1.29267 3 1.29139 3 1.29011C 3 1.28883 3 1.28755 3 1.28628C 3 1.285 3 1.28372 3 1.28244C 3 1.28117 3 1.27989 3 1.27861C 3 1.27733 3 1.27606 3 1.27478C 3 1.2735 3 1.27222 3 1.27095C 3 1.26967 3 1.26839 3 1.26712C 3 1.26584 3 1.26456 3 1.26329C 3 1.26201 3 1.26073 3 1.25946C 3 1.25818 3 1.2569 3 1.25563C 3 1.25435 3 1.25307 3 1.2518C 3 1.25052 3 1.24925 3 1.24797C 3 1.2467 3 1.24542 3 1.24414C 3 1.24287 3 1.24159 3 1.24032C 3 1.23904 3 1.23777 3 1.23649C 3 1.23522 3 1.23394 3 1.23267C 3 1.23139 3 1.23012 3 1.22884C 3 1.22757 3 1.22629 3 1.22502C 3 1.22374 3 1.22247 3 1.22119C 3 1.21992 3 1.21864 3 1.21737C 3 1.21609 3 1.21482 3 1.21355C 3 1.21227 3 1.211 3 1.20972C 3 1.20845 3 1.20718 3 1.2059C 3 1.20463 3 1.20335 3 1.20208C 3 1.20081 3 1.19953 3 1.19826C 3 1.19699 3 1.19571 3 1.19444C 3 1.19317 3 1.19189 3 1.19062C 3 1.18935 3 1.18807 3 1.1868C 3 1.18553 3 1.18425 3 1.18298C 3 1.18171 3 1.18043 3 1.17916C 3 1.17789 3 1.17662 3 1.17534C 3 1.17407 3 1.1728 3 1.17153C 3 1.17025 3 1.16898 3 1.16771C 3 1.16644 3 1.16516 3 1.16389C 3 1.16262 3 1.16135 3 1.16007C 3 1.1588 3 1.15753 3 1.15626C 3 1.15499 3 1.15371 3 1.15244C 3 1.15117 3 1.1499 3 1.14863C 3 1.14735 3 1.14608 3 1.14481C 3 1.14354 3 1.14227 3 1.141C 3 1.13972 3 1.13845 3 1.13718C 3 1.13591 3 1.13464 3 1.13337C 3 1.1321 3 1.13083 3 1.12955C 3 1.12828 3 1.12701 3 1.12574C 3 1.12447 3 1.1232 3 1.12193C 3 1.12066 3 1.11938 3 1.11811C 3 1.11684 3 1.11557 3 1.1143C 3 1.11303 3 1.11176 3 1.11049C 3 1.10922 3 1.10795 3 1.10668C 3 1.10541 3 1.10414 3 1.10286C 3 1.10159 3 1.10032 3 1.09905C 3 1.09778 3 1.09651 3 1.09524C 3 1.09397 3 1.0927 3 1.09143C 3 1.09016 3 1.08889 3 1.08762C 3 1.08635 3 1.08508 3 1.08381C 3 1.08254 3 1.08127 3 1.08C 3 1.07873 3 1.07746 3 1.07619C 3 1.07492 3 1.07365 3 1.07238C 3 1.07111 3 1.06984 3 1.06857C 3 1.0673 3 1.06603 3 1.06476C 3 1.06349 3 1.06222 3 1.06095C 3 1.05968 3 1.05841 3 1.05714C 3 1.05587 3 1.0546 3 1.05333C 3 1.05206 3 1.05079 3 1.04952C 3 1.04825 3 1.04698 3 1.04571C 3 1.04444 3 1.04317 3 1.0419C 3 1.04063 3 1.03936 3 1.03809C 3 1.03682 3 1.03555 3 1.03428C 3 1.03301 3 1.03174 3 1.03047C 3 1.0292 3 1.02793 3 1.02666C 3 1.02539 3 1.02412 3 1.02285C 3 1.02159 3 1.02032 3 1.01905C 3 1.01778 3 1.01651 3 1.01524C 3 1.01397 3 1.0127 3 1.01143C 3 1.01016 3 1.00889 3 1.00762C 3 1.00635 3 1.00508 3 1.00381C 3 1.00254 3 1.00127 3 1C 3 0.998734 3 0.997464 3 0.996194C 3 0.994925 3 0.993655 3 0.992386C 3 0.991116 3 0.989847 3 0.988577C 3 0.987308 3 0.986038 3 0.984769C 3 0.983499 3 0.982229 3 0.98096C 3 0.97969 3 0.978421 3 0.977151C 3 0.975882 3 0.974612 3 0.973342C 3 0.972073 3 0.970803 3 0.969534C 3 0.968264 3 0.966994 3 0.965725C 3 0.964455 3 0.963185 3 0.961916C 3 0.960646 3 0.959376 3 0.958107C 3 0.956837 3 0.955567 3 0.954297C 3 0.953028 3 0.951758 3 0.950488C 3 0.949218 3 0.947949 3 0.946679C 3 0.945409 3 0.944139 3 0.942869C 3 0.941599 3 0.940329 3 0.939059C 3 0.93779 3 0.93652 3 0.93525C 3 0.93398 3 0.93271 3 0.93144C 3 0.93017 3 0.9289 3 0.92763C 3 0.926359 3 0.925089 3 0.923819C 3 0.922549 3 0.921279 3 0.920009C 3 0.918739 3 0.917468 3 0.916198C 3 0.914928 3 0.913658 3 0.912387C 3 0.911117 3 0.909847 3 0.908576C 3 0.907306 3 0.906035 3 0.904765C 3 0.903494 3 0.902224 3 0.900953C 3 0.899683 3 0.898412 3 0.897142C 3 0.895871 3 0.8946 3 0.89333C 3 0.892059 3 0.890788 3 0.889517C 3 0.888247 3 0.886976 3 0.885705C 3 0.884434 3 0.883163 3 0.881892C 3 0.880621 3 0.87935 3 0.878079C 3 0.876808 3 0.875537 3 0.874266C 3 0.872995 3 0.871724 3 0.870452C 3 0.869181 3 0.86791 3 0.866638C 3 0.865367 3 0.864096 3 0.862824C 3 0.861553 3 0.860281 3 0.85901C 3 0.857738 3 0.856466 3 0.855195C 3 0.853923 3 0.852651 3 0.85138C 3 0.850108 3 0.848836 3 0.847564C 3 0.846292 3 0.84502 3 0.843748C 3 0.842476 3 0.841204 3 0.839932C 3 0.83866 3 0.837387 3 0.836115C 3 0.834843 3 0.83357 3 0.832298C 3 0.831026 3 0.829753 3 0.828481C 3 0.827208 3 0.825935 3 0.824663C 3 0.82339 3 0.822117 3 0.820844C 3 0.819572 3 0.818299 3 0.817026C 3 0.815753 3 0.81448 3 0.813207C 3 0.811934 3 0.81066 3 0.809387C 3 0.808114 3 0.806841 3 0.805567C 3 0.804294 3 0.80302 3 0.801747C 3 0.800473 3 0.799199 3 0.797926C 3 0.796652 3 0.795378 3 0.794104C 3 0.79283 3 0.791557 3 0.790282C 3 0.789008 3 0.787734 3 0.78646C 3 0.785186 3 0.783912 3 0.782637C 3 0.781363 3 0.780088 3 0.778814C 3 0.777539 3 0.776265 3 0.77499C 3 0.773715 3 0.77244 3 0.771166C 3 0.769891 3 0.768616 3 0.767341C 3 0.766066 3 0.76479 3 0.763515C 3 0.76224 3 0.760965 3 0.759689C 3 0.758414 3 0.757138 3 0.755862C 3 0.754587 3 0.753311 3 0.752035C 3 0.750759 3 0.749484 3 0.748207C 3 0.746931 3 0.745655 3 0.744379C 3 0.743103 3 0.741827 3 0.74055C 3 0.739274 3 0.737997 3 0.736721C 3 0.735444 3 0.734167 3 0.73289C 3 0.731614 3 0.730337 3 0.72906C 3 0.727783 3 0.726505 3 0.725228C 3 0.723951 3 0.722674 3 0.721396C 3 0.720119 3 0.718841 3 0.717563C 3 0.716286 3 0.715008 3 0.71373C 3 0.712452 3 0.711174 3 0.709896C 3 0.708618 3 0.707339 3 0.706061C 3 0.704783 3 0.703504 3 0.702226C 3 0.700947 3 0.699668 3 0.698389C 3 0.697111 3 0.695832 3 0.694553C 3 0.693274 3 0.691994 3 0.690715C 3 0.689436 3 0.688156 3 0.686877C 3 0.685597 3 0.684318 3 0.683038C 3 0.681758 3 0.680478 3 0.679198C 3 0.677918 3 0.676638 3 0.675357C 3 0.674077 3 0.672797 3 0.671516C 3 0.670236 3 0.668955 3 0.667674C 3 0.666393 3 0.665112 3 0.663831C 3 0.66255 3 0.661269 3 0.659988C 3 0.658706 3 0.657425 3 0.656143C 3 0.654862 3 0.65358 3 0.652298C 3 0.651016 3 0.649734 3 0.648452C 3 0.64717 3 0.645888 3 0.644605C 3 0.643323 3 0.64204 3 0.640758C 3 0.639475 3 0.638192 3 0.636909C 3 0.635626 3 0.634343 3 0.63306C 3 0.631776 3 0.630493 3 0.629209C 3 0.627926 3 0.626642 3 0.625358C 3 0.624075 3 0.622791 3 0.621506C 3 0.620222 3 0.618938 3 0.617654C 3 0.616369 3 0.615085 3 0.6138C 3 0.612515 3 0.61123 3 0.609945C 3 0.60866 3 0.607375 3 0.60609C 3 0.604804 3 0.603519 3 0.602233C 3 0.600947 3 0.599662 3 0.598376C 3 0.59709 3 0.595804 3 0.594517C 3 0.593231 3 0.591945 3 0.590658C 3 0.589372 3 0.588085 3 0.586798C 3 0.585511 3 0.584224 3 0.582937C 3 0.581649 3 0.580362 3 0.579074C 3 0.577787 3 0.576499 3 0.575211C 3 0.573923 3 0.572635 3 0.571347C 3 0.570059 3 0.56877 3 0.567482C 3 0.566193 3 0.564905 3 0.563616C 3 0.562327 3 0.561038 3 0.559748C 3 0.558459 3 0.55717 3 0.55588C 3 0.554591 3 0.553301 3 0.552011C 3 0.550721 3 0.549431 3 0.548141C 3 0.54685 3 0.54556 3 0.544269C 3 0.542979 3 0.541688 3 0.540397C 3 0.539106 3 0.537815 3 0.536523C 3 0.535232 3 0.53394 3 0.532649C 3 0.531357 3 0.530065 3 0.528773C 3 0.527481 3 0.526189 3 0.524896C 3 0.523604 3 0.522311 3 0.521018C 3 0.519726 3 0.518433 3 0.517139C 3 0.515846 3 0.514553 3 0.513259C 3 0.511966 3 0.510672 3 0.509378C 3 0.508084 3 0.50679 3 0.505496C 3 0.504201 3 0.502907 3 0.501612C 3 0.500317 3 0.499022 3 0.497727C 3 0.496432 3 0.495137 3 0.493841C 3 0.492546 3 0.49125 3 0.489954C 3 0.488658 3 0.487362 3 0.486066C 3 0.48477 3 0.483473 3 0.482177C 3 0.48088 3 0.479583 3 0.478286C 3 0.476989 3 0.475692 3 0.474394C 3 0.473097 3 0.471799 3 0.470501C 3 0.469203 3 0.467905 3 0.466607C 3 0.465308 3 0.46401 3 0.462711C 3 0.461412 3 0.460113 3 0.458814C 3 0.457515 3 0.456216 3 0.454916C 3 0.453617 3 0.452317 3 0.451017C 3 0.449717 3 0.448417 3 0.447116C 3 0.445816 3 0.444515 3 0.443214C 3 0.441913 3 0.440612 3 0.439311C 3 0.43801 3 0.436708 3 0.435406C 3 0.434105 3 0.432803 3 0.431501C 3 0.430198 3 0.428896 3 0.427593C 3 0.426291 3 0.424988 3 0.423685C 3 0.422382 3 0.421079 3 0.419775C 3 0.418471 3 0.417168 3 0.415864C 3 0.41456 3 0.413256 3 0.411951C 3 0.410647 3 0.409342 3 0.408037C 3 0.406732 3 0.405427 3 0.404122C 3 0.402817 3 0.401511 3 0.400205C 3 0.3989 3 0.397593 3 0.396287C 3 0.394981 3 0.393674 3 0.392368C 3 0.391061 3 0.389754 3 0.388447C 3 0.38714 3 0.385832 3 0.384525C 3 0.383217 3 0.381909 3 0.380601C 3 0.379293 3 0.377984 3 0.376676C 3 0.375367 3 0.374058 3 0.372749C 3 0.37144 3 0.37013 3 0.368821C 3 0.367511 3 0.366201 3 0.364891C 3 0.363581 3 0.362271 3 0.36096C 3 0.35965 3 0.358339 3 0.357028C 3 0.355717 3 0.354405 3 0.353094C 3 0.351782 3 0.35047 3 0.349158C 3 0.347846 3 0.346534 3 0.345221C 3 0.343909 3 0.342596 3 0.341283C 3 0.33997 3 0.338656 3 0.337343C 3 0.336029 3 0.334715 3 0.333401C 3 0.332087 3 0.330772 3 0.329458C 3 0.328143 3 0.326828 3 0.325513C 3 0.324198 3 0.322882 3 0.321567C 3 0.320251 3 0.318935 3 0.317619C 3 0.316303 3 0.314986 3 0.313669C 3 0.312353 3 0.311036 3 0.309718C 3 0.308401 3 0.307084 3 0.305766C 3 0.304448 3 0.30313 3 0.301812C 3 0.300493 3 0.299175 3 0.297856C 3 0.296537 3 0.295218 3 0.293898C 3 0.292579 3 0.291259 3 0.289939C 3 0.288619 3 0.287299 3 0.285978C 3 0.284658 3 0.283337 3 0.282016C 3 0.280695 3 0.279373 3 0.278052C 3 0.27673 3 0.275408 3 0.274086C 3 0.272764 3 0.271441 3 0.270119C 3 0.268796 3 0.267473 3 0.26615C 3 0.264826 3 0.263503 3 0.262179C 3 0.260855 3 0.259531 3 0.258206C 3 0.256882 3 0.255557 3 0.254232C 3 0.252907 3 0.251582 3 0.250256C 3 0.24893 3 0.247604 3 0.246278C 3 0.244952 3 0.243626 3 0.242299C 3 0.240972 3 0.239645 3 0.238318C 3 0.23699 3 0.235663 3 0.234335C 3 0.233007 3 0.231678 3 0.23035C 3 0.229021 3 0.227693 3 0.226363C 3 0.225034 3 0.223705 3 0.222375C 3 0.221045 3 0.219715 3 0.218385C 3 0.217055 3 0.215724 3 0.214393C 3 0.213062 3 0.211731 3 0.210399C 3 0.209068 3 0.207736 3 0.206404C 3 0.205072 3 0.203739 3 0.202406C 3 0.201074 3 0.199741 3 0.198407C 3 0.197074 3 0.19574 3 0.194406C 3 0.193072 3 0.191738 3 0.190403C 3 0.189069 3 0.187734 3 0.186398C 3 0.185063 3 0.183728 3 0.182392C 3 0.181056 3 0.17972 3 0.178383C 3 0.177047 3 0.17571 3 0.174373C 3 0.173036 3 0.171698 3 0.17036C 3 0.169023 3 0.167684 3 0.166346C 3 0.165008 3 0.163669 3 0.16233C 3 0.160991 3 0.159651 3 0.158312C 3 0.156972 3 0.155632 3 0.154292C 3 0.152951 3 0.151611 3 0.15027C 3 0.148929 3 0.147587 3 0.146246C 3 0.144904 3 0.143562 3 0.14222C 3 0.140877 3 0.139535 3 0.138192C 3 0.136849 3 0.135506 3 0.134162C 3 0.132818 3 0.131474 3 0.13013C 3 0.128786 3 0.127441 3 0.126096C 3 0.124751 3 0.123406 3 0.12206C 3 0.120715 3 0.119369 3 0.118022C 3 0.116676 3 0.115329 3 0.113982C 3 0.112635 3 0.111288 3 0.10994C 3 0.108593 3 0.107245 3 0.105896C 3 0.104548 3 0.103199 3 0.10185C 3 0.100501 3 0.0991517 3 0.097802C 3 0.0964522 3 0.0951022 3 0.0937517C 3 0.0924013 3 0.0910505 3 0.0896994C 3 0.0883483 3 0.0869968 3 0.085645C 3 0.0842932 3 0.082941 3 0.0815885C 3 0.0802359 3 0.0788831 3 0.0775298C 3 0.0761766 3 0.074823 3 0.0734691C 3 0.0721151 3 0.0707608 3 0.0694062C 3 0.0680516 3 0.0666965 3 0.0653412C 3 0.0639858 3 0.0626301 3 0.061274C 3 0.0599179 3 0.0585615 3 0.0572047C 3 0.0558479 3 0.0544908 3 0.0531332C 3 0.0517757 3 0.0504178 3 0.0490596C 3 0.0477013 3 0.0463427 3 0.0449837C 3 0.0436248 3 0.0422654 3 0.0409057C 3 0.039546 3 0.0381859 3 0.0368255C 3 0.0354651 3 0.0341043 3 0.0327431C 3 0.0313819 3 0.0300203 3 0.0286584C 3 0.0272965 3 0.0259342 3 0.0245715C 3 0.0232089 3 0.0218458 3 0.0204824C 3 0.019119 3 0.0177552 3 0.0163911C 3 0.0150269 3 0.0136624 3 0.0122975C 3 0.0109326 3 0.00956728 3 0.00820161C 3 0.00683594 3 0.0054699 3 0.00410347C 3 0.00273705 3 0.00137024 3 3.05176e-06L -3 3.05176e-06C -3 0.00137024 -3 0.00273705 -3 0.00410347C -3 0.0054699 -3 0.00683594 -3 0.00820161C -3 0.00956728 -3 0.0109326 -3 0.0122975C -3 0.0136624 -3 0.0150269 -3 0.0163911C -3 0.0177552 -3 0.019119 -3 0.0204824C -3 0.0218458 -3 0.0232089 -3 0.0245715C -3 0.0259342 -3 0.0272965 -3 0.0286584C -3 0.0300203 -3 0.0313819 -3 0.0327431C -3 0.0341043 -3 0.0354651 -3 0.0368255C -3 0.0381859 -3 0.039546 -3 0.0409057C -3 0.0422654 -3 0.0436248 -3 0.0449837C -3 0.0463427 -3 0.0477013 -3 0.0490596C -3 0.0504178 -3 0.0517757 -3 0.0531332C -3 0.0544908 -3 0.0558479 -3 0.0572047C -3 0.0585615 -3 0.0599179 -3 0.061274C -3 0.0626301 -3 0.0639858 -3 0.0653412C -3 0.0666965 -3 0.0680516 -3 0.0694062C -3 0.0707608 -3 0.0721151 -3 0.0734691C -3 0.074823 -3 0.0761766 -3 0.0775298C -3 0.0788831 -3 0.0802359 -3 0.0815885C -3 0.082941 -3 0.0842932 -3 0.085645C -3 0.0869968 -3 0.0883483 -3 0.0896994C -3 0.0910505 -3 0.0924013 -3 0.0937517C -3 0.0951022 -3 0.0964522 -3 0.097802C -3 0.0991517 -3 0.100501 -3 0.10185C -3 0.103199 -3 0.104548 -3 0.105896C -3 0.107245 -3 0.108593 -3 0.10994C -3 0.111288 -3 0.112635 -3 0.113982C -3 0.115329 -3 0.116676 -3 0.118022C -3 0.119369 -3 0.120715 -3 0.12206C -3 0.123406 -3 0.124751 -3 0.126096C -3 0.127441 -3 0.128786 -3 0.13013C -3 0.131474 -3 0.132818 -3 0.134162C -3 0.135506 -3 0.136849 -3 0.138192C -3 0.139535 -3 0.140877 -3 0.14222C -3 0.143562 -3 0.144904 -3 0.146246C -3 0.147587 -3 0.148929 -3 0.15027C -3 0.151611 -3 0.152951 -3 0.154292C -3 0.155632 -3 0.156972 -3 0.158312C -3 0.159651 -3 0.160991 -3 0.16233C -3 0.163669 -3 0.165008 -3 0.166346C -3 0.167684 -3 0.169023 -3 0.17036C -3 0.171698 -3 0.173036 -3 0.174373C -3 0.17571 -3 0.177047 -3 0.178383C -3 0.17972 -3 0.181056 -3 0.182392C -3 0.183728 -3 0.185063 -3 0.186398C -3 0.187734 -3 0.189069 -3 0.190403C -3 0.191738 -3 0.193072 -3 0.194406C -3 0.19574 -3 0.197074 -3 0.198407C -3 0.199741 -3 0.201074 -3 0.202406C -3 0.203739 -3 0.205072 -3 0.206404C -3 0.207736 -3 0.209068 -3 0.210399C -3 0.211731 -3 0.213062 -3 0.214393C -3 0.215724 -3 0.217055 -3 0.218385C -3 0.219715 -3 0.221045 -3 0.222375C -3 0.223705 -3 0.225034 -3 0.226363C -3 0.227693 -3 0.229021 -3 0.23035C -3 0.231678 -3 0.233007 -3 0.234335C -3 0.235663 -3 0.23699 -3 0.238318C -3 0.239645 -3 0.240972 -3 0.242299C -3 0.243626 -3 0.244952 -3 0.246278C -3 0.247604 -3 0.24893 -3 0.250256C -3 0.251582 -3 0.252907 -3 0.254232C -3 0.255557 -3 0.256882 -3 0.258206C -3 0.259531 -3 0.260855 -3 0.262179C -3 0.263503 -3 0.264826 -3 0.26615C -3 0.267473 -3 0.268796 -3 0.270119C -3 0.271441 -3 0.272764 -3 0.274086C -3 0.275408 -3 0.27673 -3 0.278052C -3 0.279373 -3 0.280695 -3 0.282016C -3 0.283337 -3 0.284658 -3 0.285978C -3 0.287299 -3 0.288619 -3 0.289939C -3 0.291259 -3 0.292579 -3 0.293898C -3 0.295218 -3 0.296537 -3 0.297856C -3 0.299175 -3 0.300493 -3 0.301812C -3 0.30313 -3 0.304448 -3 0.305766C -3 0.307084 -3 0.308401 -3 0.309718C -3 0.311036 -3 0.312353 -3 0.313669C -3 0.314986 -3 0.316303 -3 0.317619C -3 0.318935 -3 0.320251 -3 0.321567C -3 0.322882 -3 0.324198 -3 0.325513C -3 0.326828 -3 0.328143 -3 0.329458C -3 0.330772 -3 0.332087 -3 0.333401C -3 0.334715 -3 0.336029 -3 0.337343C -3 0.338656 -3 0.33997 -3 0.341283C -3 0.342596 -3 0.343909 -3 0.345221C -3 0.346534 -3 0.347846 -3 0.349158C -3 0.35047 -3 0.351782 -3 0.353094C -3 0.354405 -3 0.355717 -3 0.357028C -3 0.358339 -3 0.35965 -3 0.36096C -3 0.362271 -3 0.363581 -3 0.364891C -3 0.366201 -3 0.367511 -3 0.368821C -3 0.37013 -3 0.37144 -3 0.372749C -3 0.374058 -3 0.375367 -3 0.376676C -3 0.377984 -3 0.379293 -3 0.380601C -3 0.381909 -3 0.383217 -3 0.384525C -3 0.385832 -3 0.38714 -3 0.388447C -3 0.389754 -3 0.391061 -3 0.392368C -3 0.393674 -3 0.394981 -3 0.396287C -3 0.397593 -3 0.3989 -3 0.400205C -3 0.401511 -3 0.402817 -3 0.404122C -3 0.405427 -3 0.406732 -3 0.408037C -3 0.409342 -3 0.410647 -3 0.411951C -3 0.413256 -3 0.41456 -3 0.415864C -3 0.417168 -3 0.418471 -3 0.419775C -3 0.421079 -3 0.422382 -3 0.423685C -3 0.424988 -3 0.426291 -3 0.427593C -3 0.428896 -3 0.430198 -3 0.431501C -3 0.432803 -3 0.434105 -3 0.435406C -3 0.436708 -3 0.43801 -3 0.439311C -3 0.440612 -3 0.441913 -3 0.443214C -3 0.444515 -3 0.445816 -3 0.447116C -3 0.448417 -3 0.449717 -3 0.451017C -3 0.452317 -3 0.453617 -3 0.454916C -3 0.456216 -3 0.457515 -3 0.458814C -3 0.460113 -3 0.461412 -3 0.462711C -3 0.46401 -3 0.465308 -3 0.466607C -3 0.467905 -3 0.469203 -3 0.470501C -3 0.471799 -3 0.473097 -3 0.474394C -3 0.475692 -3 0.476989 -3 0.478286C -3 0.479583 -3 0.48088 -3 0.482177C -3 0.483473 -3 0.48477 -3 0.486066C -3 0.487362 -3 0.488658 -3 0.489954C -3 0.49125 -3 0.492546 -3 0.493841C -3 0.495137 -3 0.496432 -3 0.497727C -3 0.499022 -3 0.500317 -3 0.501612C -3 0.502907 -3 0.504201 -3 0.505496C -3 0.50679 -3 0.508084 -3 0.509378C -3 0.510672 -3 0.511966 -3 0.513259C -3 0.514553 -3 0.515846 -3 0.517139C -3 0.518433 -3 0.519726 -3 0.521018C -3 0.522311 -3 0.523604 -3 0.524896C -3 0.526189 -3 0.527481 -3 0.528773C -3 0.530065 -3 0.531357 -3 0.532649C -3 0.53394 -3 0.535232 -3 0.536523C -3 0.537815 -3 0.539106 -3 0.540397C -3 0.541688 -3 0.542979 -3 0.544269C -3 0.54556 -3 0.54685 -3 0.548141C -3 0.549431 -3 0.550721 -3 0.552011C -3 0.553301 -3 0.554591 -3 0.55588C -3 0.55717 -3 0.558459 -3 0.559748C -3 0.561038 -3 0.562327 -3 0.563616C -3 0.564905 -3 0.566193 -3 0.567482C -3 0.56877 -3 0.570059 -3 0.571347C -3 0.572635 -3 0.573923 -3 0.575211C -3 0.576499 -3 0.577787 -3 0.579074C -3 0.580362 -3 0.581649 -3 0.582937C -3 0.584224 -3 0.585511 -3 0.586798C -3 0.588085 -3 0.589372 -3 0.590658C -3 0.591945 -3 0.593231 -3 0.594517C -3 0.595804 -3 0.59709 -3 0.598376C -3 0.599662 -3 0.600947 -3 0.602233C -3 0.603519 -3 0.604804 -3 0.60609C -3 0.607375 -3 0.60866 -3 0.609945C -3 0.61123 -3 0.612515 -3 0.6138C -3 0.615085 -3 0.616369 -3 0.617654C -3 0.618938 -3 0.620222 -3 0.621506C -3 0.622791 -3 0.624075 -3 0.625358C -3 0.626642 -3 0.627926 -3 0.629209C -3 0.630493 -3 0.631776 -3 0.63306C -3 0.634343 -3 0.635626 -3 0.636909C -3 0.638192 -3 0.639475 -3 0.640758C -3 0.64204 -3 0.643323 -3 0.644605C -3 0.645888 -3 0.64717 -3 0.648452C -3 0.649734 -3 0.651016 -3 0.652298C -3 0.65358 -3 0.654862 -3 0.656143C -3 0.657425 -3 0.658706 -3 0.659988C -3 0.661269 -3 0.66255 -3 0.663831C -3 0.665112 -3 0.666393 -3 0.667674C -3 0.668955 -3 0.670236 -3 0.671516C -3 0.672797 -3 0.674077 -3 0.675357C -3 0.676638 -3 0.677918 -3 0.679198C -3 0.680478 -3 0.681758 -3 0.683038C -3 0.684318 -3 0.685597 -3 0.686877C -3 0.688156 -3 0.689436 -3 0.690715C -3 0.691994 -3 0.693274 -3 0.694553C -3 0.695832 -3 0.697111 -3 0.698389C -3 0.699668 -3 0.700947 -3 0.702226C -3 0.703504 -3 0.704783 -3 0.706061C -3 0.707339 -3 0.708618 -3 0.709896C -3 0.711174 -3 0.712452 -3 0.71373C -3 0.715008 -3 0.716286 -3 0.717563C -3 0.718841 -3 0.720119 -3 0.721396C -3 0.722674 -3 0.723951 -3 0.725228C -3 0.726505 -3 0.727783 -3 0.72906C -3 0.730337 -3 0.731614 -3 0.73289C -3 0.734167 -3 0.735444 -3 0.736721C -3 0.737997 -3 0.739274 -3 0.74055C -3 0.741827 -3 0.743103 -3 0.744379C -3 0.745655 -3 0.746931 -3 0.748207C -3 0.749484 -3 0.750759 -3 0.752035C -3 0.753311 -3 0.754587 -3 0.755862C -3 0.757138 -3 0.758414 -3 0.759689C -3 0.760965 -3 0.76224 -3 0.763515C -3 0.76479 -3 0.766066 -3 0.767341C -3 0.768616 -3 0.769891 -3 0.771166C -3 0.77244 -3 0.773715 -3 0.77499C -3 0.776265 -3 0.777539 -3 0.778814C -3 0.780088 -3 0.781363 -3 0.782637C -3 0.783912 -3 0.785186 -3 0.78646C -3 0.787734 -3 0.789008 -3 0.790282C -3 0.791557 -3 0.79283 -3 0.794104C -3 0.795378 -3 0.796652 -3 0.797926C -3 0.799199 -3 0.800473 -3 0.801747C -3 0.80302 -3 0.804294 -3 0.805567C -3 0.806841 -3 0.808114 -3 0.809387C -3 0.81066 -3 0.811934 -3 0.813207C -3 0.81448 -3 0.815753 -3 0.817026C -3 0.818299 -3 0.819572 -3 0.820844C -3 0.822117 -3 0.82339 -3 0.824663C -3 0.825935 -3 0.827208 -3 0.828481C -3 0.829753 -3 0.831026 -3 0.832298C -3 0.83357 -3 0.834843 -3 0.836115C -3 0.837387 -3 0.83866 -3 0.839932C -3 0.841204 -3 0.842476 -3 0.843748C -3 0.84502 -3 0.846292 -3 0.847564C -3 0.848836 -3 0.850108 -3 0.85138C -3 0.852651 -3 0.853923 -3 0.855195C -3 0.856466 -3 0.857738 -3 0.85901C -3 0.860281 -3 0.861553 -3 0.862824C -3 0.864096 -3 0.865367 -3 0.866638C -3 0.86791 -3 0.869181 -3 0.870452C -3 0.871724 -3 0.872995 -3 0.874266C -3 0.875537 -3 0.876808 -3 0.878079C -3 0.87935 -3 0.880621 -3 0.881892C -3 0.883163 -3 0.884434 -3 0.885705C -3 0.886976 -3 0.888247 -3 0.889517C -3 0.890788 -3 0.892059 -3 0.89333C -3 0.8946 -3 0.895871 -3 0.897142C -3 0.898412 -3 0.899683 -3 0.900953C -3 0.902224 -3 0.903494 -3 0.904765C -3 0.906035 -3 0.907306 -3 0.908576C -3 0.909847 -3 0.911117 -3 0.912387C -3 0.913658 -3 0.914928 -3 0.916198C -3 0.917468 -3 0.918739 -3 0.920009C -3 0.921279 -3 0.922549 -3 0.923819C -3 0.925089 -3 0.926359 -3 0.92763C -3 0.9289 -3 0.93017 -3 0.93144C -3 0.93271 -3 0.93398 -3 0.93525C -3 0.93652 -3 0.93779 -3 0.939059C -3 0.940329 -3 0.941599 -3 0.942869C -3 0.944139 -3 0.945409 -3 0.946679C -3 0.947949 -3 0.949218 -3 0.950488C -3 0.951758 -3 0.953028 -3 0.954297C -3 0.955567 -3 0.956837 -3 0.958107C -3 0.959376 -3 0.960646 -3 0.961916C -3 0.963185 -3 0.964455 -3 0.965725C -3 0.966994 -3 0.968264 -3 0.969534C -3 0.970803 -3 0.972073 -3 0.973342C -3 0.974612 -3 0.975882 -3 0.977151C -3 0.978421 -3 0.97969 -3 0.98096C -3 0.982229 -3 0.983499 -3 0.984769C -3 0.986038 -3 0.987308 -3 0.988577C -3 0.989847 -3 0.991116 -3 0.992386C -3 0.993655 -3 0.994925 -3 0.996194C -3 0.997464 -3 0.998734 -3 1C -3 1.00127 -3 1.00254 -3 1.00381C -3 1.00508 -3 1.00635 -3 1.00762C -3 1.00889 -3 1.01016 -3 1.01143C -3 1.0127 -3 1.01397 -3 1.01524C -3 1.01651 -3 1.01778 -3 1.01905C -3 1.02032 -3 1.02159 -3 1.02285C -3 1.02412 -3 1.02539 -3 1.02666C -3 1.02793 -3 1.0292 -3 1.03047C -3 1.03174 -3 1.03301 -3 1.03428C -3 1.03555 -3 1.03682 -3 1.03809C -3 1.03936 -3 1.04063 -3 1.0419C -3 1.04317 -3 1.04444 -3 1.04571C -3 1.04698 -3 1.04825 -3 1.04952C -3 1.05079 -3 1.05206 -3 1.05333C -3 1.0546 -3 1.05587 -3 1.05714C -3 1.05841 -3 1.05968 -3 1.06095C -3 1.06222 -3 1.06349 -3 1.06476C -3 1.06603 -3 1.0673 -3 1.06857C -3 1.06984 -3 1.07111 -3 1.07238C -3 1.07365 -3 1.07492 -3 1.07619C -3 1.07746 -3 1.07873 -3 1.08C -3 1.08127 -3 1.08254 -3 1.08381C -3 1.08508 -3 1.08635 -3 1.08762C -3 1.08889 -3 1.09016 -3 1.09143C -3 1.0927 -3 1.09397 -3 1.09524C -3 1.09651 -3 1.09778 -3 1.09905C -3 1.10032 -3 1.10159 -3 1.10286C -3 1.10414 -3 1.10541 -3 1.10668C -3 1.10795 -3 1.10922 -3 1.11049C -3 1.11176 -3 1.11303 -3 1.1143C -3 1.11557 -3 1.11684 -3 1.11811C -3 1.11938 -3 1.12066 -3 1.12193C -3 1.1232 -3 1.12447 -3 1.12574C -3 1.12701 -3 1.12828 -3 1.12955C -3 1.13083 -3 1.1321 -3 1.13337C -3 1.13464 -3 1.13591 -3 1.13718C -3 1.13845 -3 1.13972 -3 1.141C -3 1.14227 -3 1.14354 -3 1.14481C -3 1.14608 -3 1.14735 -3 1.14863C -3 1.1499 -3 1.15117 -3 1.15244C -3 1.15371 -3 1.15499 -3 1.15626C -3 1.15753 -3 1.1588 -3 1.16007C -3 1.16135 -3 1.16262 -3 1.16389C -3 1.16516 -3 1.16644 -3 1.16771C -3 1.16898 -3 1.17025 -3 1.17153C -3 1.1728 -3 1.17407 -3 1.17534C -3 1.17662 -3 1.17789 -3 1.17916C -3 1.18043 -3 1.18171 -3 1.18298C -3 1.18425 -3 1.18553 -3 1.1868C -3 1.18807 -3 1.18935 -3 1.19062C -3 1.19189 -3 1.19317 -3 1.19444C -3 1.19571 -3 1.19699 -3 1.19826C -3 1.19953 -3 1.20081 -3 1.20208C -3 1.20335 -3 1.20463 -3 1.2059C -3 1.20718 -3 1.20845 -3 1.20972C -3 1.211 -3 1.21227 -3 1.21355C -3 1.21482 -3 1.21609 -3 1.21737C -3 1.21864 -3 1.21992 -3 1.22119C -3 1.22247 -3 1.22374 -3 1.22502C -3 1.22629 -3 1.22757 -3 1.22884C -3 1.23012 -3 1.23139 -3 1.23267C -3 1.23394 -3 1.23522 -3 1.23649C -3 1.23777 -3 1.23904 -3 1.24032C -3 1.24159 -3 1.24287 -3 1.24414C -3 1.24542 -3 1.2467 -3 1.24797C -3 1.24925 -3 1.25052 -3 1.2518C -3 1.25307 -3 1.25435 -3 1.25563C -3 1.2569 -3 1.25818 -3 1.25946C -3 1.26073 -3 1.26201 -3 1.26329C -3 1.26456 -3 1.26584 -3 1.26712C -3 1.26839 -3 1.26967 -3 1.27095C -3 1.27222 -3 1.2735 -3 1.27478C -3 1.27606 -3 1.27733 -3 1.27861C -3 1.27989 -3 1.28117 -3 1.28244C -3 1.28372 -3 1.285 -3 1.28628C -3 1.28755 -3 1.28883 -3 1.29011C -3 1.29139 -3 1.29267 -3 1.29395C -3 1.29522 -3 1.2965 -3 1.29778C -3 1.29906 -3 1.30034 -3 1.30162C -3 1.3029 -3 1.30417 -3 1.30545C -3 1.30673 -3 1.30801 -3 1.30929C -3 1.31057 -3 1.31185 -3 1.31313C -3 1.31441 -3 1.31569 -3 1.31697C -3 1.31825 -3 1.31953 -3 1.32081C -3 1.32209 -3 1.32337 -3 1.32465C -3 1.32593 -3 1.32721 -3 1.32849C -3 1.32977 -3 1.33105 -3 1.33233C -3 1.33361 -3 1.33489 -3 1.33617C -3 1.33746 -3 1.33874 -3 1.34002C -3 1.3413 -3 1.34258 -3 1.34386C -3 1.34514 -3 1.34643 -3 1.34771C -3 1.34899 -3 1.35027 -3 1.35155C -3 1.35284 -3 1.35412 -3 1.3554C -3 1.35668 -3 1.35797 -3 1.35925C -3 1.36053 -3 1.36181 -3 1.3631C -3 1.36438 -3 1.36566 -3 1.36695C -3 1.36823 -3 1.36951 -3 1.3708C -3 1.37208 -3 1.37336 -3 1.37465C -3 1.37593 -3 1.37722 -3 1.3785C -3 1.37978 -3 1.38107 -3 1.38235C -3 1.38364 -3 1.38492 -3 1.38621C -3 1.38749 -3 1.38878 -3 1.39006C -3 1.39135 -3 1.39263 -3 1.39392C -3 1.3952 -3 1.39649 -3 1.39777C -3 1.39906 -3 1.40034 -3 1.40163C -3 1.40292 -3 1.4042 -3 1.40549C -3 1.40677 -3 1.40806 -3 1.40935C -3 1.41063 -3 1.41192 -3 1.41321C -3 1.4145 -3 1.41578 -3 1.41707C -3 1.41836 -3 1.41964 -3 1.42093C -3 1.42222 -3 1.42351 -3 1.42479C -3 1.42608 -3 1.42737 -3 1.42866C -3 1.42995 -3 1.43124 -3 1.43252C -3 1.43381 -3 1.4351 -3 1.43639C -3 1.43768 -3 1.43897 -3 1.44026C -3 1.44155 -3 1.44284 -3 1.44413C -3 1.44542 -3 1.44671 -3 1.448C -3 1.44929 -3 1.45058 -3 1.45187C -3 1.45316 -3 1.45445 -3 1.45574C -3 1.45703 -3 1.45832 -3 1.45961C -3 1.4609 -3 1.46219 -3 1.46348C -3 1.46477 -3 1.46607 -3 1.46736C -3 1.46865 -3 1.46994 -3 1.47123C -3 1.47253 -3 1.47382 -3 1.47511C -3 1.4764 -3 1.47769 -3 1.47899C -3 1.48028 -3 1.48157 -3 1.48287C -3 1.48416 -3 1.48545 -3 1.48675C -3 1.48804 -3 1.48933 -3 1.49063C -3 1.49192 -3 1.49322 -3 1.49451C -3 1.4958 -3 1.4971 -3 1.49839C -3 1.49969 -3 1.50098 -3 1.50228C -3 1.50357 -3 1.50487 -3 1.50616C -3 1.50746 -3 1.50876 -3 1.51005C -3 1.51135 -3 1.51264 -3 1.51394C -3 1.51524 -3 1.51653 -3 1.51783C -3 1.51913 -3 1.52042 -3 1.52172C -3 1.52302 -3 1.52431 -3 1.52561C -3 1.52691 -3 1.52821 -3 1.52951C -3 1.5308 -3 1.5321 -3 1.5334C -3 1.5347 -3 1.536 -3 1.5373C -3 1.53859 -3 1.53989 -3 1.54119C -3 1.54249 -3 1.54379 -3 1.54509C -3 1.54639 -3 1.54769 -3 1.54899C -3 1.55029 -3 1.55159 -3 1.55289C -3 1.55419 -3 1.55549 -3 1.55679C -3 1.55809 -3 1.55939 -3 1.5607C -3 1.562 -3 1.5633 -3 1.5646C -3 1.5659 -3 1.5672 -3 1.56851C -3 1.56981 -3 1.57111 -3 1.57241C -3 1.57372 -3 1.57502 -3 1.57632C -3 1.57762 -3 1.57893 -3 1.58023C -3 1.58153 -3 1.58284 -3 1.58414C -3 1.58545 -3 1.58675 -3 1.58805C -3 1.58936 -3 1.59066 -3 1.59197C -3 1.59327 -3 1.59458 -3 1.59588C -3 1.59719 -3 1.5985 -3 1.5998C -3 1.60111 -3 1.60241 -3 1.60372C -3 1.60503 -3 1.60633 -3 1.60764C -3 1.60895 -3 1.61025 -3 1.61156C -3 1.61287 -3 1.61417 -3 1.61548C -3 1.61679 -3 1.6181 -3 1.61941C -3 1.62071 -3 1.62202 -3 1.62333C -3 1.62464 -3 1.62595 -3 1.62726C -3 1.62857 -3 1.62988 -3 1.63119C -3 1.63249 -3 1.6338 -3 1.63511C -3 1.63642 -3 1.63774 -3 1.63905C -3 1.64036 -3 1.64167 -3 1.64298C -3 1.64429 -3 1.6456 -3 1.64691C -3 1.64822 -3 1.64954 -3 1.65085C -3 1.65216 -3 1.65347 -3 1.65478C -3 1.6561 -3 1.65741 -3 1.65872C -3 1.66004 -3 1.66135 -3 1.66266C -3 1.66398 -3 1.66529 -3 1.66661C -3 1.66792 -3 1.66923 -3 1.67055C -3 1.67186 -3 1.67318 -3 1.67449C -3 1.67581 -3 1.67712 -3 1.67844C -3 1.67976 -3 1.68107 -3 1.68239C -3 1.6837 -3 1.68502 -3 1.68634C -3 1.68765 -3 1.68897 -3 1.69029C -3 1.6916 -3 1.69292 -3 1.69424C -3 1.69556 -3 1.69688 -3 1.69819C -3 1.69951 -3 1.70083 -3 1.70215C -3 1.70347 -3 1.70479 -3 1.70611C -3 1.70743 -3 1.70875 -3 1.71007C -3 1.71139 -3 1.71271 -3 1.71403C -3 1.71535 -3 1.71667 -3 1.71799C -3 1.71931 -3 1.72063 -3 1.72195C -3 1.72328 -3 1.7246 -3 1.72592C -3 1.72724 -3 1.72856 -3 1.72989C -3 1.73121 -3 1.73253 -3 1.73386C -3 1.73518 -3 1.7365 -3 1.73783C -3 1.73915 -3 1.74048 -3 1.7418C -3 1.74312 -3 1.74445 -3 1.74577C -3 1.7471 -3 1.74842 -3 1.74975C -3 1.75108 -3 1.7524 -3 1.75373C -3 1.75505 -3 1.75638 -3 1.75771C -3 1.75903 -3 1.76036 -3 1.76169C -3 1.76302 -3 1.76434 -3 1.76567C -3 1.767 -3 1.76833 -3 1.76966C -3 1.77098 -3 1.77231 -3 1.77364C -3 1.77497 -3 1.7763 -3 1.77763C -3 1.77896 -3 1.78029 -3 1.78162C -3 1.78295 -3 1.78428 -3 1.78561C -3 1.78694 -3 1.78828 -3 1.78961C -3 1.79094 -3 1.79227 -3 1.7936C -3 1.79493 -3 1.79627 -3 1.7976C -3 1.79893 -3 1.80027 -3 1.8016C -3 1.80293 -3 1.80427 -3 1.8056C -3 1.80693 -3 1.80827 -3 1.8096C -3 1.81094 -3 1.81227 -3 1.81361C -3 1.81494 -3 1.81628 -3 1.81761C -3 1.81895 -3 1.82029 -3 1.82162C -3 1.82296 -3 1.8243 -3 1.82563C -3 1.82697 -3 1.82831 -3 1.82965C -3 1.83098 -3 1.83232 -3 1.83366C -3 1.835 -3 1.83634 -3 1.83768C -3 1.83902 -3 1.84035 -3 1.84169C -3 1.84303 -3 1.84437 -3 1.84571C -3 1.84705 -3 1.8484 -3 1.84974C -3 1.85108 -3 1.85242 -3 1.85376C -3 1.8551 -3 1.85644 -3 1.85779C -3 1.85913 -3 1.86047 -3 1.86181C -3 1.86316 -3 1.8645 -3 1.86584C -3 1.86719 -3 1.86853 -3 1.86988C -3 1.87122 -3 1.87257 -3 1.87391C -3 1.87525 -3 1.8766 -3 1.87795C -3 1.87929 -3 1.88064 -3 1.88198C -3 1.88333 -3 1.88468 -3 1.88602C -3 1.88737 -3 1.88872 -3 1.89007C -3 1.89141 -3 1.89276 -3 1.89411C -3 1.89546 -3 1.89681 -3 1.89816C -3 1.89951 -3 1.90085 -3 1.9022C -3 1.90355 -3 1.9049 -3 1.90625C -3 1.9076 -3 1.90896 -3 1.91031C -3 1.91166 -3 1.91301 -3 1.91436C -3 1.91571 -3 1.91707 -3 1.91842C -3 1.91977 -3 1.92112 -3 1.92248C -3 1.92383 -3 1.92518 -3 1.92654C -3 1.92789 -3 1.92925 -3 1.9306C -3 1.93195 -3 1.93331 -3 1.93466C -3 1.93602 -3 1.93738 -3 1.93873C -3 1.94009 -3 1.94144 -3 1.9428C -3 1.94416 -3 1.94552 -3 1.94687C -3 1.94823 -3 1.94959 -3 1.95095C -3 1.9523 -3 1.95366 -3 1.95502C -3 1.95638 -3 1.95774 -3 1.9591C -3 1.96046 -3 1.96182 -3 1.96318C -3 1.96454 -3 1.9659 -3 1.96726C -3 1.96862 -3 1.96999 -3 1.97135C -3 1.97271 -3 1.97407 -3 1.97543C -3 1.9768 -3 1.97816 -3 1.97952C -3 1.98089 -3 1.98225 -3 1.98362C -3 1.98498 -3 1.98634 -3 1.98771C -3 1.98907 -3 1.99044 -3 1.9918C -3 1.99317 -3 1.99454 -3 1.9959C -3 1.99727 -3 1.99864 -3 2L 3 2Z"/>
<path id="path3_fill" d="M 143.503 73.5028C 146.603 84.5028 157.703 103.503 161.103 108.403C 164.403 113.203 171.003 126.103 166.803 129.803C 164.603 131.803 154.603 124.903 144.103 111.103L 144.303 111.803C 144.103 121.203 143.603 135.703 142.903 144.003C 141.203 161.503 136.503 186.103 133.403 186.103C 124.303 186.103 128.903 170.603 120.003 159.803C 114.203 152.703 105.003 150.703 91.3032 151.103C 78.8032 151.403 66.7032 150.503 58.5032 160.503C 50.8032 169.903 56.5032 186.103 48.4032 186.103C 44.8032 186.103 40.2032 159.603 39.0032 144.703C 38.1032 133.403 37.6032 120.903 37.5032 109.303L 38.0032 109.003C 27.4032 90.0028 11.4032 70.9028 2.20322 62.1028C 2.20322 62.1028 -3.89678 57.8028 4.20322 54.8028C 12.3032 51.8028 31.1032 69.0028 37.1032 76.2028C 37.1032 42.2028 52.3032 -0.397204 93.1032 0.00279591C 137.803 0.502796 143.003 65.1028 143.503 73.5028Z"/>
<path id="path4_stroke" d="M 143.503 73.5028L 141.008 73.6513C 141.018 73.8306 141.048 74.0081 141.097 74.1809L 143.503 73.5028ZM 161.103 108.403L 163.163 106.986L 163.157 106.978L 161.103 108.403ZM 166.803 129.803L 165.151 127.927C 165.141 127.936 165.131 127.944 165.122 127.953L 166.803 129.803ZM 144.103 111.103L 146.093 109.589C 145.365 108.632 144.059 108.329 142.984 108.868C 141.909 109.406 141.369 110.633 141.699 111.79L 144.103 111.103ZM 144.303 111.803L 146.803 111.856C 146.808 111.606 146.776 111.356 146.707 111.116L 144.303 111.803ZM 142.903 144.003L 145.391 144.245C 145.393 144.234 145.393 144.223 145.394 144.213L 142.903 144.003ZM 120.003 159.803L 118.067 161.384L 118.074 161.393L 120.003 159.803ZM 91.3032 151.103L 91.3632 153.602L 91.3762 153.602L 91.3032 151.103ZM 58.5032 160.503L 56.57 158.918L 56.5692 158.919L 58.5032 160.503ZM 39.0032 144.703L 36.5111 144.901L 36.5113 144.903L 39.0032 144.703ZM 37.5032 109.303L 36.217 107.159C 35.4574 107.615 34.9957 108.439 35.0033 109.324L 37.5032 109.303ZM 38.0032 109.003L 39.2895 111.147C 40.4471 110.452 40.8442 108.964 40.1864 107.785L 38.0032 109.003ZM 2.20322 62.1028L 3.93127 60.2962C 3.84141 60.2102 3.74525 60.1311 3.64361 60.0594L 2.20322 62.1028ZM 37.1032 76.2028L 35.1827 77.8033C 35.8565 78.6118 36.9646 78.9118 37.9543 78.5535C 38.944 78.1952 39.6032 77.2553 39.6032 76.2028L 37.1032 76.2028ZM 93.1032 0.00279591L 93.1312 -2.49705L 93.1277 -2.49708L 93.1032 0.00279591ZM 141.097 74.1809C 142.725 79.9588 146.388 87.6612 149.984 94.4153C 153.596 101.198 157.272 107.267 159.049 109.828L 163.157 106.978C 161.534 104.639 157.961 98.7575 154.397 92.0653C 150.819 85.3444 147.381 78.0467 145.909 72.8247L 141.097 74.1809ZM 159.043 109.819C 160.589 112.068 162.958 116.302 164.412 120.359C 165.143 122.396 165.587 124.237 165.651 125.683C 165.717 127.187 165.362 127.74 165.151 127.927L 168.456 131.679C 170.344 130.015 170.739 127.569 170.646 125.463C 170.551 123.3 169.926 120.922 169.119 118.671C 167.499 114.153 164.917 109.538 163.163 106.986L 159.043 109.819ZM 165.122 127.953C 165.503 127.606 165.852 127.647 165.747 127.642C 165.635 127.637 165.319 127.585 164.757 127.354C 163.644 126.895 162.064 125.941 160.107 124.409C 156.224 121.37 151.245 116.36 146.093 109.589L 142.114 112.617C 147.462 119.645 152.732 124.986 157.025 128.346C 159.155 130.014 161.144 131.273 162.853 131.977C 163.701 132.326 164.609 132.594 165.507 132.637C 166.41 132.68 167.553 132.5 168.485 131.653L 165.122 127.953ZM 141.699 111.79L 141.899 112.49L 146.707 111.116L 146.507 110.416L 141.699 111.79ZM 141.804 111.75C 141.604 121.145 141.105 135.577 140.412 143.793L 145.394 144.213C 146.102 135.828 146.603 121.261 146.803 111.856L 141.804 111.75ZM 140.415 143.761C 139.573 152.423 137.987 162.855 136.233 171.095C 135.353 175.227 134.448 178.728 133.597 181.16C 133.165 182.392 132.788 183.23 132.494 183.716C 132.344 183.963 132.281 184.007 132.331 183.963C 132.368 183.93 132.74 183.603 133.403 183.603L 133.403 188.603C 134.454 188.603 135.226 188.084 135.674 187.681C 136.133 187.268 136.491 186.767 136.77 186.308C 137.332 185.38 137.844 184.159 138.316 182.812C 139.271 180.084 140.228 176.342 141.123 172.136C 142.919 163.701 144.533 153.082 145.391 144.245L 140.415 143.761ZM 133.403 183.603C 132.633 183.603 132.16 183.443 131.84 183.256C 131.514 183.066 131.187 182.754 130.857 182.212C 130.129 181.016 129.639 179.17 129.075 176.488C 128.013 171.445 126.852 164.183 121.933 158.213L 118.074 161.393C 122.054 166.223 123.043 172.11 124.182 177.518C 124.717 180.061 125.34 182.765 126.587 184.812C 127.244 185.892 128.121 186.875 129.32 187.575C 130.525 188.278 131.898 188.603 133.403 188.603L 133.403 183.603ZM 121.939 158.221C 115.346 150.15 105.051 148.2 91.2303 148.604L 91.3762 153.602C 104.955 153.205 113.061 155.256 118.067 161.384L 121.939 158.221ZM 91.2432 148.604C 85.1778 148.749 78.7021 148.596 72.8257 149.709C 66.8026 150.849 61.1366 153.349 56.57 158.918L 60.4364 162.088C 64.0698 157.657 68.5539 155.606 73.7557 154.622C 79.1044 153.609 84.9287 153.757 91.3632 153.602L 91.2432 148.604ZM 56.5692 158.919C 52.1506 164.313 51.6432 171.567 51.117 176.566C 50.8316 179.277 50.5652 181.182 50.0235 182.427C 49.7777 182.991 49.5444 183.244 49.3766 183.366C 49.2356 183.469 48.9755 183.603 48.4032 183.603L 48.4032 188.603C 49.856 188.603 51.1895 188.23 52.3173 187.41C 53.4183 186.61 54.1287 185.524 54.608 184.422C 55.5163 182.336 55.8249 179.604 56.0895 177.09C 56.6633 171.639 57.1558 166.093 60.4372 162.087L 56.5692 158.919ZM 48.4032 183.603C 48.979 183.603 49.3057 183.87 49.3403 183.9C 49.3755 183.93 49.2977 183.87 49.1329 183.607C 48.8062 183.086 48.3989 182.196 47.9427 180.899C 47.0422 178.341 46.1188 174.691 45.2517 170.485C 43.5221 162.097 42.0868 151.848 41.4952 144.502L 36.5113 144.903C 37.1196 152.457 38.5843 162.909 40.3547 171.495C 41.2376 175.777 42.2143 179.684 43.2262 182.559C 43.7263 183.98 44.2783 185.277 44.8969 186.263C 45.2048 186.754 45.5962 187.278 46.0949 187.703C 46.5929 188.128 47.3774 188.603 48.4032 188.603L 48.4032 183.603ZM 41.4953 144.504C 40.6006 133.271 40.1027 120.83 40.0031 109.281L 35.0033 109.324C 35.1038 120.975 35.6058 133.535 36.5111 144.901L 41.4953 144.504ZM 38.7895 111.447L 39.2895 111.147L 36.717 106.859L 36.217 107.159L 38.7895 111.447ZM 40.1864 107.785C 29.4534 88.5463 13.2936 69.2514 3.93127 60.2962L 0.475161 63.9094C 9.51284 72.5541 25.353 91.4592 35.82 110.221L 40.1864 107.785ZM 2.20322 62.1028C 3.64361 60.0594 3.64454 60.0601 3.64545 60.0607C 3.64572 60.0609 3.64661 60.0616 3.64716 60.062C 3.64825 60.0627 3.64926 60.0634 3.65018 60.0641C 3.65203 60.0654 3.65354 60.0665 3.65473 60.0673C 3.65709 60.069 3.65814 60.0698 3.65795 60.0697C 3.65757 60.0694 3.65229 60.0655 3.64271 60.0583C 3.6234 60.0437 3.58748 60.0161 3.53934 59.9767C 3.44139 59.8966 3.3024 59.7759 3.15365 59.6256C 2.82033 59.2887 2.60169 58.9678 2.52282 58.7447C 2.4867 58.6425 2.49312 58.6843 2.53363 58.6254C 2.67842 58.4148 3.25663 57.8193 5.0715 57.1472L 3.33493 52.4584C 1.09981 53.2863 -0.596986 54.3533 -1.58657 55.7927C -2.68044 57.3838 -2.66777 59.0631 -2.19138 60.4109C -1.75776 61.6378 -0.957641 62.5794 -0.400342 63.1425C -0.10378 63.4422 0.170511 63.6808 0.374517 63.8476C 0.477352 63.9317 0.564576 63.9994 0.630673 64.0492C 0.663784 64.0742 0.691777 64.0949 0.71398 64.1111C 0.725088 64.1192 0.734765 64.1261 0.742928 64.132C 0.747011 64.1349 0.750717 64.1376 0.754036 64.1399C 0.755695 64.1411 0.757259 64.1422 0.758724 64.1432C 0.759456 64.1438 0.760483 64.1445 0.760849 64.1447C 0.761849 64.1455 0.762826 64.1461 2.20322 62.1028ZM 5.0715 57.1472C 6.14192 56.7507 8.05185 56.9131 10.9199 58.1609C 13.6661 59.3556 16.7885 61.3243 19.9451 63.681C 26.2572 68.3938 32.3132 74.3599 35.1827 77.8033L 39.0238 74.6023C 35.8933 70.8457 29.5492 64.6118 22.9364 59.6745C 19.6304 57.2062 16.1591 54.9875 12.9146 53.576C 9.79208 52.2175 6.31452 51.3549 3.33493 52.4584L 5.0715 57.1472ZM 39.6032 76.2028C 39.6032 59.5113 43.3447 40.8423 51.9476 26.488C 60.4886 12.2369 73.7401 2.31308 93.0787 2.50268L 93.1277 -2.49708C 71.6664 -2.70749 56.9178 8.46867 47.6588 23.9176C 38.4618 39.2633 34.6032 58.8943 34.6032 76.2028L 39.6032 76.2028ZM 93.0753 2.50264C 113.897 2.73555 125.745 17.7999 132.559 34.724C 139.355 51.6047 140.762 69.5291 141.008 73.6513L 145.999 73.3542C 145.744 69.0765 144.301 50.5009 137.197 32.8566C 130.111 15.2557 117.009 -2.22996 93.1312 -2.49705L 93.0753 2.50264Z"/>
<path id="path5_fill" d="M 15.2664 107.916C 13.5664 113.416 1.26645 93.9165 0.366446 87.2165C -1.13355 75.8165 0.766447 42.4165 29.5664 13.6165C 54.0664 -10.9835 89.1665 2.61647 101.666 16.4165C 116.566 32.8165 126.866 65.6165 126.866 79.9165C 126.866 87.8165 115.166 109.416 110.966 107.816C 101.966 104.316 112.766 68.9165 96.3664 44.2165C 87.4664 30.8165 79.2664 18.8165 71.4664 26.7165C 59.0664 39.2165 53.6664 34.7165 29.3664 41.0165C 13.2664 45.3165 18.2664 97.9165 15.2664 107.916Z"/>
<path id="path6_stroke" d="M -1.37072 2.62182C -1.70717 3.37884 -1.36623 4.26529 -0.609206 4.60174C 0.14782 4.9382 1.03426 4.59726 1.37072 3.84023L -1.37072 2.62182ZM 9.07345 4.89465C 9.32951 5.68252 10.1758 6.11363 10.9636 5.85758C 11.7515 5.60152 12.1826 4.75526 11.9266 3.9674L 9.07345 4.89465ZM 1.52588e-06 3.23102C 1.37072 3.84023 1.37045 3.84084 1.37019 3.84143C 1.37011 3.84161 1.36985 3.84219 1.36969 3.84255C 1.36937 3.84326 1.36907 3.84393 1.36879 3.84455C 1.36824 3.84578 1.36778 3.8468 1.36741 3.84762C 1.36666 3.84926 1.36628 3.8501 1.36625 3.85015C 1.36621 3.85025 1.3676 3.84724 1.37044 3.84134C 1.37613 3.82951 1.38756 3.80627 1.40482 3.77333C 1.43947 3.70719 1.49676 3.60367 1.57733 3.47621C 1.74044 3.21816 1.98754 2.88008 2.32018 2.55694C 2.97154 1.9242 3.90287 1.38172 5.24298 1.52278L 5.55703 -1.46073C 3.09714 -1.71967 1.32847 -0.66215 0.229824 0.405105C -0.312535 0.931968 -0.702933 1.46889 -0.958572 1.87334C -1.08739 2.07713 -1.18478 2.25173 -1.25247 2.38091C -1.28638 2.44563 -1.31304 2.49933 -1.33264 2.54004C -1.34245 2.56041 -1.3505 2.57757 -1.35684 2.59127C -1.36001 2.59812 -1.36274 2.60411 -1.36505 2.60921C -1.36621 2.61176 -1.36726 2.61409 -1.3682 2.61619C -1.36867 2.61724 -1.36912 2.61824 -1.36954 2.61918C -1.36975 2.61964 -1.37004 2.6203 -1.37015 2.62054C -1.37043 2.62118 -1.37072 2.62182 1.52588e-06 3.23102ZM 5.24298 1.52278C 6.59453 1.66505 7.53382 2.43954 8.18185 3.29009C 8.50441 3.71344 8.73442 4.1317 8.8828 4.44381C 8.95629 4.5984 9.00784 4.72288 9.03927 4.80347C 9.05494 4.84365 9.06548 4.87256 9.07112 4.88843C 9.07394 4.89635 9.07552 4.90098 9.0759 4.90211C 9.07609 4.90266 9.07598 4.90234 9.07557 4.90111C 9.07536 4.9005 9.07509 4.89965 9.07473 4.89858C 9.07456 4.89804 9.07436 4.89744 9.07415 4.89679C 9.07404 4.89646 9.07387 4.89593 9.07381 4.89577C 9.07363 4.89522 9.07345 4.89465 10.5 4.43103C 11.9266 3.9674 11.9264 3.9668 11.9262 3.96619C 11.9261 3.96597 11.9259 3.96534 11.9257 3.9649C 11.9254 3.964 11.9251 3.96304 11.9248 3.96202C 11.9241 3.95997 11.9234 3.95768 11.9225 3.95514C 11.9208 3.95006 11.9188 3.94399 11.9164 3.93697C 11.9116 3.92293 11.9055 3.90506 11.8978 3.88358C 11.8826 3.84066 11.8615 3.78324 11.8342 3.71327C 11.7797 3.57354 11.7 3.3824 11.5922 3.15574C 11.3781 2.70535 11.0456 2.09861 10.5682 1.47196C 9.61618 0.222504 8.00548 -1.203 5.55703 -1.46073L 5.24298 1.52278Z"/>
<path id="path7_fill" d="M 9.97266 0.0007601C 5.87266 0.0007601 1.67266 6.30076 0.172661 11.1008C -1.12734 15.1008 5.17267 23.3008 10.3727 24.5008C 16.3727 25.9008 22.6727 20.5008 24.0727 15.8008C 25.8727 9.70076 19.2727 -0.0992399 9.97266 0.0007601Z"/>
<path id="path8_stroke" d="M 9.97266 0.0007601L 9.97266 1.50076L 9.98073 1.50076L 9.98879 1.50067L 9.97266 0.0007601ZM 0.172661 11.1008L 1.59921 11.5644L 1.60184 11.5563L 1.60438 11.5482L 0.172661 11.1008ZM 10.3727 24.5008L 10.7135 23.04L 10.71 23.0392L 10.3727 24.5008ZM 24.0727 15.8008L 25.5102 16.229L 25.5113 16.2253L 24.0727 15.8008ZM 9.97266 -1.49924C 7.19886 -1.49924 4.735 0.565828 2.92899 2.81044C 1.05603 5.13826 -0.45554 8.08209 -1.25906 10.6533L 1.60438 11.5482C 2.30086 9.31943 3.6393 6.71325 5.26634 4.69107C 6.96033 2.58569 8.64647 1.50076 9.97266 1.50076L 9.97266 -1.49924ZM -1.25389 10.6371C -1.72738 12.094 -1.46368 13.7333 -0.923584 15.2242C -0.370863 16.7499 0.542575 18.3206 1.64316 19.7613C 3.79921 22.5838 6.94388 25.2489 10.0354 25.9623L 10.71 23.0392C 8.60145 22.5526 5.99612 20.5177 4.02717 17.9402C 3.06525 16.681 2.32244 15.3766 1.89703 14.2023C 1.459 12.9932 1.4227 12.1075 1.59921 11.5644L -1.25389 10.6371ZM 10.0318 25.9615C 13.5766 26.7886 17.0862 25.5859 19.812 23.6642C 22.5279 21.7495 24.6953 18.9649 25.5102 16.229L 22.6351 15.3725C 22.05 17.3366 20.3674 19.6021 18.0834 21.2123C 15.8091 22.8156 13.1687 23.6129 10.7135 23.04L 10.0318 25.9615ZM 25.5113 16.2253C 26.6001 12.5356 25.1208 8.05735 22.3516 4.63262C 19.5411 1.15693 15.1599 -1.5551 9.95654 -1.49915L 9.98879 1.50067C 14.0854 1.45662 17.6542 3.59459 20.0188 6.5189C 22.4245 9.49417 23.3452 12.966 22.634 15.3762L 25.5113 16.2253Z"/>
<path id="path9_fill" d="M 14.3967 0.0007601C 18.4967 0.0007601 22.6967 6.30076 24.1967 11.1008C 25.4967 15.1008 19.1967 23.3008 13.9967 24.5008C 7.99671 25.9008 1.69671 20.5008 0.296708 15.8008C -1.50329 9.70076 5.09671 -0.0992399 14.3967 0.0007601Z"/>
<path id="path10_stroke" d="M 14.3967 0.0007601L 14.3806 1.50067L 14.3886 1.50076L 14.3967 1.50076L 14.3967 0.0007601ZM 24.1967 11.1008L 22.765 11.5482L 22.7675 11.5563L 22.7702 11.5644L 24.1967 11.1008ZM 13.9967 24.5008L 13.6594 23.0392L 13.6559 23.04L 13.9967 24.5008ZM 0.296708 15.8008L -1.14197 16.2253L -1.14087 16.229L 0.296708 15.8008ZM 14.3967 1.50076C 15.7229 1.50076 17.409 2.58569 19.103 4.69107C 20.7301 6.71325 22.0685 9.31943 22.765 11.5482L 25.6284 10.6533C 24.8249 8.08209 23.3133 5.13826 21.4404 2.81044C 19.6344 0.565828 17.1705 -1.49924 14.3967 -1.49924L 14.3967 1.50076ZM 22.7702 11.5644C 22.9467 12.1075 22.9104 12.9932 22.4723 14.2023C 22.0469 15.3766 21.3041 16.681 20.3422 17.9402C 18.3733 20.5177 15.7679 22.5526 13.6594 23.0392L 14.334 25.9623C 17.4255 25.2489 20.5702 22.5838 22.7262 19.7613C 23.8268 18.3206 24.7402 16.7499 25.293 15.2242C 25.833 13.7333 26.0967 12.094 25.6233 10.6371L 22.7702 11.5644ZM 13.6559 23.04C 11.2006 23.6129 8.56026 22.8156 6.28601 21.2123C 4.00197 19.6021 2.31932 17.3366 1.73429 15.3725L -1.14087 16.229C -0.325908 18.9649 1.84144 21.7495 4.55741 23.6642C 7.28316 25.5859 10.7928 26.7886 14.3376 25.9615L 13.6559 23.04ZM 1.73538 15.3762C 1.02415 12.966 1.94482 9.49417 4.3506 6.5189C 6.71519 3.59459 10.284 1.45662 14.3806 1.50067L 14.4128 -1.49915C 9.20942 -1.5551 4.82822 1.15693 2.01781 4.63262C -0.75141 8.05735 -2.23074 12.5356 -1.14196 16.2253L 1.73538 15.3762Z"/>
<path id="path11_stroke" d="M 1.17467 -0.332826C 0.659483 -0.981576 -0.284072 -1.08985 -0.932823 -0.57467C -1.58157 -0.0594861 -1.68985 0.884069 -1.17467 1.53282L 1.17467 -0.332826ZM 11.8571 0.954573C 12.3843 0.315546 12.2936 -0.629865 11.6546 -1.15706C 11.0155 -1.68426 10.0701 -1.5936 9.54294 -0.954576L 11.8571 0.954573ZM 0 0.599997C -1.17467 1.53282 -1.17446 1.53308 -1.17424 1.53336C -1.17415 1.53346 -1.17393 1.53375 -1.17375 1.53397C -1.1734 1.53441 -1.17302 1.5349 -1.17258 1.53544C -1.17172 1.53652 -1.17069 1.53781 -1.1695 1.5393C -1.16711 1.54229 -1.16405 1.5461 -1.16034 1.55071C -1.15293 1.55991 -1.14289 1.5723 -1.13033 1.58766C -1.10522 1.61838 -1.06996 1.66103 -1.02529 1.71392C -0.93605 1.81959 -0.808658 1.96683 -0.64906 2.14188C -0.331709 2.48994 0.122132 2.958 0.664296 3.43066C 1.20198 3.89941 1.85707 4.39959 2.57822 4.78878C 3.28847 5.17209 4.15874 5.5 5.1 5.5L 5.1 2.5C 4.84126 2.5 4.47402 2.40291 4.00302 2.14872C 3.54293 1.90041 3.07301 1.55059 2.6357 1.16934C 2.20287 0.791995 1.83171 0.410055 1.56781 0.120617C 1.43678 -0.0230892 1.33449 -0.141472 1.2667 -0.221742C 1.23285 -0.261817 1.20776 -0.29221 1.19215 -0.311304C 1.18435 -0.320845 1.17893 -0.327547 1.17598 -0.331206C 1.17451 -0.333035 1.17365 -0.334102 1.17343 -0.334381C 1.17332 -0.33452 1.17336 -0.334462 1.17357 -0.334204C 1.17367 -0.334075 1.17382 -0.333896 1.174 -0.333667C 1.17409 -0.333552 1.17426 -0.333341 1.1743 -0.333284C 1.17448 -0.333061 1.17467 -0.332826 0 0.599997ZM 5.1 5.5C 6.07267 5.5 6.98947 5.09243 7.71001 4.66544C 8.45961 4.22123 9.16955 3.65103 9.76525 3.11556C 10.3666 2.57504 10.8852 2.0393 11.2519 1.64108C 11.4361 1.441 11.5842 1.27326 11.6876 1.15388C 11.7393 1.09414 11.78 1.04635 11.8086 1.01251C 11.8229 0.995578 11.8341 0.982123 11.8423 0.972389C 11.8463 0.967521 11.8496 0.963582 11.8521 0.960603C 11.8533 0.959113 11.8543 0.957864 11.8552 0.956857C 11.8556 0.956354 11.856 0.955912 11.8563 0.955531C 11.8564 0.955341 11.8566 0.955101 11.8567 0.955006C 11.8569 0.954782 11.8571 0.954573 10.7 -1.52588e-06C 9.54294 -0.954576 9.54308 -0.954754 9.54322 -0.954917C 9.54325 -0.954951 9.54337 -0.9551 9.54343 -0.955169C 9.54354 -0.955306 9.5436 -0.955384 9.54362 -0.955403C 9.54365 -0.95544 9.54349 -0.955241 9.54313 -0.954808C 9.54241 -0.953942 9.54091 -0.952143 9.53866 -0.949443C 9.53415 -0.94404 9.52661 -0.935034 9.51617 -0.922665C 9.49528 -0.897917 9.46282 -0.859768 9.41984 -0.810137C 9.33378 -0.710767 9.20607 -0.566006 9.045 -0.391084C 8.72106 -0.039299 8.27091 0.42496 7.75974 0.884434C 7.24295 1.34897 6.69664 1.77877 6.18061 2.08456C 5.63553 2.40757 5.27733 2.5 5.1 2.5L 5.1 5.5Z"/>
</defs>
</svg>
