<svg width="308" height="308" viewBox="0 0 308 308" fill="none" xmlns="http://www.w3.org/2000/svg">
<circle cx="153.281" cy="153.281" r="153.281" transform="translate(0.602539 0.952637)" fill="#71C9DE"/>
<mask id="mask0" mask-type="alpha" maskUnits="userSpaceOnUse" x="17" y="18" width="273" height="273">
<circle cx="135.97" cy="135.97" r="135.97" transform="translate(17.9141 18.2632)" fill="#C4C4C4"/>
</mask>
<g mask="url(#mask0)">
<path d="M71.038 4.63116L45.683 3.22316L7.82651 0.759194C7.82651 0.759194 0.607371 -0.824803 0.0791409 0.583185C-0.449089 1.99117 1.83991 8.50312 1.83991 8.50312L39.8724 26.983L65.4035 33.6709L81.2504 38.9509L71.038 4.63116Z" transform="translate(0.792969 231.442)" fill="#FBF2DB"/>
<path d="M71.038 4.63116L45.683 3.22316L7.82651 0.759194C7.82651 0.759194 0.607373 -0.824803 0.0791429 0.583185C-0.449087 1.99117 1.83991 8.50312 1.83991 8.50312L39.8724 26.983L65.4035 33.6709L81.2504 38.9509L71.038 4.63116Z" transform="translate(170.355 234.962)" fill="#FBF2DB"/>
<path d="M6.33876 34.6717L112.689 0L193.332 56.6715L208.948 195.658L160.758 233.902L34.511 190.254L0 186.382L6.33876 34.6717Z" transform="translate(58.0967 154.233)" fill="#FBF2DB"/>
<path d="M-2.68671e-06 139.391C-2.68671e-06 139.391 33.6306 182.334 76.2411 183.39C133.466 184.798 186.289 140.447 186.289 140.447C186.289 140.447 176.077 47.6956 165.512 41.3596C154.947 35.0237 101.948 -6.71381e-07 101.948 -6.71381e-07L33.4545 22.8798L4.93015 77.9673L-2.68671e-06 139.391Z" transform="translate(65.1396 70.458)" fill="#F29BC0"/>
<path d="M3.52153 173.119C1.58469 173.119 0.704303 173.119 0.528227 172.943C0.35215 172.943 0.528227 172.943 0.528227 172.767V172.591V172.239V171.359V169.775L0.352153 166.607L0.176079 160.095C2.68934e-06 155.695 -1.34336e-06 151.471 -1.34336e-06 147.071C-1.34336e-06 138.447 0.352156 129.823 1.05646 121.023C2.46507 103.599 5.10622 86.3516 10.3885 69.1037C13.0297 60.4798 16.5512 52.2079 21.1292 44.112C25.7072 36.016 31.1655 28.4481 38.0325 21.7601C44.8995 15.0722 53.3512 9.79225 62.3311 6.09628C66.9091 4.3363 71.4871 2.92831 76.2411 2.04832L79.7627 1.52032L83.2842 0.992324L86.8057 0.64033L90.1512 0.46433C98.955 -0.0636652 107.935 -0.239664 116.915 0.46433C126.071 1.16832 135.403 2.75231 144.735 6.44828C149.313 8.20826 153.891 10.8482 157.941 14.0162C161.99 17.1842 165.512 20.8802 168.505 24.9281C174.492 32.8481 178.013 41.648 181.007 50.0959C183.824 58.5438 186.113 66.9918 188.05 75.4397L190.867 87.9356L192.276 94.4475C192.804 96.9115 192.98 99.0235 193.156 101.311C193.86 110.111 194.036 118.735 194.036 127.359C194.036 131.759 193.86 135.983 193.86 140.207C193.684 144.431 193.508 148.831 193.332 153.055L188.226 153.231C187.874 149.007 187.345 144.783 186.817 140.559C186.289 136.335 185.937 132.111 185.409 127.887C184.352 119.439 183.296 110.991 181.711 102.895C181.359 100.959 180.831 98.8475 180.478 97.0875L180.126 95.8555L179.598 94.2715L178.542 91.2795L174.492 79.1357C171.851 71.0397 169.21 63.1198 166.04 55.5519C162.871 47.9839 159.349 40.944 154.947 35.488C150.369 29.8561 144.911 25.9841 138.22 23.5201C131.529 20.8802 123.782 19.8242 115.858 19.2962C107.935 18.7682 99.6593 19.1202 91.3837 19.4722L88.2143 19.6482L85.3971 19.8242L82.5799 20.1762L79.7627 20.7042C76.0651 21.4082 72.5435 22.4641 69.022 23.6961C62.155 26.3361 55.8163 30.2081 50.1818 35.136C44.5474 40.064 39.6172 46.0479 35.3914 52.7359C31.1655 59.4238 27.8201 66.8158 24.6507 74.2077C18.488 89.3436 14.6144 105.711 11.7971 122.255C10.3885 130.527 9.33206 138.975 8.62775 147.423C8.2756 151.647 7.92344 155.871 7.57129 160.095L7.21914 166.431L7.04306 169.599V171.183V172.063V172.415V172.591C7.04306 172.591 7.04306 172.591 7.04306 172.767C6.16268 173.119 5.45837 173.119 3.52153 173.119Z" transform="translate(61.9717 61.5464)" fill="#231F20"/>
<path d="M62.0497 395.469C43.2095 439.468 65.043 454.428 72.0861 460.588C56.2392 464.988 29.1234 463.932 9.22677 412.54C-13.311 354.109 11.3397 134.463 20.8478 -5.37105e-06" transform="translate(42.707 268.986)" stroke="#231F20" stroke-width="9.89254" stroke-miterlimit="10" stroke-linecap="round" stroke-linejoin="round"/>
<path d="M152.482 2.68552e-06C166.744 144.671 209.355 388.957 147.552 438.764C106.526 471.852 123.782 499.836 138.22 515.324C140.509 517.788 97.0182 521.484 86.2775 479.244C83.1081 466.572 80.6431 443.692 60.3943 445.452C45.2517 446.684 25.0029 451.26 -2.68671e-06 436.3" transform="translate(98.5947 219.177)" stroke="#231F20" stroke-width="9.89254" stroke-miterlimit="10" stroke-linecap="round"/>
<path d="M41.2209 196.05C42.2774 206.082 -1.03744 185.843 0.0190171 173.875C1.77978 152.227 -2.79821 74.0835 47.7358 23.3959C90.8745 -19.7237 165.883 5.44409 187.893 29.7319C214.128 58.5956 236.49 145.011 225.397 174.051C222.58 181.267 172.75 208.018 170.109 198.514C165.531 182.147 194.231 120.899 165.355 77.4275C149.684 53.8437 138.063 42.9318 124.329 56.8356C102.496 78.8355 93.1635 70.9155 51.9616 86.7554C29.4238 95.3793 39.2841 177.571 41.2209 196.05Z" transform="translate(42.7588 41.0781)" fill="#231F20"/>
<path d="M-2.68671e-06 4.78907C-2.68671e-06 4.78907 2.46507 -0.490882 7.92344 0.037114C13.5579 0.56511 15.4947 6.54906 15.4947 6.54906" transform="translate(132.049 137.125)" stroke="#231F20" stroke-width="7.41941" stroke-miterlimit="10" stroke-linecap="round" stroke-linejoin="round"/>
<path d="M14.6969 0.00157843C8.71031 0.00157843 2.54762 9.32949 0.258624 16.3694C-1.67822 22.3534 7.65384 34.4973 15.2251 36.2573C24.029 38.3693 33.5371 30.2733 35.4739 23.4094C38.1151 14.4334 28.4309 -0.17442 14.6969 0.00157843Z" transform="translate(147.637 130.296)" fill="white" stroke="#231F20" stroke-width="7.41941" stroke-miterlimit="10"/>
<path d="M21.2123 0.00157843C27.1989 0.00157843 33.3615 9.32949 35.6505 16.3694C37.5874 22.3534 28.2553 34.4973 20.684 36.2573C11.8802 38.3693 2.37208 30.2733 0.435243 23.4094C-2.20591 14.4334 7.4783 -0.17442 21.2123 0.00157843Z" transform="translate(95.6943 130.296)" fill="white" stroke="#231F20" stroke-width="7.41941" stroke-miterlimit="10"/>
<path d="M-2.68671e-06 -3.05176e-06H35.9196" transform="translate(117.964 184.504)" stroke="#221F1F" stroke-width="8" stroke-miterlimit="10" stroke-linecap="round" stroke-linejoin="round"/>
<path d="M1.04511 0.175996C1.04511 0.175996 -2.65248 5.63195 3.86235 7.74394C10.3772 9.85592 22.7025 0 22.7025 0" transform="translate(124.137 185.032)" fill="#EF6696"/>
<path d="M1.04511 0.175996C1.04511 0.175996 -2.65248 5.63195 3.86235 7.74394C10.3772 9.85592 22.7025 0 22.7025 0" transform="translate(124.137 185.032)" stroke="#221F1F" stroke-width="5" stroke-miterlimit="10" stroke-linecap="round" stroke-linejoin="round"/>
<path d="M4.04976 5.37105e-06L-5.37343e-06 3.87197" transform="translate(128.702 185.562)" stroke="#BC5795" stroke-width="1.23657" stroke-miterlimit="10" stroke-linecap="round" stroke-linejoin="round"/>
<path d="M63.1175 36.8457C63.1175 36.8457 43.0448 26.6378 36.0017 24.1738C13.4639 16.4299 -5.20019 4.28601 1.31464 0.590042C5.3644 -1.69794 51.6725 3.40602 67.3433 3.40602" transform="translate(-0.443359 231.61)" stroke="#231F20" stroke-width="8.55878" stroke-miterlimit="10" stroke-linecap="round" stroke-linejoin="round"/>
</g>
</svg>
