<svg width="485" height="2466" viewBox="0 0 485 2466" version="1.1" xmlns="http://www.w3.org/2000/svg" xmlns:xlink="http://www.w3.org/1999/xlink">
<g id="Canvas" fill="none">
<g id="comic-self_diagram">
<g id="Vector">
<path d="M 191.404 86.9064C 297.114 86.9064 382.808 67.4518 382.808 43.4532C 382.808 19.4547 297.114 1.90804e-05 191.404 1.90804e-05C 85.6945 1.90804e-05 4.77221e-06 19.4547 4.77221e-06 43.4532C 4.77221e-06 67.4518 85.6945 86.9064 191.404 86.9064Z" transform="translate(56.6738 2378.21)" fill="#6BDBDB"/>
</g>
<g id="Vector_2">
<path d="M 126.179 8.22598L 81.1433 5.72506L 13.9017 1.3485C 13.9017 1.3485 1.07883 -1.46504 0.140576 1.03587C -0.797679 3.53677 3.26809 15.1035 3.26809 15.1035L 70.8224 47.9278L 116.171 59.8071L 144.319 69.1855L 126.179 8.22598Z" transform="translate(256.376 344.381)" fill="#FBF2DB"/>
</g>
<g id="Vector_3">
<path d="M 14.1403 61.6665L 197.11 0L 340.35 100.661L 357.891 347.394L 282.491 415.463L 58.2484 337.935L 0 329.841L 14.1403 61.6665Z" transform="translate(60.0322 200.989)" fill="#FBF2DB"/>
</g>
<g id="Vector_4">
<path d="M 12.0236 37.0569C 58.3108 54.5632 89.7597 74.2578 110.714 37.0569C 131.668 -0.144077 184.836 -15.1495 205.478 19.5506C 226.432 54.2506 269.905 117.398 297.114 87.075C 324.324 56.7515 354.476 37.0569 354.476 37.0569L 380.97 473.912L 186.556 511.425L 103.051 473.912L 0.000534058 489.17L 0 433.105L 12.0236 37.0569Z" transform="translate(53.6953 378.512)" fill="#63BBD0"/>
</g>
<g id="Vector_5">
<path d="M 4.54222 137.22C 4.54222 137.22 -5.24882 123.96 9.45051 124.272C 82.9472 125.21 48.0317 88.1396 118.401 19.9899C 196.589 -55.9751 251.007 106.896 286.348 137.22C 321.689 167.543 391.781 128.886 387.089 152.332C 387.089 175.391 408.208 589.276 408.208 589.276L 410.696 679.317L 227.058 691.839L 106.648 659.014L 0 745.34L 0.000151634 630.884L 4.54222 137.22Z" transform="translate(49.0762 692.57)" fill="#DC9AB7"/>
</g>
<g id="Vector_6">
<path d="M 44.7923 74.431C 44.7923 74.431 72.3145 10.0326 145.498 1.59207C 218.682 -6.84849 178.65 16.9102 224.625 105.692C 270.599 194.474 272.788 75.3688 308.129 105.692C 343.47 136.016 442.397 132.115 447.714 140.869C 450.842 146.183 424.354 614.463 412.782 665.419C 405.276 698.243 393.281 830.882 393.281 830.882L 236.058 805.683L 182.231 702.504L 118.117 724.7L 58.0687 724.7L 6.59998e-05 697.199L 44.7923 74.431Z" transform="matrix(0.997205 -0.0747133 0.0747133 0.997205 0 1229.07)" fill="#FFDC00"/>
</g>
<g id="Vector_7">
<path d="M 0 68.0403C 37.4181 -8.54991 118.361 -7.96167 132.1 9.85728C 145.84 27.6762 220.091 119.272 254.002 83.3214C 287.912 47.3709 284.404 101.766 316.267 116.771C 347.547 131.464 407.353 124.38 407.353 124.38L 401.279 284.626L 393.213 334.334L 385.148 384.042L 366.312 436.834L 338.062 461.746L 316.268 505.199L 316.268 527.707L 322.114 555.842L 342.031 581.19L 320.36 584.603L 297.851 574.599L 279.398 568.84L 252.051 531.931L 239.26 482.669L 219.852 456.806L 165.425 461.746L 117.299 452.735C 117.299 452.735 100.781 508.019 104.901 531.931C 109.02 555.842 130.825 574.599 130.825 574.599L 84.9879 571.084L 51.5496 540.652L 21.5998 482.669L 11.7242 409.904" transform="translate(51.3545 1777.86)" fill="#EE4444"/>
</g>
<g id="Vector_8">
<path d="M -4.77221e-06 247.59C -4.77221e-06 247.59 59.7356 323.867 135.421 325.743C 237.066 328.244 330.891 249.465 330.891 249.465C 330.891 249.465 312.752 84.7181 293.987 73.4641C 275.222 62.21 181.083 -1.19252e-06 181.083 -1.19252e-06L 59.4228 40.6397L 8.75705 138.488L -4.77221e-06 247.59Z" transform="translate(69.4883 52.1865)" fill="#F29BC0"/>
</g>
<g id="Group">
<g id="Group_2">
<g id="Vector_9">
<path d="M 6.25503 307.498C 2.81476 307.498 1.251 307.498 0.93825 307.186C 0.625499 307.186 0.93825 307.186 0.93825 306.873L 0.93825 306.56L 0.93825 305.935L 0.93825 304.372L 0.93825 301.559L 0.625503 295.932L 0.312756 284.365C 4.77687e-06 276.55 -2.38611e-06 269.047 -2.38611e-06 261.231C -2.38611e-06 245.913 0.625508 230.595 1.87651 214.965C 4.37853 184.016 9.0698 153.38 18.4524 122.744C 23.1436 107.426 29.3987 92.733 37.5302 78.3528C 45.6617 63.9726 55.3571 50.5302 67.5544 38.6509C 79.7517 26.7716 94.7638 17.3932 110.714 10.8284C 118.846 7.70224 126.977 5.20134 135.421 3.63827L 141.677 2.70044L 147.932 1.76259L 154.187 1.13737L 160.129 0.824756C 175.766 -0.113084 191.717 -0.425697 207.667 0.824756C 223.93 2.07521 240.506 4.88873 257.082 11.4536C 265.213 14.5797 273.345 19.2689 280.538 24.896C 287.732 30.523 293.987 37.0879 299.303 44.278C 309.937 58.3456 316.192 73.9762 321.509 88.9816C 326.513 103.987 330.579 118.993 334.019 133.998L 339.023 156.193L 341.525 167.76C 342.463 172.137 342.776 175.888 343.089 179.952C 344.34 195.583 344.652 210.901 344.652 226.219C 344.652 234.034 344.34 241.537 344.34 249.04C 344.027 256.542 343.714 264.358 343.401 271.86L 334.332 272.173C 333.706 264.67 332.768 257.167 331.83 249.665C 330.891 242.162 330.266 234.659 329.328 227.157C 327.451 212.151 325.575 197.146 322.76 182.766C 322.134 179.327 321.196 175.575 320.571 172.449L 319.945 170.261L 319.007 167.448L 317.13 162.133L 309.937 140.563C 305.246 126.183 300.554 112.115 294.925 98.6727C 289.295 85.2303 283.04 72.7258 275.222 63.0348C 267.09 53.0311 257.395 46.1537 245.51 41.7771C 233.626 37.0879 219.864 35.2122 205.791 34.2744C 191.717 33.3365 177.017 33.9617 162.318 34.587L 156.689 34.8996L 151.685 35.2122L 146.681 35.8374L 141.677 36.7753C 135.109 38.0257 128.854 39.9014 122.599 42.0897C 110.401 46.7789 99.1423 53.6564 89.1342 62.4095C 79.1262 71.1627 70.3691 81.7915 62.8631 93.6708C 55.3571 105.55 49.4148 118.68 43.7852 131.81C 32.8389 158.694 25.9584 187.767 20.9544 217.153C 18.4524 231.846 16.5758 246.851 15.3248 261.857C 14.6993 269.359 14.0738 276.862 13.4483 284.365L 12.8228 295.619L 12.5101 301.246L 12.5101 304.059L 12.5101 305.623L 12.5101 306.248L 12.5101 306.56C 12.5101 306.56 12.5101 306.56 12.5101 306.873C 10.9463 307.498 9.6953 307.498 6.25503 307.498Z" transform="translate(63.8604 36.3555)" fill="#231F20"/>
</g>
</g>
<g id="Vector_10">
<path d="M 118.231 1901.34C 84.7664 1979.49 123.548 2006.06 136.058 2017C 107.91 2024.82 59.7462 2022.94 24.4053 1931.66C -15.6269 1827.87 1.83961 238.836 18.7282 0" stroke-width="9.89254" stroke-miterlimit="10" stroke-linecap="round" stroke-linejoin="round" transform="translate(50.1074 335.746)" stroke="#231F20"/>
</g>
<g id="Vector_11">
<path d="M 250.114 0C 275.447 256.968 371.862 1819.28 262.086 1907.75C 189.215 1966.52 219.864 2016.23 245.51 2043.74C 249.576 2048.11 172.326 2054.68 153.248 1979.65C 147.619 1957.14 143.24 1916.5 107.274 1919.63C 80.3772 1921.82 44.4107 1929.94 0 1903.37" stroke-width="9.89254" stroke-miterlimit="10" stroke-linecap="round" transform="translate(149.643 316.344)" stroke="#231F20"/>
</g>
</g>
<g id="Vector_12">
<path d="M 73.2177 348.23C 75.0942 366.049 -1.84273 330.098 0.0337787 308.841C 3.1613 270.389 -4.97025 131.589 84.7895 41.5565C 161.414 -35.0337 294.646 9.66992 333.74 52.8105C 380.34 104.079 420.059 257.572 400.356 309.153C 395.352 321.97 306.843 369.488 302.152 352.606C 294.02 323.533 344.999 214.744 293.708 137.529C 265.873 95.6385 245.231 76.2565 220.836 100.953C 182.055 140.03 165.479 125.962 92.2955 154.097C 52.2633 169.415 69.7774 315.405 73.2177 348.23Z" transform="translate(29.7363 0)" fill="#231F20"/>
</g>
<g id="Vector_13">
<path d="M -4.77221e-06 8.50648C -4.77221e-06 8.50648 4.37852 -0.871917 14.0738 0.0659228C 24.0819 1.00376 27.5222 11.6326 27.5222 11.6326" stroke-width="7.41941" stroke-miterlimit="10" stroke-linecap="round" stroke-linejoin="round" transform="translate(188.335 170.602)" stroke="#231F20"/>
</g>
<g id="Vector_14">
<path d="M 26.105 0.00280365C 15.4715 0.00280365 4.52515 16.5713 0.459374 29.0758C -2.9809 39.7046 13.5949 61.275 27.0433 64.4011C 42.6809 68.1524 59.5695 53.7722 63.0097 41.5803C 67.701 25.6371 50.4997 -0.309809 26.105 0.00280365Z" transform="translate(216.023 158.472)" fill="white"/>
<path d="M 26.105 0.00280365C 15.4715 0.00280365 4.52515 16.5713 0.459374 29.0758C -2.9809 39.7046 13.5949 61.275 27.0433 64.4011C 42.6809 68.1524 59.5695 53.7722 63.0097 41.5803C 67.701 25.6371 50.4997 -0.309809 26.105 0.00280365Z" stroke-width="7.41941" stroke-miterlimit="10" transform="translate(216.023 158.472)" stroke="#231F20"/>
</g>
<g id="Vector_15">
<path d="M 37.6778 0.00280365C 48.3114 0.00280365 59.2577 16.5713 63.3234 29.0758C 66.7637 39.7046 50.1879 61.275 36.7395 64.4011C 21.1019 68.1524 4.21336 53.7722 0.773089 41.5803C -3.91819 25.6371 13.2832 -0.309809 37.6778 0.00280365Z" transform="translate(123.762 158.472)" fill="white"/>
<path d="M 37.6778 0.00280365C 48.3114 0.00280365 59.2577 16.5713 63.3234 29.0758C 66.7637 39.7046 50.1879 61.275 36.7395 64.4011C 21.1019 68.1524 4.21336 53.7722 0.773089 41.5803C -3.91819 25.6371 13.2832 -0.309809 37.6778 0.00280365Z" stroke-width="7.41941" stroke-miterlimit="10" transform="translate(123.762 158.472)" stroke="#231F20"/>
</g>
<g id="Vector_16">
<path d="M -4.77221e-06 -3.05176e-06L 63.8013 -3.05176e-06" stroke-width="8" stroke-miterlimit="10" stroke-linecap="round" stroke-linejoin="round" transform="translate(163.317 254.758)" stroke="#221F1F"/>
</g>
<g id="Vector_17">
<path d="M 1.85636 0.312608C 1.85636 0.312608 -4.71141 10.0036 6.8604 13.755C 18.4322 17.5063 40.3248 0 40.3248 0" transform="translate(174.282 255.696)" fill="#EF6696"/>
<path d="M 1.85636 0.312608C 1.85636 0.312608 -4.71141 10.0036 6.8604 13.755C 18.4322 17.5063 40.3248 0 40.3248 0" stroke-width="5" stroke-miterlimit="10" stroke-linecap="round" stroke-linejoin="round" transform="translate(174.282 255.696)" stroke="#221F1F"/>
</g>
<g id="Vector_18">
<path d="M 7.19329 9.5402e-06L -9.54443e-06 6.87749" stroke-width="1.23657" stroke-miterlimit="10" stroke-linecap="round" stroke-linejoin="round" transform="translate(182.393 256.637)" stroke="#BC5795"/>
</g>
</g>
</g>
</svg>

