<svg width="224" height="219" viewBox="0 0 224 219" version="1.1" xmlns="http://www.w3.org/2000/svg" xmlns:xlink="http://www.w3.org/1999/xlink">
<title>comic-self_kit 2</title>
<desc>Created using Figma</desc>
<g id="Canvas" transform="translate(-11341 -9412)">
<g id="comic-self_kit 2">
<g id="Vector">
<use xlink:href="#path0_fill" transform="translate(11344.7 9432.77)" fill="url(#paint0_linear)"/>
<use xlink:href="#path1_stroke" transform="translate(11344.7 9432.77)" fill="#231F20"/>
</g>
<g id="Vector">
<use xlink:href="#path2_fill" transform="translate(11530.3 9556.5)" fill="#6FCBDC"/>
</g>
<g id="Vector">
<use xlink:href="#path3_fill" transform="translate(11468.2 9545.75)" fill="#EC1E24"/>
</g>
<g id="Vector">
<use xlink:href="#path4_stroke" transform="translate(11475.3 9509.91)" fill="#231F20"/>
</g>
<g id="Vector">
<use xlink:href="#path5_stroke" transform="translate(11490 9488.73)" fill="#231F20"/>
</g>
<g id="Vector">
<use xlink:href="#path6_fill" transform="translate(11462.9 9473.67)" fill="#FFFFFF"/>
<use xlink:href="#path7_stroke" transform="translate(11462.9 9473.67)" fill="#231F20"/>
</g>
<g id="Vector">
<use xlink:href="#path8_fill" transform="translate(11496.9 9493.28)" fill="#FFFFFF"/>
<use xlink:href="#path9_stroke" transform="translate(11496.9 9493.28)" fill="#231F20"/>
</g>
<g id="Vector">
<use xlink:href="#path10_fill" transform="translate(11405.4 9412.82)" fill="#231F20"/>
</g>
<g id="Vector">
<use xlink:href="#path11_fill" transform="translate(11492.8 9587.22)" fill="#F9D4E4"/>
<use xlink:href="#path12_stroke" transform="translate(11492.8 9587.22)" fill="#231F20"/>
</g>
<g id="Vector">
<use xlink:href="#path13_fill" transform="translate(11436.6 9535.51)" fill="#F9D1E2"/>
<use xlink:href="#path14_stroke" transform="translate(11436.6 9535.51)" fill="#231F20"/>
</g>
<g id="Group">
<g id="Vector">
<use xlink:href="#path15_fill" transform="translate(11500.8 9552.02)" fill="#FFFFFF"/>
<use xlink:href="#path16_stroke" transform="translate(11500.8 9552.02)" fill="#231F20"/>
</g>
<g id="Vector 2" style="mix-blend-mode:multiply">
<use xlink:href="#path17_fill" transform="translate(11537.2 9552.35)" fill="#6BDBDB"/>
</g>
<g id="Vector">
<use xlink:href="#path18_stroke" transform="translate(11543 9556.75)" fill="#231F20"/>
</g>
<g id="Vector">
<use xlink:href="#path19_stroke" transform="translate(11543.5 9559.57)" fill="#231F20"/>
</g>
</g>
</g>
</g>
<defs>
<linearGradient id="paint0_linear" x1="0" y1="0" x2="1" y2="0" gradientUnits="userSpaceOnUse" gradientTransform="matrix(201.409 0 0 201.409 0.0428776 -3.60794)">
<stop offset="0" stop-color="#FFFFFF"/>
<stop offset="1" stop-color="#F29ABF"/>
</linearGradient>
<path id="path0_fill" d="M -2.44127e-07 91.9907C -2.44127e-07 91.9907 22.1427 96.9824 31.3582 91.9907C 49.2772 82.3913 64.2523 54.7448 76.1557 42.2015C 108.666 8.02749 138.616 -18.083 181.75 15.835C 222.835 48.0892 199.797 153.427 108.794 185.681C 83.5792 194.641 55.8048 198.481 -2.44127e-07 187.601"/>
<path id="path1_stroke" d="M 0.703687 88.8692C -1.02026 88.4806 -2.73285 89.5631 -3.12148 91.287C -3.51012 93.011 -2.42763 94.7236 -0.703687 95.1122L 0.703687 88.8692ZM 31.3582 91.9907L 29.8472 89.1701C 29.8429 89.1725 29.8385 89.1748 29.8342 89.1771L 31.3582 91.9907ZM 76.1557 42.2015L 73.8373 39.9961L 73.8346 39.9989L 76.1557 42.2015ZM 181.75 15.835L 179.772 18.3503L 179.774 18.3519L 181.75 15.835ZM 108.794 185.681L 107.725 182.665L 107.722 182.666L 108.794 185.681ZM 0.61229 184.461C -1.12226 184.122 -2.80253 185.254 -3.14069 186.989C -3.47885 188.724 -2.34685 190.404 -0.612291 190.742L 0.61229 184.461ZM -2.44127e-07 91.9907C -0.703687 95.1122 -0.703139 95.1123 -0.702506 95.1125C -0.702183 95.1125 -0.701464 95.1127 -0.700817 95.1128C -0.699522 95.1131 -0.697889 95.1135 -0.69592 95.1139C -0.691983 95.1148 -0.686702 95.116 -0.680095 95.1175C -0.666881 95.1204 -0.648361 95.1245 -0.624667 95.1297C -0.577283 95.1402 -0.509195 95.1551 -0.421481 95.1739C -0.246072 95.2116 0.00795846 95.2653 0.331999 95.3311C 0.979841 95.4628 1.90891 95.6437 3.05014 95.8442C 5.32831 96.2444 8.47305 96.7264 11.926 97.0486C 15.3674 97.3697 19.186 97.539 22.7922 97.2887C 26.3377 97.0427 29.9853 96.3734 32.8822 94.8043L 29.8342 89.1771C 28.1234 90.1038 25.5474 90.6825 22.3492 90.9044C 19.2118 91.1222 15.7669 90.9795 12.5206 90.6766C 9.28594 90.3748 6.31903 89.9208 4.15745 89.5411C 3.0788 89.3516 2.20598 89.1815 1.60689 89.0598C 1.30747 88.9989 1.07677 88.9502 0.923326 88.9172C 0.846613 88.9007 0.789239 88.8881 0.752269 88.88C 0.733785 88.8759 0.720405 88.873 0.712263 88.8711C 0.708192 88.8702 0.70543 88.8696 0.703995 88.8693C 0.703278 88.8691 0.702892 88.869 0.70284 88.869C 0.702813 88.869 0.703026 88.8691 0.703012 88.8691C 0.703307 88.8691 0.703687 88.8692 -2.44127e-07 91.9907ZM 32.8692 94.8113C 42.4909 89.6568 51.0741 79.8349 58.5458 70.1553C 62.3009 65.2905 65.9079 60.2792 69.2199 55.8349C 72.5756 51.332 75.6445 47.3887 78.4767 44.4042L 73.8346 39.9989C 70.7152 43.286 67.4484 47.5023 64.0885 52.0108C 60.6849 56.578 57.1963 61.4302 53.4798 66.2449C 46.0084 75.9241 38.1445 84.7252 29.8472 89.1701L 32.8692 94.8113ZM 78.474 44.407C 94.7969 27.2487 109.95 12.7296 126.124 6.46774C 134.106 3.37757 142.301 2.32034 151.026 3.98315C 159.783 5.65205 169.281 10.1013 179.772 18.3503L 183.728 13.3197C 172.651 4.60974 162.23 -0.396451 152.224 -2.30334C 142.187 -4.21633 132.775 -2.96969 123.814 0.499764C 106.101 7.35719 90.0246 22.9803 73.8373 39.9961L 78.474 44.407ZM 179.774 18.3519C 198.726 33.2305 203.594 65.847 191.784 99.7043C 180.075 133.268 152.233 166.89 107.725 182.665L 109.863 188.697C 156.358 172.218 185.536 137.044 197.826 101.812C 210.014 66.8734 205.859 30.6937 183.726 13.3182L 179.774 18.3519ZM 107.722 182.666C 83.1743 191.389 56.0032 195.259 0.61229 184.461L -0.612291 190.742C 55.6064 201.702 83.9841 197.893 109.865 188.696L 107.722 182.666Z"/>
<path id="path2_fill" d="M 1.40792 18.3029L 15.9991 30.4623L 25.2146 24.4466L 12.7993 -1.95301e-06L -3.90603e-06 15.2311L 1.40792 18.3029Z"/>
<path id="path3_fill" d="M 6.01566 32.6381L 2.43186 39.8057L -3.90603e-06 32.6381L 1.53591 -3.90603e-06L 9.59945 0.383978L 6.01566 32.6381Z"/>
<path id="path4_stroke" d="M 12.3154 7.67956L 13.205 8.59981C 13.4851 8.32908 13.6266 7.94555 13.5896 7.5578C 13.5525 7.17004 13.3409 6.82026 13.0146 6.60748L 12.3154 7.67956ZM 0.540114 -3.90603e-06L 1.2393 -1.07208C 0.873561 -1.31061 0.411462 -1.34623 0.0134923 -1.16657C -0.384478 -0.986917 -0.663405 -0.616777 -0.726415 -0.184706L 0.540114 -3.90603e-06ZM 12.3154 7.67956C 11.4259 6.75931 11.426 6.75921 11.426 6.75914C 11.426 6.75916 11.4261 6.75912 11.426 6.75915C 11.426 6.7592 11.4258 6.75937 11.4255 6.75966C 11.4249 6.76022 11.4239 6.76122 11.4224 6.76266C 11.4194 6.76554 11.4146 6.77017 11.408 6.77647C 11.3948 6.78907 11.3746 6.80838 11.3477 6.83391C 11.2939 6.88498 11.2133 6.96089 11.109 7.05767C 10.9003 7.25135 10.5973 7.52812 10.224 7.85659C 9.47525 8.51542 8.45381 9.37331 7.35016 10.1837C 6.23616 11.0017 5.08758 11.7345 4.07924 12.1773C 3.57586 12.3984 3.15288 12.5267 2.81777 12.5732C 2.48089 12.6199 2.3134 12.5736 2.24428 12.5406L 1.13982 14.8499C 1.80666 15.1688 2.52312 15.1985 3.16968 15.1087C 3.81802 15.0188 4.47798 14.7981 5.10853 14.5211C 6.36806 13.968 7.69134 13.109 8.86521 12.247C 10.0494 11.3775 11.1319 10.4675 11.915 9.7784C 12.3077 9.4329 12.6276 9.14071 12.8504 8.93391C 12.9619 8.83046 13.0492 8.74824 13.1093 8.69126C 13.1393 8.66276 13.1626 8.64056 13.1787 8.62515C 13.1867 8.61745 13.1929 8.61145 13.1974 8.6072C 13.1996 8.60508 13.2013 8.6034 13.2026 8.60216C 13.2032 8.60155 13.2038 8.60104 13.2042 8.60065C 13.2044 8.60045 13.2046 8.60024 13.2047 8.60014C 13.2049 8.59996 13.205 8.59981 12.3154 7.67956ZM 2.24428 12.5406C 2.23176 12.5346 2.10806 12.4657 1.9447 12.1353C 1.78474 11.8117 1.64089 11.3442 1.52932 10.7319C 1.30662 9.50976 1.25246 7.94374 1.29168 6.35115C 1.33057 4.77221 1.45928 3.22815 1.5792 2.07418C 1.63902 1.49856 1.69632 1.02312 1.73849 0.692815C 1.75957 0.527722 1.77684 0.39906 1.78874 0.312461C 1.79468 0.269166 1.79928 0.2364 1.80233 0.214868C 1.80386 0.204102 1.80499 0.196146 1.80572 0.191088C 1.80609 0.188559 1.80635 0.186755 1.8065 0.185686C 1.80658 0.185152 1.80663 0.184801 1.80665 0.184636C 1.80667 0.184553 1.80666 0.184569 1.80667 0.184528C 1.80666 0.184589 1.80664 0.184698 0.540114 -3.90603e-06C -0.726415 -0.184706 -0.726445 -0.184504 -0.726481 -0.184254C -0.726502 -0.184109 -0.726546 -0.183813 -0.726588 -0.183522C -0.726672 -0.18294 -0.726784 -0.182171 -0.726922 -0.181216C -0.727199 -0.179307 -0.727582 -0.176656 -0.728068 -0.173273C -0.729041 -0.166509 -0.730427 -0.156819 -0.732202 -0.144293C -0.735752 -0.119243 -0.740857 -0.0828404 -0.747318 -0.0357966C -0.760237 0.058281 -0.778583 0.194979 -0.800752 0.368617C -0.845075 0.715769 -0.904768 1.21128 -0.966943 1.80959C -1.09101 3.00349 -1.22629 4.61925 -1.26739 6.28812C -1.30816 7.94336 -1.25833 9.71314 -0.98906 11.1908C -0.854637 11.9285 -0.655512 12.6519 -0.349998 13.2698C -0.0478861 13.8808 0.416378 14.5039 1.13982 14.8499L 2.24428 12.5406ZM -0.159068 1.07208L 11.6163 8.75164L 13.0146 6.60748L 1.2393 -1.07208L -0.159068 1.07208Z"/>
<path id="path5_stroke" d="M 8.84465 6.49772C 8.72077 7.55078 9.47401 8.50489 10.5271 8.62878C 11.5801 8.75266 12.5342 7.99942 12.6581 6.94635L 8.84465 6.49772ZM 7.55157 0.578383L 8.38624 -1.15058C 8.37867 -1.15423 8.37108 -1.15784 8.36346 -1.16139L 7.55157 0.578383ZM -1.19301 0.226089C -2.02378 0.88497 -2.16311 2.09257 -1.50423 2.92333C -0.845352 3.75409 0.362243 3.89343 1.19301 3.23455L -1.19301 0.226089ZM 10.7514 6.72204C 12.6581 6.94635 12.6582 6.94551 12.6583 6.94465C 12.6584 6.94434 12.6585 6.94345 12.6585 6.94283C 12.6587 6.94159 12.6588 6.94028 12.659 6.93889C 12.6593 6.93613 12.6597 6.93308 12.66 6.92977C 12.6608 6.92313 12.6616 6.9154 12.6625 6.90659C 12.6643 6.88898 12.6664 6.86705 12.6687 6.84104C 12.6733 6.78904 12.6785 6.72049 12.6831 6.63717C 12.6923 6.4709 12.6991 6.24365 12.6928 5.97005C 12.6803 5.42761 12.6161 4.67686 12.4033 3.84586C 11.974 2.16968 10.9011 0.0634925 8.38624 -1.15058L 6.7169 2.30734C 7.91383 2.88517 8.44083 3.85081 8.68353 4.79848C 8.8067 5.2794 8.84645 5.72859 8.85401 6.0581C 8.85773 6.22048 8.8535 6.34721 8.84916 6.42592C 8.847 6.4651 8.84485 6.49179 8.84374 6.50442C 8.84318 6.51071 8.8429 6.51344 8.843 6.51241C 8.84306 6.51189 8.84321 6.51042 8.84348 6.50798C 8.84361 6.50676 8.84378 6.5053 8.84397 6.50359C 8.84407 6.50274 8.84418 6.50182 8.84429 6.50084C 8.84435 6.50035 8.84444 6.49957 8.84446 6.49933C 8.84456 6.49853 8.84465 6.49772 10.7514 6.72204ZM 8.36346 -1.16139C 5.81941 -2.34861 3.3658 -1.93502 1.67975 -1.32191C 0.829812 -1.01284 0.130877 -0.638956 -0.357261 -0.342245C -0.602992 -0.192879 -0.799886 -0.0602714 -0.940747 0.039236C -1.0113 0.0890741 -1.06815 0.130861 -1.11041 0.162603C -1.13155 0.178482 -1.14907 0.191873 -1.16287 0.202529C -1.16977 0.207858 -1.17574 0.212506 -1.18076 0.216442C -1.18328 0.21841 -1.18556 0.220201 -1.1876 0.22181C -1.18862 0.222614 -1.18958 0.223374 -1.19048 0.224087C -1.19094 0.224443 -1.19157 0.224945 -1.19179 0.225123C -1.19241 0.225611 -1.19301 0.226089 -3.90603e-06 1.73032C 1.19301 3.23455 1.19243 3.235 1.19187 3.23545C 1.1917 3.23558 1.19115 3.23602 1.19082 3.23628C 1.19014 3.23682 1.18952 3.23731 1.18895 3.23776C 1.18781 3.23866 1.18688 3.23938 1.18617 3.23994C 1.18474 3.24106 1.18415 3.24151 1.18439 3.24133C 1.18487 3.24095 1.18866 3.23803 1.19564 3.23279C 1.20963 3.22228 1.23628 3.20257 1.27472 3.17542C 1.35185 3.12093 1.47493 3.03755 1.63718 2.93893C 1.965 2.73967 2.434 2.48959 2.99197 2.28669C 4.12177 1.87585 5.44394 1.71348 6.73967 2.31816L 8.36346 -1.16139Z"/>
<path id="path6_fill" d="M 23.0091 2.32426C 26.8489 4.75612 27.2328 13.0756 25.8249 18.7073C 24.673 23.3151 13.9216 27.4108 8.28993 25.4909C 1.76231 23.3151 -1.05353 14.3556 0.354391 9.23587C 2.14629 2.19627 14.1776 -3.30741 23.0091 2.32426Z"/>
<path id="path7_stroke" d="M 23.0091 2.32426L 21.9768 3.94304L 21.9819 3.94622L 23.0091 2.32426ZM 8.28993 25.4909L 8.90945 23.6737L 8.89706 23.6696L 8.28993 25.4909ZM 0.354391 9.23587L 2.20556 9.74494L 2.21042 9.72725L 2.21495 9.70946L 0.354391 9.23587ZM 21.9819 3.94622C 23.1391 4.67917 24.0968 6.5975 24.4809 9.56249C 24.8484 12.3992 24.6115 15.6453 23.9624 18.2417L 27.6875 19.173C 28.4463 16.1377 28.7214 12.4082 28.2889 9.06923C 27.873 5.85858 26.7188 2.40122 24.0363 0.702304L 21.9819 3.94622ZM 23.9624 18.2417C 23.8207 18.8082 23.3009 19.5985 22.1949 20.4794C 21.1239 21.3325 19.6784 22.128 18.0481 22.7551C 14.6984 24.0434 11.111 24.4243 8.90943 23.6737L 7.67044 27.3081C 11.1005 28.4775 15.7047 27.7704 19.4265 26.3389C 21.3321 25.606 23.1424 24.6337 24.5872 23.4829C 25.9971 22.3599 27.2531 20.9104 27.6875 19.173L 23.9624 18.2417ZM 8.89706 23.6696C 6.32264 22.8114 4.32158 20.5502 3.11238 17.7143C 1.89639 14.8625 1.64222 11.7934 2.20556 9.74494L -1.49678 8.7268C -2.34136 11.798 -1.89157 15.7685 -0.419714 19.2204C 1.05893 22.6882 3.7296 25.9946 7.68281 27.3123L 8.89706 23.6696ZM 2.21495 9.70946C 2.89975 7.01918 5.71573 4.25805 9.68889 2.83592C 13.5858 1.44108 18.16 1.50913 21.9768 3.94304L 24.0414 0.705493C 19.0267 -2.49228 13.1695 -2.48823 8.3949 -0.779252C 3.69655 0.902443 -0.399071 4.41295 -1.50617 8.76227L 2.21495 9.70946Z"/>
<path id="path8_fill" d="M 18.0057 0.759789C 14.1659 -1.54408 6.48635 1.78373 2.13459 5.49551C -1.4492 8.56734 -0.297275 20.0867 3.92648 24.1824C 8.79021 29.0462 18.0057 27.6383 22.1014 24.0545C 27.3491 19.3187 26.9652 6.13548 18.0057 0.759789Z"/>
<path id="path9_stroke" d="M 18.0057 0.759789L 17.0179 2.40608L 18.0057 0.759789ZM 2.13459 5.49551L 0.888684 4.03479L 0.885146 4.03783L 2.13459 5.49551ZM 3.92648 24.1824L 5.28405 22.8249L 5.27361 22.8144L 5.26301 22.8042L 3.92648 24.1824ZM 22.1014 24.0545L 23.3657 25.4993L 23.3768 25.4896L 23.3877 25.4798L 22.1014 24.0545ZM 18.9935 -0.886504C 16.3016 -2.5016 12.6909 -1.98913 9.64022 -0.944592C 6.46175 0.143687 3.24335 2.02641 0.888688 4.0348L 3.3805 6.95623C 5.37759 5.25284 8.17484 3.61576 10.884 2.68815C 13.721 1.71681 15.8699 1.71731 17.0179 2.40608L 18.9935 -0.886504ZM 0.885146 4.03783C -0.473105 5.20204 -1.20145 6.97961 -1.57044 8.74183C -1.94911 10.5502 -2.00633 12.6075 -1.80813 14.6412C -1.4216 18.6074 0.00210294 23.0513 2.58996 25.5607L 5.26301 22.8042C 3.62711 21.2178 2.36296 17.8541 2.01354 14.2688C 1.84377 12.5267 1.90654 10.8722 2.18783 9.52878C 2.4788 8.13918 2.9504 7.3249 3.38404 6.9532L 0.885146 4.03783ZM 2.56892 25.54C 5.50871 28.4798 9.63884 29.4146 13.4094 29.2031C 17.1655 28.9925 20.9306 27.6301 23.3657 25.4993L 20.8372 22.6096C 19.1765 24.0627 16.286 25.196 13.1945 25.3694C 10.1175 25.5419 7.20798 24.7488 5.28405 22.8249L 2.56892 25.54ZM 23.3877 25.4798C 26.6366 22.5478 27.8922 17.3426 27.2868 12.4131C 26.6711 7.39949 24.0852 2.16854 18.9935 -0.886504L 17.0179 2.40608C 20.8857 4.72673 22.9715 8.77524 23.4757 12.8811C 23.9902 17.0711 22.814 20.8254 20.8152 22.6291L 23.3877 25.4798Z"/>
<path id="path10_fill" d="M 117.745 156.731C 116.849 164.027 141.424 147.772 146.032 140.348C 153.711 127.933 169.07 87.8711 150.639 39.2339C 134.896 -2.36374 86.7711 -4.92359 65.0123 4.54787C 39.0298 15.9392 9.59145 48.7053 2.16788 65.4724C -2.05588 74.6879 0.247987 106.046 6.00766 106.302C 18.295 106.942 24.3106 59.9687 56.4368 39.8739C 73.8438 28.9945 89.7149 19.267 94.7066 32.5783C 102.514 53.5691 111.218 51.2652 136.304 71.3601C 152.943 84.7993 119.409 143.548 117.745 156.731Z"/>
<path id="path11_fill" d="M 19.8389 7.81205e-06C 19.8389 7.81205e-06 30.4623 4.22376 35.8379 8.8315C 41.2136 13.4392 43.6455 15.7431 39.4217 18.047C 35.326 20.4788 8.19153 13.0552 1.95301e-06 13.8232"/>
<path id="path12_stroke" d="M 20.7846 -2.37873C 19.4709 -2.90106 17.9825 -2.25949 17.4601 -0.945753C 16.9378 0.367987 17.5794 1.85642 18.8931 2.37874L 20.7846 -2.37873ZM 39.4217 18.047L 38.196 15.7997C 38.1686 15.8146 38.1416 15.83 38.1148 15.8459L 39.4217 18.047ZM -0.238937 11.2745C -1.64653 11.4065 -2.68064 12.6545 -2.54868 14.0621C -2.41671 15.4697 -1.16866 16.5038 0.238941 16.3719L -0.238937 11.2745ZM 19.8389 7.81205e-06C 18.8931 2.37874 18.8929 2.37867 18.8928 2.37861C 18.8928 2.37861 18.8926 2.37856 18.8927 2.37857C 18.8927 2.37857 18.8928 2.37864 18.8932 2.37877C 18.8938 2.37903 18.8951 2.37955 18.897 2.38032C 18.9009 2.38186 18.9073 2.38441 18.9161 2.38795C 18.9338 2.39504 18.9613 2.40611 18.9981 2.42104C 19.0718 2.45091 19.1829 2.4962 19.3274 2.55599C 19.6166 2.6756 20.0394 2.85302 20.5649 3.08077C 21.6174 3.53682 23.0756 4.1919 24.6954 4.98623C 27.9925 6.60305 31.7446 8.69444 34.172 10.7751L 37.5039 6.88791C 34.5556 4.36081 30.3082 2.03647 26.9496 0.389476C 25.2416 -0.448099 23.708 -1.13694 22.6006 -1.61684C 22.0462 -1.85706 21.597 -2.04562 21.2843 -2.175C 21.1278 -2.2397 21.0054 -2.28965 20.9208 -2.32391C 20.8786 -2.34104 20.8458 -2.35425 20.8229 -2.36343C 20.8115 -2.36801 20.8025 -2.37159 20.7961 -2.37415C 20.7929 -2.37542 20.7904 -2.37645 20.7884 -2.37721C 20.7875 -2.37759 20.7867 -2.37791 20.786 -2.37816C 20.7857 -2.37829 20.7854 -2.37843 20.7852 -2.37849C 20.7849 -2.37862 20.7846 -2.37873 19.8389 7.81205e-06ZM 34.172 10.7751C 35.5241 11.934 36.6202 12.8884 37.4677 13.7192C 38.3433 14.5777 38.7784 15.1393 38.9606 15.4881C 39.0986 15.7524 38.9234 15.5401 39.0747 15.2118C 39.1398 15.0707 39.09 15.312 38.196 15.7997L 40.6475 20.2943C 41.8653 19.63 43.0956 18.7194 43.7245 17.3543C 44.4398 15.8021 44.1127 14.2939 43.4987 13.1182C 42.9289 12.0272 42.0121 11.0049 41.0518 10.0634C 40.0634 9.09438 38.8397 8.03287 37.5039 6.88791L 34.172 10.7751ZM 38.1148 15.8459C 38.2171 15.7851 37.9377 15.9429 36.8184 15.9733C 35.8317 16.0001 34.5311 15.9252 32.9542 15.7592C 29.8064 15.4277 25.8578 14.7672 21.6881 14.0375C 17.557 13.3146 13.2161 12.525 9.40999 11.9683C 5.67957 11.4226 2.15747 11.0499 -0.238937 11.2745L 0.238941 16.3719C 1.9383 16.2126 4.87983 16.4798 8.66898 17.0341C 12.3825 17.5773 16.617 18.3476 20.8055 19.0806C 24.9553 19.8068 29.0703 20.4982 32.4181 20.8507C 34.0889 21.0267 35.6442 21.1268 36.9574 21.0911C 38.1379 21.059 39.6024 20.9168 40.7287 20.2481L 38.1148 15.8459Z"/>
<path id="path13_fill" d="M 6.14365 -3.90603e-06C 6.14365 -3.90603e-06 23.6786 17.919 30.2063 23.8066C 36.7339 29.6943 41.5976 32.3822 36.6059 35.07C 31.7422 37.7579 4.35175 26.6225 0 22.7827"/>
<path id="path14_stroke" d="M 7.97324 -1.79038C 6.98444 -2.80084 5.36373 -2.81839 4.35327 -1.82959C 3.34282 -0.840791 3.32527 0.779923 4.31407 1.79038L 7.97324 -1.79038ZM 36.6059 35.07L 35.3923 32.8161C 35.3841 32.8205 35.3759 32.825 35.3677 32.8295L 36.6059 35.07ZM 1.69365 20.8632C 0.633558 19.9278 -0.984096 20.0289 -1.91948 21.089C -2.85485 22.1491 -2.75375 23.7668 -1.69365 24.7022L 1.69365 20.8632ZM 6.14365 -3.90603e-06C 4.31407 1.79038 4.31415 1.79046 4.3143 1.79062C 4.31445 1.79076 4.31466 1.79099 4.31494 1.79127C 4.3155 1.79184 4.31633 1.79269 4.31742 1.7938C 4.3196 1.79603 4.32283 1.79933 4.32711 1.8037C 4.33567 1.81244 4.3484 1.82545 4.36519 1.8426C 4.39879 1.8769 4.44864 1.9278 4.51388 1.99437C 4.64435 2.12751 4.83638 2.32336 5.083 2.57461C 5.57622 3.07711 6.28784 3.80124 7.16207 4.68849C 8.91035 6.46281 11.3099 8.89039 13.9142 11.5028C 19.102 16.7065 25.1678 22.7094 28.4918 25.7075L 31.9208 21.9058C 28.7171 19.0162 22.7516 13.1158 17.54 7.88814C 14.9446 5.2848 12.5524 2.86465 10.8089 1.09517C 9.93724 0.210523 9.22794 -0.511261 8.73672 -1.01171C 8.49111 -1.26193 8.30004 -1.45681 8.17047 -1.58902C 8.10569 -1.65513 8.05628 -1.70558 8.02311 -1.73944C 8.00653 -1.75637 7.99401 -1.76916 7.98567 -1.77769C 7.98149 -1.78195 7.97836 -1.78515 7.97628 -1.78727C 7.97525 -1.78833 7.97447 -1.78913 7.97397 -1.78964C 7.97371 -1.7899 7.97353 -1.79009 7.9734 -1.79022C 7.97329 -1.79034 7.97324 -1.79038 6.14365 -3.90603e-06ZM 28.4918 25.7075C 30.1474 27.2008 31.74 28.5286 32.9865 29.6078C 34.2971 30.7424 35.1933 31.5764 35.7341 32.2463C 36.3326 32.9876 36.0287 32.9583 36.1194 32.5034C 36.2089 32.0548 36.4724 32.2345 35.3923 32.8161L 37.8195 37.3239C 39.2353 36.5616 40.7627 35.3974 41.1402 33.5048C 41.5189 31.606 40.527 30.0328 39.7176 29.0302C 38.8505 27.9562 37.6188 26.8463 36.3375 25.7371C 34.9922 24.5724 33.529 23.3563 31.9208 21.9058L 28.4918 25.7075ZM 35.3677 32.8295C 35.4114 32.8054 35.0595 32.9645 33.9296 32.9139C 32.9089 32.8682 31.58 32.6702 29.9932 32.3233C 26.83 31.6315 22.9339 30.4135 18.9908 28.9703C 15.0582 27.531 11.1469 25.8928 7.96726 24.387C 4.67251 22.8266 2.47039 21.5486 1.69365 20.8632L -1.69365 24.7022C -0.294519 25.9367 2.55907 27.4905 5.77595 29.014C 9.10792 30.592 13.1642 32.2896 17.2311 33.7781C 21.2876 35.2628 25.423 36.5646 28.8995 37.3248C 30.6325 37.7037 32.2754 37.9647 33.7006 38.0285C 35.0165 38.0874 36.5845 38.0066 37.8441 37.3105L 35.3677 32.8295Z"/>
<path id="path15_fill" d="M 27.7744 30.5903L -3.90603e-06 64.6363L 2.81583 68.6041L 32.3822 38.5258L 38.0138 42.8776L 61.9485 24.1906L 46.9733 -1.95301e-06L 27.6464 22.9107L 27.7744 30.5903Z"/>
<path id="path16_stroke" d="M 27.7744 30.5903L 28.7662 31.3993C 28.9572 31.1652 29.0592 30.871 29.0542 30.5689L 27.7744 30.5903ZM -3.90603e-06 64.6363L -0.991775 63.8272C -1.35571 64.2734 -1.377 64.9076 -1.04379 65.3771L -3.90603e-06 64.6363ZM 2.81583 68.6041L 1.77204 69.3448C 1.9913 69.6538 2.33615 69.8497 2.71379 69.8799C 3.09142 69.9101 3.46304 69.7715 3.72861 69.5013L 2.81583 68.6041ZM 32.3822 38.5258L 33.1648 37.513C 32.6519 37.1167 31.9237 37.1663 31.4694 37.6286L 32.3822 38.5258ZM 38.0138 42.8776L 37.2312 43.8903C 37.694 44.248 38.3404 44.2464 38.8015 43.8864L 38.0138 42.8776ZM 61.9485 24.1906L 62.7361 25.1995C 63.251 24.7975 63.3806 24.0723 63.0367 23.5169L 61.9485 24.1906ZM 46.9733 -1.95301e-06L 48.0616 -0.673698C 47.8457 -1.02236 47.4759 -1.2465 47.0669 -1.2765C 46.658 -1.3065 46.2594 -1.13873 45.995 -0.82529L 46.9733 -1.95301e-06ZM 27.6464 22.9107L 26.6681 22.0854C 26.4686 22.3219 26.3615 22.6227 26.3667 22.932L 27.6464 22.9107ZM 26.7826 29.7812L -0.991775 63.8272L 0.991767 65.4454L 28.7662 31.3993L 26.7826 29.7812ZM -1.04379 65.3771L 1.77204 69.3448L 3.85962 67.8633L 1.04378 63.8956L -1.04379 65.3771ZM 3.72861 69.5013L 33.2949 39.423L 31.4694 37.6286L 1.90305 67.7068L 3.72861 69.5013ZM 31.5995 39.5386L 37.2312 43.8903L 38.7964 41.8648L 33.1648 37.513L 31.5995 39.5386ZM 38.8015 43.8864L 62.7361 25.1995L 61.1608 23.1818L 37.2262 41.8687L 38.8015 43.8864ZM 63.0367 23.5169L 48.0616 -0.673698L 45.885 0.673694L 60.8602 24.8643L 63.0367 23.5169ZM 45.995 -0.82529L 26.6681 22.0854L 28.6247 23.736L 47.9516 0.825286L 45.995 -0.82529ZM 26.3667 22.932L 26.4947 30.6116L 29.0542 30.5689L 28.9262 22.8894L 26.3667 22.932Z"/>
<path id="path17_fill" d="M 14.5252 33.6779L 0 14.5277L 11.224 0L 27.73 24.433L 14.5252 33.6779Z"/>
<path id="path18_stroke" d="M 9.0149 0.856229C 9.48778 0.330806 9.44518 -0.478479 8.91976 -0.951359C 8.39433 -1.42424 7.58505 -1.38164 7.11217 -0.856221L 9.0149 0.856229ZM -0.951355 8.10327C -1.42424 8.62869 -1.38164 9.43797 -0.856217 9.91085C -0.330794 10.3837 0.478491 10.3411 0.951371 9.81572L -0.951355 8.10327ZM 7.11217 -0.856221L -0.951355 8.10327L 0.951371 9.81572L 9.0149 0.856229L 7.11217 -0.856221Z"/>
<path id="path19_stroke" d="M 10.9801 0.940038C 11.4992 0.460299 11.5312 -0.349475 11.0515 -0.868644C 10.5717 -1.38781 9.76194 -1.41978 9.24277 -0.940038L 10.9801 0.940038ZM -0.868644 8.40343C -1.38781 8.88317 -1.41978 9.69295 -0.940038 10.2121C -0.460299 10.7313 0.349475 10.7632 0.868644 10.2835L -0.868644 8.40343ZM 9.24277 -0.940038L -0.868644 8.40343L 0.868644 10.2835L 10.9801 0.940038L 9.24277 -0.940038Z"/>
</defs>
</svg>
