<svg width="56" height="48" viewBox="0 0 56 48" version="1.1" xmlns="http://www.w3.org/2000/svg" xmlns:xlink="http://www.w3.org/1999/xlink">
<title>comic_mail</title>
<desc>Created using Figma</desc>
<g id="Canvas" transform="translate(-12195 -10916)">
<g id="comic_mail">
<g id="Group">
<g id="Vector">
<use xlink:href="#path0_fill" transform="translate(12197 10918.2)" fill="#FFFFFF"/>
<use xlink:href="#path1_stroke" transform="translate(12197 10918.2)" fill="#231F20"/>
</g>
<g id="Vector">
<use xlink:href="#path2_stroke" transform="translate(12198.5 10918.2)" fill="#231F20"/>
</g>
</g>
</g>
</g>
<defs>
<path id="path0_fill" d="M 49.5 0L 51.6 38.6L 3.9 43.6L -9.53674e-08 4.7L 49.5 0Z"/>
<path id="path1_stroke" d="M 49.5 0L 51.497 -0.108648C 51.4675 -0.652261 51.2176 -1.16033 50.805 -1.51556C 50.3925 -1.8708 49.8529 -2.04251 49.311 -1.99105L 49.5 0ZM 51.6 38.6L 51.8085 40.5891C 52.8683 40.478 53.6549 39.5554 53.597 38.4914L 51.6 38.6ZM 3.9 43.6L 1.90998 43.7995C 1.96305 44.3289 2.22483 44.8152 2.63742 45.1511C 3.05001 45.4869 3.5794 45.6446 4.1085 45.5891L 3.9 43.6ZM -9.53674e-08 4.7L -0.189049 2.70895C -0.718921 2.75927 -1.20688 3.01871 -1.5449 3.42985C -1.88292 3.84099 -2.04312 4.36991 -1.99002 4.89951L -9.53674e-08 4.7ZM 47.503 0.108648L 49.603 38.7086L 53.597 38.4914L 51.497 -0.108648L 47.503 0.108648ZM 51.3915 36.6109L 3.6915 41.6109L 4.1085 45.5891L 51.8085 40.5891L 51.3915 36.6109ZM 5.89002 43.4005L 1.99002 4.50049L -1.99002 4.89951L 1.90998 43.7995L 5.89002 43.4005ZM 0.189049 6.69104L 49.689 1.99105L 49.311 -1.99105L -0.189049 2.70895L 0.189049 6.69104Z"/>
<path id="path2_stroke" d="M 0.998857 4.26729C 0.041907 3.71564 -1.18106 4.04419 -1.73271 5.00114C -2.28436 5.95809 -1.95581 7.18106 -0.998857 7.73271L 0.998857 4.26729ZM 25.5 20.7L 24.5011 22.4327C 25.2582 22.8691 26.211 22.7635 26.8541 22.1719L 25.5 20.7ZM 49.3541 1.47186C 50.167 0.724006 50.2197 -0.541226 49.4719 -1.35411C 48.724 -2.167 47.4588 -2.21972 46.6459 -1.47186L 49.3541 1.47186ZM -0.998857 7.73271L 24.5011 22.4327L 26.4989 18.9673L 0.998857 4.26729L -0.998857 7.73271ZM 26.8541 22.1719L 49.3541 1.47186L 46.6459 -1.47186L 24.1459 19.2281L 26.8541 22.1719Z"/>
</defs>
</svg>
