<svg width="1201" height="701" viewBox="0 0 1201 701" version="1.1" xmlns="http://www.w3.org/2000/svg" xmlns:xlink="http://www.w3.org/1999/xlink">
<title>houseplant_bg</title>
<desc>Created using Figma</desc>
<g id="Canvas" transform="translate(-9261 -12938)">
<g id="houseplant_bg">
<g id="Layer 2">
<g id="Group">
<g id="Vector">
<use xlink:href="#path0_fill" transform="translate(9095.13 12769.5)" fill="#F3FFC4"/>
</g>
</g>
</g>
<g id="Layer 1">
<g id="Group">
<g id="Vector">
<use xlink:href="#path1_fill" transform="translate(9178.73 13392.6)" fill="#C4DE8C"/>
</g>
<g id="Group">
<g id="Group">
<g id="Group">
<g id="Vector">
<use xlink:href="#path2_fill" transform="translate(9349.81 13388)" fill="#C2E2B9"/>
</g>
<g id="Vector">
<use xlink:href="#path3_fill" transform="translate(9281.33 13400.5)" fill="#C2E2B9"/>
</g>
<g id="Vector">
<use xlink:href="#path4_fill" transform="translate(9223.94 13437.9)" fill="#C2E2B9"/>
</g>
<g id="Vector">
<use xlink:href="#path5_fill" transform="translate(9496.08 13628.6)" fill="#C2E2B9"/>
</g>
<g id="Vector">
<use xlink:href="#path6_fill" transform="translate(9507.37 13563.7)" fill="#C2E2B9"/>
</g>
<g id="Vector">
<use xlink:href="#path7_fill" transform="translate(9495.77 13495.2)" fill="#C2E2B9"/>
</g>
<g id="Vector">
<use xlink:href="#path8_fill" transform="translate(9463.19 13437.8)" fill="#C2E2B9"/>
</g>
<g id="Vector">
<use xlink:href="#path9_fill" transform="translate(9414.68 13400.4)" fill="#C2E2B9"/>
</g>
</g>
<g id="Group">
<g id="Vector">
<use xlink:href="#path2_fill" transform="translate(9349.81 13388)" fill="#ADC257"/>
</g>
<g id="Vector">
<use xlink:href="#path3_fill" transform="translate(9281.33 13400.5)" fill="#ADC257"/>
</g>
<g id="Vector">
<use xlink:href="#path4_fill" transform="translate(9223.94 13437.9)" fill="#ADC257"/>
</g>
<g id="Vector">
<use xlink:href="#path5_fill" transform="translate(9496.08 13628.6)" fill="#ADC257"/>
</g>
<g id="Vector">
<use xlink:href="#path6_fill" transform="translate(9507.37 13563.7)" fill="#ADC257"/>
</g>
<g id="Vector">
<use xlink:href="#path10_fill" transform="translate(9495.77 13495.2)" fill="#ADC257"/>
</g>
<g id="Vector">
<use xlink:href="#path11_fill" transform="translate(9463.19 13437.8)" fill="#ADC257"/>
</g>
<g id="Vector">
<use xlink:href="#path9_fill" transform="translate(9414.68 13400.4)" fill="#ADC257"/>
</g>
</g>
</g>
<g id="Group">
<g id="Vector">
<use xlink:href="#path12_fill" transform="translate(9319.5 13425.6)" fill="#ADC25B"/>
</g>
<g id="Vector">
<use xlink:href="#path13_fill" transform="translate(9265.8 13447.4)" fill="#ADC25B"/>
</g>
<g id="Vector">
<use xlink:href="#path14_fill" transform="translate(9225.76 13488.4)" fill="#ADC25B"/>
</g>
<g id="Vector">
<use xlink:href="#path15_fill" transform="translate(9480.72 13597.8)" fill="#ADC25B"/>
</g>
<g id="Vector">
<use xlink:href="#path16_fill" transform="translate(9480.06 13539.3)" fill="#ADC25B"/>
</g>
<g id="Vector">
<use xlink:href="#path17_fill" transform="translate(9460.63 13485.6)" fill="#ADC25B"/>
</g>
<g id="Vector">
<use xlink:href="#path18_fill" transform="translate(9425.51 13445.5)" fill="#ADC25B"/>
</g>
<g id="Vector">
<use xlink:href="#path19_fill" transform="translate(9377.96 13424.9)" fill="#ADC25B"/>
</g>
</g>
<g id="Group">
<g id="Group">
<g id="Vector">
<use xlink:href="#path20_fill" transform="translate(9355.57 13462.5)" fill="#C2E2B9"/>
</g>
<g id="Vector">
<use xlink:href="#path21_fill" transform="translate(9313.9 13470.2)" fill="#C2E2B9"/>
</g>
<g id="Vector">
<use xlink:href="#path22_fill" transform="translate(9278.97 13492.9)" fill="#C2E2B9"/>
</g>
<g id="Vector">
<use xlink:href="#path23_fill" transform="translate(9256.22 13527.9)" fill="#C2E2B9"/>
</g>
<g id="Vector">
<use xlink:href="#path24_fill" transform="translate(9248.64 13569.6)" fill="#C2E2B9"/>
</g>
<g id="Vector">
<use xlink:href="#path25_fill" transform="translate(9256.3 13609.5)" fill="#C2E2B9"/>
</g>
<g id="Vector">
<use xlink:href="#path26_fill" transform="translate(9444.64 13609)" fill="#C2E2B9"/>
</g>
<g id="Vector">
<use xlink:href="#path27_fill" transform="translate(9451.54 13569.5)" fill="#C2E2B9"/>
</g>
<g id="Vector">
<use xlink:href="#path28_fill" transform="translate(9444.45 13527.8)" fill="#C2E2B9"/>
</g>
<g id="Vector">
<use xlink:href="#path29_fill" transform="translate(9424.64 13492.9)" fill="#C2E2B9"/>
</g>
<g id="Vector">
<use xlink:href="#path30_fill" transform="translate(9395.11 13470.1)" fill="#C2E2B9"/>
</g>
</g>
<g id="Group">
<g id="Vector">
<use xlink:href="#path20_fill" transform="translate(9355.57 13462.5)" fill="#AEC25D"/>
</g>
<g id="Vector">
<use xlink:href="#path21_fill" transform="translate(9313.9 13470.2)" fill="#AEC25D"/>
</g>
<g id="Vector">
<use xlink:href="#path22_fill" transform="translate(9278.97 13492.9)" fill="#AEC25D"/>
</g>
<g id="Vector">
<use xlink:href="#path23_fill" transform="translate(9256.22 13527.9)" fill="#AEC25D"/>
</g>
<g id="Vector">
<use xlink:href="#path24_fill" transform="translate(9248.64 13569.6)" fill="#AEC25D"/>
</g>
<g id="Vector">
<use xlink:href="#path25_fill" transform="translate(9256.3 13609.5)" fill="#AEC25D"/>
</g>
<g id="Vector">
<use xlink:href="#path26_fill" transform="translate(9444.64 13609)" fill="#AEC25D"/>
</g>
<g id="Vector">
<use xlink:href="#path27_fill" transform="translate(9451.54 13569.5)" fill="#AEC25D"/>
</g>
<g id="Vector">
<use xlink:href="#path28_fill" transform="translate(9444.45 13527.8)" fill="#AEC25D"/>
</g>
<g id="Vector">
<use xlink:href="#path29_fill" transform="translate(9424.64 13492.9)" fill="#AEC25D"/>
</g>
<g id="Vector">
<use xlink:href="#path30_fill" transform="translate(9395.11 13470.1)" fill="#AEC25D"/>
</g>
</g>
</g>
</g>
</g>
<g id="Group">
<g id="Vector">
<use xlink:href="#path31_fill" transform="translate(9624.78 13557.8)" fill="#9FC9AF"/>
</g>
<g id="Vector">
<use xlink:href="#path31_fill" transform="translate(9624.78 13557.8)" fill="#9FC9AF"/>
</g>
<g id="Group">
<g id="Vector">
<use xlink:href="#path32_fill" transform="translate(9645.99 13560.2)" fill="#C2E2B9"/>
</g>
<g id="Vector">
<use xlink:href="#path33_fill" transform="translate(9615.13 13602.7)" fill="#C2E2B9"/>
</g>
<g id="Vector">
<use xlink:href="#path34_fill" transform="translate(9783.45 13602.7)" fill="#C2E2B9"/>
</g>
<g id="Vector">
<use xlink:href="#path35_fill" transform="translate(9747.3 13560.2)" fill="#C2E2B9"/>
</g>
<g id="Vector">
<use xlink:href="#path36_fill" transform="translate(9695.95 13544)" fill="#C2E2B9"/>
</g>
</g>
<g id="Group">
<g id="Vector">
<use xlink:href="#path37_fill" transform="translate(9660.73 13597.5)" fill="#C2E2B9"/>
</g>
<g id="Vector">
<use xlink:href="#path38_fill" transform="translate(9646.12 13629.7)" fill="#C2E2B9"/>
</g>
<g id="Vector">
<use xlink:href="#path39_fill" transform="translate(9755.96 13607.8)" fill="#C2E2B9"/>
</g>
<g id="Vector">
<use xlink:href="#path40_fill" transform="translate(9727.01 13583.9)" fill="#C2E2B9"/>
</g>
<g id="Vector">
<use xlink:href="#path41_fill" transform="translate(9691.5 13580)" fill="#C2E2B9"/>
</g>
</g>
<g id="Group">
<g id="Vector">
<use xlink:href="#path42_fill" transform="translate(9673.06 13624.1)" fill="#C2E2B9"/>
</g>
<g id="Vector">
<use xlink:href="#path43_fill" transform="translate(9749.45 13634)" fill="#C2E2B9"/>
</g>
<g id="Vector">
<use xlink:href="#path44_fill" transform="translate(9735.52 13613)" fill="#C2E2B9"/>
</g>
<g id="Vector">
<use xlink:href="#path45_fill" transform="translate(9713.04 13602.6)" fill="#C2E2B9"/>
</g>
<g id="Vector">
<use xlink:href="#path46_fill" transform="translate(9689.53 13606.9)" fill="#C2E2B9"/>
</g>
</g>
</g>
<g id="Group">
<g id="Vector">
<use xlink:href="#path47_fill" transform="translate(10283.4 12991.3)" fill="#D6B19D"/>
</g>
<g id="Group">
<g id="Group">
<g id="Vector">
<use xlink:href="#path48_fill" transform="translate(10295.6 13003.6)" fill="#A2CC90"/>
</g>
<g id="Vector">
<use xlink:href="#path49_fill" transform="translate(10269.3 13055.4)" fill="#A2CC90"/>
</g>
<g id="Vector">
<use xlink:href="#path50_fill" transform="translate(10278.4 13113.8)" fill="#A2CC90"/>
</g>
<g id="Vector">
<use xlink:href="#path51_fill" transform="translate(10319.5 13160)" fill="#A2CC90"/>
</g>
<g id="Vector">
<use xlink:href="#path52_fill" transform="translate(10377 13171.8)" fill="#A2CC90"/>
</g>
<g id="Vector">
<use xlink:href="#path53_fill" transform="translate(10431.8 13139)" fill="#A2CC90"/>
</g>
<g id="Vector">
<use xlink:href="#path54_fill" transform="translate(10451.4 13027.2)" fill="#A2CC90"/>
</g>
<g id="Vector">
<use xlink:href="#path55_fill" transform="translate(10405.4 12986.2)" fill="#A2CC90"/>
</g>
<g id="Vector">
<use xlink:href="#path56_fill" transform="translate(10347.3 12977.2)" fill="#A2CC90"/>
</g>
</g>
<g id="Group">
<g id="Vector">
<use xlink:href="#path57_fill" transform="translate(10317 13043)" fill="#A2CC90"/>
</g>
<g id="Vector">
<use xlink:href="#path58_fill" transform="translate(10306.7 13080.8)" fill="#A2CC90"/>
</g>
<g id="Vector">
<use xlink:href="#path59_fill" transform="translate(10320.5 13119)" fill="#A2CC90"/>
</g>
<g id="Vector">
<use xlink:href="#path60_fill" transform="translate(10353.2 13144.5)" fill="#A2CC90"/>
</g>
<g id="Vector">
<use xlink:href="#path61_fill" transform="translate(10392.7 13141.7)" fill="#A2CC90"/>
</g>
<g id="Vector">
<use xlink:href="#path62_fill" transform="translate(10426.3 13113.5)" fill="#A2CC90"/>
</g>
<g id="Vector">
<use xlink:href="#path63_fill" transform="translate(10439.9 13074.9)" fill="#A2CC90"/>
</g>
<g id="Vector">
<use xlink:href="#path64_fill" transform="translate(10421.7 13038.2)" fill="#A2CC90"/>
</g>
<g id="Vector">
<use xlink:href="#path65_fill" transform="translate(10386.7 13016.8)" fill="#A2CC90"/>
</g>
<g id="Vector">
<use xlink:href="#path66_fill" transform="translate(10347.6 13018.6)" fill="#A2CC90"/>
</g>
</g>
<g id="Group">
<g id="Vector">
<use xlink:href="#path67_fill" transform="translate(10334.3 13070.9)" fill="#A2CC90"/>
</g>
<g id="Vector">
<use xlink:href="#path68_fill" transform="translate(10335 13097.5)" fill="#A2CC90"/>
</g>
<g id="Vector">
<use xlink:href="#path69_fill" transform="translate(10350.9 13120.4)" fill="#A2CC90"/>
</g>
<g id="Vector">
<use xlink:href="#path70_fill" transform="translate(10376.2 13130.4)" fill="#A2CC90"/>
</g>
<g id="Vector">
<use xlink:href="#path71_fill" transform="translate(10402.1 13118.8)" fill="#A2CC90"/>
</g>
<g id="Vector">
<use xlink:href="#path72_fill" transform="translate(10419.8 13095.5)" fill="#A2CC90"/>
</g>
<g id="Vector">
<use xlink:href="#path73_fill" transform="translate(10418.7 13069)" fill="#A2CC90"/>
</g>
<g id="Vector">
<use xlink:href="#path74_fill" transform="translate(10400.1 13048)" fill="#A2CC90"/>
</g>
<g id="Vector">
<use xlink:href="#path75_fill" transform="translate(10374.2 13040.5)" fill="#A2CC90"/>
</g>
<g id="Vector">
<use xlink:href="#path76_fill" transform="translate(10349.3 13049.2)" fill="#A2CC90"/>
</g>
</g>
</g>
</g>
<g id="Group">
<g id="Vector">
<use xlink:href="#path77_fill" transform="translate(10134.1 12883.9)" fill="#B8C99D"/>
</g>
<g id="Group">
<g id="Group">
<g id="Vector">
<use xlink:href="#path78_fill" transform="translate(10132.4 12946)" fill="#75B39A"/>
</g>
<g id="Vector">
<use xlink:href="#path79_fill" transform="translate(10147.1 12977.9)" fill="#75B39A"/>
</g>
<g id="Vector">
<use xlink:href="#path80_fill" transform="translate(10178.8 12998)" fill="#75B39A"/>
</g>
<g id="Vector">
<use xlink:href="#path81_fill" transform="translate(10212.9 12997)" fill="#75B39A"/>
</g>
<g id="Vector">
<use xlink:href="#path82_fill" transform="translate(10240.2 12975.6)" fill="#75B39A"/>
</g>
<g id="Vector">
<use xlink:href="#path83_fill" transform="translate(10250.7 12943.2)" fill="#75B39A"/>
</g>
</g>
<g id="Group">
<g id="Vector">
<use xlink:href="#path84_fill" transform="translate(10157.5 12937)" fill="#75B39A"/>
</g>
<g id="Vector">
<use xlink:href="#path85_fill" transform="translate(10158.1 12960.6)" fill="#75B39A"/>
</g>
<g id="Vector">
<use xlink:href="#path86_fill" transform="translate(10175.6 12979.4)" fill="#75B39A"/>
</g>
<g id="Vector">
<use xlink:href="#path87_fill" transform="translate(10199.1 12986.8)" fill="#75B39A"/>
</g>
<g id="Vector">
<use xlink:href="#path88_fill" transform="translate(10221.1 12978.5)" fill="#75B39A"/>
</g>
<g id="Vector">
<use xlink:href="#path89_fill" transform="translate(10235.1 12959.1)" fill="#75B39A"/>
</g>
<g id="Vector">
<use xlink:href="#path90_fill" transform="translate(10234.6 12935.7)" fill="#75B39A"/>
</g>
<g id="Group">
<g id="Vector">
<use xlink:href="#path91_fill" transform="translate(10192.4 12942.3)" fill="#B8C986"/>
</g>
<g id="Vector">
<use xlink:href="#path92_fill" transform="translate(10211.1 12941.8)" fill="#75B39A"/>
</g>
<g id="Vector">
<use xlink:href="#path93_fill" transform="translate(10207.4 12939.4)" fill="#75B39A"/>
</g>
<g id="Vector">
<use xlink:href="#path94_fill" transform="translate(10203.4 12938.7)" fill="#75B39A"/>
</g>
<g id="Vector">
<use xlink:href="#path95_fill" transform="translate(10199.4 12939.6)" fill="#75B39A"/>
</g>
<g id="Vector">
<use xlink:href="#path96_fill" transform="translate(10195.4 12942.1)" fill="#75B39A"/>
</g>
<g id="Vector">
<use xlink:href="#path97_fill" transform="translate(10191.9 12945.7)" fill="#75B39A"/>
</g>
<g id="Vector">
<use xlink:href="#path98_fill" transform="translate(10189.6 12949.6)" fill="#75B39A"/>
</g>
<g id="Vector">
<use xlink:href="#path99_fill" transform="translate(10188.8 12953.8)" fill="#75B39A"/>
</g>
<g id="Vector">
<use xlink:href="#path100_fill" transform="translate(10189.8 12957.8)" fill="#75B39A"/>
</g>
<g id="Vector">
<use xlink:href="#path101_fill" transform="translate(10192.2 12961.4)" fill="#75B39A"/>
</g>
<g id="Vector">
<use xlink:href="#path102_fill" transform="translate(10195.8 12964.3)" fill="#75B39A"/>
</g>
<g id="Vector">
<use xlink:href="#path103_fill" transform="translate(10199.8 12966.2)" fill="#75B39A"/>
</g>
<g id="Vector">
<use xlink:href="#path104_fill" transform="translate(10203.9 12966.8)" fill="#75B39A"/>
</g>
<g id="Vector">
<use xlink:href="#path105_fill" transform="translate(10207.9 12966.1)" fill="#75B39A"/>
</g>
<g id="Vector">
<use xlink:href="#path106_fill" transform="translate(10211.5 12964)" fill="#75B39A"/>
</g>
<g id="Vector">
<use xlink:href="#path107_fill" transform="translate(10214.5 12961)" fill="#75B39A"/>
</g>
<g id="Vector">
<use xlink:href="#path108_fill" transform="translate(10216.4 12957.3)" fill="#75B39A"/>
</g>
<g id="Vector">
<use xlink:href="#path109_fill" transform="translate(10217 12953.3)" fill="#75B39A"/>
</g>
<g id="Vector">
<use xlink:href="#path110_fill" transform="translate(10216.2 12949.2)" fill="#75B39A"/>
</g>
<g id="Vector">
<use xlink:href="#path111_fill" transform="translate(10214.1 12945.3)" fill="#75B39A"/>
</g>
</g>
</g>
</g>
</g>
</g>
<g id="Ellipse">
<use xlink:href="#path112_fill" transform="matrix(0.864131 0.503267 -0.503269 0.864129 9435.3 13253.9)" fill="#ACD980"/>
</g>
<g id="Ellipse">
<use xlink:href="#path113_fill" transform="matrix(0.942775 -0.33343 0.333426 0.942776 9528.85 13087.1)" fill="#ACD980"/>
</g>
<g id="Ellipse">
<use xlink:href="#path114_fill" transform="matrix(0.942776 -0.333426 0.33343 0.942775 10172.1 13607.3)" fill="#ACD980"/>
</g>
<g id="Ellipse">
<use xlink:href="#path115_fill" transform="translate(9555.07 13036.3)" fill="#ACD980"/>
</g>
<g id="Ellipse">
<use xlink:href="#path115_fill" transform="translate(9462.53 13337.7)" fill="#ACD980"/>
</g>
<g id="Ellipse">
<use xlink:href="#path115_fill" transform="translate(10157.1 13578)" fill="#ACD980"/>
</g>
<g id="Group">
<g id="Vector">
<use xlink:href="#path116_fill" transform="translate(9218.96 13221.1)" fill="#B8C986"/>
</g>
<g id="Group">
<g id="Vector">
<use xlink:href="#path117_fill" transform="translate(9313.85 13222)" fill="#C4DE90"/>
</g>
<g id="Vector">
<use xlink:href="#path118_fill" transform="translate(9276.32 13207.5)" fill="#C4DE90"/>
</g>
<g id="Vector">
<use xlink:href="#path119_fill" transform="translate(9237.25 13224.4)" fill="#C4DE90"/>
</g>
<g id="Vector">
<use xlink:href="#path120_fill" transform="translate(9240.11 13331.9)" fill="#C4DE90"/>
</g>
<g id="Vector">
<use xlink:href="#path121_fill" transform="translate(9279.72 13344)" fill="#C4DE90"/>
</g>
<g id="Vector">
<use xlink:href="#path122_fill" transform="translate(9316.69 13329.8)" fill="#C4DE90"/>
</g>
<g id="Vector">
<use xlink:href="#path123_fill" transform="translate(9339.93 13297.2)" fill="#C4DE90"/>
</g>
<g id="Vector">
<use xlink:href="#path124_fill" transform="translate(9338.79 13257.9)" fill="#C4DE90"/>
</g>
<g id="Group">
<g id="Vector">
<use xlink:href="#path125_fill" transform="translate(9267.97 13269.4)" fill="#B8C986"/>
</g>
<g id="Vector">
<use xlink:href="#path126_fill" transform="translate(9299.31 13268.4)" fill="#C4DE90"/>
</g>
<g id="Vector">
<use xlink:href="#path127_fill" transform="translate(9293.1 13264.6)" fill="#C4DE90"/>
</g>
<g id="Vector">
<use xlink:href="#path128_fill" transform="translate(9286.33 13263.4)" fill="#C4DE90"/>
</g>
<g id="Vector">
<use xlink:href="#path129_fill" transform="translate(9279.46 13265)" fill="#C4DE90"/>
</g>
<g id="Vector">
<use xlink:href="#path130_fill" transform="translate(9272.83 13269.3)" fill="#C4DE90"/>
</g>
<g id="Vector">
<use xlink:href="#path131_fill" transform="translate(9267 13275.2)" fill="#C4DE90"/>
</g>
<g id="Vector">
<use xlink:href="#path132_fill" transform="translate(9263.12 13282)" fill="#C4DE90"/>
</g>
<g id="Vector">
<use xlink:href="#path133_fill" transform="translate(9261.94 13288.9)" fill="#C4DE90"/>
</g>
<g id="Vector">
<use xlink:href="#path134_fill" transform="translate(9263.59 13295.6)" fill="#C4DE90"/>
</g>
<g id="Vector">
<use xlink:href="#path135_fill" transform="translate(9267.83 13301.6)" fill="#C4DE90"/>
</g>
<g id="Vector">
<use xlink:href="#path136_fill" transform="translate(9273.83 13306.4)" fill="#C4DE90"/>
</g>
<g id="Vector">
<use xlink:href="#path137_fill" transform="translate(9280.57 13309.6)" fill="#C4DE90"/>
</g>
<g id="Vector">
<use xlink:href="#path138_fill" transform="translate(9287.51 13310.6)" fill="#C4DE90"/>
</g>
<g id="Vector">
<use xlink:href="#path139_fill" transform="translate(9294.25 13309.2)" fill="#C4DE90"/>
</g>
<g id="Vector">
<use xlink:href="#path140_fill" transform="translate(9300.28 13305.7)" fill="#C4DE90"/>
</g>
<g id="Vector">
<use xlink:href="#path141_fill" transform="translate(9305.12 13300.6)" fill="#C4DE90"/>
</g>
<g id="Vector">
<use xlink:href="#path142_fill" transform="translate(9308.32 13294.4)" fill="#C4DE90"/>
</g>
<g id="Vector">
<use xlink:href="#path143_fill" transform="translate(9309.33 13287.7)" fill="#C4DE90"/>
</g>
<g id="Vector">
<use xlink:href="#path144_fill" transform="translate(9307.92 13280.8)" fill="#C4DE90"/>
</g>
<g id="Vector">
<use xlink:href="#path145_fill" transform="translate(9304.41 13274.2)" fill="#C4DE90"/>
</g>
</g>
</g>
<g id="Group">
<g id="Vector">
<use xlink:href="#path146_fill" transform="matrix(0.957893 0.287124 -0.287137 0.957889 9316.35 13257)" fill="#C4DE90"/>
</g>
<g id="Vector">
<use xlink:href="#path147_fill" transform="matrix(0.95789 0.287135 -0.287126 0.957893 9297.6 13242.1)" fill="#C4DE90"/>
</g>
<g id="Vector">
<use xlink:href="#path148_fill" transform="matrix(0.95789 0.287134 -0.287128 0.957892 9272.46 13244.9)" fill="#C4DE90"/>
</g>
<g id="Vector">
<use xlink:href="#path149_fill" transform="matrix(0.957889 0.287138 -0.287124 0.957893 9250.05 13261)" fill="#C4DE90"/>
</g>
<g id="Vector">
<use xlink:href="#path150_fill" transform="matrix(0.957891 0.287131 -0.28713 0.957892 9255.14 13306.8)" fill="#C4DE90"/>
</g>
<g id="Vector">
<use xlink:href="#path151_fill" transform="matrix(0.957892 0.287129 -0.287133 0.957891 9275.52 13320.6)" fill="#C4DE90"/>
</g>
<g id="Vector">
<use xlink:href="#path152_fill" transform="matrix(0.957891 0.287133 -0.287128 0.957892 9299.02 13319)" fill="#C4DE90"/>
</g>
<g id="Vector">
<use xlink:href="#path153_fill" transform="matrix(0.957891 0.287134 -0.287128 0.957892 9317.92 13304.5)" fill="#C4DE90"/>
</g>
<g id="Vector">
<use xlink:href="#path154_fill" transform="matrix(0.957892 0.287128 -0.287134 0.95789 9324.23 13281.9)" fill="#C4DE90"/>
</g>
</g>
</g>
</g>
</g>
<defs>
<path id="path0_fill" d="M 1538 0L 0 0L 0 1167L 1538 1167L 1538 0Z"/>
<path id="path1_fill" d="M 185.866 371.832C 288.517 371.832 371.732 288.595 371.732 185.916C 371.732 83.2374 288.517 0 185.866 0C 83.2151 0 0 83.2374 0 185.916C 0 288.595 83.2151 371.832 185.866 371.832Z"/>
<path id="path2_fill" d="M 20.7377 43.0035C 19.147 49.2845 9.60251 49.2845 8.01176 43.0035C 3.28138 24.3701 -10.3237 0 14.3747 0C 40.7476 0 25.4681 24.3701 20.7377 43.0035Z"/>
<path id="path3_fill" d="M 32.3277 39.4196C 33.2487 45.8262 24.4577 49.511 20.5646 44.2769C 9.05258 28.8257 -12.8411 11.5322 9.97353 2.11078C 34.3789 -7.98061 29.5648 20.3674 32.3277 39.4196Z"/>
<path id="path4_fill" d="M 40.6101 32.0995C 43.9172 37.6686 37.1774 44.4101 31.6098 41.1022C 15.0744 31.2202 -11.8008 23.6411 5.6974 6.1801C 24.3259 -12.4952 30.7307 15.5597 40.6101 32.0995Z"/>
<path id="path5_fill" d="M 2.47145 11.8335C -2.7194 7.93929 0.922558 -0.854021 7.3274 0.0671847C 26.3745 2.8308 54.087 -0.435331 44.6262 22.4273C 34.5375 46.7974 17.9184 23.3486 2.47145 11.8335Z"/>
<path id="path6_fill" d="M 4.70944 20.7433C -1.56982 19.1521 -1.56982 9.60511 4.70944 8.01394C 23.3379 3.28229 47.7014 -10.3264 47.7014 14.3786C 47.7014 40.7586 23.3379 25.4749 4.70944 20.7433Z"/>
<path id="path7_fill" d="M 7.34603 32.3364C 0.941183 33.2576 -2.74266 24.4642 2.49005 20.5701C 17.937 9.05499 35.2259 -12.8446 44.6448 9.97623C 54.7335 34.3882 26.3931 29.5728 7.34603 32.3364Z"/>
<path id="path8_fill" d="M 9.87523 40.6039C 4.30762 43.9118 -2.43212 37.1703 0.87496 31.6012C 10.7125 15.0614 18.3313 -11.7792 35.7877 5.6818C 54.458 24.3153 26.4106 30.7219 9.87523 40.6039Z"/>
<path id="path9_fill" d="M 11.8303 44.0802C 7.93715 49.2724 -0.853817 45.6295 0.0671411 39.2229C 2.83002 20.1707 -0.435188 -7.54919 22.4213 1.91411C 46.7848 12.0055 23.3423 28.629 11.8303 44.0802Z"/>
<path id="path10_fill" d="M 7.34603 32.3364C 0.941183 33.2576 -2.74266 24.4642 2.49005 20.5701C 17.937 9.05499 35.2259 -12.8446 44.6448 9.97623C 54.7335 34.3882 26.3931 29.5728 7.34603 32.3364Z"/>
<path id="path11_fill" d="M 9.87523 40.6039C 4.30762 43.9118 -2.43212 37.1703 0.87496 31.6012C 10.7125 15.0614 18.3313 -11.7792 35.7877 5.6818C 54.458 24.3153 26.4106 30.7219 9.87523 40.6039Z"/>
<path id="path12_fill" d="M 22.784 34.8477C 22.5747 40.2912 14.7047 41.9243 12.3186 37.067C 5.20207 22.5371 -10.203 4.86665 10.0999 0.59561C 31.7843 -3.96855 23.4538 18.6848 22.784 34.8477Z"/>
<path id="path13_fill" d="M 31.2782 30.2774C 33.162 35.3859 26.5478 39.9081 22.4454 36.3071C 10.3474 25.6295 -10.6672 15.2031 6.45421 3.47865C 24.7478 -9.04137 25.7106 15.1193 31.2782 30.2774Z"/>
<path id="path14_fill" d="M 36.1547 22.4363C 39.8385 26.4561 35.4849 33.1558 30.3359 31.3971C 15.0564 26.163 -8.34431 24.5718 3.00021 7.19453C 15.0564 -11.3971 25.1869 10.5444 36.1547 22.4363Z"/>
<path id="path15_fill" d="M 3.01445 12.6781C -1.92523 10.3751 -0.460066 2.50297 4.98196 2.16799C 21.0987 1.16304 43.3273 -6.33222 39.5179 14.0599C 35.4573 35.8757 17.7079 19.4615 3.01445 12.6781Z"/>
<path id="path16_fill" d="M 5.104 22.7901C -0.338028 22.5807 -1.97063 14.7086 2.88533 12.3219C 17.4114 5.20345 35.077 -10.2058 39.3469 10.1026C 43.9098 31.7928 21.2626 23.4601 5.104 22.7901Z"/>
<path id="path17_fill" d="M 7.32321 31.2866C 2.21608 33.1709 -2.305 26.555 1.29511 22.4514C 11.9699 10.3501 22.3934 -10.6701 34.1147 6.45595C 46.6314 24.7544 22.4772 25.7175 7.32321 31.2866Z"/>
<path id="path18_fill" d="M 9.24659 36.1644C 5.22787 39.8492 -1.47001 35.4945 0.288185 30.3441C 5.5209 15.0605 7.11164 -8.34656 24.4843 3.00102C 43.0709 15.0604 21.1353 25.1937 9.24659 36.1644Z"/>
<path id="path19_fill" d="M 12.6747 36.9449C 10.3723 41.8859 2.50231 40.4203 2.16742 34.9768C 1.16274 18.8557 -6.33052 -3.37883 14.0561 0.431614C 35.8661 4.49329 19.4563 22.2475 12.6747 36.9449Z"/>
<path id="path20_fill" d="M 12.6274 26.1706C 11.6646 29.9811 5.84584 29.9811 4.88302 26.1706C 1.99456 14.823 -6.29407 0 8.77616 0C 24.8092 0 15.5159 14.823 12.6274 26.1706Z"/>
<path id="path21_fill" d="M 19.6774 23.9982C 20.2634 27.8924 14.8633 30.1117 12.519 26.9712C 5.52812 17.5917 -7.82578 7.03969 6.07232 1.30309C 20.9332 -4.89411 18.0029 12.3994 19.6774 23.9982Z"/>
<path id="path22_fill" d="M 24.7229 19.5361C 26.7322 22.9278 22.6298 27.0314 19.239 25.0215C 9.19216 19.0337 -7.17577 14.3857 3.45711 3.75001C 14.8016 -7.59757 18.6948 9.48659 24.7229 19.5361Z"/>
<path id="path23_fill" d="M 26.8325 12.9311C 30.014 15.276 27.7535 20.6776 23.8603 20.0914C 12.2646 18.4165 -4.60564 20.3845 1.17128 6.48266C 7.28309 -8.34037 17.4136 5.93832 26.8325 12.9311Z"/>
<path id="path24_fill" d="M 26.1636 5.30803C 29.973 6.27111 29.973 12.0915 26.1636 13.0545C 14.8191 15.9438 0 24.2346 0 9.16032C 0 -6.87703 14.8191 2.41879 26.1636 5.30803Z"/>
<path id="path25_fill" d="M 23.9918 0.0441585C 27.8849 -0.542063 30.1036 4.85954 26.964 7.20443C 17.5869 14.1972 7.03779 27.5547 1.30273 13.6529C -4.89281 -1.21203 12.3961 1.71908 23.9918 0.0441585Z"/>
<path id="path26_fill" d="M 1.50866 7.20444C -1.67283 4.85955 0.587722 -0.542053 4.48086 0.0441688C 16.0766 1.71909 32.9468 -0.248942 27.1699 13.6529C 21.0581 28.4759 10.9276 14.1972 1.50866 7.20444Z"/>
<path id="path27_fill" d="M 2.85706 12.6308C -0.952355 11.6677 -0.952355 5.8474 2.85706 4.88432C 14.2016 1.99508 29.0206 -6.29575 29.0206 8.77853C 29.0206 24.8159 14.2016 15.5201 2.85706 12.6308Z"/>
<path id="path28_fill" d="M 4.46226 19.6827C 0.569118 20.2689 -1.64957 14.8673 1.49006 12.5224C 10.8671 5.52962 21.4162 -7.82787 27.1513 6.07396C 33.3468 20.9389 16.058 18.0078 4.46226 19.6827Z"/>
<path id="path29_fill" d="M 6.0148 24.7295C 2.624 26.7394 -1.47844 22.6359 0.530928 19.2442C 6.51716 9.19465 11.1638 -7.17772 21.7967 3.45802C 33.1412 14.8056 16.0616 18.6998 6.0148 24.7295Z"/>
<path id="path30_fill" d="M 7.20252 26.8397C 4.85826 30.0221 -0.541907 27.7609 0.0441569 23.8667C 1.71863 12.2679 -0.248875 -4.60687 13.6492 1.1716C 28.4683 7.28506 14.1934 17.4183 7.20252 26.8397Z"/>
<path id="path31_fill" d="M 92.933 185.916C 144.259 185.916 185.866 144.297 185.866 92.958C 185.866 41.6187 144.259 0 92.933 0C 41.6075 0 0 41.6187 0 92.958C 0 144.297 41.6075 185.916 92.933 185.916Z"/>
<path id="path32_fill" d="M 39.3647 8.95731C 46.4393 18.6718 35.8901 27.0046 29.1504 31.9037C 19.4385 38.9803 11.2336 44.2563 4.15894 34.5417C -2.91569 24.8272 -0.738886 11.1766 8.97304 4.14191C 18.685 -2.89275 32.3319 -0.757226 39.3647 8.95731Z"/>
<path id="path33_fill" d="M 28.4937 1.07454C 39.9219 4.80123 36.2799 17.6981 33.7264 25.654C 30.0007 37.0853 26.4843 46.2136 15.0561 42.4869C 3.6278 38.7602 -2.65147 26.4914 1.07423 15.0601C 4.79992 3.62875 17.0654 -2.65216 28.4937 1.07454Z"/>
<path id="path34_fill" d="M 21.7993 42.4869C 10.371 46.2136 5.72439 33.6098 3.12896 25.654C -0.59673 14.2226 -3.10843 4.75936 8.36168 1.07454C 19.7899 -2.65216 32.0554 3.62875 35.7811 15.0601C 39.5068 26.4914 33.2275 38.7602 21.7993 42.4869Z"/>
<path id="path35_fill" d="M 37.9786 34.5599C 30.904 44.2744 19.7687 36.8629 12.9871 31.9219C 3.27521 24.8453 -4.30172 18.69 2.77291 8.97544C 9.84754 -0.739094 23.4526 -2.91649 33.1645 4.16004C 42.8764 11.2366 45.0532 24.8453 37.9786 34.5599Z"/>
<path id="path36_fill" d="M 43.5362 21.774C 43.5362 33.7915 30.1404 34.3358 21.7681 34.3358C 9.75378 34.3358 0 33.7915 0 21.774C 0 9.7564 9.75378 0 21.7681 0C 33.7824 0 43.5362 9.7564 43.5362 21.774Z"/>
<path id="path37_fill" d="M 24.5832 3.82087C 30.5695 9.26436 24.7507 16.2153 20.9413 20.3607C 15.4993 26.3485 10.7689 30.9545 4.78265 25.511C -1.20358 20.0676 -1.62219 10.7718 3.81983 4.78392C 9.30372 -1.20392 18.597 -1.62262 24.5832 3.82087Z"/>
<path id="path38_fill" d="M 16.2964 0.0958892C 24.3338 1.01709 23.7059 10.0198 23.078 15.6308C 22.157 23.6704 21.0686 30.1607 13.0311 29.2813C 4.99369 28.3601 -0.825075 21.1161 0.0958829 13.0765C 1.01684 4.99503 8.25893 -0.825316 16.2964 0.0958892Z"/>
<path id="path39_fill" d="M 18.7713 27.4713C 11.7386 31.4912 6.96636 23.7865 4.16162 18.8874C 0.142896 11.8527 -2.78746 5.94863 4.28718 1.92883C 11.3199 -2.09098 20.2784 0.379518 24.2971 7.41418C 28.3158 14.4907 25.846 23.4515 18.7713 27.4713Z"/>
<path id="path40_fill" d="M 27.7156 20.7452C 24.3666 28.1148 15.9943 24.7231 10.8453 22.3782C 3.4776 19.0284 -2.38303 15.9717 0.965904 8.60202C 4.31484 1.23238 13.0221 -2.03372 20.3898 1.31611C 27.7574 4.66595 31.0645 13.3337 27.7156 20.7452Z"/>
<path id="path41_fill" d="M 29.0629 11.6935C 30.6956 19.6494 21.9046 21.7849 16.3788 22.9574C 8.42509 24.5904 1.93651 25.5535 0.303905 17.6395C -1.3287 9.72549 3.77845 1.93711 11.7322 0.304059C 19.6859 -1.32899 27.4303 3.77955 29.0629 11.6935Z"/>
<path id="path42_fill" d="M 14.1812 0.986921C 19.1209 3.37368 16.6929 8.94282 15.0185 12.3764C 12.6323 17.3174 10.4974 21.1697 5.59957 18.8249C 0.659885 16.4381 -1.39134 10.534 0.994779 5.63486C 3.33904 0.69385 9.24154 -1.39984 14.1812 0.986921Z"/>
<path id="path43_fill" d="M 7.98967 19.6282C 2.63137 20.5913 1.29181 14.6453 0.622019 10.9186C -0.340801 5.55889 -0.885024 1.16225 4.47328 0.1573C 9.83158 -0.805778 14.9806 2.75342 15.9853 8.11317C 16.9481 13.5148 13.3898 18.6652 7.98967 19.6282Z"/>
<path id="path44_fill" d="M 16.0192 16.7465C 12.2516 20.6826 7.68868 16.6628 4.92581 14.0248C 0.990804 10.2562 -2.06514 7.03199 1.74427 3.05406C 5.51183 -0.882 11.7911 -1.04947 15.7261 2.76097C 19.6611 6.52954 19.7867 12.8104 16.0192 16.7465Z"/>
<path id="path45_fill" d="M 19.6678 11.2333C 18.9142 16.6349 12.8861 16.0487 9.11857 15.5462C 3.7184 14.7925 -0.635207 13.9551 0.0764427 8.55345C 0.829954 3.15183 5.81149 -0.658639 11.2117 0.0950743C 16.6118 0.848788 20.4213 5.83171 19.6678 11.2333Z"/>
<path id="path46_fill" d="M 18.6022 5.2078C 21.1976 10.0232 15.9649 13.1218 12.6159 14.9224C 7.80183 17.5185 3.78311 19.4028 1.18769 14.5874C -1.40774 9.77197 0.392303 3.78413 5.2064 1.18801C 10.0205 -1.40812 16.0486 0.392408 18.6022 5.2078Z"/>
<path id="path47_fill" d="M 102.729 205.513C 159.464 205.513 205.457 159.507 205.457 102.756C 205.457 46.0056 159.464 0 102.729 0C 45.9932 0 4.08806e-05 46.0056 4.08806e-05 102.756C 4.08806e-05 159.507 45.9932 205.513 102.729 205.513Z"/>
<path id="path48_fill" d="M 41.0612 7.02944C 50.48 16.409 40.4332 27.3378 33.9028 33.87C 24.5257 43.2914 16.4883 50.4936 7.06945 41.114C -2.34944 31.7345 -2.34948 16.4927 7.02755 7.07131C 16.4046 -2.35011 31.6423 -2.35011 41.0612 7.02944Z"/>
<path id="path49_fill" d="M 27.8066 0.292511C 40.9512 2.34429 39.2349 17.0836 37.7697 26.2119C 35.7185 39.36 33.4579 49.912 20.3133 47.8183C 7.1687 45.7666 -1.78963 33.414 0.303458 20.3078C 2.35468 7.20155 14.662 -1.75927 27.8066 0.292511Z"/>
<path id="path50_fill" d="M 13.1133 1.55389C 24.9602 -4.47582 32.2023 8.42106 36.4303 16.67C 42.4584 28.5201 46.8539 38.3602 35.007 44.4318C 23.1602 50.5034 8.67599 45.7718 2.6479 33.9636C -3.42206 22.1135 1.30832 7.62547 13.1133 1.55389Z"/>
<path id="path51_fill" d="M 2.61963 6.87055C 8.64772 -4.97951 22.1271 1.21769 30.3739 5.40499C 42.2207 11.4347 51.556 16.8363 45.5279 28.6864C 39.4998 40.5364 25.0156 45.2681 13.1688 39.2384C 1.3219 33.2087 -3.40846 18.7206 2.61963 6.87055Z"/>
<path id="path52_fill" d="M 0.203625 18.7825C -1.88946 5.67622 12.6366 2.74512 21.7624 1.27956C 34.8651 -0.814088 45.6236 -1.94465 47.7167 11.2035C 49.8098 24.3097 40.8513 36.6622 27.7486 38.7559C 14.604 40.8495 2.29671 31.8887 0.203625 18.7825Z"/>
<path id="path53_fill" d="M 3.84395 38.4693C -5.57494 29.0897 4.47192 18.1609 11.0023 11.6287C 20.3794 2.20726 28.4168 -4.99488 37.8357 4.38466C 47.2545 13.7642 47.2546 29.006 37.8776 38.4274C 28.5005 47.8488 13.2628 47.8907 3.84395 38.4693Z"/>
<path id="path54_fill" d="M 29.3538 45.5081C 17.5069 51.5378 10.2648 38.6409 6.03681 30.392C 0.00872386 18.5419 -4.3868 8.70176 7.46007 2.63018C 19.3069 -3.39953 33.7911 1.29024 39.8192 13.0984C 45.8473 24.9485 41.1588 39.4365 29.3538 45.5081Z"/>
<path id="path55_fill" d="M 44.7936 34.9881C 38.7655 46.8382 25.2861 40.641 17.0393 36.4537C 5.19247 30.424 -4.14277 25.0223 1.88532 13.1723C 7.9134 1.32224 22.3976 -3.40942 34.2445 2.62029C 46.0913 8.65 50.8217 23.1381 44.7936 34.9881Z"/>
<path id="path56_fill" d="M 47.8165 20.2769C 49.9096 33.3832 35.3835 36.3143 26.2577 37.7799C 13.155 39.8735 2.3965 41.0041 0.303415 27.856C -1.78967 14.7078 7.16882 2.39719 20.2715 0.303539C 33.4161 -1.79011 45.7234 7.17071 47.8165 20.2769Z"/>
<path id="path57_fill" d="M 25.1388 2.65983C 32.6321 7.60085 27.4831 16.1429 24.0505 21.3352C 19.1108 28.8304 14.799 34.6508 7.30579 29.7516C -0.187461 24.8106 -2.23873 14.7611 2.65909 7.30773C 7.59878 -0.187537 17.6456 -2.2393 25.1388 2.65983Z"/>
<path id="path58_fill" d="M 15.4617 0.0127816C 24.4201 -0.405948 25.2573 9.55982 25.5503 15.757C 25.969 24.7178 25.9271 31.9619 16.9687 32.3806C 8.01028 32.7993 0.433305 25.8903 0.0146876 16.9295C -0.362068 8.05239 6.54518 0.431511 15.4617 0.0127816Z"/>
<path id="path59_fill" d="M 6.07152 1.98966C 13.0624 -3.62132 19.5928 3.91583 23.5278 8.81497C 29.1373 15.8078 33.3654 21.7118 26.3745 27.3228C 19.3836 32.9338 9.16933 31.8032 3.60172 24.8104C -2.04961 17.8177 -0.919385 7.60064 6.07152 1.98966Z"/>
<path id="path60_fill" d="M 0.58682 6.28893C 2.97294 -2.3369 12.6849 -0.117627 18.713 1.55729C 27.3365 3.94405 34.2437 6.24706 31.8994 14.8729C 29.5552 23.4987 20.5967 28.6072 11.9732 26.2205C 3.30781 23.8337 -1.7993 14.9148 0.58682 6.28893Z"/>
<path id="path61_fill" d="M 0.651011 17.3202C -2.53048 8.94562 6.67902 5.05145 12.4978 2.83218C 20.8701 -0.350168 27.8192 -2.52756 30.9589 5.84704C 34.0985 14.2216 29.9123 23.6012 21.4981 26.7416C 13.1676 29.924 3.8325 25.6948 0.651011 17.3202Z"/>
<path id="path62_fill" d="M 3.85379 28.8986C -3.63946 23.9575 1.50947 15.4155 4.94213 10.2232C 9.88182 2.72795 14.1936 -3.0924 21.6868 1.80674C 29.1801 6.74776 31.2313 16.7973 26.3335 24.2507C 21.352 31.7459 11.3052 33.8396 3.85379 28.8986Z"/>
<path id="path63_fill" d="M 10.2208 32.3859C 1.26244 32.8046 0.425161 22.8389 0.132129 16.6416C -0.286489 7.68083 -0.244626 0.4368 8.71378 0.0180706C 17.6722 -0.400659 25.2492 6.50838 25.6678 15.4692C 26.0864 24.43 19.1793 31.9671 10.2208 32.3859Z"/>
<path id="path64_fill" d="M 23.9536 28.9018C 16.9627 34.5127 10.4323 26.9756 6.49731 22.0765C 0.88784 15.0837 -3.34022 9.17958 3.65069 3.56861C 10.6416 -2.04237 20.8559 -0.911804 26.4235 6.08098C 32.0749 13.1156 30.9445 23.2908 23.9536 28.9018Z"/>
<path id="path65_fill" d="M 31.7748 20.5187C 29.3886 29.1446 19.6767 26.9253 13.6486 25.2504C 5.02509 22.8636 -1.88209 20.5606 0.462165 11.9348C 2.84828 3.30894 11.7649 -1.79957 20.3884 0.587191C 29.0119 2.97395 34.1609 11.851 31.7748 20.5187Z"/>
<path id="path66_fill" d="M 31.3668 10.4641C 34.5483 18.8387 25.3387 22.7329 19.5199 24.9522C 11.1476 28.1345 4.1985 30.3119 1.05887 21.9373C -2.12262 13.5627 2.10546 4.18316 10.5197 1.04269C 18.9339 -2.09779 28.2272 2.08951 31.3668 10.4641Z"/>
<path id="path67_fill" d="M 14.0774 0.457138C 19.8543 2.17393 18.1798 8.70612 16.9658 12.7259C 15.2494 18.5044 13.575 23.1104 7.7981 21.3936C 2.02118 19.6768 -1.2859 13.5634 0.472294 7.78491C 2.23049 2.00644 8.30044 -1.25965 14.0774 0.457138Z"/>
<path id="path68_fill" d="M 7.32087 0.386906C 13.0141 -1.623 15.484 4.65796 16.9073 8.63589C 18.9166 14.3306 20.2562 19.0623 14.563 21.0303C 8.86977 23.0402 2.63236 20.0253 0.622993 14.3306C -1.38637 8.59402 1.62767 2.35494 7.32087 0.386906Z"/>
<path id="path69_fill" d="M 1.93734 2.48927C 5.37 -2.49362 11.0632 1.14933 14.4959 3.53609C 19.4774 6.96968 23.3286 9.98452 19.896 14.9255C 16.4633 19.9084 9.63994 21.1228 4.70025 17.6892C -0.239433 14.2975 -1.49533 7.47215 1.93734 2.48927Z"/>
<path id="path70_fill" d="M 0.00172041 6.59882C -0.123865 0.569111 6.57403 0.150375 10.8021 0.0247564C 16.8302 -0.100863 21.728 0.0247566 21.8954 6.09634C 22.021 12.126 17.2488 17.1508 11.2207 17.2764C 5.1926 17.4021 0.169167 12.6285 0.00172041 6.59882Z"/>
<path id="path71_fill" d="M 1.24968 15.8158C -2.39229 11.0004 2.75674 6.72936 6.10568 4.17511C 10.9198 0.532161 14.9803 -2.23147 18.6223 2.54205C 22.2643 7.35745 21.3433 14.1828 16.5711 17.8676C 11.7989 21.5524 4.93351 20.6312 1.24968 15.8158Z"/>
<path id="path72_fill" d="M 4.08633 21.3002C -1.69059 19.5834 -0.0161855 13.0512 1.1978 9.03141C 2.91414 3.25294 4.58867 -1.35309 10.3656 0.363702C 16.1425 2.08049 19.4496 8.19395 17.6914 13.9724C 15.9751 19.7509 9.90511 23.017 4.08633 21.3002Z"/>
<path id="path73_fill" d="M 11.3152 21.2501C 5.62201 23.26 3.1521 16.9791 1.72881 13.0011C -0.280557 7.3064 -1.62009 2.57476 4.0731 0.606725C 9.7663 -1.3613 16.0037 1.61168 18.0131 7.3064C 20.0224 13.0011 17.0084 19.2402 11.3152 21.2501Z"/>
<path id="path74_fill" d="M 19.2676 17.1378C 15.8349 22.1206 10.1417 18.4777 6.70906 16.0909C 1.72752 12.6573 -2.12372 9.64248 1.30894 4.70147C 4.7416 -0.239539 11.5651 -1.49573 16.5048 1.93785C 21.4863 5.37144 22.7002 12.1549 19.2676 17.1378Z"/>
<path id="path75_fill" d="M 21.8979 10.6801C 22.0235 16.7098 15.3256 17.1285 11.0976 17.2541C 5.06947 17.3797 0.171645 17.2541 0.00419853 11.1825C -0.163248 5.11095 4.65085 0.128068 10.6789 0.00244934C 16.707 -0.12317 21.7723 4.60848 21.8979 10.6801Z"/>
<path id="path76_fill" d="M 19.6002 4.31048C 23.2422 9.12587 18.0933 13.3969 14.7443 15.9512C 9.93024 19.5941 5.86959 22.3577 2.22762 17.5842C -1.41435 12.7688 -0.493335 5.94352 4.2789 2.2587C 9.093 -1.42612 15.9583 -0.504918 19.6002 4.31048Z"/>
<path id="path77_fill" d="M 72.4208 144.881C 112.418 144.881 144.842 112.448 144.842 72.4403C 144.842 32.4326 112.418 0 72.4208 0C 32.4239 0 2.04403e-05 32.4326 2.04403e-05 72.4403C 2.04403e-05 112.448 32.4239 144.881 72.4208 144.881Z"/>
<path id="path78_fill" d="M 2.90344 16.2104C -0.487359 12.9024 -1.32463 12.2325 2.65223 7.8358C 10.9827 -1.33438 29.36 -5.01921 29.8624 11.2275C 30.3647 28.5629 11.6944 24.92 2.90344 16.2104Z"/>
<path id="path79_fill" d="M 5.27253 25.0336C 0.584018 24.3218 -0.462505 24.2799 0.165421 18.4177C 1.505 6.10704 14.231 -7.71104 24.1522 5.14396C 34.7432 18.8783 17.538 26.876 5.27253 25.0336Z"/>
<path id="path80_fill" d="M 11.2268 27.882C 7.04067 30.0594 6.11963 30.6456 3.18931 25.5371C -2.96437 14.7758 -0.787477 -3.85769 14.7851 0.706461C 31.4461 5.56373 22.2365 22.1454 11.2268 27.882Z"/>
<path id="path81_fill" d="M 21.1136 25.2096C 18.9786 29.4388 18.6437 30.4437 13.2435 28.0151C 1.94087 22.9485 -7.2268 6.57615 8.05273 1.09079C 24.3788 -4.72955 26.6812 14.1133 21.1136 25.2096Z"/>
<path id="path82_fill" d="M 27.3453 17.8841C 28.1407 22.5739 28.3918 23.5788 22.6149 24.7931C 10.475 27.3474 -6.56273 19.4753 2.60499 6.07592C 12.4006 -8.24464 25.3359 5.65719 27.3453 17.8841Z"/>
<path id="path83_fill" d="M 26.9706 7.28193C 30.3614 10.5899 31.1986 11.2599 27.2218 15.6565C 18.8913 24.8267 0.513985 28.5115 0.0116437 12.2648C -0.532559 -5.0706 18.1377 -1.42765 26.9706 7.28193Z"/>
<path id="path84_fill" d="M 1.07673 7.66446C -0.388426 4.77522 -0.807043 4.14713 2.7512 2.13722C 10.2026 -2.05007 23.0123 -0.458901 19.8308 10.2606C 16.3981 21.7338 4.96988 15.2853 1.07673 7.66446Z"/>
<path id="path85_fill" d="M 2.82653 14.4995C -0.103794 13.0339 -0.773622 12.7408 0.900847 9.05597C 4.45909 1.30947 15.7618 -4.97148 19.4875 5.58051C 23.4644 16.8862 10.4454 18.3518 2.82653 14.4995Z"/>
<path id="path86_fill" d="M 5.02999 18.8201C 1.80664 19.3225 1.09497 19.5319 0.299597 15.554C -1.37487 7.17939 4.10901 -4.54505 13.2767 1.81964C 23.1142 8.60307 13.4442 17.4801 5.02999 18.8201Z"/>
<path id="path87_fill" d="M 11.1038 18.6371C 8.80141 20.9401 8.34091 21.5264 5.32686 18.7627C -0.952395 12.9843 -3.42218 0.296755 7.79677 0.00364398C 19.7274 -0.247594 17.1319 12.5655 11.1038 18.6371Z"/>
<path id="path88_fill" d="M 17.2219 15.3448C 16.7195 18.569 16.6777 19.3228 12.6171 18.8203C 4.11914 17.8572 -5.29969 9.022 3.57499 2.23858C 13.1195 -5.00544 18.5614 6.92835 17.2219 15.3448Z"/>
<path id="path89_fill" d="M 19.2523 8.83578C 20.7174 11.725 21.136 12.3531 17.5778 14.363C 10.1264 18.5503 -2.68331 16.9591 0.498185 6.23966C 3.97271 -5.23354 15.3591 1.2149 19.2523 8.83578Z"/>
<path id="path90_fill" d="M 17.3997 1.91641C 20.33 3.38196 20.9998 3.67507 19.3253 7.3599C 15.767 15.1064 4.46442 21.3873 0.738726 10.8354C -3.23814 -0.470351 9.78088 -1.93591 17.3997 1.91641Z"/>
<path id="path91_fill" d="M 14.0656 28.1386C 21.8337 28.1386 28.131 21.8396 28.131 14.0693C 28.131 6.29905 21.8337 0 14.0656 0C 6.29738 0 -2.04403e-05 6.29905 -2.04403e-05 14.0693C -2.04403e-05 21.8396 6.29738 28.1386 14.0656 28.1386Z"/>
<path id="path92_fill" d="M 4.29937 0.0908996C 5.42964 -0.0765923 5.63901 -0.160338 5.93204 1.22147C 6.5181 4.11071 4.63424 8.17238 1.45275 5.95312C -1.97991 3.60823 1.36905 0.551502 4.29937 0.0908996Z"/>
<path id="path93_fill" d="M 3.04775 0.375978C 4.05243 -0.126498 4.26178 -0.293989 4.97343 0.962201C 6.43859 3.51645 5.85254 7.95499 2.16871 6.86629C -1.80815 5.65197 0.410457 1.71591 3.04775 0.375978Z"/>
<path id="path94_fill" d="M 1.76962 0.683774C 2.565 -0.111812 2.73246 -0.321177 3.77901 0.641902C 5.95582 2.65181 6.79305 7.04847 2.94177 7.13221C -1.2444 7.21596 -0.323462 2.77742 1.76962 0.683774Z"/>
<path id="path95_fill" d="M 0.667991 0.981423C 1.17033 -0.0235288 1.25406 -0.274768 2.55177 0.311454C 5.23092 1.52577 7.40779 5.46183 3.76582 6.71802C -0.169182 8.09983 -0.671585 3.61942 0.667991 0.981423Z"/>
<path id="path96_fill" d="M 0.0687372 1.26138C 0.236184 0.130809 0.236205 -0.120427 1.6595 0.0470645C 4.58982 0.382048 7.85504 3.43877 4.79913 5.78366C 1.49206 8.29604 -0.391742 4.19249 0.0687372 1.26138Z"/>
<path id="path97_fill" d="M 0.0908544 1.73942C -0.0765925 0.608849 -0.160336 0.399484 1.2211 0.106373C 4.10956 -0.479849 8.17017 1.40444 5.9515 4.58678C 3.60724 7.9785 0.551333 4.62866 0.0908544 1.73942Z"/>
<path id="path98_fill" d="M 0.375898 2.66912C -0.126443 1.66417 -0.293931 1.45481 0.961921 0.742965C 3.51549 -0.722589 7.95287 -0.136365 6.86447 3.54846C 5.65048 7.52639 1.71547 5.30712 0.375898 2.66912Z"/>
<path id="path99_fill" d="M 0.683611 3.85231C -0.111762 3.05673 -0.321111 2.88924 0.641709 1.84241C 2.65107 -0.334984 7.04655 -1.17244 7.13028 2.67987C 7.214 6.8253 2.7767 5.90409 0.683611 3.85231Z"/>
<path id="path100_fill" d="M 0.981138 5.02202C -0.0235433 4.51955 -0.274652 4.4358 0.311412 3.13774C 1.5254 0.457867 5.46032 -1.71953 6.71618 1.92342C 8.09761 5.85948 3.61843 6.36196 0.981138 5.02202Z"/>
<path id="path101_fill" d="M 1.26106 5.95856C 0.130795 5.79107 -0.120437 5.79107 0.0470103 4.36739C 0.381904 1.43628 3.43789 -1.82981 5.78215 1.22692C 8.29385 4.53489 4.19138 6.41917 1.26106 5.95856Z"/>
<path id="path102_fill" d="M 1.73895 6.4997C 0.608685 6.66719 0.399418 6.75093 0.106386 5.36912C -0.479679 2.47989 1.40408 -1.58179 4.58557 0.637479C 7.97637 2.98237 4.62741 6.03909 1.73895 6.4997Z"/>
<path id="path103_fill" d="M 2.66839 6.65903C 1.6637 7.16151 1.45446 7.329 0.742807 6.07281C -0.722353 3.51856 -0.13631 -0.919975 3.54752 0.168722C 7.52439 1.38304 5.30568 5.3191 2.66839 6.65903Z"/>
<path id="path104_fill" d="M 3.85124 6.44961C 3.05587 7.2452 2.8885 7.45456 1.84196 6.49148C -0.334853 4.48158 -1.17209 0.0849153 2.67919 0.00116929C 6.8235 -0.0825767 5.94433 4.35596 3.85124 6.44961Z"/>
<path id="path105_fill" d="M 5.02069 5.99524C 4.51835 7.00019 4.43463 7.25143 3.13692 6.66521C 0.457766 5.45089 -1.71911 1.51483 1.92286 0.258639C 5.81601 -1.12317 6.36027 3.35724 5.02069 5.99524Z"/>
<path id="path106_fill" d="M 5.95701 5.30282C 5.78956 6.43339 5.78954 6.68463 4.36624 6.51714C 1.43592 6.18215 -1.8293 3.12543 1.22661 0.780539C 4.53369 -1.73184 6.41748 2.37171 5.95701 5.30282Z"/>
<path id="path107_fill" d="M 6.49791 4.27415C 6.66536 5.40472 6.7491 5.61408 5.36766 5.90719C 2.4792 6.49341 -1.58141 4.60913 0.637266 1.42679C 2.98152 -1.96493 6.03743 1.38491 6.49791 4.27415Z"/>
<path id="path108_fill" d="M 6.65726 3.04861C 7.15961 4.05356 7.32699 4.26292 6.07114 4.97476C 3.51757 6.44032 -0.919709 5.8541 0.168696 2.16927C 1.38269 -1.80866 5.31769 0.410608 6.65726 3.04861Z"/>
<path id="path109_fill" d="M 6.44783 1.75473C 7.24321 2.55031 7.45256 2.71781 6.48974 3.76463C 4.48037 5.94203 0.0848918 6.77949 0.00116833 2.92717C -0.0825551 -1.21825 4.35475 -0.338922 6.44783 1.75473Z"/>
<path id="path110_fill" d="M 5.99359 0.668212C 6.99827 1.17069 7.24948 1.25443 6.66342 2.5525C 5.44943 5.23237 1.5144 7.40976 0.258551 3.76681C -1.12289 -0.169247 3.3563 -0.671724 5.99359 0.668212Z"/>
<path id="path111_fill" d="M 5.30142 0.0687557C 6.43168 0.236248 6.68281 0.236247 6.51537 1.65993C 6.18047 4.59104 3.12459 7.85713 0.78033 4.8004C -1.73137 1.49244 2.3711 -0.391847 5.30142 0.0687557Z"/>
<path id="path112_fill" d="M 69 26C 69 40.3594 53.5538 52 34.5 52C 15.4462 52 0 40.3594 0 26C 0 11.6406 15.4462 0 34.5 0C 53.5538 0 69 11.6406 69 26Z"/>
<path id="path113_fill" d="M 43 16C 43 24.8366 33.3741 32 21.5 32C 9.62588 32 0 24.8366 0 16C 0 7.16344 9.62588 0 21.5 0C 33.3741 0 43 7.16344 43 16Z"/>
<path id="path114_fill" d="M 43 16C 43 24.8366 33.3741 32 21.5 32C 9.62588 32 0 24.8366 0 16C 0 7.16344 9.62588 0 21.5 0C 33.3741 0 43 7.16344 43 16Z"/>
<path id="path115_fill" d="M 20 8.5C 20 13.1944 15.5228 17 10 17C 4.47715 17 0 13.1944 0 8.5C 0 3.80558 4.47715 0 10 0C 15.5228 0 20 3.80558 20 8.5Z"/>
<path id="path116_fill" d="M 72.4208 144.88C 112.418 144.88 144.842 112.448 144.842 72.4403C 144.842 32.4326 112.418 5.11145e-06 72.4208 5.11145e-06C 32.4239 5.11145e-06 0 32.4326 0 72.4403C 0 112.448 32.4239 144.88 72.4208 144.88Z"/>
<path id="path117_fill" d="M 20.7251 0.483367C 26.1502 -0.422503 27.3403 -0.73606 28.7403 5.9186C 31.7154 19.8899 22.6152 39.61 7.03976 29.0531C -9.55065 17.7994 6.54975 2.85257 20.7251 0.483367Z"/>
<path id="path118_fill" d="M 8.41706 3.34455C 12.2672 -0.557656 13.0372 -1.5332 18.1123 3.06583C 28.7526 12.6471 33.0577 33.9002 14.2272 34.4577C -5.8633 35.05 -1.66319 13.5182 8.41706 3.34455Z"/>
<path id="path119_fill" d="M 0.302782 6.10124C 1.1078 0.700859 1.1778 -0.518581 7.96797 0.178242C 22.2483 1.71125 38.2437 16.3794 23.3684 27.877C 7.47796 40.1062 -1.83227 20.2119 0.302782 6.10124Z"/>
<path id="path120_fill" d="M 8.57589 31.5593C 3.15075 32.4651 1.96072 32.7787 0.560688 26.124C -2.41439 12.1527 6.68584 -7.56735 22.2612 2.98951C 38.8516 14.2432 22.7512 29.1901 8.57589 31.5593Z"/>
<path id="path121_fill" d="M 18.8048 31.1251C 14.9547 35.0273 14.1847 36.0029 9.10954 31.4038C -1.53073 21.8225 -5.83584 0.569432 12.9946 0.0119742C 33.0851 -0.580325 28.885 20.9515 18.8048 31.1251Z"/>
<path id="path122_fill" d="M 29.0161 25.5865C 28.2111 30.9868 28.1411 32.2063 21.3509 31.5094C 7.07056 29.9764 -8.92484 15.3083 5.95053 3.81076C 21.8409 -8.41848 31.1512 11.4758 29.0161 25.5865Z"/>
<path id="path123_fill" d="M 32.3433 14.6367C 34.8634 19.4797 35.5634 20.5249 29.6132 23.9045C 17.1529 31.0121 -4.4426 28.5035 0.807527 10.5255C 6.44267 -8.70681 25.7281 1.91973 32.3433 14.6367Z"/>
<path id="path124_fill" d="M 29.2084 3.11478C 34.1085 5.55366 35.2985 5.97175 32.4984 12.2083C 26.6183 25.2737 7.64781 35.8654 1.27765 18.2358C -5.51252 -0.613231 16.363 -3.26115 29.2084 3.11478Z"/>
<path id="path125_fill" d="M 23.6606 47.1052C 36.728 47.1052 47.3212 36.5604 47.3212 23.5526C 47.3212 10.5449 36.728 8.50614e-06 23.6606 8.50614e-06C 10.5932 8.50614e-06 0 10.5449 0 23.5526C 0 36.5604 10.5932 47.1052 23.6606 47.1052Z"/>
<path id="path126_fill" d="M 7.16213 0.166574C 9.05218 -0.146996 9.43719 -0.251511 9.9272 2.048C 10.9422 6.89092 7.79215 13.6849 2.43702 10.0615C -3.30313 6.12442 2.26201 0.96792 7.16213 0.166574Z"/>
<path id="path127_fill" d="M 5.07354 0.643075C 6.75359 -0.227953 7.1036 -0.471858 8.29363 1.58377C 10.7787 5.86923 9.90367 13.2904 3.63851 11.4787C -3.01166 9.52756 0.663434 2.90775 5.07354 0.643075Z"/>
<path id="path128_fill" d="M 2.91264 1.15532C 4.24267 -0.203485 4.52268 -0.517051 6.27272 1.0508C 9.94781 4.36071 11.4179 11.7122 4.94269 11.9212C -2.02249 12.1303 -0.587451 4.67427 2.91264 1.15532Z"/>
<path id="path129_fill" d="M 1.07066 1.64183C 1.91068 -0.0653878 2.05069 -0.448623 4.22074 0.526929C 8.73585 2.54771 12.4459 9.063 6.32079 11.258C -0.189369 13.5924 -1.13439 6.06665 1.07066 1.64183Z"/>
<path id="path130_fill" d="M 0.103837 2.11869C 0.383844 0.237267 0.418845 -0.180814 2.7639 0.0630741C 7.69903 0.585691 13.2292 5.6725 8.08404 9.64439C 2.5889 13.8602 -0.631182 6.99645 0.103837 2.11869Z"/>
<path id="path131_fill" d="M 0.167346 2.94081C -0.147662 1.05938 -0.252664 0.676144 2.05739 0.188368C 6.92251 -0.822025 13.7477 2.31366 10.1076 7.64436C 6.1525 13.3583 0.972366 7.81857 0.167346 2.94081Z"/>
<path id="path132_fill" d="M 0.646015 4.48941C -0.229007 2.81704 -0.474013 2.46862 1.59104 1.28402C 5.89615 -1.1897 13.3513 -0.318653 11.5313 5.91791C 9.57124 12.5377 2.92107 8.8794 0.646015 4.48941Z"/>
<path id="path133_fill" d="M 1.16062 6.47192C -0.204418 5.14795 -0.519426 4.86923 1.05561 3.12718C 4.3807 -0.531143 11.7659 -1.99448 11.9759 4.45114C 12.1859 11.3845 4.6957 9.95603 1.16062 6.47192Z"/>
<path id="path134_fill" d="M 1.64936 8.42929C -0.065679 7.5931 -0.450689 7.45374 0.529336 5.29358C 2.55939 0.799077 9.10455 -2.89408 11.3096 3.20312C 13.6547 9.68357 6.09447 10.6243 1.64936 8.42929Z"/>
<path id="path135_fill" d="M 2.12841 9.99314C 0.238363 9.71441 -0.181647 9.67956 0.0633589 7.3452C 0.588372 2.4326 5.6985 -3.07231 9.6886 2.04934C 13.9237 7.5194 7.02853 10.7248 2.12841 9.99314Z"/>
<path id="path136_fill" d="M 2.9543 10.9181C 1.06425 11.2316 0.67924 11.3361 0.189227 9.03662C -0.825798 4.1937 2.32428 -2.60032 7.67941 1.02316C 13.4196 4.96021 7.85442 10.1167 2.9543 10.9181Z"/>
<path id="path137_fill" d="M 4.51 11.1152C 2.82996 11.9863 2.47995 12.2302 1.28992 10.1745C -1.19515 5.88908 -0.320122 -1.53209 5.94503 0.279646C 12.5952 2.23075 8.92011 8.85056 4.51 11.1152Z"/>
<path id="path138_fill" d="M 6.50159 10.7702C 5.17156 12.129 4.89155 12.4426 3.14151 10.8747C -0.533584 7.56483 -2.00362 0.213344 4.47154 0.00429734C 11.4367 -0.20475 10.0017 7.25126 6.50159 10.7702Z"/>
<path id="path139_fill" d="M 8.46793 10.0551C 7.62791 11.7624 7.4879 12.1456 5.31785 11.17C 0.802735 9.14926 -2.90736 2.63397 3.2178 0.438975C 9.72796 -1.89538 10.673 5.63032 8.46793 10.0551Z"/>
<path id="path140_fill" d="M 10.0389 8.83855C 9.75894 10.72 9.72394 11.1381 7.37888 10.8942C 2.44376 10.3716 -3.08638 5.28474 2.05875 1.31285C 7.55388 -2.90292 10.774 3.96079 10.0389 8.83855Z"/>
<path id="path141_fill" d="M 10.9681 7.12946C 11.2831 9.01088 11.3881 9.39412 9.07805 9.88189C 4.21293 10.8923 -2.61224 7.7566 1.02785 2.4259C 4.98295 -3.28805 10.1631 2.2517 10.9681 7.12946Z"/>
<path id="path142_fill" d="M 11.1662 5.0504C 12.0412 6.72277 12.2862 7.07119 10.2212 8.25579C 5.91607 10.7295 -1.53912 9.85846 0.280928 3.6219C 2.24098 -2.99792 8.89115 0.660412 11.1662 5.0504Z"/>
<path id="path143_fill" d="M 10.8196 2.89935C 12.1846 4.22331 12.4996 4.50203 10.9246 6.24409C 7.59952 9.90241 0.21433 11.3657 0.00432505 4.92013C -0.20568 -2.01326 7.28451 -0.584764 10.8196 2.89935Z"/>
<path id="path144_fill" d="M 10.1012 1.06577C 11.8163 1.90196 12.2013 2.04132 11.2213 4.20148C 9.19121 8.69598 2.64605 12.3891 0.440993 6.29194C -1.90407 -0.188509 5.65612 -1.12922 10.1012 1.06577Z"/>
<path id="path145_fill" d="M 8.87906 0.103354C 10.7691 0.382083 11.1891 0.416937 10.9441 2.75129C 10.4191 7.6639 5.30898 13.1688 1.31888 8.04715C -2.91623 2.57709 3.97894 -0.62831 8.87906 0.103354Z"/>
<path id="path146_fill" d="M 12.3941 0.268229C 15.6174 -0.234246 16.3291 -0.443591 17.1245 3.53434C 18.7989 11.9089 13.315 23.6334 4.14733 17.2687C -5.69018 10.4434 3.97988 1.60816 12.3941 0.268229Z"/>
<path id="path147_fill" d="M 5.08362 1.97211C 7.38602 -0.330901 7.8465 -0.917143 10.8605 1.84647C 17.1398 7.62494 19.6096 20.3125 8.3907 20.6056C -3.53989 20.8568 -0.944466 8.00182 5.08362 1.97211Z"/>
<path id="path148_fill" d="M 0.189865 3.61767C 0.692205 0.393452 0.734067 -0.360257 4.79465 0.142219C 13.2926 1.1053 22.7115 9.94049 13.8368 16.7239C 4.33418 23.9679 -1.10785 12.076 0.189865 3.61767Z"/>
<path id="path149_fill" d="M 1.07673 7.66447C -0.388426 4.77523 -0.807043 4.14713 2.7512 2.13723C 10.2026 -2.05007 23.0123 -0.458911 19.8308 10.2606C 16.3563 21.6919 4.96988 15.2435 1.07673 7.66447Z"/>
<path id="path150_fill" d="M 5.02995 18.8201C 1.8066 19.3225 1.09495 19.5319 0.299577 15.554C -1.37489 7.17938 4.109 -4.54505 13.2767 1.81965C 23.1142 8.60307 13.486 17.4801 5.02995 18.8201Z"/>
<path id="path151_fill" d="M 11.1038 18.636C 8.80143 20.939 8.34095 21.5253 5.32691 18.7616C -0.952353 12.9832 -3.4222 0.295656 7.79675 0.0025451C 19.7692 -0.20682 17.1738 12.6063 11.1038 18.636Z"/>
<path id="path152_fill" d="M 17.2219 15.3448C 16.7196 18.569 16.6777 19.3227 12.6171 18.8203C 4.11917 17.8572 -5.29971 9.022 3.57498 2.23858C 13.1194 -5.00545 18.5615 6.92835 17.2219 15.3448Z"/>
<path id="path153_fill" d="M 19.2522 8.83578C 20.7174 11.725 21.136 12.3531 17.5778 14.363C 10.1264 18.5503 -2.68333 16.9591 0.498163 6.23965C 3.97269 -5.23354 15.4009 1.2149 19.2522 8.83578Z"/>
<path id="path154_fill" d="M 17.3857 1.93499C 20.3161 3.40055 20.9858 3.69366 19.3114 7.37848C 15.7531 15.125 4.45046 21.4059 0.724763 10.8539C -3.21024 -0.451772 9.80876 -1.95919 17.3857 1.93499Z"/>
</defs>
</svg>
