<svg width="131" height="142" viewBox="0 0 131 142" version="1.1" xmlns="http://www.w3.org/2000/svg" xmlns:xlink="http://www.w3.org/1999/xlink">
<title>Vector</title>
<desc>Created using Figma</desc>
<g id="Canvas" transform="translate(-12544 -9599)">
<g id="Vector">
<use xlink:href="#path0_stroke" transform="translate(12548.6 9604)" fill="#9AE0FF"/>
</g>
</g>
<defs>
<path id="path0_stroke" d="M 53.8335 34.6655C 55.1909 32.8468 54.817 30.2721 52.9983 28.9147C 51.1797 27.5573 48.605 27.9313 47.2476 29.7499L 53.8335 34.6655ZM 6.68665 89.6927L 9.82431 92.3459L 9.82529 92.3447L 6.68665 89.6927ZM 49.7193 120.039L 52.6173 122.952L 52.6201 122.949L 49.7193 120.039ZM 118.292 31.0152L 114.829 28.8041L 114.829 28.8047L 118.292 31.0152ZM 84.4164 13.4572L 80.983 11.1999L 80.9805 11.2037L 84.4164 13.4572ZM 24.8359 92.2833L 21.8032 89.5107L 21.8018 89.5122L 24.8359 92.2833ZM 42.3693 103.468L 45.4113 106.23L 45.4162 106.225L 42.3693 103.468ZM 95.8617 41.681C 97.233 39.8729 96.8789 37.2954 95.0707 35.924C 93.2625 34.5527 90.685 34.9068 89.3137 36.715L 95.8617 41.681ZM 50.5406 32.2077C 47.2476 29.7499 47.2475 29.7501 47.2472 29.7504C 47.2469 29.7508 47.2465 29.7513 47.246 29.752C 47.2449 29.7535 47.2433 29.7556 47.2412 29.7585C 47.2369 29.7642 47.2305 29.7729 47.2219 29.7843C 47.2048 29.8072 47.1792 29.8415 47.1454 29.8868C 47.0777 29.9775 46.9771 30.1122 46.8454 30.2884C 46.5822 30.6408 46.1948 31.1592 45.6989 31.8224C 44.707 33.1488 43.2808 35.0548 41.5438 37.3721C 38.0696 42.007 33.3533 48.2863 28.3837 54.8653C 18.3994 68.0828 7.52147 82.3382 3.54801 87.0407L 9.82529 92.3447C 13.982 87.4253 25.031 72.9381 34.9412 59.8187C 39.9188 53.2291 44.6415 46.9413 48.1196 42.3012C 49.8587 39.981 51.2869 38.0725 52.2804 36.7438C 52.7772 36.0795 53.1653 35.5602 53.4293 35.2068C 53.5613 35.0301 53.6623 34.8948 53.7303 34.8038C 53.7643 34.7582 53.7901 34.7237 53.8074 34.7006C 53.816 34.689 53.8225 34.6802 53.8269 34.6744C 53.8291 34.6715 53.8307 34.6692 53.8318 34.6678C 53.8324 34.667 53.8328 34.6665 53.8331 34.6661C 53.8334 34.6657 53.8335 34.6655 50.5406 32.2077ZM 3.54899 87.0395C -8.5442 101.341 -5.21116 119.246 5.83848 128.981C 11.3746 133.859 18.839 136.691 27.1506 136.035C 35.4613 135.38 44.2521 131.274 52.6173 122.952L 46.8213 117.126C 39.5421 124.367 32.4933 127.37 26.5042 127.843C 20.5161 128.315 15.2205 126.295 11.2714 122.815C 3.35059 115.836 0.811793 103.004 9.82431 92.3459L 3.54899 87.0395ZM 52.6201 122.949C 61.6517 113.947 77.2258 94.1793 91.2616 75.5309C 105.333 56.8353 118.171 38.8438 121.756 33.2258L 114.829 28.8047C 111.433 34.1244 98.772 51.8864 84.6955 70.5889C 70.5835 89.3386 55.3613 108.614 46.8185 117.129L 52.6201 122.949ZM 121.756 33.2263C 129.83 20.5794 125.73 6.30201 116.196 -0.360441C 111.383 -3.72386 105.214 -5.10948 98.793 -3.33142C 92.4165 -1.56556 86.2544 3.18182 80.983 11.1999L 87.8499 15.7146C 92.3512 8.86795 97.0294 5.68441 100.986 4.58861C 104.899 3.505 108.557 4.32699 111.489 6.37591C 117.445 10.5381 120.511 19.9044 114.829 28.8041L 121.756 33.2263ZM 80.9805 11.2037C 76.5126 18.0157 63.7086 35.4174 50.9324 52.32C 38.1213 69.269 25.6444 85.309 21.8032 89.5107L 27.8686 95.0558C 32.0344 90.4991 44.79 74.0753 57.4884 57.2754C 70.2219 40.4293 83.2046 22.7971 87.8524 15.7108L 80.9805 11.2037ZM 21.8018 89.5122C 18.5417 93.0818 17.022 97.134 17.348 101.093C 17.6713 105.019 19.7766 108.351 22.7812 110.49C 28.9579 114.888 38.2744 114.089 45.4113 106.23L 39.3274 100.705C 34.5152 106.004 29.7886 105.391 27.5476 103.795C 26.3435 102.938 25.6463 101.729 25.5384 100.419C 25.4332 99.1413 25.8537 97.262 27.87 95.0543L 21.8018 89.5122ZM 45.4162 106.225C 50.112 101.035 62.7932 84.7979 74.1512 70.0637C 79.8644 62.6524 85.2915 55.5573 89.29 50.3156C 91.2894 47.6946 92.9319 45.5365 94.0747 44.0334C 94.6461 43.2819 95.0926 42.6941 95.3964 42.294C 95.5483 42.094 95.6645 41.9409 95.7428 41.8377C 95.7819 41.7862 95.8116 41.7471 95.8315 41.7208C 95.8414 41.7077 95.849 41.6978 95.854 41.6912C 95.8565 41.6878 95.8584 41.6853 95.8597 41.6836C 95.8603 41.6828 95.8608 41.6821 95.8611 41.6817C 95.8615 41.6813 95.8617 41.681 92.5877 39.198C 89.3137 36.715 89.3136 36.7152 89.3133 36.7155C 89.313 36.716 89.3125 36.7165 89.3119 36.7174C 89.3107 36.719 89.3088 36.7214 89.3064 36.7246C 89.3015 36.7311 89.2941 36.7409 89.2842 36.7539C 89.2645 36.7798 89.2351 36.8186 89.1962 36.8699C 89.1184 36.9724 89.0027 37.1248 88.8513 37.3242C 88.5485 37.723 88.1031 38.3093 87.5328 39.0594C 86.3922 40.5595 84.7523 42.7141 82.7559 45.3313C 78.7628 50.5661 73.3445 57.6495 67.6425 65.0463C 56.1703 79.9285 43.7423 95.8261 39.3224 100.711L 45.4162 106.225Z"/>
</defs>
</svg>
