<svg width="114" height="80" viewBox="0 0 114 80" version="1.1" xmlns="http://www.w3.org/2000/svg" xmlns:xlink="http://www.w3.org/1999/xlink">
<title>aec_yellow_cyan</title>
<desc>Created using Figma</desc>
<g id="Canvas" transform="translate(-13118 -7434)">
<g id="aec_yellow_cyan">
<g id="Group">
<g id="Group">
<g id="Vector">
<use xlink:href="#path0_fill" transform="translate(13123.8 7434.73)"/>
</g>
</g>
<g id="Group">
<g id="Vector">
<use xlink:href="#path1_fill" transform="translate(13121.7 7434.4)"/>
</g>
</g>
<g id="Group">
<g id="Vector">
<use xlink:href="#path2_fill" transform="translate(13118 7434)"/>
</g>
</g>
<g id="Group">
<g id="Vector">
<use xlink:href="#path3_fill" transform="translate(13120.9 7434.17)" fill="#FFF969"/>
</g>
</g>
<g id="Group">
<g id="Vector">
<use xlink:href="#path4_fill" transform="translate(13138.6 7456.91)" fill="#00AEEF"/>
</g>
</g>
<g id="Group">
<g id="Vector">
<use xlink:href="#path5_fill" transform="translate(13135.4 7453.79)"/>
</g>
<g id="Vector">
<use xlink:href="#path6_fill" transform="translate(13134.5 7452.91)" fill="#FFF969"/>
</g>
</g>
</g>
</g>
</g>
<defs>
<path id="path0_fill" d="M 0.0460263 37.6017C 2.29475 72.0379 55.6888 79.9896 67.2249 79.2186C 75.7239 78.6505 43.8875 68.5981 56.1228 67.777C 84.9244 65.8441 109.328 53.9803 107.786 30.371C 106.568 11.7088 81.4613 -1.80105 51.7096 0.195693C 21.958 2.19243 -1.17263 18.9397 0.0460263 37.6017Z"/>
<path id="path1_fill" d="M 0.0306777 36.8976C 1.86658 71.3589 55.1613 79.9676 66.706 79.3386C 75.2112 78.8753 43.4975 68.4315 55.7417 67.7611C 84.5643 66.183 109.108 54.6208 107.85 30.9941C 106.855 12.3185 81.9123 -1.4996 52.1388 0.130625C 22.3652 1.76085 -0.964279 18.2218 0.0306777 36.8976Z"/>
<path id="path2_fill" d="M 0.0110131 35.6625C 1.11111 70.1561 54.2097 79.9316 65.7649 79.5561C 74.278 79.2794 42.7947 68.1426 55.0503 67.7408C 83.8999 66.7953 108.685 55.774 107.931 32.1254C 107.335 13.4321 82.6928 -0.929729 52.8916 0.0470095C 23.0903 1.02375 -0.585066 16.9692 0.0110131 35.6625Z"/>
<path id="path3_fill" d="M 0.0111151 35.671C 1.11637 70.1644 54.2163 79.9318 65.7717 79.5544C 74.2848 79.2764 42.7998 68.1444 55.0554 67.7408C 83.9048 66.7907 108.688 55.7657 107.931 32.1173C 107.332 13.4242 82.6874 -0.933987 52.8863 0.0474624C 23.0853 1.02891 -0.587718 16.9781 0.0111151 35.671Z"/>
<path id="path4_fill" d="M 55.3473 26.1923C 54.0694 26.1923 52.8936 25.9808 51.8524 25.5639C 50.787 25.1379 49.8637 24.5357 49.1089 23.7748C 48.8068 23.4705 48.5325 23.1438 48.2869 22.7963C 47.3357 23.2929 46.338 23.7591 45.3101 24.187C 43.9533 24.7518 42.5233 25.2269 41.0594 25.5988C 39.508 25.9927 37.9526 26.1923 36.4359 26.1923C 34.925 26.1923 33.5394 25.8896 32.3179 25.2925C 31.124 24.7084 30.0927 23.9065 29.2525 22.9086C 29.2501 22.9056 29.2475 22.9029 29.2451 22.8999C 28.73 23.2744 28.2074 23.6293 27.6819 23.9605C 26.7116 24.5723 25.7352 25.0842 24.78 25.4816C 23.6437 25.9533 22.5287 26.1923 21.4645 26.1923C 20.3459 26.1923 19.3387 25.9309 18.4712 25.4158C 17.6847 24.9491 17.0204 24.3312 16.4982 23.5799C 16.3087 23.3074 16.1382 23.0206 15.9871 22.7207C 15.7529 22.9236 15.5151 23.1207 15.2742 23.3121C 14.2679 24.1106 13.1981 24.778 12.094 25.2961C 10.8267 25.8908 9.51025 26.1924 8.18147 26.1924C 7.43654 26.1924 6.6393 26.0614 5.74398 25.7917C 4.80236 25.5086 3.90566 25.0439 3.07934 24.4108C 2.2174 23.7509 1.49278 22.9015 0.925955 21.8867C 0.311635 20.787 4.30616e-07 19.4823 4.30616e-07 18.0089C 4.30616e-07 17.0438 0.135769 15.9636 0.414881 14.7066C 0.681602 13.5023 1.0896 12.2412 1.62683 10.9594C 2.16784 9.669 2.8627 8.38296 3.69211 7.13705C 4.55836 5.83549 5.59805 4.65307 6.78195 3.62313C 7.99717 2.56632 9.39273 1.70088 10.9308 1.05053C 12.5368 0.371751 14.329 0.0277371 16.2581 0.0277371C 17.3513 0.0277371 18.3491 0.173925 19.2236 0.462289C 20.0041 0.719949 20.6652 1.00238 21.2455 1.32616C 21.2739 1.34204 21.3019 1.35843 21.3298 1.37536C 21.4286 1.43554 21.526 1.49677 21.622 1.5594C 21.8657 1.45926 22.1155 1.36681 22.3688 1.28342C 22.9458 1.09379 23.4684 1.00203 23.9691 1.00203C 25.2916 1.00203 26.4744 1.42089 27.3899 2.21306C 28.6963 3.34366 28.9706 4.61556 28.9706 5.48362C 28.9706 5.83339 28.9355 6.14391 28.8634 6.43245C 28.86 6.44606 28.8565 6.45984 28.8527 6.47345C 28.7364 6.90939 28.5703 7.42053 28.3451 8.03616C 28.147 8.57712 27.9254 9.17845 27.6805 9.83996C 27.4472 10.4697 27.2004 11.1511 26.947 11.866C 26.7085 12.539 26.4899 13.2049 26.2977 13.8448C 26.2079 14.1433 26.1256 14.4339 26.0516 14.7149C 26.1714 14.6242 26.2925 14.5302 26.4147 14.433C 26.5832 14.299 26.7525 14.1625 26.9217 14.0232C 27.0242 13.45 27.1767 12.8595 27.378 12.2569C 27.7604 11.1106 28.3126 9.95352 29.019 8.81891C 29.7097 7.70889 30.5618 6.61737 31.5516 5.57521C 32.5602 4.51351 33.7072 3.56294 34.9613 2.75019C 36.2292 1.92853 37.6372 1.26109 39.1466 0.766877C 40.7012 0.258009 42.3741 3.62015e-07 44.119 3.62015e-07C 46.3526 3.62015e-07 48.1252 0.617026 49.3874 1.83398C 50.2801 2.69558 51.3435 4.25934 51.3435 6.81973C 51.3435 7.10425 51.3262 7.39087 51.2916 7.67871C 51.5533 7.34656 51.8245 7.01685 52.1043 6.69011C 53.1511 5.46845 54.3054 4.36384 55.5352 3.40751C 56.7993 2.42484 58.1398 1.62185 59.52 1.02C 61.0305 0.361633 62.5904 0.0277371 64.156 0.0277371C 64.7775 0.0277371 65.3812 0.100832 65.9502 0.245101C 66.627 0.417282 67.2384 0.697273 67.7696 1.07757C 68.4018 1.53079 68.8997 2.13264 69.2507 2.86741C 69.5813 3.5612 69.7484 4.34674 69.7484 5.2052C 69.7484 5.94016 69.6666 6.74681 69.5054 7.60265C 69.3306 8.52863 69.0377 9.41465 68.635 10.2375C 68.4831 10.5472 68.3149 10.8416 68.131 11.1204C 68.8437 10.6466 69.1376 10.4765 69.3584 10.3677C 70.0091 10.0455 70.6743 9.88113 71.3322 9.88113C 72.0392 9.88113 72.7141 10.073 73.2834 10.4361C 73.7452 10.7321 74.1252 11.1002 74.418 11.5333C 74.6898 11.9372 74.8823 12.3749 74.994 12.8391C 75.0819 13.2107 75.1236 13.5423 75.1236 13.8619C 75.1236 14.1715 75.0941 14.5051 75.0337 14.8814C 74.9179 15.5928 74.5958 16.2604 74.0479 16.9275C 74.04 16.9371 74.0321 16.9467 74.024 16.9561C 73.8555 17.1555 73.6082 17.4027 72.8427 18.0774C 72.2712 18.5811 71.566 19.1466 70.6869 19.8062C 69.8322 20.4475 68.8406 21.139 67.74 21.8616C 66.5854 22.6196 65.3363 23.3193 64.0274 23.9412C 62.7004 24.572 61.3091 25.1028 59.8931 25.5187C 58.37 25.9655 56.8409 26.1923 55.3473 26.1923ZM 60.1244 11.5899C 59.7981 11.9344 59.4734 12.3161 59.1554 12.7292C 58.7133 13.304 58.3129 13.8919 57.9653 14.4756C 57.6447 15.0138 57.3921 15.5294 57.2138 16.0088C 57.1925 16.066 57.1737 16.1194 57.157 16.169C 57.7175 16.1529 58.3359 16.0475 58.9972 15.8551C 59.8372 15.6107 60.685 15.2967 61.5172 14.9217C 62.2678 14.5834 63.0041 14.2158 63.7106 13.8268C 63.6158 13.8315 63.5203 13.8338 63.4241 13.8338C 63.0079 13.8338 61.7415 13.8338 60.8223 12.8387C 60.5742 12.5717 60.2935 12.1652 60.1244 11.5899ZM 14.9071 10.2989C 14.4505 10.2989 14.0094 10.417 13.5589 10.6602C 12.9985 10.9625 12.5135 11.3507 12.0763 11.847C 11.6241 12.3597 11.2753 12.9192 11.0091 13.5578C 10.7671 14.1379 10.6498 14.6921 10.6498 15.2531C 10.6498 15.4305 10.6575 15.6154 10.6728 15.8058C 11.0373 15.5488 11.4243 15.2248 11.8256 14.8404C 12.3449 14.343 12.8592 13.7886 13.3547 13.192C 13.8681 12.5741 14.3331 11.9658 14.7368 11.383C 14.9842 11.026 15.2019 10.693 15.3878 10.3876C 15.3711 10.383 15.3542 10.3785 15.3373 10.3741C 15.0424 10.2998 14.9125 10.2989 14.9071 10.2989Z"/>
<path id="path5_fill" d="M 56.5064 24.3996C 55.3917 24.3996 54.3797 24.2163 53.498 23.8547C 52.6102 23.4906 51.8481 22.9838 51.2329 22.3481C 50.617 21.7124 50.1433 20.9576 49.8255 20.1052C 49.8179 20.085 49.8103 20.0648 49.8031 20.0445C 49.5575 20.1891 49.306 20.3351 49.049 20.4815C 47.8495 21.1666 46.5616 21.8038 45.2213 22.3757C 43.8724 22.9515 42.4492 23.436 40.9913 23.8156C 39.5028 24.2032 38.013 24.3996 36.563 24.3996C 35.2484 24.3996 34.0567 24.1364 33.021 23.6174C 31.9964 23.1038 31.1135 22.4008 30.3968 21.5284C 30.0155 21.0645 29.6806 20.5579 29.3953 20.0138C 29.2896 20.1024 29.1841 20.1902 29.0794 20.2769C 28.1969 21.0071 27.2808 21.6801 26.3564 22.2773C 25.4199 22.8826 24.4828 23.3864 23.5711 23.7749C 22.5977 24.1894 21.6569 24.3996 20.7745 24.3996C 19.9267 24.3996 19.1786 24.206 18.5509 23.8239C 17.9526 23.46 17.4486 22.98 17.0531 22.397C 16.6711 21.8337 16.3851 21.1899 16.2027 20.484C 16.0697 19.9709 15.9863 19.4418 15.9532 18.9055C 15.8811 18.9893 15.8082 19.0732 15.7345 19.1571C 14.9242 20.0824 14.04 20.9363 13.1069 21.6955C 12.1579 22.4673 11.1522 23.1108 10.1179 23.6083C 9.02637 24.1332 7.89874 24.3995 6.76647 24.3995C 6.16109 24.3995 5.49188 24.2838 4.72046 24.0458C 3.93991 23.8051 3.19291 23.4072 2.50013 22.8629C 1.79633 22.3108 1.20094 21.5931 0.730645 20.7299C 0.2459 19.8408 0 18.7574 0 17.51C 0 16.6272 0.13164 15.5723 0.390963 14.3744C 0.647704 13.1875 1.04245 11.9384 1.56437 10.6621C 2.08783 9.38221 2.76255 8.10332 3.56959 6.8609C 4.38886 5.59911 5.37297 4.45193 6.49475 3.45147C 7.62737 2.44176 8.93276 1.61295 10.3751 0.98773C 11.8423 0.352038 13.4939 0.0298303 15.2838 0.0298303C 16.2423 0.0298303 17.1027 0.156306 17.8409 0.405419C 18.5423 0.642843 19.152 0.90853 19.6538 1.19532L 19.6823 1.21242C 20.0559 1.44583 20.4054 1.69721 20.7263 1.96342C 20.9091 1.87341 21.0956 1.78531 21.2849 1.7C 21.5981 1.55207 21.9431 1.41321 22.2972 1.29336C 22.7178 1.15171 23.0833 1.08298 23.4156 1.08298C 24.3783 1.08298 25.188 1.3682 25.8221 1.93063C 26.6537 2.66837 26.8282 3.44746 26.8282 3.97115C 26.8282 4.18293 26.8103 4.3593 26.7737 4.51072C 26.6639 4.93271 26.5014 5.4435 26.2872 6.04326C 26.0792 6.62609 25.8462 7.27399 25.5887 7.98679C 25.3394 8.67656 25.0761 9.4218 24.8063 10.2021C 24.5446 10.9585 24.3043 11.7094 24.0922 12.4333C 23.8816 13.1505 23.7074 13.8319 23.5744 14.4592C 23.4493 15.0476 23.3858 15.5474 23.3858 15.9457C 23.3858 16.405 23.4538 16.772 23.5876 17.0367C 23.6221 17.1049 23.6446 17.1494 23.8313 17.1494C 23.927 17.1494 24.144 17.1228 24.5227 16.9446C 24.8872 16.7734 25.2926 16.5374 25.728 16.2429C 26.179 15.9383 26.6522 15.5846 27.135 15.1907C 27.5114 14.8843 27.8905 14.5649 28.2659 14.2378C 28.3387 13.5102 28.5084 12.7344 28.7717 11.9262C 29.1274 10.8336 29.645 9.72395 30.3101 8.62859C 30.9708 7.5402 31.7903 6.4656 32.7453 5.43478C 33.7067 4.39698 34.8025 3.46682 36.0021 2.66976C 37.2059 1.87009 38.5468 1.21957 39.9871 0.736174C 41.4435 0.247718 43.0172 0 44.6647 0C 46.5309 0 47.971 0.488281 48.9453 1.45106C 49.9251 2.42048 50.4219 3.75414 50.4219 5.41524C 50.4219 6.38448 50.1739 7.40186 49.6849 8.43896C 49.201 9.46489 48.3721 10.5051 47.2214 11.5309C 46.1112 12.5212 44.6158 13.5402 42.7777 14.5595C 41.1584 15.4572 39.1595 16.3673 36.8263 17.2699C 36.8841 17.3229 36.9499 17.3727 37.0237 17.4203C 37.3957 17.6596 37.9297 17.781 38.6106 17.781C 39.444 17.781 40.3556 17.6537 41.3196 17.4023C 42.3149 17.1427 43.3162 16.806 44.2954 16.4013C 45.2926 15.9891 46.2758 15.5378 47.2178 15.06C 48.1708 14.5769 49.043 14.1124 49.8107 13.6791C 49.9662 13.5913 50.1161 13.506 50.261 13.4231C 50.6692 12.393 51.1938 11.3399 51.8231 10.2879C 52.5751 9.03104 53.4706 7.77885 54.4845 6.56608C 55.5063 5.34389 56.6315 4.24015 57.8292 3.28539C 59.0387 2.32139 60.3191 1.53445 61.6345 0.946385C 62.9958 0.338257 64.3957 0.0298303 65.7954 0.0298303C 66.2997 0.0298303 66.7859 0.0896671 67.2401 0.207594C 67.7306 0.335291 68.1676 0.538697 68.5404 0.812408C 68.9447 1.10949 69.2662 1.5102 69.4964 2.00354C 69.7188 2.48171 69.8311 3.04204 69.8311 3.67005C 69.8311 4.34046 69.7563 5.08762 69.609 5.89061C 69.4569 6.71541 69.2032 7.50322 68.8548 8.23241C 68.4887 8.9972 68.01 9.64615 67.4318 10.1618C 66.7781 10.7452 65.9678 11.041 65.0236 11.041C 64.6058 11.041 64.007 10.9929 63.6317 10.5768C 63.3704 10.2881 63.2431 9.88863 63.2431 9.35639C 63.2431 9.15472 63.2481 8.87787 63.2582 8.53334C 63.2681 8.18566 63.2729 7.85491 63.2729 7.55137C 63.2729 7.39262 63.2601 7.25009 63.2354 7.1299C 62.9494 7.13234 62.5792 7.26963 62.1642 7.52764C 61.6586 7.84235 61.141 8.26224 60.6258 8.7753C 60.0944 9.3044 59.5678 9.91567 59.0604 10.5917C 58.5485 11.2739 58.0832 11.974 57.6777 12.6723C 57.2806 13.3555 56.9634 14.0211 56.7347 14.6518C 56.5238 15.2332 56.4168 15.7191 56.4168 16.0959C 56.4168 16.5381 56.5432 16.8401 56.8272 17.0745C 57.152 17.3437 57.633 17.4799 58.2571 17.4799C 59.0611 17.4799 59.938 17.34 60.8634 17.0641C 61.8309 16.7755 62.806 16.4055 63.7617 15.9638C 64.7304 15.5167 65.6797 15.023 66.5835 14.4969C 67.502 13.962 68.3444 13.4476 69.0874 12.968C 69.8394 12.4829 70.4771 12.0619 70.9834 11.7165C 71.7102 11.2211 71.9554 11.0803 72.0881 11.0131C 72.524 10.7923 72.9528 10.6805 73.3632 10.6805C 73.7671 10.6805 74.1286 10.7829 74.4378 10.985C 74.7056 11.1612 74.9233 11.3758 75.0873 11.6242C 75.2428 11.8613 75.3533 12.1177 75.4168 12.3883C 75.4729 12.6315 75.4995 12.8391 75.4995 13.027C 75.4995 13.2543 75.4767 13.5107 75.4295 13.8109C 75.3641 14.2211 75.1594 14.6359 74.8026 15.0811C 74.6997 15.2057 74.501 15.4152 73.7425 16.1002C 73.1834 16.6051 72.4569 17.2019 71.5829 17.8738C 70.7137 18.5423 69.7003 19.2667 68.571 20.0267C 67.4227 20.7992 66.1798 21.5127 64.8766 22.1471C 63.5652 22.7863 62.1893 23.3245 60.7869 23.7465C 59.3486 24.18 57.908 24.3996 56.5064 24.3996ZM 13.8595 7.22026C 13.0685 7.22026 12.3198 7.42158 11.5709 7.83589C 10.7936 8.26556 10.0945 8.83845 9.4927 9.53869C 8.88458 10.2457 8.39484 11.0503 8.03692 11.9307C 7.68605 12.7927 7.5083 13.6677 7.5083 14.5318C 7.5083 14.8986 7.53135 15.2845 7.57661 15.6793C 7.61395 16.0072 7.70016 16.3096 7.83283 16.5787C 7.9495 16.8149 8.11091 17.0072 8.32618 17.1659C 8.50102 17.2949 8.77497 17.3601 9.14063 17.3601C 9.28776 17.3601 9.62039 17.3027 10.1946 16.9179C 10.7329 16.5569 11.3002 16.0849 11.8806 15.5148C 12.4786 14.9279 13.0704 14.2743 13.6396 13.5718C 14.2157 12.8614 14.7397 12.158 15.1973 11.4812C 15.6524 10.8087 16.0253 10.1985 16.306 9.66708C 16.6297 9.05494 16.6489 8.84595 16.6494 8.8374C 16.6493 8.66993 16.5921 8.52235 16.4639 8.36709C 16.2735 8.13716 16.0303 7.93393 15.7422 7.76454C 15.437 7.58556 15.1056 7.44879 14.7586 7.3586C 14.4042 7.26684 14.1011 7.22026 13.8595 7.22026ZM 43.0624 5.86637C 42.4289 5.86637 41.8562 5.98848 41.3114 6.23951C 40.7406 6.50258 40.2092 6.85427 39.732 7.28516C 39.2413 7.72843 38.7973 8.23835 38.4125 8.80077C 38.0054 9.39564 37.6359 9.99365 37.3145 10.5786C 37.1729 10.8361 37.0409 11.0899 36.9192 11.3386C 37.6361 10.8931 38.3291 10.4545 38.9799 10.0348C 39.6219 9.6205 40.1863 9.24247 40.6576 8.91084C 41.1644 8.55445 41.5151 8.31772 41.7297 8.18723C 42.6959 7.57806 43.1208 7.1278 43.3049 6.85863C 43.6306 6.38291 43.6559 6.14025 43.6559 6.07727C 43.6559 6.0136 43.6453 5.99092 43.6453 5.99057C 43.5623 5.91102 43.4993 5.89218 43.4539 5.88433L 43.4309 5.88015C 43.3651 5.86706 43.3347 5.86637 43.3293 5.86637L 43.0624 5.86637Z"/>
<path id="path6_fill" d="M 45.5254 1.74449C 47.1674 1.74449 48.3939 2.1459 49.2055 2.94801C 50.0165 3.75048 50.4222 4.86363 50.4222 6.28766C 50.4222 7.13007 50.2042 8.01296 49.7694 8.93527C 49.334 9.8581 48.5822 10.7959 47.5139 11.7484C 46.4455 12.7013 45.0159 13.674 43.2256 14.6668C 41.4347 15.6596 39.1939 16.6576 36.5035 17.6603C 36.6023 18.2423 36.9087 18.6983 37.4234 19.0292C 37.9376 19.3602 38.6202 19.5257 39.4712 19.5257C 40.3809 19.5257 41.3558 19.3903 42.3944 19.1196C 43.4331 18.8488 44.4616 18.5027 45.4808 18.0816C 46.4995 17.6603 47.4938 17.2045 48.4635 16.7127C 49.4326 16.2215 50.3081 15.7552 51.0899 15.3136C 51.3446 15.1699 51.5841 15.0331 51.8116 14.9021C 52.2161 13.8266 52.751 12.7304 53.4197 11.6129C 54.1513 10.3896 55.0121 9.1863 56.0017 8.00249C 56.9908 6.8192 58.0642 5.76623 59.2218 4.8434C 60.3792 3.92109 61.5858 3.17881 62.8425 2.61691C 64.0987 2.05571 65.3696 1.77449 66.6561 1.77449C 67.0911 1.77449 67.5019 1.82473 67.8877 1.92487C 68.2735 2.02552 68.6097 2.18061 68.8967 2.39117C 69.1832 2.60173 69.4109 2.88765 69.5794 3.24858C 69.7471 3.60969 69.8316 4.04128 69.8316 4.5423C 69.8316 5.16421 69.7621 5.85101 69.6239 6.60324C 69.4852 7.35546 69.2576 8.0625 68.9413 8.72436C 68.6245 9.38622 68.2188 9.93817 67.7245 10.3792C 67.2298 10.8205 66.6162 11.041 65.8845 11.041C 65.4884 11.041 65.2363 10.9809 65.1277 10.8605C 65.0188 10.7401 64.9644 10.5296 64.9644 10.2286C 64.9644 10.0481 64.969 9.78257 64.9792 9.4314C 64.989 9.08076 64.994 8.74459 64.994 8.42343C 64.994 8.06233 64.9444 7.75687 64.8457 7.50583C 64.7464 7.25533 64.4993 7.12972 64.1037 7.12972C 63.6483 7.12972 63.1392 7.30557 62.5753 7.65621C 62.0114 8.00737 61.4475 8.46391 60.8836 9.02511C 60.3197 9.58683 59.7707 10.2239 59.2364 10.9357C 58.7023 11.6479 58.2222 12.37 57.797 13.102C 57.3713 13.8345 57.035 14.5415 56.7879 15.2231C 56.5403 15.9052 56.4169 16.4868 56.4169 16.9681C 56.4169 17.6704 56.659 18.2219 57.144 18.6229C 57.6285 19.0245 58.2866 19.2246 59.1175 19.2246C 60.0079 19.2246 60.9576 19.0742 61.9666 18.7733C 62.9757 18.4724 63.9796 18.0917 64.9789 17.63C 65.9776 17.1689 66.9423 16.6672 67.8724 16.1257C 68.8021 15.5842 69.6479 15.068 70.4098 14.5762C 71.1713 14.085 71.8093 13.6637 72.324 13.3125C 72.8384 12.9619 73.1744 12.7461 73.3331 12.6657C 73.6494 12.5054 73.946 12.4249 74.2234 12.4249C 74.4609 12.4249 74.6634 12.4804 74.8319 12.5905C 74.9997 12.7009 75.1332 12.8312 75.2325 12.9816C 75.3313 13.132 75.4003 13.2928 75.4402 13.4629C 75.4796 13.6335 75.4995 13.7788 75.4995 13.8992C 75.4995 14.0798 75.4796 14.2956 75.4402 14.5461C 75.4003 14.7971 75.2519 15.083 74.995 15.4035C 74.8957 15.5239 74.5745 15.8298 74.0305 16.3211C 73.4861 16.8129 72.784 17.3892 71.9234 18.0511C 71.0629 18.7129 70.0732 19.42 68.9556 20.1722C 67.8376 20.9244 66.6408 21.6118 65.3647 22.2332C 64.0885 22.8551 62.7678 23.3718 61.4027 23.7826C 60.0376 24.1934 58.6918 24.3995 57.3666 24.3995C 56.3576 24.3995 55.4621 24.2386 54.6808 23.9182C 53.8989 23.5975 53.2414 23.1612 52.7073 22.6094C 52.1731 22.058 51.7674 21.4111 51.4905 20.6689C 51.3587 20.3165 51.2594 19.9547 51.1904 19.5841C 50.6604 19.9114 50.093 20.2479 49.4872 20.5937C 48.3098 21.266 47.0633 21.8827 45.7477 22.4441C 44.4317 23.0058 43.0619 23.4723 41.6373 23.8431C 40.2128 24.214 38.8076 24.3998 37.4231 24.3998C 36.2359 24.3998 35.1825 24.169 34.2624 23.7078C 33.3422 23.2465 32.5605 22.6246 31.9178 21.8424C 31.3475 21.149 30.8986 20.3603 30.5697 19.4776C 30.1887 19.8085 29.798 20.1405 29.3953 20.4733C 28.5345 21.1856 27.654 21.8324 26.7539 22.4139C 25.8534 22.9958 24.9681 23.4721 24.0977 23.843C 23.2268 24.2138 22.406 24.3996 21.6344 24.3996C 20.9416 24.3996 20.3481 24.2493 19.8537 23.9483C 19.359 23.6474 18.9486 23.2563 18.6221 22.775C 18.2957 22.2937 18.0531 21.7473 17.8951 21.1353C 17.7365 20.5237 17.6576 19.8971 17.6576 19.255C 17.6576 18.8337 17.6872 18.4178 17.7466 18.0064C 17.806 17.5956 17.9048 17.2092 18.0434 16.8481C 17.43 17.6905 16.7326 18.5584 15.9511 19.4505C 15.1692 20.3432 14.3286 21.1556 13.4285 21.8876C 12.528 22.6201 11.5884 23.2218 10.6091 23.6928C 9.62985 24.1638 8.63558 24.3998 7.62651 24.3998C 7.11183 24.3998 6.51368 24.2944 5.83105 24.0839C 5.14841 23.8733 4.50019 23.5272 3.88708 23.0459C 3.27362 22.5646 2.75928 21.943 2.34388 21.1805C 1.92848 20.4185 1.72061 19.4858 1.72061 18.3825C 1.72061 17.5604 1.84399 16.5773 2.09161 15.434C 2.33872 14.2907 2.71488 13.1023 3.21941 11.8688C 3.72395 10.6353 4.36666 9.41675 5.14841 8.21322C 5.92982 7.0097 6.85491 5.93178 7.92335 4.97894C 8.99178 4.02645 10.2085 3.25417 11.5736 2.66226C 12.9387 2.07088 14.4622 1.77467 16.144 1.77467C 17.0144 1.77467 17.7764 1.8851 18.4293 2.1056C 19.0821 2.32663 19.6359 2.56719 20.0912 2.82764C 20.6054 3.1488 21.0603 3.49997 21.4563 3.88061C 21.7925 3.70006 22.1389 3.52997 22.4949 3.36913C 22.7918 3.22905 23.1034 3.10344 23.4298 2.99302C 23.7563 2.88311 24.0383 2.82746 24.2756 2.82746C 25.0273 2.82746 25.6407 3.03803 26.1156 3.45932C 26.5906 3.88061 26.8279 4.34221 26.8279 4.84322C 26.8279 4.98383 26.8177 5.09425 26.7983 5.17415C 26.699 5.5555 26.546 6.0368 26.3383 6.61824C 26.1306 7.2002 25.8978 7.84706 25.6409 8.55881C 25.3835 9.27108 25.1215 10.0134 24.8545 10.7853C 24.5874 11.5578 24.3448 12.315 24.1275 13.0568C 23.9094 13.7991 23.7315 14.4963 23.5933 15.1477C 23.4546 15.7998 23.3856 16.3563 23.3856 16.8176C 23.3856 17.4192 23.4844 17.9157 23.6825 18.3068C 23.88 18.6979 24.2166 18.8935 24.6915 18.8935C 24.9884 18.8935 25.3394 18.7986 25.7452 18.6078C 26.1504 18.4174 26.5909 18.1617 27.0659 17.8405C 27.5406 17.5199 28.0304 17.1537 28.5349 16.7424C 29.0227 16.3452 29.496 15.9424 29.9561 15.5354C 29.9976 14.7767 30.161 13.9559 30.4491 13.072C 30.7853 12.0392 31.2699 11.0013 31.9033 9.95806C 32.5362 8.91538 33.313 7.89712 34.2331 6.90434C 35.153 5.91155 36.1867 5.03424 37.3345 4.27173C 38.4817 3.50974 39.743 2.89812 41.1183 2.43653C 42.4932 1.97528 43.9622 1.74449 45.5254 1.74449ZM 36.0582 14.2003C 36.7504 13.8392 37.4678 13.4284 38.2098 12.9668C 38.9518 12.5055 39.6493 12.0642 40.3021 11.6429C 40.955 11.2216 41.5235 10.8409 42.0086 10.4995C 42.4932 10.1587 42.8344 9.92788 43.0325 9.80751C 43.9228 9.24631 44.5358 8.71965 44.8725 8.22805C 45.2088 7.7368 45.3771 7.31045 45.3771 6.94934C 45.3771 6.64842 45.2829 6.40785 45.0952 6.2273C 44.9069 6.04675 44.6946 5.93684 44.4571 5.89637C 44.3578 5.87666 44.2689 5.86637 44.1901 5.86637C 44.1107 5.86637 44.0218 5.86637 43.923 5.86637C 43.1709 5.86637 42.4688 6.01674 41.8159 6.31766C 41.163 6.61859 40.5644 7.01476 40.0204 7.50601C 39.476 7.99778 38.9914 8.55445 38.5662 9.17583C 38.1405 9.79774 37.7598 10.4146 37.4236 11.0262C 37.087 11.6384 36.805 12.225 36.5778 12.7862C 36.3498 13.3481 36.1769 13.8197 36.0582 14.2003ZM 10.0012 19.1044C 10.4362 19.1044 10.9457 18.9089 11.5296 18.5177C 12.1129 18.1266 12.7168 17.6254 13.3399 17.0135C 13.9631 16.4018 14.5714 15.73 15.1651 14.9977C 15.7586 14.2657 16.2929 13.5489 16.7677 12.8466C 17.2424 12.1448 17.6284 11.5129 17.9251 10.9512C 18.2219 10.39 18.3702 9.97865 18.3702 9.71767C 18.3702 9.33685 18.2413 8.99092 17.9844 8.6797C 17.727 8.36901 17.4104 8.10332 17.0347 7.88247C 16.6587 7.66197 16.258 7.49659 15.8328 7.38599C 15.407 7.27609 15.036 7.22044 14.7199 7.22044C 13.7897 7.22044 12.8897 7.46118 12.0193 7.94248C 11.1484 8.42379 10.3768 9.05564 9.70453 9.83786C 9.0317 10.6201 8.4974 11.4977 8.10196 12.4705C 7.70601 13.4435 7.50847 14.4213 7.50847 15.4038C 7.50847 15.8052 7.53308 16.2213 7.58263 16.6524C 7.63185 17.0839 7.74594 17.4798 7.92387 17.8407C 8.10197 18.2018 8.35423 18.5026 8.68067 18.7433C 9.00693 18.984 9.44693 19.1044 10.0012 19.1044ZM 45.5254 0C 43.786 0 42.1213 0.262545 40.5778 0.780309C 39.0661 1.28778 37.6576 1.97145 36.3913 2.81264C 35.135 3.64738 33.987 4.62202 32.9788 5.70988C 31.9839 6.78379 31.1288 7.90532 30.4377 9.04377C 29.7376 10.1967 29.1915 11.3681 28.8149 12.5254C 28.574 13.2647 28.4058 13.9821 28.3122 14.6675C 28.0273 14.9119 27.7413 15.1512 27.4572 15.3825C 26.9929 15.7609 26.5407 16.0994 26.1119 16.3888C 25.7484 16.6346 25.4124 16.8336 25.1104 16.9824C 25.108 16.9318 25.1064 16.8771 25.1064 16.8177C 25.1064 16.5864 25.1357 16.1728 25.2756 15.5155C 25.4041 14.9094 25.5727 14.25 25.7768 13.5545C 25.985 12.8441 26.2211 12.1069 26.4786 11.3624C 26.7467 10.5876 27.0086 9.84624 27.2569 9.15891C 27.5148 8.44437 27.7483 7.79559 27.9567 7.21189C 28.1827 6.57951 28.3482 6.05826 28.4625 5.61935L 28.4659 5.60591L 28.4692 5.59248C 28.5229 5.3718 28.549 5.12688 28.549 4.8434C 28.549 4.13915 28.3234 3.09961 27.2491 2.14659C 26.4536 1.44095 25.4533 1.08315 24.276 1.08315C 23.8499 1.08315 23.3958 1.16636 22.8875 1.33767C 22.5051 1.46711 22.1341 1.61609 21.7827 1.7813C 21.7541 1.79421 21.7254 1.80729 21.697 1.82037C 21.4725 1.65412 21.2377 1.4945 20.9939 1.34238L 20.9657 1.32476L 20.9369 1.30837C 20.3878 0.994358 19.7274 0.70582 18.9744 0.45095C 18.1472 0.171657 17.1954 0.030179 16.1444 0.030179C 14.2376 0.030179 12.4724 0.375938 10.8979 1.05803C 9.37104 1.72007 7.98822 2.59842 6.78729 3.66883C 5.60769 4.72093 4.57298 5.92707 3.71139 7.2541C 2.87474 8.54206 2.17438 9.86997 1.6301 11.2005C 1.08874 12.5242 0.678505 13.823 0.410923 15.0605C 0.134565 16.3366 0 17.4234 0 18.3824C 0 19.7792 0.281865 21.0045 0.838022 22.0243C 1.36527 22.9918 2.03689 23.7999 2.83413 24.4253C 3.60952 25.0341 4.44943 25.4809 5.3303 25.7527C 6.18415 26.0161 6.93528 26.1441 7.62686 26.1441C 8.88768 26.1441 10.1392 25.8496 11.347 25.2687C 12.4418 24.7422 13.5045 24.0624 14.5057 23.2481C 15.1102 22.7565 15.6949 22.2265 16.2537 21.6641C 16.4619 22.4334 16.7816 23.1398 17.2044 23.7632C 17.67 24.4499 18.2637 25.0156 18.9689 25.4444C 19.7315 25.9086 20.6288 26.1441 21.6347 26.1441C 22.6321 26.1441 23.685 25.9111 24.7645 25.4514C 25.7209 25.0439 26.7014 24.5169 27.6792 23.885C 28.474 23.3716 29.2621 22.8041 30.0287 22.1941C 30.2058 22.4594 30.3951 22.7146 30.5962 22.9594C 31.3902 23.9257 32.3672 24.7039 33.4999 25.2715C 34.6552 25.8507 35.9752 26.1443 37.4233 26.1443C 38.9455 26.1443 40.5073 25.9386 42.0656 25.5329C 43.5641 25.1426 45.0277 24.6444 46.4157 24.052C 47.7609 23.478 49.0559 22.8387 50.2662 22.1512C 50.5897 22.7696 50.9959 23.3327 51.4796 23.832C 52.1776 24.553 53.0376 25.1264 54.0357 25.5356C 55.02 25.9395 56.1407 26.1443 57.3668 26.1443C 58.851 26.1443 60.3737 25.9125 61.8926 25.4554C 63.3379 25.0205 64.757 24.4654 66.1104 23.8058C 67.4489 23.1541 68.7266 22.4205 69.9074 21.6262C 71.0527 20.8554 72.0809 20.1204 72.9636 19.4414C 73.8564 18.755 74.6004 18.1435 75.1754 17.6242C 76.0136 16.8673 76.2032 16.659 76.3152 16.5231L 76.3231 16.5135L 76.3309 16.5039C 76.7853 15.9368 77.0496 15.3873 77.1393 14.8241C 77.1942 14.4754 77.2205 14.1741 77.2205 13.8997C 77.2205 13.6436 77.1863 13.3708 77.1159 13.0659C 77.0273 12.6884 76.8762 12.337 76.6652 12.0155C 76.4339 11.665 76.1331 11.3674 75.7692 11.1277C 75.3137 10.8301 74.7954 10.681 74.2238 10.681C 73.6784 10.681 73.1201 10.8239 72.5639 11.1058C 72.3901 11.1939 72.1246 11.3468 71.364 11.8655C 70.8636 12.2069 70.2319 12.6238 69.4863 13.1049C 68.7548 13.5772 67.9235 14.0846 67.0154 14.6136C 66.135 15.1261 65.2098 15.6071 64.2659 16.0428C 63.3464 16.4676 62.4096 16.8233 61.4814 17.1002C 60.6347 17.3526 59.8396 17.4806 59.1179 17.4806C 58.7093 17.4806 58.3951 17.4069 58.2332 17.2727C 58.1855 17.2333 58.1379 17.194 58.1379 16.9686C 58.1379 16.8146 58.1723 16.4613 58.4029 15.8262C 58.6138 15.2446 58.9086 14.6263 59.2796 13.9882C 59.6683 13.3192 60.1145 12.6477 60.6062 11.9923C 61.0883 11.35 61.5875 10.7705 62.0897 10.2701C 62.4846 9.87694 62.8779 9.54584 63.2615 9.28347C 63.2607 9.31644 63.2598 9.34976 63.2589 9.38308C 63.2486 9.73564 63.2434 10.0212 63.2434 10.2295C 63.2434 10.98 63.4508 11.5893 63.8598 12.0412C 64.5316 12.7864 65.5496 12.7864 65.8842 12.7864C 67.0273 12.7864 68.0567 12.4071 68.8609 11.6896C 69.5255 11.0969 70.0734 10.3556 70.4891 9.4867C 70.8713 8.68685 71.1491 7.82508 71.3149 6.92457C 71.4722 6.06803 71.5519 5.26713 71.5519 4.54317C 71.5519 3.78571 71.4118 3.10013 71.1355 2.50578C 70.8421 1.87655 70.4287 1.36367 69.9063 0.979704C 69.4448 0.641099 68.91 0.391114 68.316 0.236203C 67.7899 0.0997841 67.232 0.0307034 66.6556 0.0307034C 65.1356 0.0307034 63.6191 0.3639 62.148 1.02122C 60.7664 1.63877 59.424 2.46357 58.1578 3.4724C 56.9144 4.4638 55.7472 5.60853 54.6884 6.8752C 53.6451 8.12321 52.7231 9.41291 51.9479 10.7089C 51.3525 11.7038 50.8466 12.7021 50.4394 13.6843C 50.378 13.7192 50.3157 13.7544 50.2526 13.79C 49.4963 14.2171 48.6354 14.6755 47.6936 15.153C 46.7709 15.6208 45.8078 16.0629 44.8307 16.4669C 43.8876 16.8566 42.9236 17.1809 41.9654 17.4308C 41.7247 17.4936 41.4878 17.548 41.2554 17.594C 42.2809 17.1277 43.2146 16.6616 44.0507 16.1981C 45.9449 15.1476 47.4924 14.0915 48.6502 13.0589C 49.8881 11.9553 50.787 10.8214 51.3213 9.68889C 51.8665 8.53299 52.1427 7.38913 52.1427 6.28853C 52.1427 4.38373 51.5586 2.84003 50.4071 1.70053C 49.2659 0.571494 47.6237 0 45.5254 0ZM 40.6346 9.33894C 40.8036 9.15211 40.9806 8.97504 41.1649 8.80862C 41.5771 8.43635 42.0356 8.13263 42.5278 7.90585C 42.6632 7.84339 42.8012 7.79106 42.9425 7.74867C 42.747 7.90742 42.4846 8.09826 42.1337 8.31999C 41.8994 8.46338 41.5471 8.70116 41.0278 9.06628C 40.9032 9.15385 40.7721 9.24474 40.6346 9.33894ZM 9.67855 17.3221C 9.58218 17.2483 9.51524 17.167 9.46276 17.0607C 9.3738 16.8804 9.31787 16.6813 9.29171 16.4524C 9.2499 16.0894 9.22891 15.7374 9.22891 15.4038C 9.22891 14.6439 9.38051 13.9022 9.69249 13.1356C 10.0148 12.343 10.4551 11.6192 11.0013 10.9843C 11.5365 10.3617 12.156 9.85374 12.8431 9.47397C 13.4627 9.13135 14.0765 8.96475 14.7199 8.96475C 14.8369 8.96475 15.0513 8.98411 15.4079 9.07622C 15.6805 9.14705 15.9317 9.25067 16.1733 9.39232C 16.3428 9.49211 16.4842 9.60253 16.6014 9.72744C 16.5632 9.81798 16.5027 9.94847 16.4084 10.1268C 16.1422 10.6306 15.7858 11.2134 15.3485 11.8597C 14.9044 12.5167 14.3956 13.1995 13.8358 13.8898C 13.2867 14.5675 12.7173 15.1966 12.1431 15.7601C 11.6001 16.2932 11.0746 16.7314 10.5802 17.0628C 10.2053 17.314 10.0189 17.3549 9.98984 17.3601C 9.79418 17.3589 9.70281 17.331 9.67855 17.3221Z"/>
</defs>
</svg>
